<svg width="20" height="12" viewBox="0 0 20 12" fill="none" xmlns="http://www.w3.org/2000/svg">
<path d="M12.3452 6.91369C12.3452 8.49745 13.5939 9.2741 14.599 9.2741C15.6041 9.2741 16.8528 8.49745 16.8528 6.91369C16.8528 5.68019 15.6346 4.69034 14.599 4.09644C13.5787 4.70557 12.3452 5.68019 12.3452 6.91369Z" fill="white"/>
<path d="M3.16241 6.94409C3.16241 8.52785 4.41115 9.3045 5.41622 9.3045C6.4213 9.3045 7.67003 8.52785 7.67003 6.94409C7.67003 5.71059 6.45175 4.72074 5.41622 4.12683C4.38069 4.72074 3.16241 5.71059 3.16241 6.94409Z" fill="white"/>
<path d="M0.802063 0V12H19.198V0H0.802063ZM19.1828 2.92386C18.0711 2.92386 16.731 3.13706 15.6802 3.59391C16.8224 4.35533 17.9188 5.49746 17.9188 6.95939C17.9188 8.87817 16.3046 10.3401 14.5381 10.3401C12.7716 10.3401 11.2031 8.87817 11.2031 6.95939C11.2031 5.51269 12.2538 4.35533 13.3807 3.59391C12.33 3.13706 11.0965 2.92386 9.9848 2.92386C8.87313 2.92386 7.63963 3.13706 6.58887 3.59391C7.731 4.35533 8.76653 5.49746 8.76653 6.95939C8.76653 8.87817 7.21323 10.3401 5.43151 10.3401C3.66501 10.3401 2.02034 8.87817 2.02034 6.95939C2.02034 5.51269 3.14724 4.35533 4.27414 3.59391C3.22338 3.13706 1.88328 2.92386 0.771606 2.92386V1.8731C2.6447 1.8731 4.28937 2.34518 5.41628 2.92386C6.54318 2.34518 8.09648 1.8731 9.96958 1.8731C11.8427 1.8731 13.396 2.34518 14.5076 2.92386C15.6346 2.34518 17.2944 1.8731 19.1523 1.8731V2.92386H19.1828Z" fill="white"/>
</svg>
