<svg width="15" height="15" viewBox="0 0 15 15" fill="none" xmlns="http://www.w3.org/2000/svg">
<path d="M14.1848 1.63043H7.04348C6.71739 0.684783 5.80435 0 4.72826 0C3.65217 0 2.77174 0.684783 2.41304 1.63043H0.815217C0.358696 1.63043 0 1.98913 0 2.44565C0 2.90217 0.358696 3.26087 0.815217 3.26087H2.41304C2.73913 4.20652 3.65217 4.8913 4.72826 4.8913C5.80435 4.8913 6.68478 4.20652 7.04348 3.26087H14.1848C14.6413 3.26087 15 2.90217 15 2.44565C15 1.98913 14.6413 1.63043 14.1848 1.63043ZM4.72826 3.26087C4.27174 3.26087 3.91304 2.90217 3.91304 2.44565C3.91304 1.98913 4.27174 1.63043 4.72826 1.63043C5.18478 1.63043 5.54348 1.98913 5.54348 2.44565C5.54348 2.90217 5.18478 3.26087 4.72826 3.26087ZM0 7.5C0 7.95652 0.358696 8.31522 0.815217 8.31522H7.95652C8.28261 9.26087 9.19565 9.94565 10.2717 9.94565C11.3478 9.94565 12.2283 9.26087 12.587 8.31522H14.1848C14.6413 8.31522 15 7.95652 15 7.5C15 7.04348 14.6413 6.68478 14.1848 6.68478H12.587C12.2609 5.73913 11.3478 5.05435 10.2717 5.05435C9.19565 5.05435 8.31522 5.73913 7.95652 6.68478H0.815217C0.358696 6.68478 0 7.04348 0 7.5ZM9.45652 7.5C9.45652 7.04348 9.81522 6.68478 10.2717 6.68478C10.7283 6.68478 11.087 7.04348 11.087 7.5C11.087 7.95652 10.7283 8.31522 10.2717 8.31522C9.81522 8.31522 9.45652 7.95652 9.45652 7.5ZM14.1848 11.7391H7.04348C6.71739 10.7935 5.80435 10.1087 4.72826 10.1087C3.65217 10.1087 2.77174 10.7935 2.41304 11.7391H0.815217C0.358696 11.7391 0 12.0978 0 12.5543C0 13.0109 0.358696 13.3696 0.815217 13.3696H2.41304C2.73913 14.3152 3.65217 15 4.72826 15C5.80435 15 6.68478 14.3152 7.04348 13.3696H14.1848C14.6413 13.3696 15 13.0109 15 12.5543C15 12.0978 14.6413 11.7391 14.1848 11.7391ZM4.72826 13.3696C4.27174 13.3696 3.91304 13.0109 3.91304 12.5543C3.91304 12.0978 4.27174 11.7391 4.72826 11.7391C5.18478 11.7391 5.54348 12.0978 5.54348 12.5543C5.54348 13.0109 5.18478 13.3696 4.72826 13.3696Z" fill="white"/>
</svg>
