<svg width="20" height="14" viewBox="0 0 20 14" fill="none" xmlns="http://www.w3.org/2000/svg">
<path d="M8.76232 7.56523C9.11342 7.84686 9.55006 8.00035 10.0002 8.00035C10.4502 8.00035 10.8869 7.84686 11.238 7.56523L18.3767 1.91305C18.4394 1.86229 18.4905 1.7987 18.5265 1.72656C18.5626 1.65441 18.5828 1.57539 18.5858 1.49478C18.5888 1.4135 18.5741 1.33254 18.5429 1.25742C18.5117 1.18231 18.4646 1.11482 18.405 1.05957C18.0471 0.707587 17.5673 0.507161 17.0654 0.5H2.93492C2.4428 0.50158 1.96904 0.68705 1.60665 1.02C1.54594 1.07474 1.49782 1.142 1.46562 1.21714C1.43342 1.29227 1.4179 1.3735 1.42013 1.45522C1.42301 1.53724 1.44372 1.61764 1.48081 1.69085C1.5179 1.76405 1.57049 1.8283 1.63492 1.87913L8.76232 7.56523Z" fill="white"/>
<path d="M18.8626 12.3356C18.9802 12.0803 19.0419 11.8028 19.0435 11.5217V3.16211L13.4365 7.63299L18.8626 12.3356Z" fill="white"/>
<path d="M6.56351 7.6331L0.956543 3.14526V11.5218C0.958153 11.8029 1.01982 12.0804 1.13741 12.3357L6.56351 7.6331Z" fill="white"/>
<path d="M17.8566 13.3305L12.3175 8.53177L12.1197 8.69004C11.5182 9.17161 10.7706 9.43401 10.0001 9.43401C9.22957 9.43401 8.48201 9.17161 7.88052 8.69004L7.6827 8.52612L2.14355 13.3305C2.39256 13.4417 2.66214 13.4995 2.93486 13.5H17.0653C17.3381 13.4995 17.6076 13.4417 17.8566 13.3305Z" fill="white"/>
</svg>
