<svg width="300" height="128" viewBox="0 0 300 128" fill="none" xmlns="http://www.w3.org/2000/svg">
<g clip-path="url(#clip0_3853_18472)">
<path d="M295.931 47.4677C295.739 47.4677 295.548 47.4677 295.338 47.4677C286.296 47.4677 277.236 47.4677 268.193 47.4677C266.399 47.4677 264.622 47.4677 262.827 47.4677C261.607 47.4677 260.161 47.2761 259.517 48.6176C259.133 49.4017 259.308 50.5864 259.308 51.4227C259.308 53.2173 259.308 54.9945 259.308 56.7891C259.308 66.2324 259.308 75.6756 259.308 85.1364C259.308 90.6072 259.308 96.0781 259.308 101.549C259.308 109.459 259.308 117.352 259.308 125.262C260.684 125.262 262.06 125.262 263.437 125.262C270.685 125.262 277.915 125.262 285.163 125.262C289.415 125.262 293.666 125.262 297.917 125.262C297.9 124.478 297.987 123.624 297.987 122.875C297.987 120.679 297.987 118.484 297.987 116.306C297.987 109.755 297.987 103.204 297.987 96.6356C297.987 89.0914 297.987 81.5472 297.987 74.003C297.987 67.9747 297.987 61.9637 297.987 55.9353C297.987 54.2453 297.987 52.5552 297.987 50.8652C297.987 49.3843 298.022 47.5548 295.931 47.4677ZM262.67 56.911C262.67 55.7959 264.413 55.7959 264.413 56.911C264.413 61.6675 264.413 66.424 264.413 71.1805C264.413 72.2956 262.67 72.2956 262.67 71.1805C262.67 66.424 262.67 61.6675 262.67 56.911ZM273.682 77.8187C270.162 77.8187 266.643 77.8187 263.141 77.8187C262.026 77.8187 262.026 76.0764 263.141 76.0764C264.43 76.0764 265.702 76.0764 266.991 76.0764C272.584 76.0764 278.194 76.0764 283.787 76.0764C287.306 76.0764 290.826 76.0764 294.328 76.0764C295.443 76.0764 295.443 77.8187 294.328 77.8187C293.039 77.8187 291.767 77.8187 290.477 77.8187C284.885 77.8187 279.292 77.8187 273.682 77.8187ZM295.269 86.4257C295.234 93.1161 295.199 99.8066 295.147 106.514C295.129 110.696 295.095 114.878 295.077 119.042C295.077 120.157 293.335 120.157 293.335 119.042C293.352 117.508 293.352 115.975 293.37 114.442C293.404 107.751 293.439 101.061 293.492 94.3532C293.509 90.1716 293.544 85.9901 293.561 81.826C293.561 80.7109 295.304 80.7109 295.304 81.826C295.286 83.3592 295.286 84.8924 295.269 86.4257ZM295.304 52.7295C295.304 57.9564 295.304 63.2007 295.304 68.4277C295.304 69.5427 293.561 69.5427 293.561 68.4277C293.561 67.6959 293.561 66.9641 293.561 66.2149C293.561 63.1136 293.561 60.0297 293.561 56.9284C293.561 55.674 293.561 54.4195 293.561 53.1651C293.561 52.4333 293.753 51.3008 292.708 51.2311C291.592 51.1614 291.592 49.4191 292.708 49.4888C294.154 49.5759 295.234 50.5864 295.304 52.05C295.304 52.2939 295.304 52.5204 295.304 52.7295Z" fill="#E0E0E0"/>
<path d="M296.053 45.7428C296.018 45.7428 295.966 45.7428 295.931 45.7428C287.69 45.7428 279.449 45.7428 271.225 45.7428C267.984 45.7428 264.709 45.6557 261.468 45.7428C259.203 45.7951 257.6 47.4851 257.583 49.7153C257.565 50.8304 257.583 51.9454 257.583 53.0605C257.583 62.8523 257.583 72.644 257.583 82.4358C257.583 88.1331 257.583 93.8479 257.583 99.5452C257.583 108.135 257.583 116.742 257.583 125.331C257.583 125.593 257.583 125.871 257.583 126.133C257.583 126.603 257.983 127.004 258.454 127.004C263.019 127.004 267.584 127.004 272.148 127.004C279.396 127.004 286.627 127.004 293.875 127.004C295.548 127.004 297.203 127.004 298.875 127.004C299.346 127.004 299.746 126.603 299.746 126.133C299.746 123.397 299.746 120.679 299.746 117.944C299.746 111.463 299.746 104.981 299.746 98.4999C299.746 90.8337 299.746 83.1676 299.746 75.5014C299.746 69.2291 299.746 62.9568 299.746 56.6845C299.746 54.8551 299.746 53.0082 299.746 51.1788C299.746 49.9069 299.868 48.5828 299.119 47.4677C298.422 46.4049 297.29 45.8299 296.053 45.7428ZM297.987 50.8826C297.987 52.5727 297.987 54.2627 297.987 55.9527C297.987 61.9811 297.987 67.9921 297.987 74.0205C297.987 81.5646 297.987 89.1088 297.987 96.653C297.987 103.204 297.987 109.755 297.987 116.324C297.987 118.519 297.987 120.714 297.987 122.892C297.987 123.641 297.9 124.478 297.917 125.279C293.666 125.279 289.415 125.279 285.163 125.279C277.915 125.279 270.685 125.279 263.437 125.279C262.06 125.279 260.684 125.279 259.308 125.279C259.308 117.369 259.308 109.476 259.308 101.566C259.308 96.0955 259.308 90.6246 259.308 85.1538C259.308 75.7105 259.308 66.2672 259.308 56.8065C259.308 55.0119 259.308 53.2347 259.308 51.4402C259.308 50.6039 259.133 49.4191 259.517 48.635C260.161 47.2935 261.607 47.4851 262.827 47.4851C264.622 47.4851 266.399 47.4851 268.193 47.4851C277.236 47.4851 286.296 47.4851 295.338 47.4851C295.53 47.4851 295.722 47.4851 295.931 47.4851C298.022 47.5548 297.987 49.3842 297.987 50.8826Z" fill="#5C5B5B"/>
<path d="M292.708 49.5062C291.593 49.4365 291.593 51.1788 292.708 51.2485C293.753 51.3182 293.561 52.4507 293.561 53.1825C293.561 54.4369 293.561 55.6914 293.561 56.9458C293.561 60.0471 293.561 63.131 293.561 66.2323C293.561 66.9641 293.561 67.6959 293.561 68.4451C293.561 69.5601 295.304 69.5601 295.304 68.4451C295.304 63.2181 295.304 57.9738 295.304 52.7469C295.304 52.5204 295.321 52.3113 295.304 52.0848C295.234 50.6038 294.136 49.6107 292.708 49.5062Z" fill="white"/>
<path d="M293.561 81.826C293.544 86.0075 293.509 90.1891 293.492 94.3532C293.457 101.044 293.422 107.734 293.37 114.442C293.352 115.975 293.352 117.508 293.335 119.042C293.335 120.157 295.077 120.157 295.077 119.042C295.095 114.86 295.13 110.679 295.147 106.514C295.182 99.824 295.217 93.1336 295.269 86.4257C295.286 84.8925 295.286 83.3592 295.304 81.826C295.304 80.6935 293.561 80.6935 293.561 81.826Z" fill="white"/>
<path d="M294.328 76.0764C290.808 76.0764 287.289 76.0764 283.787 76.0764C278.194 76.0764 272.584 76.0764 266.991 76.0764C265.702 76.0764 264.43 76.0764 263.141 76.0764C262.025 76.0764 262.025 77.8187 263.141 77.8187C266.66 77.8187 270.179 77.8187 273.681 77.8187C279.274 77.8187 284.884 77.8187 290.477 77.8187C291.767 77.8187 293.039 77.8187 294.328 77.8187C295.46 77.8187 295.46 76.0764 294.328 76.0764Z" fill="#5C5B5B"/>
<path d="M262.67 56.911C262.67 61.6675 262.67 66.424 262.67 71.1805C262.67 72.2956 264.412 72.2956 264.412 71.1805C264.412 66.424 264.412 61.6675 264.412 56.911C264.412 55.7959 262.67 55.7959 262.67 56.911Z" fill="#5C5B5B"/>
<path d="M140.082 34.627C135.604 34.627 131.126 34.627 126.666 34.627C126.666 35.2193 126.666 35.8117 126.666 36.4041C128.112 36.4041 129.575 36.4041 131.022 36.4041C138.548 36.4041 146.075 36.4041 153.619 36.4041C158.097 36.4041 162.575 36.4041 167.035 36.4041C167.035 35.8117 167.035 35.2193 167.035 34.627C165.589 34.627 164.125 34.627 162.679 34.627C155.135 34.627 147.608 34.627 140.082 34.627Z" fill="white"/>
<path d="M232.999 69.8738C232.999 69.264 233.103 69.0898 232.389 68.8981C231.657 68.7064 230.768 68.8284 230.019 68.8284C229.514 68.8284 227.998 68.6542 227.719 69.1594C227.58 69.4034 227.719 70.1177 227.719 70.3791C227.719 71.2851 227.719 72.1736 227.719 73.0796C227.719 74.3864 227.719 75.6931 227.719 76.9998C227.719 77.0347 227.719 77.0521 227.719 77.0869C229.479 77.0869 231.239 77.0869 232.999 77.0869C232.999 77.0521 232.999 77.0347 232.999 76.9998C232.999 75.4317 232.999 73.8637 232.999 72.2956C232.999 71.5116 232.999 70.6927 232.999 69.8738Z" fill="white"/>
<path d="M232.441 66.2498C232.441 66.2324 232.441 66.215 232.441 66.215C232.424 66.215 232.406 66.215 232.371 66.215C232.162 66.1627 231.988 66.1453 231.796 66.1453C231.326 66.1278 230.856 66.1453 230.385 66.1453C229.897 66.1453 229.409 66.1278 228.939 66.1453C228.73 66.1453 228.503 66.1453 228.329 66.2324C228.329 66.2498 228.329 66.2498 228.329 66.2672C228.312 66.3718 228.329 66.5111 228.329 66.6157C228.329 66.8596 228.242 67.0513 228.12 67.1907C228.991 67.0164 229.95 67.1035 230.821 67.1035C231.448 67.1035 232.093 67.0861 232.702 67.2081C232.563 67.0687 232.476 66.877 232.476 66.6157C232.441 66.4937 232.458 66.3718 232.441 66.2498Z" fill="white"/>
<path d="M242.651 69.8738C242.651 69.264 242.755 69.0898 242.041 68.8981C241.309 68.7064 240.421 68.8284 239.672 68.8284C239.166 68.8284 237.651 68.6542 237.372 69.1594C237.232 69.4034 237.372 70.1177 237.372 70.3791C237.372 71.2851 237.372 72.1736 237.372 73.0796C237.372 74.3864 237.372 75.6931 237.372 76.9998C237.372 77.0347 237.372 77.0521 237.372 77.0869C239.131 77.0869 240.891 77.0869 242.651 77.0869C242.651 77.0521 242.651 77.0347 242.651 76.9998C242.651 75.4317 242.651 73.8637 242.651 72.2956C242.651 71.5116 242.651 70.6927 242.651 69.8738Z" fill="white"/>
<path d="M164.944 120.575C164.944 112.717 164.944 104.842 164.944 96.9841C164.944 92.3321 164.944 87.6976 164.944 83.0457C163.603 83.0457 162.261 83.0457 160.902 83.0457C153.863 83.0457 146.807 83.0457 139.768 83.0457C135.604 83.0457 131.44 83.0457 127.258 83.0457C127.258 84.5615 127.258 86.0773 127.258 87.5757C127.258 95.4335 127.258 103.309 127.258 111.166C127.258 116.097 127.258 121.028 127.258 125.976C127.258 126.046 127.258 126.115 127.241 126.185H128.391C128.408 125.767 128.687 125.366 129.227 125.366C130.603 125.366 131.997 125.366 133.374 125.366C139.35 125.366 145.308 125.366 151.285 125.366C155.048 125.366 158.811 125.366 162.575 125.366C163.185 125.366 163.463 125.872 163.411 126.342H165.031C164.979 126.237 164.944 126.115 164.944 125.959C164.944 124.182 164.944 122.387 164.944 120.575ZM143.218 85.0319C145.047 85.0319 146.406 86.4606 146.615 88.1855C146.633 88.2552 146.65 88.3423 146.633 88.4294C146.633 88.5165 146.633 88.6036 146.615 88.6733C146.424 90.4156 145.047 91.8269 143.218 91.8269C141.371 91.8269 139.803 90.2588 139.803 88.412C139.803 86.6 141.353 85.0319 143.218 85.0319ZM134.698 85.0319C136.527 85.0319 137.886 86.4606 138.095 88.1855C138.113 88.2552 138.13 88.3423 138.113 88.4294C138.113 88.5165 138.113 88.6036 138.095 88.6733C137.904 90.4156 136.527 91.8269 134.698 91.8269C132.851 91.8269 131.283 90.2588 131.283 88.412C131.283 86.6 132.834 85.0319 134.698 85.0319ZM159.961 106.131C159.961 106.41 159.857 106.619 159.7 106.758C159.561 106.915 159.351 107.002 159.09 107.002C157.975 107.002 156.86 107.002 155.727 107.002C147.817 107.002 139.925 107.002 132.015 107.002C131.544 107.002 131.143 106.602 131.143 106.131C131.143 103.831 131.143 101.532 131.143 99.2317C131.143 98.7613 131.544 98.3605 132.015 98.3605C133.13 98.3605 134.245 98.3605 135.377 98.3605C143.287 98.3605 151.18 98.3605 159.09 98.3605C159.561 98.3605 159.961 98.7613 159.961 99.2317C159.961 101.532 159.961 103.831 159.961 106.131Z" fill="white"/>
<path d="M167.035 31.3166C167.035 30.0969 167.035 28.8773 167.035 27.6577C167.035 19.3469 167.035 11.0361 167.035 2.72531C165.589 2.72531 164.125 2.72531 162.679 2.72531C155.152 2.72531 147.626 2.72531 140.081 2.72531C135.604 2.72531 131.126 2.72531 126.666 2.72531C126.666 3.64873 126.666 4.58958 126.666 5.513C126.666 14.12 126.666 22.7096 126.666 31.3166C126.666 31.9089 126.178 32.1877 125.725 32.1529V32.8846C125.742 32.8846 125.777 32.8846 125.795 32.8846C127.537 32.8846 129.279 32.8846 131.021 32.8846C138.548 32.8846 146.075 32.8846 153.619 32.8846C158.376 32.8846 163.15 32.8846 167.906 32.8846C167.958 32.8846 168.011 32.8846 168.045 32.9021V32.1529C167.575 32.2226 167.035 31.9438 167.035 31.3166ZM156.128 29.7311C156.128 30.2189 155.727 30.5848 155.257 30.6022C154.787 30.6196 154.386 30.1841 154.386 29.7311C154.386 29.3826 154.386 29.0341 154.386 28.6857C154.386 28.1978 154.787 27.8319 155.257 27.8145C155.727 27.7971 156.128 28.2327 156.128 28.6857C156.128 29.0516 156.128 29.3826 156.128 29.7311ZM160.031 29.7311C160.031 30.2189 159.63 30.5848 159.16 30.6022C158.689 30.6196 158.289 30.1841 158.289 29.7311C158.289 29.3826 158.289 29.0341 158.289 28.6857C158.289 28.1978 158.689 27.8319 159.16 27.8145C159.63 27.7971 160.031 28.2327 160.031 28.6857C160.031 29.0516 160.031 29.3826 160.031 29.7311ZM163.916 29.7311C163.916 30.2189 163.515 30.5848 163.045 30.6022C162.575 30.6196 162.174 30.1841 162.174 29.7311C162.174 29.3826 162.174 29.0341 162.174 28.6857C162.174 28.1978 162.575 27.8319 163.045 27.8145C163.515 27.7971 163.916 28.2327 163.916 28.6857C163.916 29.0516 163.916 29.3826 163.916 29.7311Z" fill="white"/>
<path d="M242.093 66.2498C242.093 66.2324 242.093 66.215 242.093 66.215C242.076 66.215 242.058 66.215 242.023 66.215C241.814 66.1627 241.64 66.1453 241.449 66.1453C240.978 66.1278 240.508 66.1453 240.037 66.1453C239.549 66.1453 239.062 66.1278 238.591 66.1453C238.382 66.1453 238.156 66.1453 237.981 66.2324C237.981 66.2498 237.981 66.2498 237.981 66.2672C237.964 66.3718 237.981 66.5111 237.981 66.6157C237.981 66.8596 237.894 67.0513 237.772 67.1907C238.643 67.0164 239.602 67.1035 240.473 67.1035C241.1 67.1035 241.745 67.0861 242.354 67.2081C242.215 67.0687 242.128 66.877 242.128 66.6157C242.093 66.4937 242.111 66.3718 242.093 66.2498Z" fill="white"/>
<path d="M225.333 78.8641C225.333 79.683 225.333 80.5019 225.333 81.3207C231.448 81.3207 237.563 81.3207 243.679 81.3207C244.202 81.3207 244.742 81.3207 245.264 81.3207C245.264 80.5019 245.264 79.683 245.264 78.8641C244.672 78.8641 244.062 78.8641 243.47 78.8641C237.424 78.8641 231.378 78.8641 225.333 78.8641Z" fill="#BE9C59"/>
<path d="M225.333 78.8641C225.333 79.683 225.333 80.5019 225.333 81.3207C231.448 81.3207 237.563 81.3207 243.679 81.3207C244.202 81.3207 244.742 81.3207 245.264 81.3207C245.264 80.5019 245.264 79.683 245.264 78.8641C244.672 78.8641 244.062 78.8641 243.47 78.8641C237.424 78.8641 231.378 78.8641 225.333 78.8641Z" fill="#E0C184" fill-opacity="0.5"/>
<path d="M239.201 2.72531C232.981 2.72531 226.778 2.72531 220.558 2.72531C213.363 2.72531 206.184 2.72531 198.989 2.72531C193.047 2.72531 187.106 2.72531 181.165 2.72531C178.987 2.72531 176.792 2.72531 174.614 2.72531C174.614 3.63131 174.614 4.51989 174.614 5.42589C174.614 13.6147 174.614 21.7861 174.614 29.975C175.328 29.9576 176.095 30.0447 176.774 30.0447C178.83 30.0447 180.886 30.0447 182.942 30.0447C189.162 30.0447 195.365 30.0447 201.585 30.0447C204.547 30.0447 207.526 30.0447 210.488 30.0447C210.314 29.9053 210.192 29.6962 210.192 29.4C210.192 28.4592 210.192 27.5358 210.192 26.5949C210.192 19.9393 210.192 13.3011 210.192 6.6455C210.192 5.53042 211.934 5.53042 211.934 6.6455C211.934 7.58635 211.934 8.50977 211.934 9.45061C211.934 16.1062 211.934 22.7444 211.934 29.4C211.934 29.6962 211.812 29.9053 211.638 30.0447C215.471 30.0447 219.304 30.0447 223.137 30.0447C229.078 30.0447 235.02 30.0447 240.961 30.0447C243.139 30.0447 245.334 30.0447 247.512 30.0447C247.512 29.1387 247.512 28.2501 247.512 27.3441C247.512 19.1553 247.512 10.9838 247.512 2.795C246.798 2.81243 246.031 2.72531 245.351 2.72531C243.313 2.72531 241.257 2.72531 239.201 2.72531ZM194.65 25.2011C193.03 25.2011 191.41 25.2011 189.789 25.2011C188.674 25.2011 188.674 23.4588 189.789 23.4588C191.41 23.4588 193.03 23.4588 194.65 23.4588C195.765 23.4588 195.765 25.2011 194.65 25.2011ZM233.312 25.2011C231.692 25.2011 230.071 25.2011 228.451 25.2011C227.336 25.2011 227.336 23.4588 228.451 23.4588C230.071 23.4588 231.692 23.4588 233.312 23.4588C234.427 23.4588 234.427 25.2011 233.312 25.2011Z" fill="#BE9C59"/>
<path d="M239.201 2.72531C232.981 2.72531 226.778 2.72531 220.558 2.72531C213.363 2.72531 206.184 2.72531 198.989 2.72531C193.047 2.72531 187.106 2.72531 181.165 2.72531C178.987 2.72531 176.792 2.72531 174.614 2.72531C174.614 3.63131 174.614 4.51989 174.614 5.42589C174.614 13.6147 174.614 21.7861 174.614 29.975C175.328 29.9576 176.095 30.0447 176.774 30.0447C178.83 30.0447 180.886 30.0447 182.942 30.0447C189.162 30.0447 195.365 30.0447 201.585 30.0447C204.547 30.0447 207.526 30.0447 210.488 30.0447C210.314 29.9053 210.192 29.6962 210.192 29.4C210.192 28.4592 210.192 27.5358 210.192 26.5949C210.192 19.9393 210.192 13.3011 210.192 6.6455C210.192 5.53042 211.934 5.53042 211.934 6.6455C211.934 7.58635 211.934 8.50977 211.934 9.45061C211.934 16.1062 211.934 22.7444 211.934 29.4C211.934 29.6962 211.812 29.9053 211.638 30.0447C215.471 30.0447 219.304 30.0447 223.137 30.0447C229.078 30.0447 235.02 30.0447 240.961 30.0447C243.139 30.0447 245.334 30.0447 247.512 30.0447C247.512 29.1387 247.512 28.2501 247.512 27.3441C247.512 19.1553 247.512 10.9838 247.512 2.795C246.798 2.81243 246.031 2.72531 245.351 2.72531C243.313 2.72531 241.257 2.72531 239.201 2.72531ZM194.65 25.2011C193.03 25.2011 191.41 25.2011 189.789 25.2011C188.674 25.2011 188.674 23.4588 189.789 23.4588C191.41 23.4588 193.03 23.4588 194.65 23.4588C195.765 23.4588 195.765 25.2011 194.65 25.2011ZM233.312 25.2011C231.692 25.2011 230.071 25.2011 228.451 25.2011C227.336 25.2011 227.336 23.4588 228.451 23.4588C230.071 23.4588 231.692 23.4588 233.312 23.4588C234.427 23.4588 234.427 25.2011 233.312 25.2011Z" fill="#E0C184" fill-opacity="0.5"/>
<path d="M248.383 0.983008C245.909 0.983008 243.435 0.983008 240.961 0.983008C235.02 0.983008 229.078 0.983008 223.137 0.983008C215.941 0.983008 208.763 0.983008 201.567 0.983008C195.347 0.983008 189.145 0.983008 182.925 0.983008C179.91 0.983008 176.861 0.861046 173.865 0.983008C173.83 0.983008 173.778 0.983008 173.743 0.983008C173.272 0.983008 172.872 1.38374 172.872 1.85416C172.872 10.3392 172.872 18.8416 172.872 27.3267C172.872 28.5114 172.872 29.7136 172.872 30.8984C172.872 31.3688 173.272 31.7696 173.743 31.7696C176.217 31.7696 178.691 31.7696 181.165 31.7696C187.106 31.7696 193.047 31.7696 198.989 31.7696C206.184 31.7696 213.363 31.7696 220.558 31.7696C226.779 31.7696 232.981 31.7696 239.201 31.7696C242.215 31.7696 245.264 31.8915 248.261 31.7696C248.296 31.7696 248.348 31.7696 248.383 31.7696C248.644 31.7696 248.854 31.665 248.993 31.5256C249.15 31.3862 249.254 31.1772 249.254 30.8984C249.254 22.4134 249.254 13.9109 249.254 5.42589C249.254 4.24112 249.254 3.03893 249.254 1.85416C249.254 1.38374 248.871 0.983008 248.383 0.983008ZM247.512 27.3267C247.512 28.2327 247.512 29.1212 247.512 30.0272C245.334 30.0272 243.139 30.0272 240.961 30.0272C235.02 30.0272 229.078 30.0272 223.137 30.0272C219.304 30.0272 215.471 30.0272 211.638 30.0272C211.812 29.8879 211.934 29.6788 211.934 29.3826C211.934 22.727 211.934 16.0888 211.934 9.43319C211.934 8.49235 211.934 7.56892 211.934 6.62808C211.934 5.513 210.192 5.513 210.192 6.62808C210.192 13.2837 210.192 19.9219 210.192 26.5775C210.192 27.5183 210.192 28.4418 210.192 29.3826C210.192 29.6788 210.314 29.8879 210.488 30.0272C207.526 30.0272 204.547 30.0272 201.585 30.0272C195.365 30.0272 189.162 30.0272 182.942 30.0272C180.886 30.0272 178.83 30.0272 176.774 30.0272C176.095 30.0272 175.328 29.9401 174.614 29.9576C174.614 21.7687 174.614 13.5973 174.614 5.40846C174.614 4.50247 174.614 3.61389 174.614 2.70789C176.792 2.70789 178.987 2.70789 181.165 2.70789C187.106 2.70789 193.047 2.70789 198.989 2.70789C206.184 2.70789 213.363 2.70789 220.558 2.70789C226.779 2.70789 232.981 2.70789 239.201 2.70789C241.257 2.70789 243.313 2.70789 245.369 2.70789C246.048 2.70789 246.815 2.79501 247.529 2.77758C247.512 10.9664 247.512 19.1553 247.512 27.3267Z" fill="#5C5B5B"/>
<path d="M144.036 63.9325C142.451 63.9325 141.824 65.9884 143.078 66.9293C143.2 67.0164 143.305 67.1383 143.357 67.2603C143.81 67.2603 144.263 67.2603 144.716 67.2603C144.768 67.1732 144.838 67.0686 144.942 66.9815C146.11 66.0058 145.761 63.9325 144.036 63.9325Z" fill="#BE9C59"/>
<path d="M144.036 63.9325C142.451 63.9325 141.824 65.9884 143.078 66.9293C143.2 67.0164 143.305 67.1383 143.357 67.2603C143.81 67.2603 144.263 67.2603 144.716 67.2603C144.768 67.1732 144.838 67.0686 144.942 66.9815C146.11 66.0058 145.761 63.9325 144.036 63.9325Z" fill="#E0C184" fill-opacity="0.5"/>
<path d="M241.605 93.0639C236.378 93.0639 231.134 93.0639 225.907 93.0639C225.96 93.1684 225.994 93.3078 225.994 93.4646C225.994 94.7191 225.994 95.9561 225.994 97.2106C225.994 102.577 225.994 107.943 225.994 113.327C225.994 116.69 225.994 120.052 225.994 123.415C225.994 124.53 224.252 124.53 224.252 123.415C224.252 122.16 224.252 120.923 224.252 119.669C224.252 114.303 224.252 108.936 224.252 103.553C224.252 100.19 224.252 96.8273 224.252 93.4646C224.252 93.3078 224.287 93.1859 224.339 93.0639C223.311 93.0639 222.301 93.0639 221.273 93.0639C213.397 93.0639 205.54 93.0639 197.664 93.0639C196.689 93.0639 195.713 93.0639 194.737 93.0639C194.79 93.1684 194.825 93.3078 194.825 93.4646C194.825 94.7191 194.825 95.9561 194.825 97.2106C194.825 102.577 194.825 107.943 194.825 113.327C194.825 116.69 194.825 120.052 194.825 123.415C194.825 124.53 193.082 124.53 193.082 123.415C193.082 122.16 193.082 120.923 193.082 119.669C193.082 114.303 193.082 108.936 193.082 103.553C193.082 100.19 193.082 96.8273 193.082 93.4646C193.082 93.3078 193.117 93.1859 193.169 93.0639C188.186 93.0639 183.203 93.0639 178.203 93.0639C175.485 93.0639 172.784 93.0639 170.066 93.0639C168.951 93.0639 168.951 91.3216 170.066 91.3216C170.119 91.3216 170.153 91.3216 170.206 91.3216C173.481 91.1822 176.809 91.3216 180.085 91.3216C186.862 91.3216 193.64 91.3216 200.417 91.3216C202.822 91.3216 205.226 91.3216 207.63 91.3216C207.63 88.6036 207.63 85.903 207.63 83.185C207.63 83.1328 207.63 83.0979 207.648 83.0457C203.466 83.0457 199.267 83.0457 195.086 83.0457C188.204 83.0457 181.304 83.0457 174.422 83.0457C171.843 83.0457 169.265 83.0457 166.686 83.0457C166.686 84.5615 166.686 86.0773 166.686 87.5756C166.686 95.4334 166.686 103.309 166.686 111.166C166.686 116.097 166.686 121.028 166.686 125.976H168.777C168.864 125.645 169.143 125.366 169.579 125.366C169.631 125.366 169.666 125.366 169.718 125.366C172.889 125.227 176.095 125.366 179.266 125.366C185.852 125.366 192.42 125.366 199.006 125.366C206.62 125.366 214.234 125.366 221.848 125.366C228.137 125.366 234.445 125.366 240.734 125.366C243.348 125.366 245.979 125.366 248.592 125.366C249.045 125.366 249.306 125.645 249.394 125.976H251.397C251.397 124.181 251.397 122.369 251.397 120.575C251.397 112.717 251.397 104.842 251.397 96.9841C251.397 95.6774 251.397 94.3706 251.397 93.0639C248.156 93.2033 244.864 93.0639 241.605 93.0639ZM184.022 86.478C185.643 86.478 187.263 86.478 188.883 86.478C189.998 86.478 189.998 88.2203 188.883 88.2203C187.263 88.2203 185.643 88.2203 184.022 88.2203C182.907 88.2203 182.907 86.478 184.022 86.478Z" fill="#BE9C59"/>
<path d="M241.605 93.0639C236.378 93.0639 231.134 93.0639 225.907 93.0639C225.96 93.1684 225.994 93.3078 225.994 93.4646C225.994 94.7191 225.994 95.9561 225.994 97.2106C225.994 102.577 225.994 107.943 225.994 113.327C225.994 116.69 225.994 120.052 225.994 123.415C225.994 124.53 224.252 124.53 224.252 123.415C224.252 122.16 224.252 120.923 224.252 119.669C224.252 114.303 224.252 108.936 224.252 103.553C224.252 100.19 224.252 96.8273 224.252 93.4646C224.252 93.3078 224.287 93.1859 224.339 93.0639C223.311 93.0639 222.301 93.0639 221.273 93.0639C213.397 93.0639 205.54 93.0639 197.664 93.0639C196.689 93.0639 195.713 93.0639 194.737 93.0639C194.79 93.1684 194.825 93.3078 194.825 93.4646C194.825 94.7191 194.825 95.9561 194.825 97.2106C194.825 102.577 194.825 107.943 194.825 113.327C194.825 116.69 194.825 120.052 194.825 123.415C194.825 124.53 193.082 124.53 193.082 123.415C193.082 122.16 193.082 120.923 193.082 119.669C193.082 114.303 193.082 108.936 193.082 103.553C193.082 100.19 193.082 96.8273 193.082 93.4646C193.082 93.3078 193.117 93.1859 193.169 93.0639C188.186 93.0639 183.203 93.0639 178.203 93.0639C175.485 93.0639 172.784 93.0639 170.066 93.0639C168.951 93.0639 168.951 91.3216 170.066 91.3216C170.119 91.3216 170.153 91.3216 170.206 91.3216C173.481 91.1822 176.809 91.3216 180.085 91.3216C186.862 91.3216 193.64 91.3216 200.417 91.3216C202.822 91.3216 205.226 91.3216 207.63 91.3216C207.63 88.6036 207.63 85.903 207.63 83.185C207.63 83.1328 207.63 83.0979 207.648 83.0457C203.466 83.0457 199.267 83.0457 195.086 83.0457C188.204 83.0457 181.304 83.0457 174.422 83.0457C171.843 83.0457 169.265 83.0457 166.686 83.0457C166.686 84.5615 166.686 86.0773 166.686 87.5756C166.686 95.4334 166.686 103.309 166.686 111.166C166.686 116.097 166.686 121.028 166.686 125.976H168.777C168.864 125.645 169.143 125.366 169.579 125.366C169.631 125.366 169.666 125.366 169.718 125.366C172.889 125.227 176.095 125.366 179.266 125.366C185.852 125.366 192.42 125.366 199.006 125.366C206.62 125.366 214.234 125.366 221.848 125.366C228.137 125.366 234.445 125.366 240.734 125.366C243.348 125.366 245.979 125.366 248.592 125.366C249.045 125.366 249.306 125.645 249.394 125.976H251.397C251.397 124.181 251.397 122.369 251.397 120.575C251.397 112.717 251.397 104.842 251.397 96.9841C251.397 95.6774 251.397 94.3706 251.397 93.0639C248.156 93.2033 244.864 93.0639 241.605 93.0639ZM184.022 86.478C185.643 86.478 187.263 86.478 188.883 86.478C189.998 86.478 189.998 88.2203 188.883 88.2203C187.263 88.2203 185.643 88.2203 184.022 88.2203C182.907 88.2203 182.907 86.478 184.022 86.478Z" fill="#E0C184" fill-opacity="0.5"/>
<path d="M248.766 83.0457C246.397 83.0457 244.045 83.0457 241.675 83.0457C234.445 83.0457 227.214 83.0457 220.001 83.0457C216.464 83.0457 212.927 83.0457 209.373 83.0457C209.373 83.0979 209.39 83.1328 209.39 83.185C209.39 85.903 209.39 88.6036 209.39 91.3216C214.269 91.3216 219.147 91.3216 224.026 91.3216C230.507 91.3216 236.988 91.3216 243.47 91.3216C246.118 91.3216 248.766 91.3216 251.397 91.3216C251.397 88.5862 251.397 85.8508 251.397 83.1154C250.544 83.1502 249.603 83.0457 248.766 83.0457ZM233.086 88.2203C231.465 88.2203 229.845 88.2203 228.225 88.2203C227.109 88.2203 227.109 86.478 228.225 86.478C229.845 86.478 231.465 86.478 233.086 86.478C234.201 86.478 234.201 88.2203 233.086 88.2203Z" fill="#BE9C59"/>
<path d="M248.766 83.0457C246.397 83.0457 244.045 83.0457 241.675 83.0457C234.445 83.0457 227.214 83.0457 220.001 83.0457C216.464 83.0457 212.927 83.0457 209.373 83.0457C209.373 83.0979 209.39 83.1328 209.39 83.185C209.39 85.903 209.39 88.6036 209.39 91.3216C214.269 91.3216 219.147 91.3216 224.026 91.3216C230.507 91.3216 236.988 91.3216 243.47 91.3216C246.118 91.3216 248.766 91.3216 251.397 91.3216C251.397 88.5862 251.397 85.8508 251.397 83.1154C250.544 83.1502 249.603 83.0457 248.766 83.0457ZM233.086 88.2203C231.465 88.2203 229.845 88.2203 228.225 88.2203C227.109 88.2203 227.109 86.478 228.225 86.478C229.845 86.478 231.465 86.478 233.086 86.478C234.201 86.478 234.201 88.2203 233.086 88.2203Z" fill="#E0C184" fill-opacity="0.5"/>
<path d="M252.286 81.3033C250.526 81.3033 248.766 81.3033 247.007 81.3033C247.007 80.1882 247.007 79.0906 247.007 77.9755C247.007 77.5051 246.606 77.1044 246.136 77.1044C245.543 77.1044 244.968 77.1044 244.376 77.1044C244.376 77.0695 244.376 77.0521 244.376 77.0172C244.376 75.4143 244.376 73.8288 244.376 72.2259C244.376 70.8495 244.829 68.5845 243.522 67.6785C243.383 67.5739 243.243 67.5042 243.087 67.4346C243.47 67.3823 243.818 67.1035 243.818 66.5982C243.818 65.4832 243.4 64.6991 242.215 64.4552C241.501 64.2984 240.717 64.3855 239.985 64.3855C239.306 64.3855 238.574 64.3158 237.894 64.4378C236.657 64.6469 236.17 65.4483 236.17 66.6157C236.17 67.1209 236.518 67.3997 236.901 67.452C236.17 67.8004 235.647 68.4277 235.612 69.2988C235.577 69.9957 235.612 70.7101 235.612 71.4244C235.612 73.2887 235.612 75.1704 235.612 77.0347C235.612 77.0695 235.612 77.0869 235.612 77.1218C235.298 77.1218 235.002 77.1218 234.689 77.1218C234.689 77.0869 234.689 77.0695 234.689 77.0347C234.689 75.4317 234.689 73.8462 234.689 72.2433C234.689 70.8669 235.142 68.6019 233.835 67.6959C233.696 67.5914 233.556 67.5217 233.399 67.452C233.783 67.3997 234.131 67.1209 234.131 66.6157C234.131 65.5006 233.713 64.7166 232.528 64.4726C231.814 64.3158 231.03 64.4029 230.298 64.4029C229.619 64.4029 228.887 64.3333 228.207 64.4552C226.97 64.6643 226.482 65.4657 226.482 66.6331C226.482 67.1384 226.831 67.4171 227.214 67.4694C226.482 67.8179 225.96 68.4451 225.925 69.3162C225.89 70.0132 225.925 70.7275 225.925 71.4419C225.925 73.3061 225.925 75.1878 225.925 77.0521C225.925 77.0869 225.925 77.1043 225.925 77.1392C225.42 77.1392 224.914 77.1392 224.392 77.1392C223.921 77.1392 223.52 77.5399 223.52 78.0103C223.52 79.1254 223.52 80.2231 223.52 81.3382C223.329 81.3382 223.137 81.3382 222.946 81.3382C214.635 81.3382 206.341 81.3382 198.031 81.3382C190.8 81.3382 183.569 81.3382 176.356 81.3382C172.889 81.3382 169.37 81.1988 165.902 81.3382C165.85 81.3382 165.798 81.3382 165.746 81.3382C161.547 81.3382 157.33 81.3382 153.131 81.3382C153.41 80.9026 153.602 80.4147 153.724 79.892C154.002 78.5853 153.846 77.1392 153.846 75.8325C153.846 75.0659 153.846 74.3167 153.846 73.55C153.846 73.4629 153.863 73.3235 153.881 73.2016C155.24 72.888 156.302 71.7729 156.302 70.2919C156.302 68.6019 154.926 67.3823 153.306 67.2952C152.731 67.2603 152.452 67.7133 152.469 68.1663C152.487 68.5845 152.765 69.0026 153.306 69.0375C154.525 69.1072 155.048 70.7101 153.933 71.3722C153.428 71.6684 152.94 71.4767 152.556 71.982C152.33 72.2607 152.156 72.5744 152.121 72.9228C151.981 74.1076 152.121 75.4143 152.121 76.6165C152.121 77.9232 152.382 79.683 151.459 80.7458C150.797 81.5124 149.804 81.3207 148.898 81.3207C145.779 81.3207 142.66 81.3207 139.541 81.3207C138.757 81.3207 137.938 81.3904 137.137 81.3207C135.395 81.1813 135.377 79.0732 135.377 77.749C135.377 76.1809 135.499 74.578 135.377 73.0099C135.36 72.6789 135.255 72.4698 135.046 72.2085C134.663 71.7381 134.384 71.6509 133.809 71.5116C132.363 71.1631 132.555 69.1072 134.036 69.0201C134.576 68.9852 134.855 68.5671 134.872 68.1489C134.889 67.6959 134.611 67.2429 134.036 67.2777C132.415 67.3649 131.039 68.5845 131.039 70.2745C131.039 71.8077 132.171 72.9577 133.6 73.219C133.618 73.2364 133.618 73.2364 133.635 73.2539C133.635 74.1947 133.635 75.153 133.635 76.0938C133.635 77.1915 133.548 78.324 133.687 79.4042C133.774 80.1011 134.001 80.7632 134.367 81.3382C133.339 81.3382 132.293 81.3382 131.265 81.3382C129.628 81.3382 127.99 81.3382 126.352 81.3382C125.882 81.3382 125.481 81.7389 125.481 82.2093C125.481 87.14 125.481 92.0708 125.481 97.0189C125.481 104.877 125.481 112.752 125.481 120.61C125.481 122.404 125.481 124.216 125.481 126.011C125.481 127.056 126.997 127.126 127.206 126.22H126.335H127.206C127.223 126.15 127.223 126.081 127.223 126.011C127.223 121.08 127.223 116.149 127.223 111.201C127.223 103.343 127.223 95.4683 127.223 87.6105C127.223 86.0946 127.223 84.5788 127.223 83.0805C131.387 83.0805 135.551 83.0805 139.733 83.0805C146.772 83.0805 153.828 83.0805 160.867 83.0805C162.209 83.0805 163.55 83.0805 164.909 83.0805C164.909 87.7324 164.909 92.3669 164.909 97.0189C164.909 104.877 164.909 112.752 164.909 120.61C164.909 122.404 164.909 124.216 164.909 126.011C164.909 126.15 164.944 126.272 164.996 126.394H166.024H164.996C165.345 127.126 166.652 127.004 166.652 126.011C166.652 121.08 166.652 116.149 166.652 111.201C166.652 103.343 166.652 95.4683 166.652 87.6105C166.652 86.0946 166.652 84.5788 166.652 83.0805C169.23 83.0805 171.809 83.0805 174.387 83.0805C181.27 83.0805 188.169 83.0805 195.051 83.0805C199.233 83.0805 203.432 83.0805 207.613 83.0805C207.613 83.1327 207.596 83.1676 207.596 83.2198C207.596 85.9378 207.596 88.6384 207.596 91.3564C205.191 91.3564 202.787 91.3564 200.383 91.3564C193.605 91.3564 186.828 91.3564 180.05 91.3564C176.757 91.3564 173.447 91.217 170.171 91.3564C170.119 91.3564 170.084 91.3564 170.032 91.3564C168.917 91.3564 168.917 93.0987 170.032 93.0987C172.75 93.0987 175.45 93.0987 178.168 93.0987C183.151 93.0987 188.134 93.0987 193.135 93.0987C193.082 93.2033 193.048 93.3426 193.048 93.4994C193.048 96.8621 193.048 100.225 193.048 103.587C193.048 108.954 193.048 114.32 193.048 119.704C193.048 120.958 193.048 122.195 193.048 123.45C193.048 124.565 194.79 124.565 194.79 123.45C194.79 120.087 194.79 116.724 194.79 113.362C194.79 107.995 194.79 102.629 194.79 97.2454C194.79 95.9909 194.79 94.7539 194.79 93.4994C194.79 93.3426 194.755 93.2207 194.703 93.0987C195.678 93.0987 196.654 93.0987 197.63 93.0987C205.505 93.0987 213.363 93.0987 221.238 93.0987C222.266 93.0987 223.277 93.0987 224.305 93.0987C224.252 93.2033 224.217 93.3426 224.217 93.4994C224.217 96.8621 224.217 100.225 224.217 103.587C224.217 108.954 224.217 114.32 224.217 119.704C224.217 120.958 224.217 122.195 224.217 123.45C224.217 124.565 225.96 124.565 225.96 123.45C225.96 120.087 225.96 116.724 225.96 113.362C225.96 107.995 225.96 102.629 225.96 97.2454C225.96 95.9909 225.96 94.7539 225.96 93.4994C225.96 93.3426 225.925 93.2207 225.873 93.0987C231.1 93.0987 236.344 93.0987 241.571 93.0987C244.829 93.0987 248.122 93.2207 251.397 93.0987C251.397 94.4054 251.397 95.7122 251.397 97.0189C251.397 104.877 251.397 112.752 251.397 120.61C251.397 122.404 251.397 124.216 251.397 126.011C251.397 127.126 253.14 127.126 253.14 126.011C253.14 121.08 253.14 116.149 253.14 111.201C253.14 103.343 253.14 95.4683 253.14 87.6105C253.14 85.8159 253.14 84.0039 253.14 82.2093C253.157 81.704 252.756 81.3033 252.286 81.3033ZM237.947 66.6157C237.947 66.5111 237.929 66.3717 237.947 66.2672C237.947 66.2498 237.947 66.2498 237.947 66.2324C238.138 66.1278 238.365 66.1452 238.557 66.1452C239.044 66.1278 239.532 66.1452 240.003 66.1452C240.473 66.1452 240.944 66.1278 241.414 66.1452C241.623 66.1452 241.797 66.1627 241.989 66.2149C242.024 66.2324 242.041 66.2324 242.059 66.2149C242.059 66.2324 242.059 66.2324 242.059 66.2498C242.076 66.3543 242.059 66.4937 242.059 66.5982C242.059 66.8596 242.146 67.0512 242.285 67.1906C241.675 67.0687 241.031 67.0861 240.403 67.0861C239.532 67.0861 238.574 66.999 237.703 67.1732C237.877 67.0512 237.947 66.8596 237.947 66.6157ZM237.389 69.1769C237.668 68.6716 239.166 68.8458 239.689 68.8458C240.438 68.8458 241.327 68.7239 242.059 68.9155C242.773 69.0897 242.668 69.264 242.668 69.8912C242.668 70.7101 242.668 71.529 242.668 72.3479C242.668 73.9159 242.668 75.484 242.668 77.0521C242.668 77.0869 242.668 77.1043 242.668 77.1392C240.909 77.1392 239.149 77.1392 237.389 77.1392C237.389 77.1043 237.389 77.0869 237.389 77.0521C237.389 75.7454 237.389 74.4386 237.389 73.1319C237.389 72.2259 237.389 71.3373 237.389 70.4313C237.389 70.1351 237.267 69.4208 237.389 69.1769ZM228.294 66.6157C228.294 66.5111 228.277 66.3717 228.294 66.2672C228.294 66.2498 228.294 66.2498 228.294 66.2324C228.486 66.1278 228.713 66.1452 228.904 66.1452C229.392 66.1278 229.88 66.1452 230.35 66.1452C230.821 66.1452 231.291 66.1278 231.762 66.1452C231.971 66.1452 232.145 66.1627 232.337 66.2149C232.371 66.2324 232.389 66.2324 232.406 66.2149C232.406 66.2324 232.406 66.2324 232.406 66.2498C232.424 66.3543 232.406 66.4937 232.406 66.5982C232.406 66.8596 232.493 67.0512 232.633 67.1906C232.023 67.0687 231.378 67.0861 230.751 67.0861C229.88 67.0861 228.922 66.999 228.05 67.1732C228.207 67.0512 228.294 66.8596 228.294 66.6157ZM227.737 69.1769C228.016 68.6716 229.514 68.8458 230.037 68.8458C230.786 68.8458 231.674 68.7239 232.406 68.9155C233.121 69.0897 233.016 69.264 233.016 69.8912C233.016 70.7101 233.016 71.529 233.016 72.3479C233.016 73.9159 233.016 75.484 233.016 77.0521C233.016 77.0869 233.016 77.1043 233.016 77.1392C231.256 77.1392 229.497 77.1392 227.737 77.1392C227.737 77.1043 227.737 77.0869 227.737 77.0521C227.737 75.7454 227.737 74.4386 227.737 73.1319C227.737 72.2259 227.737 71.3373 227.737 70.4313C227.737 70.1351 227.597 69.4208 227.737 69.1769ZM225.332 78.8641C231.378 78.8641 237.424 78.8641 243.47 78.8641C244.062 78.8641 244.672 78.8641 245.264 78.8641C245.264 79.683 245.264 80.5018 245.264 81.3207C244.742 81.3207 244.202 81.3207 243.679 81.3207C237.563 81.3207 231.448 81.3207 225.332 81.3207C225.332 80.5018 225.332 79.683 225.332 78.8641ZM251.415 91.3216C248.766 91.3216 246.118 91.3216 243.487 91.3216C237.006 91.3216 230.525 91.3216 224.043 91.3216C219.165 91.3216 214.286 91.3216 209.408 91.3216C209.408 88.6036 209.408 85.903 209.408 83.185C209.408 83.1327 209.408 83.0979 209.39 83.0456C212.927 83.0456 216.464 83.0456 220.018 83.0456C227.249 83.0456 234.48 83.0456 241.693 83.0456C244.062 83.0456 246.414 83.0456 248.784 83.0456C249.62 83.0456 250.561 83.1502 251.432 83.1153C251.415 85.8507 251.415 88.5861 251.415 91.3216Z" fill="#5C5B5B"/>
<path d="M168.045 32.8846V35.5155V32.8846C167.993 32.8846 167.958 32.8672 167.906 32.8672C163.15 32.8672 158.376 32.8672 153.619 32.8672C146.092 32.8672 138.566 32.8672 131.021 32.8672C129.279 32.8672 127.537 32.8672 125.794 32.8672C125.76 32.8672 125.742 32.8672 125.725 32.8672V36.0905V32.8672C125.498 32.8846 125.324 32.9717 125.185 33.1111C125.028 33.2505 124.923 33.4596 124.923 33.7383C124.923 34.9057 124.923 36.0905 124.923 37.2578C124.923 37.7282 125.324 38.129 125.794 38.129C130.551 38.129 135.325 38.129 140.081 38.129C147.608 38.129 155.135 38.129 162.679 38.129C164.421 38.129 166.164 38.129 167.906 38.129C168.376 38.129 168.777 37.7282 168.777 37.2578C168.777 36.0905 168.777 34.9057 168.777 33.7383C168.777 33.3202 168.446 32.9543 168.045 32.8846ZM167.035 36.4041C162.557 36.4041 158.079 36.4041 153.619 36.4041C146.092 36.4041 138.566 36.4041 131.021 36.4041C129.575 36.4041 128.112 36.4041 126.666 36.4041C126.666 35.8117 126.666 35.2193 126.666 34.6269C131.143 34.6269 135.621 34.6269 140.081 34.6269C147.608 34.6269 155.135 34.6269 162.679 34.6269C164.125 34.6269 165.589 34.6269 167.035 34.6269C167.035 35.2193 167.035 35.8117 167.035 36.4041Z" fill="#5C5B5B"/>
<path d="M167.906 0.983002C163.15 0.983002 158.376 0.983002 153.619 0.983002C146.092 0.983002 138.566 0.983002 131.021 0.983002C129.279 0.983002 127.537 0.983002 125.794 0.983002C125.324 0.983002 124.923 1.38373 124.923 1.85415C124.923 10.4611 124.923 19.0507 124.923 27.6577C124.923 28.8773 124.923 30.0969 124.923 31.3165C124.923 31.8392 125.307 32.118 125.725 32.1529V30.8636V32.1529C126.178 32.1877 126.666 31.9089 126.666 31.3165C126.666 22.7096 126.666 14.12 126.666 5.513C126.666 4.58958 126.666 3.64873 126.666 2.72531C131.143 2.72531 135.621 2.72531 140.081 2.72531C147.608 2.72531 155.135 2.72531 162.679 2.72531C164.125 2.72531 165.589 2.72531 167.035 2.72531C167.035 11.0361 167.035 19.3469 167.035 27.6577C167.035 28.8773 167.035 30.0969 167.035 31.3165C167.035 31.9438 167.575 32.2225 168.045 32.1529V30.7939V32.1529C168.429 32.1006 168.777 31.8218 168.777 31.3165C168.777 22.7096 168.777 14.12 168.777 5.513C168.777 4.29338 168.777 3.07377 168.777 1.85415C168.777 1.38373 168.376 0.983002 167.906 0.983002Z" fill="#5C5B5B"/>
<path d="M153.375 69.0026C152.835 68.9678 152.556 68.5496 152.539 68.1315H151.476C151.476 68.567 151.197 69.0026 150.64 69.0026C146.04 69.0026 141.423 69.0026 136.823 69.0026C136.266 69.0026 135.987 68.567 135.987 68.1315H134.942C134.924 68.5496 134.646 68.9678 134.105 69.0026C132.624 69.0897 132.433 71.1457 133.879 71.4941C134.454 71.6335 134.715 71.7206 135.116 72.191C135.325 72.4524 135.43 72.6615 135.447 72.9925C135.569 74.5606 135.447 76.1635 135.447 77.7316C135.447 79.0557 135.464 81.1639 137.207 81.3033C137.991 81.373 138.81 81.3033 139.611 81.3033C142.73 81.3033 145.849 81.3033 148.967 81.3033C149.873 81.3033 150.866 81.4775 151.528 80.7283C152.452 79.6655 152.191 77.9058 152.191 76.5991C152.191 75.3969 152.051 74.0901 152.191 72.9054C152.225 72.5569 152.417 72.2259 152.626 71.9645C153.027 71.4767 153.515 71.6509 154.003 71.3547C155.118 70.6752 154.577 69.0549 153.375 69.0026Z" fill="#BE9C59"/>
<path d="M153.375 69.0026C152.835 68.9678 152.556 68.5496 152.539 68.1315H151.476C151.476 68.567 151.197 69.0026 150.64 69.0026C146.04 69.0026 141.423 69.0026 136.823 69.0026C136.266 69.0026 135.987 68.567 135.987 68.1315H134.942C134.924 68.5496 134.646 68.9678 134.105 69.0026C132.624 69.0897 132.433 71.1457 133.879 71.4941C134.454 71.6335 134.715 71.7206 135.116 72.191C135.325 72.4524 135.43 72.6615 135.447 72.9925C135.569 74.5606 135.447 76.1635 135.447 77.7316C135.447 79.0557 135.464 81.1639 137.207 81.3033C137.991 81.373 138.81 81.3033 139.611 81.3033C142.73 81.3033 145.849 81.3033 148.967 81.3033C149.873 81.3033 150.866 81.4775 151.528 80.7283C152.452 79.6655 152.191 77.9058 152.191 76.5991C152.191 75.3969 152.051 74.0901 152.191 72.9054C152.225 72.5569 152.417 72.2259 152.626 71.9645C153.027 71.4767 153.515 71.6509 154.003 71.3547C155.118 70.6752 154.577 69.0549 153.375 69.0026Z" fill="#E0C184" fill-opacity="0.5"/>
<path d="M150.622 67.2603C149.403 67.2603 148.183 67.2603 146.946 67.2603C148.148 65.0824 146.598 61.9985 143.775 62.2076C142.416 62.3121 141.231 63.2356 140.796 64.5423C140.482 65.5006 140.639 66.4588 141.109 67.2603C139.663 67.2603 138.235 67.2603 136.788 67.2603C136.231 67.2603 135.952 67.6959 135.952 68.1315C135.952 68.567 136.231 69.0026 136.788 69.0026C141.388 69.0026 146.005 69.0026 150.605 69.0026C151.162 69.0026 151.441 68.567 151.441 68.1315C151.476 67.6959 151.197 67.2603 150.622 67.2603ZM144.925 66.9815C144.82 67.0686 144.751 67.1558 144.699 67.2603C144.246 67.2603 143.793 67.2603 143.34 67.2603C143.287 67.1383 143.183 67.0338 143.061 66.9293C141.806 66.0058 142.434 63.9325 144.019 63.9325C145.761 63.9325 146.11 66.0058 144.925 66.9815Z" fill="#5C5B5B"/>
<path d="M184.493 41.9272C184.475 41.9272 184.458 41.9272 184.441 41.9272C184.371 41.9272 184.284 41.962 184.179 42.0143C183.831 42.2408 183.918 42.9726 183.918 43.3385C183.918 45.6906 183.918 48.0427 183.918 50.3948C184.266 50.3774 184.615 50.36 184.946 50.3948C184.946 49.3843 184.946 48.3737 184.946 47.3632C184.946 45.9171 184.963 44.471 184.946 43.0248C184.946 42.659 184.859 41.9795 184.493 41.9272Z" fill="#E0E0E0"/>
<path d="M185.625 52.2068C183.012 51.7015 180.294 52.956 178.917 55.221C177.541 57.5034 177.733 60.5176 179.44 62.5909C181.165 64.6991 184.075 65.5006 186.636 64.5946C189.197 63.6886 190.835 61.2145 190.887 58.5488C190.817 55.4649 188.657 52.7992 185.625 52.2068ZM184.441 64.2984C181.252 64.2287 178.761 61.7372 178.691 58.5488C178.656 57.4337 180.398 57.4337 180.433 58.5488C180.486 60.7789 182.21 62.5038 184.441 62.5561C185.556 62.5735 185.556 64.3158 184.441 64.2984Z" fill="#E0E0E0"/>
<path d="M184.441 62.5561C182.21 62.5039 180.486 60.779 180.433 58.5488C180.398 57.4338 178.656 57.4338 178.691 58.5488C178.761 61.7373 181.252 64.2288 184.441 64.2984C185.556 64.3159 185.556 62.5736 184.441 62.5561Z" fill="#5C5B5B"/>
<path d="M200.33 57.9042C200.261 57.8867 200.191 57.8519 200.139 57.817C199.877 57.6951 199.686 57.4512 199.686 57.0679C199.686 56.4058 199.686 55.7611 199.686 55.099C199.686 50.7956 199.686 46.4746 199.686 42.1711C199.372 42.1711 199.041 42.1711 198.727 42.1711C198.727 42.5544 198.727 42.9378 198.727 43.3036C198.727 47.9208 198.727 52.5553 198.727 57.1724C198.727 57.4512 198.571 57.7996 198.292 57.9216C196.358 58.8276 196.375 60.5873 196.41 62.4342C196.428 63.6015 196.915 64.6643 198.03 65.1522C199.041 65.6052 200.313 65.5006 201.219 64.856C202.195 64.1416 202.317 63.044 202.317 61.9115C202.317 60.2563 202.177 58.5837 200.33 57.9042Z" fill="#E0E0E0"/>
<path d="M213.067 43.5301C213.067 48.3563 213.067 53.1651 213.067 57.9913C213.45 57.9913 213.833 57.9913 214.234 57.9913C214.234 57.5731 214.234 57.1724 214.234 56.7542C214.234 51.8932 214.234 47.0322 214.234 42.1711C213.851 42.1711 213.467 42.1711 213.067 42.1711C213.067 42.6241 213.067 43.0771 213.067 43.5301Z" fill="#E0E0E0"/>
<path d="M223.677 40.1849C218.154 40.1849 212.649 40.1849 207.126 40.1849C198.362 40.1849 189.598 40.1849 180.852 40.1849C178.831 40.1849 176.827 40.1849 174.806 40.1849C173.691 40.1849 173.691 41.9272 174.806 41.9272C177.297 41.9272 179.789 41.9272 182.28 41.9272C182.245 42.0491 182.211 42.1885 182.193 42.3279C182.019 43.6869 182.158 45.133 182.158 46.492C182.158 47.9033 182.158 49.2971 182.158 50.7084C180.59 51.1614 179.162 52.0674 178.116 53.3567C175.956 55.9876 175.642 59.8032 177.402 62.7477C179.179 65.7097 182.681 67.2255 186.061 66.5634C189.824 65.8316 192.473 62.4341 192.595 58.6707C192.595 58.6359 192.595 58.6011 192.595 58.5662C192.595 58.5314 192.595 58.4965 192.595 58.4617C192.49 55.0642 190.399 52.05 187.176 50.8652C187.019 50.8129 186.845 50.7607 186.688 50.7084C186.706 48.0601 186.793 45.4118 186.688 42.7635C186.671 42.4847 186.636 42.2059 186.549 41.9446C188.152 41.9446 189.755 41.9446 191.358 41.9446C193.222 41.9446 195.104 41.9446 196.968 41.9446C196.968 46.3526 196.968 50.7781 196.968 55.1861C196.968 55.674 196.968 56.1792 196.968 56.6671C195.923 57.2943 195.138 58.2874 194.825 59.4548C194.581 60.3259 194.651 61.2494 194.651 62.1379C194.651 63.9151 195.243 65.5877 196.863 66.5111C198.327 67.3649 200.226 67.3823 201.724 66.5808C203.327 65.7271 204.042 64.0719 204.059 62.3122C204.059 61.3016 204.146 60.2214 203.833 59.2457C203.432 58.0087 202.561 57.0678 201.428 56.4929C201.428 52.0848 201.428 47.6594 201.428 43.2513C201.428 42.7983 201.428 42.3628 201.428 41.9098C204.721 41.9098 208.032 41.9098 211.325 41.9098C211.325 46.8405 211.325 51.7886 211.325 56.7194C211.325 57.1375 211.325 57.5382 211.325 57.9564C210.68 57.9564 210.035 57.9564 209.373 57.9564C209.147 57.9564 208.972 58.0261 208.85 58.1306C208.641 58.27 208.502 58.4965 208.502 58.8276C208.572 61.6675 210.837 64.0719 213.746 64.0719C216.656 64.0719 218.904 61.6849 218.991 58.8276C219.008 58.3571 218.59 57.9564 218.12 57.9564C217.405 57.9564 216.691 57.9564 215.976 57.9564C215.976 53.1302 215.976 48.3214 215.976 43.4953C215.976 42.9551 215.976 42.4325 215.976 41.8923C216.534 41.8923 217.092 41.8923 217.649 41.8923C219.67 41.8923 221.674 41.8923 223.695 41.8923C224.81 41.9272 224.81 40.1849 223.677 40.1849ZM184.179 42.0143C184.284 41.962 184.354 41.9272 184.441 41.9272C184.458 41.9272 184.476 41.9272 184.493 41.9272C184.859 41.9795 184.946 42.6589 184.946 43.0074C184.963 44.4535 184.946 45.8996 184.946 47.3458C184.946 48.3563 184.946 49.3668 184.946 50.3774C184.598 50.3599 184.249 50.3599 183.918 50.3774C183.918 48.0253 183.918 45.6731 183.918 43.321C183.918 42.9726 183.831 42.2408 184.179 42.0143ZM190.87 58.5488C190.835 61.2319 189.18 63.6886 186.619 64.5946C184.057 65.5006 181.148 64.6991 179.423 62.5909C177.733 60.5176 177.541 57.5208 178.9 55.221C180.259 52.956 182.995 51.7015 185.608 52.2068C188.657 52.7992 190.818 55.4649 190.87 58.5488ZM202.317 61.9289C202.317 63.0439 202.195 64.159 201.219 64.8734C200.313 65.518 199.041 65.6225 198.031 65.1696C196.916 64.6817 196.428 63.6189 196.41 62.4516C196.376 60.6047 196.358 58.845 198.292 57.939C198.571 57.817 198.728 57.4686 198.728 57.1898C198.728 52.5727 198.728 47.9381 198.728 43.321C198.728 42.9377 198.728 42.5544 198.728 42.1885C199.041 42.1885 199.372 42.1885 199.686 42.1885C199.686 46.492 199.686 50.8129 199.686 55.1164C199.686 55.7785 199.686 56.4232 199.686 57.0852C199.686 57.4511 199.878 57.7125 200.139 57.8344C200.191 57.8693 200.261 57.9041 200.331 57.9216C202.177 58.5836 202.317 60.2562 202.317 61.9289ZM213.067 43.5301C213.067 43.0771 213.067 42.6241 213.067 42.1711C213.45 42.1711 213.833 42.1711 214.234 42.1711C214.234 47.0321 214.234 51.8932 214.234 56.7542C214.234 57.1724 214.234 57.5731 214.234 57.9912C213.851 57.9912 213.468 57.9912 213.067 57.9912C213.067 53.1651 213.067 48.3563 213.067 43.5301ZM217.109 59.7336C216.708 61.2319 215.384 62.3644 213.746 62.3644C212.109 62.3644 210.784 61.2319 210.384 59.7336C212.631 59.7336 214.861 59.7336 217.109 59.7336Z" fill="#5C5B5B"/>
<path d="M213.746 62.3645C215.384 62.3645 216.708 61.232 217.109 59.7336C214.861 59.7336 212.614 59.7336 210.384 59.7336C210.784 61.232 212.108 62.3645 213.746 62.3645Z" fill="#E0E0E0"/>
<path d="M132.886 100.103C132.886 101.828 132.886 103.535 132.886 105.26C133.722 105.26 134.541 105.26 135.377 105.26C142.991 105.26 150.605 105.26 158.219 105.26C158.219 103.535 158.219 101.828 158.219 100.103C157.383 100.103 156.564 100.103 155.727 100.103C148.113 100.103 140.5 100.103 132.886 100.103Z" fill="#E0E0E0"/>
<path d="M159.09 98.3605C151.18 98.3605 143.287 98.3605 135.377 98.3605C134.262 98.3605 133.147 98.3605 132.014 98.3605C131.544 98.3605 131.143 98.7612 131.143 99.2316C131.143 101.531 131.143 103.831 131.143 106.131C131.143 106.602 131.544 107.002 132.014 107.002C139.925 107.002 147.817 107.002 155.727 107.002C156.842 107.002 157.957 107.002 159.09 107.002C159.351 107.002 159.56 106.898 159.7 106.758C159.857 106.619 159.961 106.41 159.961 106.131C159.961 103.831 159.961 101.531 159.961 99.2316C159.961 98.7612 159.56 98.3605 159.09 98.3605ZM158.219 105.26C150.605 105.26 142.991 105.26 135.377 105.26C134.541 105.26 133.722 105.26 132.886 105.26C132.886 103.535 132.886 101.828 132.886 100.103C140.499 100.103 148.113 100.103 155.727 100.103C156.564 100.103 157.382 100.103 158.219 100.103C158.219 101.828 158.219 103.535 158.219 105.26Z" fill="#5C5B5B"/>
<path d="M133.025 88.4468C133.025 90.6072 136.266 90.5898 136.37 88.4468C136.266 86.3037 133.025 86.2863 133.025 88.4468Z" fill="#E0E0E0"/>
<path d="M134.698 85.0319C132.851 85.0319 131.283 86.5999 131.283 88.4468C131.283 90.2936 132.851 91.8617 134.698 91.8617C136.527 91.8617 137.886 90.433 138.095 88.7081C138.113 88.6384 138.13 88.5513 138.113 88.4642C138.113 88.3771 138.113 88.29 138.095 88.2203C137.886 86.4605 136.527 85.0319 134.698 85.0319ZM133.025 88.4468C133.025 86.2863 136.266 86.3037 136.37 88.4468C136.266 90.5898 133.025 90.6072 133.025 88.4468Z" fill="#5C5B5B"/>
<path d="M141.545 88.4468C141.545 90.6072 144.786 90.5898 144.89 88.4468C144.786 86.3037 141.545 86.2863 141.545 88.4468Z" fill="#E0E0E0"/>
<path d="M143.218 85.0319C141.371 85.0319 139.803 86.5999 139.803 88.4468C139.803 90.2936 141.371 91.8617 143.218 91.8617C145.047 91.8617 146.406 90.433 146.615 88.7081C146.633 88.6384 146.65 88.5513 146.633 88.4642C146.633 88.3771 146.633 88.29 146.615 88.2203C146.406 86.4605 145.047 85.0319 143.218 85.0319ZM141.545 88.4468C141.545 86.2863 144.786 86.3037 144.89 88.4468C144.786 90.5898 141.545 90.6072 141.545 88.4468Z" fill="#5C5B5B"/>
<path d="M188.883 86.478C187.263 86.478 185.643 86.478 184.022 86.478C182.907 86.478 182.907 88.2203 184.022 88.2203C185.643 88.2203 187.263 88.2203 188.883 88.2203C189.998 88.2203 189.998 86.478 188.883 86.478Z" fill="#5C5B5B"/>
<path d="M194.65 23.4587C193.03 23.4587 191.41 23.4587 189.789 23.4587C188.674 23.4587 188.674 25.201 189.789 25.201C191.41 25.201 193.03 25.201 194.65 25.201C195.766 25.201 195.766 23.4587 194.65 23.4587Z" fill="#5C5B5B"/>
<path d="M233.312 23.4587C231.692 23.4587 230.072 23.4587 228.451 23.4587C227.336 23.4587 227.336 25.201 228.451 25.201C230.072 25.201 231.692 25.201 233.312 25.201C234.427 25.201 234.427 23.4587 233.312 23.4587Z" fill="#5C5B5B"/>
<path d="M233.086 86.478C231.465 86.478 229.845 86.478 228.225 86.478C227.11 86.478 227.11 88.2203 228.225 88.2203C229.845 88.2203 231.465 88.2203 233.086 88.2203C234.201 88.2203 234.201 86.478 233.086 86.478Z" fill="#5C5B5B"/>
<path d="M162.574 125.384C158.811 125.384 155.048 125.384 151.284 125.384C145.308 125.384 139.35 125.384 133.373 125.384C131.997 125.384 130.603 125.384 129.227 125.384C128.687 125.384 128.408 125.784 128.39 126.202H132.032H128.39C128.373 126.655 128.652 127.126 129.227 127.126C132.99 127.126 136.753 127.126 140.517 127.126C146.493 127.126 152.452 127.126 158.428 127.126C159.804 127.126 161.198 127.126 162.574 127.126C163.08 127.126 163.359 126.76 163.411 126.359H160.153H163.411C163.446 125.889 163.184 125.384 162.574 125.384Z" fill="#5C5B5B"/>
<path d="M248.61 125.384C245.996 125.384 243.365 125.384 240.752 125.384C234.462 125.384 228.155 125.384 221.865 125.384C214.251 125.384 206.637 125.384 199.024 125.384C192.438 125.384 185.869 125.384 179.283 125.384C176.112 125.384 172.906 125.244 169.735 125.384C169.683 125.384 169.648 125.384 169.596 125.384C169.143 125.384 168.882 125.662 168.795 125.993C168.655 126.499 168.917 127.126 169.596 127.126C172.209 127.126 174.84 127.126 177.454 127.126C183.744 127.126 190.051 127.126 196.34 127.126C203.954 127.126 211.568 127.126 219.182 127.126C225.768 127.126 232.337 127.126 238.922 127.126C242.093 127.126 245.299 127.265 248.47 127.126C248.523 127.126 248.557 127.126 248.61 127.126C249.289 127.126 249.55 126.499 249.411 125.993C249.324 125.662 249.045 125.384 248.61 125.384Z" fill="#5C5B5B"/>
<path d="M163.045 27.832C162.575 27.8494 162.174 28.2153 162.174 28.7031C162.174 29.0516 162.174 29.4001 162.174 29.7485C162.174 30.2015 162.575 30.6371 163.045 30.6197C163.515 30.6022 163.916 30.2364 163.916 29.7485C163.916 29.4001 163.916 29.0516 163.916 28.7031C163.916 28.2327 163.515 27.7971 163.045 27.832Z" fill="#5C5B5B"/>
<path d="M159.16 27.832C158.689 27.8494 158.289 28.2153 158.289 28.7031C158.289 29.0516 158.289 29.4001 158.289 29.7485C158.289 30.2015 158.689 30.6371 159.16 30.6197C159.63 30.6022 160.031 30.2364 160.031 29.7485C160.031 29.4001 160.031 29.0516 160.031 28.7031C160.031 28.2327 159.63 27.7971 159.16 27.832Z" fill="#5C5B5B"/>
<path d="M155.257 27.832C154.786 27.8494 154.386 28.2153 154.386 28.7031C154.386 29.0516 154.386 29.4001 154.386 29.7485C154.386 30.2015 154.786 30.6371 155.257 30.6197C155.727 30.6022 156.128 30.2364 156.128 29.7485C156.128 29.4001 156.128 29.0516 156.128 28.7031C156.128 28.2327 155.727 27.7971 155.257 27.832Z" fill="#5C5B5B"/>
<path d="M41.92 0.0595703C45.335 0.0595703 48.7325 0.0595703 52.1474 0.0595703C52.6178 0.0595703 53.0185 0.460301 53.0185 0.930723C53.0185 3.94491 53.0185 6.9591 53.0185 9.95587C56.2244 9.95587 59.4476 9.95587 62.6535 9.95587C63.1239 9.95587 63.5246 10.3566 63.5246 10.827C63.5246 13.8761 63.5246 16.9251 63.5246 19.9741C66.6956 19.9741 69.8666 19.9741 73.0376 19.9741C73.5081 19.9741 73.9088 20.3749 73.9088 20.8453C73.9088 23.8595 73.9088 26.8737 73.9088 29.8704C77.1146 29.8704 80.3379 29.8704 83.5437 29.8704C84.0142 29.8704 84.4149 30.2712 84.4149 30.7416C84.4149 33.7558 84.4149 36.77 84.4149 39.7667C87.6207 39.7667 90.844 39.7667 94.0498 39.7667C94.5203 39.7667 94.921 40.1675 94.921 40.6379C94.921 43.6521 94.921 46.6663 94.921 49.663C98.1268 49.663 101.35 49.663 104.556 49.663C105.026 49.663 105.427 50.0638 105.427 50.5342C105.427 53.5484 105.427 56.5626 105.427 59.5593C108.633 59.5593 111.856 59.5593 115.062 59.5593C115.532 59.5593 115.933 59.9601 115.933 60.4305C115.933 63.2182 115.933 65.9884 115.933 68.7761C115.933 69.8912 114.191 69.8912 114.191 68.7761C114.191 66.2846 114.191 63.7931 114.191 61.3016C111.159 61.3016 108.11 61.3016 105.079 61.3016C104.643 61.3016 104.382 61.0403 104.277 60.7093C103.946 60.6221 103.685 60.3434 103.685 59.9078C103.685 57.0678 103.685 54.2279 103.685 51.3879C100.653 51.3879 97.6041 51.3879 94.5725 51.3879C94.137 51.3879 93.8756 51.1266 93.7711 50.7955C93.44 50.7084 93.1787 50.4296 93.1787 49.9941C93.1787 47.1541 93.1787 44.3142 93.1787 41.4742C90.1471 41.4742 87.098 41.4742 84.0664 41.4742C83.6309 41.4742 83.3695 41.2128 83.265 40.8818C82.9339 40.7947 82.6726 40.5159 82.6726 40.0803C82.6726 37.2404 82.6726 34.4004 82.6726 31.5605C79.641 31.5605 76.5919 31.5605 73.5603 31.5605C73.1248 31.5605 72.8634 31.2991 72.7589 30.9681C72.4278 30.881 72.1665 30.6022 72.1665 30.1666C72.1665 27.3267 72.1665 24.4867 72.1665 21.6467C69.1349 21.6467 66.0858 21.6467 63.0542 21.6467C62.6535 21.6467 62.3921 21.4202 62.2876 21.1415C62.0088 21.0195 61.7823 20.7756 61.7823 20.3749C61.7823 17.4652 61.7823 14.5556 61.7823 11.6459C58.6636 11.6459 55.5449 11.6459 52.4262 11.6459C52.0603 11.6459 51.8163 11.4543 51.6944 11.2103C51.4505 11.0884 51.2762 10.8444 51.2762 10.4786C51.2762 7.56891 51.2762 4.65926 51.2762 1.74961C48.1575 1.74961 45.0388 1.74961 41.92 1.74961C40.805 1.80188 40.805 0.0595703 41.92 0.0595703Z" fill="#5C5B5B"/>
<path d="M61.7125 78.7595C61.6951 78.655 61.6776 78.6898 61.7125 78.7595V78.7595Z" fill="white"/>
<path d="M49.743 89.2657C44.0805 89.2657 38.4354 89.2657 32.7729 89.2657C32.7729 90.0671 32.7729 90.8686 32.7729 91.6526C34.2539 91.6526 35.7174 91.6526 37.1984 91.6526C37.6688 91.6526 38.0696 92.0534 38.0696 92.5238C38.0696 93.9176 38.0696 95.3115 38.0696 96.7053C38.0696 102.769 38.0696 108.832 38.0696 114.895C38.0696 118.414 38.0696 121.916 38.0696 125.436C38.871 125.436 39.6725 125.436 40.4565 125.436C40.4565 124.338 40.4565 123.223 40.4565 122.126C40.4565 116.062 40.4565 109.999 40.4565 103.936C40.4565 100.138 40.4565 96.3394 40.4565 92.5238C40.4565 92.0534 40.8572 91.6526 41.3277 91.6526C42.8957 91.6526 44.4638 91.6526 46.0493 91.6526C51.7641 91.6526 57.4963 91.6526 63.211 91.6526C66.8699 91.6526 70.5461 91.6526 74.205 91.6526C74.6754 91.6526 75.0761 92.0534 75.0761 92.5238C75.0761 93.9176 75.0761 95.3115 75.0761 96.7053C75.0761 102.769 75.0761 108.832 75.0761 114.895C75.0761 118.414 75.0761 121.916 75.0761 125.436C75.8776 125.436 76.679 125.436 77.4631 125.436C77.4631 124.338 77.4631 123.223 77.4631 122.126C77.4631 116.062 77.4631 109.999 77.4631 103.936C77.4631 100.138 77.4631 96.3394 77.4631 92.5238C77.4631 92.0534 77.8638 91.6526 78.3342 91.6526C80.0591 91.6526 81.7666 91.6526 83.4915 91.6526C83.4915 90.8512 83.4915 90.0497 83.4915 89.2657C81.6272 89.2657 79.7804 89.2657 77.9161 89.2657C68.5251 89.2657 59.134 89.2657 49.743 89.2657Z" fill="white"/>
<path d="M84.3625 87.5233C78.4213 87.5233 72.48 87.5233 66.5213 87.5233C65.4411 87.5233 64.3608 87.5233 63.2806 87.5233C63.2458 85.6068 63.0715 83.6729 62.6708 81.7912C62.4966 80.9897 62.2875 80.1882 61.9913 79.439C61.9216 79.2648 61.8519 79.0209 61.7474 78.8641C61.73 78.8292 61.7125 78.8118 61.7125 78.7944C61.7125 78.7595 61.7125 78.7073 61.7125 78.6724C61.7822 76.8604 61.7125 75.0484 61.7125 73.2539C61.7125 72.888 61.4686 72.5744 61.1376 72.435C65.0578 71.0063 69.0476 68.1315 69.0128 63.7409C69.0128 63.1659 68.4553 62.7652 67.9151 62.9046C66.2599 63.3227 64.3608 63.2704 62.7405 63.8977C62.392 63.6712 62.0087 63.5144 61.5906 63.4098C61.277 61.9637 60.0748 60.8486 58.5067 60.8486C56.8863 60.8486 55.5099 62.1379 55.3705 63.7409C54.4994 63.2182 53.5585 62.8 52.6525 62.5387C52.1473 62.3993 51.4852 62.8174 51.5549 63.375C51.8162 65.7968 52.095 68.2012 53.5411 70.2571C54.2903 71.3199 55.4054 72.313 56.6424 72.9925C56.6076 73.0796 56.5901 73.1667 56.5901 73.2713C56.5901 75.0833 56.5379 76.8953 56.5901 78.6899C56.5901 78.7421 56.5901 78.777 56.5901 78.8292C56.5727 78.8467 56.5553 78.8641 56.5379 78.8989C56.4508 79.0383 56.3985 79.23 56.3288 79.3868C56.0326 80.136 55.8061 80.92 55.6319 81.7215C55.2137 83.638 55.0221 85.6242 54.9872 87.5756C49.4467 87.5756 43.9062 87.5756 38.3482 87.5756C36.2052 87.5756 34.0447 87.5756 31.9017 87.5756C31.6403 87.5756 31.4312 87.6802 31.2919 87.8195C31.1351 87.9589 31.0305 88.168 31.0305 88.4468C31.0305 89.8232 31.0305 91.1996 31.0305 92.576C31.0305 93.0465 31.4312 93.4472 31.9017 93.4472C33.3826 93.4472 34.8462 93.4472 36.3271 93.4472C36.3271 96.9666 36.3271 100.469 36.3271 103.988C36.3271 110.051 36.3271 116.115 36.3271 122.178C36.3271 123.572 36.3271 124.966 36.3271 126.359C36.3271 126.83 36.7279 127.231 37.1983 127.231C38.5747 127.231 39.9511 127.231 41.3275 127.231C41.798 127.231 42.1987 126.83 42.1987 126.359C42.1987 122.561 42.1987 118.763 42.1987 114.947C42.1987 108.884 42.1987 102.821 42.1987 96.7576C42.1987 95.6599 42.1987 94.5448 42.1987 93.4472C45.6485 93.4472 49.0808 93.4472 52.5306 93.4472C58.1756 93.4472 63.8381 93.4472 69.4832 93.4472C70.7551 93.4472 72.0444 93.4472 73.3163 93.4472C73.3163 96.9666 73.3163 100.469 73.3163 103.988C73.3163 110.051 73.3163 116.115 73.3163 122.178C73.3163 123.572 73.3163 124.966 73.3163 126.359C73.3163 126.83 73.717 127.231 74.1874 127.231C75.5639 127.231 76.9403 127.231 78.3167 127.231C78.7871 127.231 79.1879 126.83 79.1879 126.359C79.1879 122.561 79.1879 118.763 79.1879 114.947C79.1879 108.884 79.1879 102.821 79.1879 96.7576C79.1879 95.6599 79.1879 94.5448 79.1879 93.4472C80.9127 93.4472 82.6202 93.4472 84.3451 93.4472C84.8155 93.4472 85.2162 93.0465 85.2162 92.576C85.2162 91.1996 85.2162 89.8232 85.2162 88.4468C85.2337 87.9241 84.8504 87.5233 84.3625 87.5233ZM64.3957 66.6679C64.3434 66.1801 64.204 65.7097 63.995 65.2915C65.0055 64.9953 66.1206 64.9256 67.166 64.7862C66.7652 66.8422 65.1797 68.4102 63.2632 69.5253C63.8904 68.9155 64.3086 68.0792 64.3957 67.1558C64.4131 67.0861 64.4131 66.999 64.4131 66.9119C64.4305 66.8247 64.4131 66.7551 64.3957 66.6679ZM61.7125 78.7595C61.6777 78.6899 61.6951 78.655 61.7125 78.7595V78.7595ZM61.5557 87.3317C59.9528 87.3317 58.3499 87.3317 56.7295 87.3317C56.7818 85.5023 56.9386 83.6729 57.3568 81.8783C57.5484 81.0942 57.7749 80.3102 58.106 79.561C58.2628 79.2125 58.2976 78.9686 58.2976 78.6027C58.2976 77.1044 58.2976 75.5885 58.2976 74.0902C58.8552 74.0902 59.3953 74.0902 59.9528 74.0902C59.9528 75.5885 59.9528 77.1044 59.9528 78.6027C59.9528 78.9686 60.0051 79.2125 60.1445 79.561C60.4581 80.2579 60.6846 81.0071 60.8588 81.7563C61.3292 83.5857 61.5035 85.4674 61.5557 87.3317ZM59.9528 70.9889C60.0051 70.8146 60.0573 70.6404 60.1096 70.4662C60.3361 70.5184 60.5626 70.5359 60.8065 70.5359C60.9808 70.5359 61.1376 70.5184 61.3118 70.501C60.8588 70.6752 60.4058 70.8321 59.9528 70.9889ZM62.6708 66.9119C62.5663 69.3162 58.9248 69.3337 58.9423 66.9119C58.9597 64.5075 62.5837 64.5075 62.6708 66.9119ZM59.8134 63.4621C58.9248 63.7234 58.1582 64.3507 57.6878 65.1521C57.3393 64.9256 57.0954 64.5597 57.0954 64.0022C57.0954 62.347 59.2559 62.1902 59.8134 63.4621ZM54.8653 69.0897C53.9941 67.7133 53.6631 66.2149 53.4366 64.6643C54.9175 65.3264 56.4159 66.4066 56.9735 67.8004C57.4265 69.0723 57.7401 70.3268 57.8795 71.6335C56.6773 71.0934 55.5273 70.1351 54.8653 69.0897ZM83.4914 91.67C81.7665 91.67 80.059 91.67 78.3341 91.67C77.8637 91.67 77.463 92.0708 77.463 92.5412C77.463 96.3394 77.463 100.138 77.463 103.953C77.463 110.017 77.463 116.08 77.463 122.143C77.463 123.241 77.463 124.356 77.463 125.453C76.6615 125.453 75.8601 125.453 75.076 125.453C75.076 121.934 75.076 118.432 75.076 114.912C75.076 108.849 75.076 102.786 75.076 96.7227C75.076 95.3289 75.076 93.935 75.076 92.5412C75.076 92.0708 74.6753 91.67 74.2049 91.67C70.546 91.67 66.8698 91.67 63.2109 91.67C57.4961 91.67 51.764 91.67 46.0492 91.67C44.4811 91.67 42.913 91.67 41.3275 91.67C40.8571 91.67 40.4564 92.0708 40.4564 92.5412C40.4564 96.3394 40.4564 100.138 40.4564 103.953C40.4564 110.017 40.4564 116.08 40.4564 122.143C40.4564 123.241 40.4564 124.356 40.4564 125.453C39.6549 125.453 38.8535 125.453 38.0694 125.453C38.0694 121.934 38.0694 118.432 38.0694 114.912C38.0694 108.849 38.0694 102.786 38.0694 96.7227C38.0694 95.3289 38.0694 93.935 38.0694 92.5412C38.0694 92.0708 37.6687 91.67 37.1983 91.67C35.7173 91.67 34.2538 91.67 32.7728 91.67C32.7728 90.8686 32.7728 90.0671 32.7728 89.2831C38.4353 89.2831 44.0804 89.2831 49.7429 89.2831C59.1339 89.2831 68.525 89.2831 77.916 89.2831C79.7803 89.2831 81.6271 89.2831 83.4914 89.2831C83.4914 90.0671 83.4914 90.8686 83.4914 91.67Z" fill="#5C5B5B"/>
<path d="M8.64186 111.132C7.91009 116.01 7.19574 120.888 6.46397 125.784C6.30717 126.882 7.97978 127.352 8.13659 126.255C8.86836 121.376 9.5827 116.498 10.3145 111.602C10.4887 110.504 8.81609 110.034 8.64186 111.132Z" fill="#5C5B5B"/>
<path d="M28.1557 111.898C27.9989 111.236 27.842 110.591 27.6852 109.929C27.4239 108.849 25.7339 109.302 26.0126 110.4C27.1451 115.034 28.2776 119.651 29.4101 124.286C29.5669 124.948 29.7237 125.593 29.8805 126.255C30.1419 127.335 31.8319 126.882 31.5532 125.784C30.4207 121.15 29.2882 116.533 28.1557 111.898Z" fill="#5C5B5B"/>
<path d="M28.5391 103.709C26.3613 103.187 23.8698 103.413 21.6396 103.413C17.6497 103.413 13.6424 103.326 9.66996 103.675C9.23438 103.709 8.36323 103.657 8.08446 104.006C7.78826 104.354 7.87538 105.103 7.8928 105.521C7.91023 105.818 7.94507 106.131 7.97992 106.427V106.445C8.24126 106.48 8.50261 106.602 8.76396 106.654C10.4191 107.002 12.1789 107.02 13.8689 107.089C16.343 107.177 18.8171 107.177 21.3086 107.159C23.2948 107.142 25.281 107.107 27.2673 106.933C27.9468 106.863 28.6263 106.793 29.2709 106.636C29.3754 106.602 29.6368 106.532 29.6891 106.515C29.6542 105.504 29.5323 103.936 28.5391 103.709Z" fill="#BE9C59"/>
<path d="M28.5391 103.709C26.3613 103.187 23.8698 103.413 21.6396 103.413C17.6497 103.413 13.6424 103.326 9.66996 103.675C9.23438 103.709 8.36323 103.657 8.08446 104.006C7.78826 104.354 7.87538 105.103 7.8928 105.521C7.91023 105.818 7.94507 106.131 7.97992 106.427V106.445C8.24126 106.48 8.50261 106.602 8.76396 106.654C10.4191 107.002 12.1789 107.02 13.8689 107.089C16.343 107.177 18.8171 107.177 21.3086 107.159C23.2948 107.142 25.281 107.107 27.2673 106.933C27.9468 106.863 28.6263 106.793 29.2709 106.636C29.3754 106.602 29.6368 106.532 29.6891 106.515C29.6542 105.504 29.5323 103.936 28.5391 103.709Z" fill="#E0C184" fill-opacity="0.5"/>
<path d="M7.92753 106.427C7.91011 106.34 7.823 106.393 7.92753 106.427V106.427Z" fill="#BE9C59"/>
<path d="M7.92753 106.427C7.91011 106.34 7.823 106.393 7.92753 106.427V106.427Z" fill="#E0C184" fill-opacity="0.5"/>
<path d="M30.3161 102.768C29.6889 102.054 28.8178 101.967 27.9292 101.862C26.727 101.723 25.5248 101.688 24.3226 101.671C22.8765 101.653 21.413 101.619 19.932 101.601C19.9494 101.479 19.9494 101.357 19.8971 101.218C18.573 96.4962 18.904 91.7397 18.6601 86.9135C18.5556 85.0318 18.3291 83.1327 17.6147 81.3904C16.8133 79.4216 15.4368 77.5225 13.8688 76.0938C12.1265 74.5083 9.79177 73.3758 7.36996 73.55C5.38373 73.6894 3.57174 74.6825 2.28243 76.1983C-0.78403 79.8572 -0.383299 84.7879 1.28931 88.9694C2.19531 91.2344 3.34524 93.3949 4.23381 95.6773C5.10496 97.9249 5.92385 100.207 6.65562 102.507C6.69046 102.629 6.74273 102.734 6.81243 102.803C6.41169 103.274 6.23746 103.884 6.1852 104.493C6.08066 105.434 5.99354 107.211 6.89954 107.804C8.13658 108.64 10.1228 108.588 11.5515 108.692C14.3043 108.884 17.0746 108.884 19.8449 108.884C22.5803 108.884 25.3506 108.884 28.086 108.553C29.1314 108.431 30.9259 108.309 31.3615 107.159C31.4138 107.055 31.4486 106.915 31.4486 106.758C31.4486 106.689 31.4486 106.619 31.4486 106.567C31.3789 105.295 31.1699 103.744 30.3161 102.768ZM12.6317 77.3483C14.0778 78.6724 15.4194 80.4321 16.0989 82.2964C16.6913 83.8993 16.8655 85.6242 16.9352 87.3142C17.1269 92.1404 16.9004 96.8969 18.1897 101.601C17.5625 101.601 16.9352 101.601 16.3254 101.619C16.3254 101.601 16.3254 101.601 16.3254 101.584C14.6702 93.8827 13.015 86.1643 11.3773 78.4633C11.203 77.6793 11.0462 76.8953 10.872 76.1112C11.5167 76.4423 12.109 76.8604 12.6317 77.3483ZM6.55108 75.4492C7.35254 75.2401 8.18885 75.2401 8.99031 75.4143C8.99031 75.5014 8.99031 75.5885 9.00773 75.6931C10.6629 83.3941 12.3181 91.1125 13.9559 98.8135C14.165 99.7543 14.3566 100.713 14.5657 101.653C13.8513 101.671 13.137 101.706 12.4227 101.741C12.4227 101.723 12.4227 101.706 12.4052 101.688C10.297 94.1963 8.17142 86.7044 6.06323 79.2299C5.76704 78.1846 5.47085 77.1392 5.17466 76.0938C5.17466 76.0764 5.15723 76.059 5.15723 76.0415C5.59281 75.7628 6.04581 75.5711 6.55108 75.4492ZM4.32093 91.4435C2.54377 87.6104 0.470431 83.0804 2.57862 78.9338C2.87481 78.3414 3.25812 77.7664 3.71112 77.2611C5.76704 84.5091 7.80554 91.7571 9.86146 99.0225C10.1228 99.9634 10.4016 100.922 10.6629 101.862C10.2622 101.897 9.87888 101.932 9.47815 101.967C9.11227 102.002 8.72896 102.019 8.34566 102.089V102.072C7.17831 98.4476 5.90643 94.8584 4.32093 91.4435ZM7.9275 106.427C7.82296 106.392 7.91008 106.34 7.9275 106.427V106.427ZM29.2533 106.602C28.5913 106.776 27.9118 106.845 27.2497 106.898C25.2809 107.072 23.2772 107.107 21.291 107.124C18.8169 107.142 16.3428 107.142 13.8513 107.055C12.1613 107.002 10.419 106.967 8.74639 106.619C8.48504 106.567 8.22369 106.445 7.96235 106.41V106.392C7.9275 106.096 7.89266 105.783 7.87523 105.486C7.85781 105.068 7.77069 104.319 8.06689 103.971C8.36308 103.622 9.23423 103.674 9.65238 103.64C13.6248 103.291 17.6496 103.378 21.622 103.378C23.8522 103.378 26.3437 103.169 28.5216 103.674C29.5147 103.901 29.6366 105.469 29.6541 106.462C29.6192 106.497 29.3579 106.584 29.2533 106.602Z" fill="#5C5B5B"/>
<path d="M110.271 73.7591C108.058 73.1842 105.671 73.8114 103.807 75.0658C100.322 77.4005 98.2312 81.3556 97.7782 85.45C97.5343 87.8195 97.6214 90.1891 97.5692 92.576C97.4995 95.5031 97.2207 98.3953 96.4367 101.235C96.3844 101.392 96.3844 101.531 96.4192 101.653C95.6875 101.653 94.9557 101.653 94.2239 101.653C92.6907 101.653 91.1749 101.653 89.6417 101.758C88.6834 101.828 87.3941 101.793 86.5404 102.316C85.2336 103.117 84.9723 105.121 84.9374 106.567C84.9374 106.636 84.92 106.689 84.9374 106.758C84.9374 106.915 84.9723 107.055 85.0245 107.177C85.373 108.1 86.6275 108.326 87.516 108.466C89.7462 108.814 92.0112 108.849 94.2588 108.884C97.1336 108.919 100.026 108.919 102.918 108.814C104.8 108.745 106.908 108.762 108.72 108.17C109.225 107.995 109.765 107.751 109.974 107.229C110.149 106.793 110.149 106.149 110.183 105.696C110.253 104.668 110.114 103.57 109.521 102.856C109.608 102.769 109.661 102.664 109.713 102.525C111.002 98.465 112.553 94.5448 114.348 90.6769C116.264 86.5476 117.484 81.5646 114.923 77.418C113.86 75.6931 112.239 74.2644 110.271 73.7591ZM107.361 75.6931C107.378 75.5885 107.378 75.5014 107.378 75.4143C107.709 75.3446 108.04 75.3098 108.389 75.2923C109.399 75.2749 110.358 75.5363 111.177 76.0415C111.177 76.059 111.159 76.0764 111.159 76.0764C109.051 83.5683 106.925 91.0602 104.817 98.5347C104.521 99.5801 104.225 100.625 103.929 101.671C103.929 101.706 103.911 101.723 103.911 101.758C103.232 101.741 102.535 101.723 101.855 101.723C101.82 101.723 101.786 101.723 101.768 101.723C103.388 94.1267 105.026 86.5302 106.647 78.9338C106.89 77.8361 107.117 76.7559 107.361 75.6931ZM99.3637 88.7255C99.3986 86.9309 99.4509 85.1189 99.9039 83.3766C100.392 81.5124 101.437 79.8398 102.692 78.3936C103.476 77.4876 104.416 76.6688 105.497 76.0938C103.911 83.516 102.326 90.9208 100.723 98.343C100.496 99.4233 100.252 100.504 100.026 101.584C100.026 101.619 100.008 101.653 100.008 101.688C99.3812 101.688 98.7539 101.671 98.1267 101.671C99.3115 97.4196 99.294 93.0987 99.3637 88.7255ZM108.337 106.776C108.197 106.758 108.267 106.636 108.354 106.532C108.354 106.636 108.337 106.776 108.337 106.776ZM108.389 106.305C108.389 106.323 108.389 106.358 108.371 106.427C108.354 106.427 108.354 106.445 108.371 106.427C107.831 106.497 107.291 106.706 106.751 106.776C105.81 106.898 104.852 106.967 103.911 107.002C101.629 107.124 99.3289 107.142 97.0465 107.142C94.6247 107.142 92.2028 107.124 89.781 106.95C88.9796 106.898 88.1607 106.828 87.3767 106.654C87.1502 106.602 86.9237 106.514 86.6972 106.462C86.7146 105.608 86.8017 104.267 87.4464 103.814C87.969 103.448 89.0667 103.535 89.6591 103.5C90.7045 103.431 91.7673 103.413 92.8127 103.413C96.9942 103.378 101.193 103.343 105.375 103.57C106.106 103.605 106.856 103.657 107.57 103.762C108.232 103.849 108.389 103.971 108.459 104.668C108.511 105.208 108.459 105.765 108.389 106.305ZM112.623 90.2065C110.776 94.0221 109.312 97.9946 108.023 102.037C108.023 102.054 108.023 102.072 108.006 102.072C107.239 101.95 106.472 101.88 105.688 101.828C107.779 94.4403 109.87 87.0529 111.943 79.6655C112.17 78.8641 112.396 78.0452 112.623 77.2437C112.797 77.4354 112.954 77.6445 113.111 77.8535C115.794 81.6169 114.47 86.3908 112.623 90.2065Z" fill="#5C5B5B"/>
<path d="M107.256 112.804C107.134 112.177 107.012 111.567 106.873 110.94C106.647 109.842 104.974 110.313 105.2 111.41C106.072 115.731 106.943 120.07 107.831 124.391C107.953 125.018 108.075 125.628 108.215 126.255C108.441 127.352 110.114 126.882 109.887 125.784C109.016 121.463 108.128 117.125 107.256 112.804Z" fill="#5C5B5B"/>
<path d="M87.6556 110.138C86.8193 114.686 86.0004 119.251 85.1641 123.798C85.0421 124.46 84.9202 125.122 84.7982 125.784C84.6066 126.882 86.2792 127.352 86.4708 126.255C87.3071 121.707 88.126 117.143 88.9623 112.595C89.0843 111.933 89.2063 111.271 89.3282 110.609C89.5373 109.511 87.8473 109.041 87.6556 110.138Z" fill="#5C5B5B"/>
<path d="M107.57 103.762C106.838 103.657 106.106 103.622 105.375 103.57C101.193 103.326 96.994 103.378 92.8125 103.413C91.7671 103.431 90.7043 103.448 89.6589 103.5C89.0665 103.535 87.9515 103.465 87.4462 103.814C86.8016 104.267 86.7144 105.608 86.697 106.462C86.9235 106.514 87.15 106.602 87.3765 106.654C88.1606 106.828 88.9794 106.898 89.7809 106.95C92.2027 107.124 94.6245 107.142 97.0463 107.142C99.3287 107.142 101.629 107.124 103.911 107.002C104.869 106.95 105.81 106.898 106.751 106.776C107.308 106.706 107.831 106.497 108.371 106.427C108.354 106.427 108.354 106.427 108.371 106.427C108.371 106.358 108.389 106.323 108.389 106.305C108.441 105.765 108.511 105.208 108.458 104.668C108.389 103.971 108.232 103.849 107.57 103.762Z" fill="#BE9C59"/>
<path d="M107.57 103.762C106.838 103.657 106.106 103.622 105.375 103.57C101.193 103.326 96.994 103.378 92.8125 103.413C91.7671 103.431 90.7043 103.448 89.6589 103.5C89.0665 103.535 87.9515 103.465 87.4462 103.814C86.8016 104.267 86.7144 105.608 86.697 106.462C86.9235 106.514 87.15 106.602 87.3765 106.654C88.1606 106.828 88.9794 106.898 89.7809 106.95C92.2027 107.124 94.6245 107.142 97.0463 107.142C99.3287 107.142 101.629 107.124 103.911 107.002C104.869 106.95 105.81 106.898 106.751 106.776C107.308 106.706 107.831 106.497 108.371 106.427C108.354 106.427 108.354 106.427 108.371 106.427C108.371 106.358 108.389 106.323 108.389 106.305C108.441 105.765 108.511 105.208 108.458 104.668C108.389 103.971 108.232 103.849 107.57 103.762Z" fill="#E0C184" fill-opacity="0.5"/>
<path d="M108.337 106.776C108.337 106.776 108.337 106.654 108.354 106.532C108.267 106.636 108.197 106.741 108.337 106.776Z" fill="#BE9C59"/>
<path d="M108.337 106.776C108.337 106.776 108.337 106.654 108.354 106.532C108.267 106.636 108.197 106.741 108.337 106.776Z" fill="#E0C184" fill-opacity="0.5"/>
<path d="M53.4539 64.6643C53.6629 66.215 53.994 67.7133 54.8825 69.0898C55.5446 70.1351 56.6945 71.0934 57.9142 71.6509C57.7748 70.3442 57.4612 69.0723 57.0082 67.8179C56.4332 66.4066 54.9174 65.3264 53.4539 64.6643Z" fill="#E0E0E0"/>
<path d="M60.1097 70.4487C60.0574 70.623 60.0052 70.7972 59.9529 70.9714C60.4059 70.832 60.8589 70.6578 61.3119 70.4836C61.1551 70.501 60.9808 70.5184 60.8066 70.5184C60.5801 70.5184 60.3362 70.501 60.1097 70.4487Z" fill="#E0E0E0"/>
<path d="M64.3957 66.6679C64.4131 66.7376 64.4131 66.8248 64.4131 66.9119C64.4131 66.999 64.4131 67.0861 64.3957 67.1558C64.2911 68.0792 63.8904 68.9155 63.2632 69.5253C65.1797 68.4102 66.7652 66.8422 67.1659 64.7863C66.1031 64.9256 65.0055 65.0128 63.9949 65.2915C64.204 65.7097 64.3434 66.1801 64.3957 66.6679Z" fill="#E0E0E0"/>
<path d="M60.1793 79.561C60.0225 79.2125 59.9877 78.9686 59.9877 78.6027C59.9877 77.1043 59.9877 75.5885 59.9877 74.0901C59.4301 74.0901 58.89 74.0901 58.3325 74.0901C58.3325 75.5885 58.3325 77.1043 58.3325 78.6027C58.3325 78.9686 58.2802 79.2125 58.1408 79.561C57.8098 80.3102 57.5833 81.0768 57.3916 81.8783C56.9735 83.6554 56.7993 85.5023 56.7644 87.3317C58.3673 87.3317 59.9702 87.3317 61.5906 87.3317C61.5383 85.45 61.3641 83.5857 60.9285 81.7563C60.7194 81.0071 60.4929 80.2753 60.1793 79.561Z" fill="white"/>
<path d="M57.0955 63.9848C57.0955 64.5423 57.3394 64.9082 57.6878 65.1347C58.1583 64.3332 58.9075 63.7234 59.8135 63.4447C59.2559 62.1902 57.0955 62.347 57.0955 63.9848Z" fill="#BE9C59"/>
<path d="M57.0955 63.9848C57.0955 64.5423 57.3394 64.9082 57.6878 65.1347C58.1583 64.3332 58.9075 63.7234 59.8135 63.4447C59.2559 62.1902 57.0955 62.347 57.0955 63.9848Z" fill="#E0C184" fill-opacity="0.5"/>
<path d="M58.9422 66.9119C58.9248 69.3337 62.5662 69.3163 62.6707 66.9119C62.5836 64.5075 58.9596 64.5075 58.9422 66.9119Z" fill="#BE9C59"/>
<path d="M58.9422 66.9119C58.9248 69.3337 62.5662 69.3163 62.6707 66.9119C62.5836 64.5075 58.9596 64.5075 58.9422 66.9119Z" fill="#E0C184" fill-opacity="0.5"/>
</g>
<defs>
<clipPath id="clip0_3853_18472">
<rect width="300" height="127.542" fill="white" transform="translate(0 0.0595703)"/>
</clipPath>
</defs>
</svg>
