<svg width="10" height="10" viewBox="0 0 10 10" fill="none" xmlns="http://www.w3.org/2000/svg">
    <path d="M4.99984 0C3.16187 0 1.6665 1.49537 1.6665 3.33334C1.6665 3.8851 1.80445 4.43217 2.0667 4.9174L4.81756 9.89258C4.85418 9.95891 4.92396 10 4.99984 10C5.07572 10 5.14551 9.95891 5.18213 9.89258L7.934 4.91576C8.19523 4.43217 8.33318 3.88508 8.33318 3.33332C8.33318 1.49537 6.83781 0 4.99984 0ZM4.99984 5C4.08086 5 3.33318 4.25232 3.33318 3.33334C3.33318 2.41436 4.08086 1.66668 4.99984 1.66668C5.91883 1.66668 6.6665 2.41436 6.6665 3.33334C6.6665 4.25232 5.91883 5 4.99984 5Z" fill="#BDBDBD"/>
</svg>
