<?xml version="1.0" encoding="utf-8"?>
<!-- Generator: Adobe Illustrator 25.2.3, SVG Export Plug-In . SVG Version: 6.00 Build 0)  -->
<svg version="1.1" id="Layer_1" xmlns="http://www.w3.org/2000/svg" xmlns:xlink="http://www.w3.org/1999/xlink" x="0px" y="0px"
	 viewBox="0 0 20 20" style="enable-background:new 0 0 20 20;" xml:space="preserve">
<style type="text/css">
	.st0{clip-path:url(#SVGID_2_);}
	.st1{fill:#FFFFFF;}
</style>
<g>
	<defs>
		<rect id="SVGID_1_" width="20" height="20"/>
	</defs>
	<clipPath id="SVGID_2_">
		<use xlink:href="#SVGID_1_"  style="overflow:visible;"/>
	</clipPath>
	<g class="st0">
		<path class="st1" d="M8.3,1.2h3.3v0.6h1.2V1.1c0-0.6-0.5-1.1-1.1-1.1H8.3C7.6,0,7.1,0.5,7.1,1.1v0.6h1.2V1.2z"/>
		<path class="st1" d="M15.7,6.6H4.3C4,6.6,3.8,6.8,3.8,7.1l0.9,11.7C4.8,19.5,5.4,20,6,20h8c0.7,0,1.2-0.5,1.3-1.2l0.9-11.7
			C16.2,6.8,16,6.6,15.7,6.6z M7.1,18.8C7.1,18.8,7.1,18.8,7.1,18.8c-0.4,0-0.6-0.2-0.6-0.6L5.9,8.6c0-0.3,0.2-0.6,0.6-0.6
			c0.3,0,0.6,0.2,0.6,0.6l0.6,9.6C7.7,18.4,7.4,18.7,7.1,18.8z M10.6,18.1c0,0.3-0.3,0.6-0.6,0.6s-0.6-0.3-0.6-0.6V8.5
			c0-0.3,0.3-0.6,0.6-0.6c0.3,0,0.6,0.3,0.6,0.6V18.1z M14.2,8.6l-0.6,9.6c0,0.3-0.3,0.6-0.6,0.6c0,0,0,0,0,0
			c-0.3,0-0.6-0.3-0.6-0.6L13,8.5c0-0.3,0.3-0.6,0.6-0.6C13.9,7.9,14.2,8.2,14.2,8.6z"/>
		<path class="st1" d="M17.8,4.7l-0.4-1.2C17.3,3.2,17,3,16.6,3H3.4C3,3,2.8,3.2,2.6,3.5L2.3,4.7c-0.1,0.2,0,0.5,0.2,0.6
			c0.1,0,0.2,0.1,0.3,0.1h14.6c0.1,0,0.2,0,0.3-0.1C17.7,5.2,17.8,4.9,17.8,4.7z"/>
	</g>
</g>
</svg>
