<svg width="15" height="18" viewBox="0 0 15 18" fill="none" xmlns="http://www.w3.org/2000/svg">
<path d="M13.3418 8.0752C13.3418 12.4502 7.7168 16.2002 7.7168 16.2002C7.7168 16.2002 2.0918 12.4502 2.0918 8.0752C2.0918 6.58335 2.68443 5.15261 3.73932 4.09772C4.79421 3.04283 6.22495 2.4502 7.7168 2.4502C9.20864 2.4502 10.6394 3.04283 11.6943 4.09772C12.7492 5.15261 13.3418 6.58335 13.3418 8.0752Z" stroke="white" stroke-linecap="round" stroke-linejoin="round"/>
<path d="M7.7168 9.9502C8.75233 9.9502 9.5918 9.11073 9.5918 8.0752C9.5918 7.03966 8.75233 6.2002 7.7168 6.2002C6.68126 6.2002 5.8418 7.03966 5.8418 8.0752C5.8418 9.11073 6.68126 9.9502 7.7168 9.9502Z" stroke="white" stroke-linecap="round" stroke-linejoin="round"/>
</svg>
