<svg width="19" height="14" viewBox="0 0 19 14" fill="none" xmlns="http://www.w3.org/2000/svg">
<path d="M8.02306 7.56523C8.37416 7.84686 8.8108 8.00035 9.26089 8.00035C9.71099 8.00035 10.1476 7.84686 10.4987 7.56523L17.6374 1.91305C17.7001 1.86229 17.7512 1.7987 17.7873 1.72656C17.8234 1.65441 17.8436 1.57539 17.8466 1.49478C17.8495 1.4135 17.8349 1.33254 17.8037 1.25742C17.7724 1.18231 17.7254 1.11482 17.6657 1.05957C17.3078 0.707587 16.828 0.507161 16.3261 0.5H2.19566C1.70354 0.50158 1.22979 0.68705 0.867397 1.02C0.806684 1.07474 0.758567 1.142 0.726365 1.21714C0.694163 1.29227 0.678643 1.3735 0.680875 1.45522C0.683754 1.53724 0.704459 1.61764 0.74155 1.69085C0.778641 1.76405 0.831229 1.8283 0.895658 1.87913L8.02306 7.56523Z" fill="white"/>
<path d="M18.1234 12.3356C18.241 12.0803 18.3026 11.8028 18.3042 11.5217V3.16211L12.6973 7.63299L18.1234 12.3356Z" fill="white"/>
<path d="M5.82425 7.63334L0.217285 3.14551V11.522C0.218895 11.8031 0.280562 12.0806 0.398155 12.336L5.82425 7.63334Z" fill="white"/>
<path d="M17.1174 13.3307L11.5782 8.53202L11.3804 8.69028C10.7789 9.17186 10.0314 9.43425 9.26084 9.43425C8.49031 9.43425 7.74276 9.17186 7.14127 8.69028L6.94344 8.52637L1.4043 13.3307C1.65331 13.442 1.92288 13.4997 2.1956 13.5003H16.3261C16.5988 13.4997 16.8684 13.442 17.1174 13.3307Z" fill="white"/>
</svg>
