<?xml version="1.0" encoding="utf-8"?>
<!-- Generator: Adobe Illustrator 25.2.3, SVG Export Plug-In . SVG Version: 6.00 Build 0)  -->
<svg version="1.1" id="Layer_1" xmlns="http://www.w3.org/2000/svg" xmlns:xlink="http://www.w3.org/1999/xlink" x="0px" y="0px"
	 viewBox="0 0 512 512" style="enable-background:new 0 0 512 512;" xml:space="preserve">
<style type="text/css">
	.st0{fill:#FFFFFF;}
</style>
<path class="st0" d="M426.3,115.6C419.8,92.8,398.7,76,373.8,76s-46,16.8-52.5,39.6H0v30h321.3c6.5,22.8,27.6,39.6,52.5,39.6
	s46-16.8,52.5-39.6H512v-30H426.3z M373.8,155.2c-13.6,0-24.6-11-24.6-24.6s11-24.6,24.6-24.6c13.6,0,24.6,11,24.6,24.6
	S387.4,155.2,373.8,155.2z"/>
<path class="st0" d="M96.2,201.5c-24.9,0-46,16.8-52.5,39.6H0v30h43.7c6.5,22.8,27.6,39.6,52.5,39.6s46-16.8,52.5-39.6H512v-30
	H148.7C142.1,218.3,121.1,201.5,96.2,201.5z M96.2,280.7c-13.6,0-24.6-11-24.6-24.6c0-13.6,11-24.6,24.6-24.6
	c13.6,0,24.6,11,24.6,24.6C120.8,269.7,109.7,280.7,96.2,280.7z"/>
<path class="st0" d="M264.4,327c-24.9,0-46,16.8-52.5,39.6H0v30h211.9c6.5,22.8,27.6,39.6,52.5,39.6c24.9,0,46-16.8,52.5-39.6H512
	v-30H316.9C310.4,343.7,289.3,327,264.4,327z M264.4,406.2c-13.6,0-24.6-11-24.6-24.6s11-24.6,24.6-24.6c13.6,0,24.6,11,24.6,24.6
	S278,406.2,264.4,406.2z"/>
</svg>
