<svg width="10" height="10" viewBox="0 0 10 10" fill="none" xmlns="http://www.w3.org/2000/svg">
    <path d="M7.84631 0.355586C7.08197 0.126289 6.07113 0 5 0C3.92887 0 2.91803 0.126289 2.15369 0.355586C1.03551 0.691035 0.800781 1.14396 0.800781 1.46484V7.91016C0.800781 8.39478 1.19506 8.78906 1.67969 8.78906H2.95801L1.82629 10H2.62828L3.76 8.78906H6.23998L7.3717 10H8.17369L7.04197 8.78906H8.32031C8.80494 8.78906 9.19922 8.39478 9.19922 7.91016V1.46484C9.19922 1.14396 8.96449 0.691035 7.84631 0.355586ZM2.75391 7.51953C2.32313 7.51953 1.97266 7.16906 1.97266 6.73828C1.97266 6.3075 2.32313 5.95703 2.75391 5.95703C3.18469 5.95703 3.53516 6.3075 3.53516 6.73828C3.53516 7.16906 3.18469 7.51953 2.75391 7.51953ZM4.70703 4.88281H1.97266V2.14844H4.70703V4.88281ZM7.24609 7.51953C6.81531 7.51953 6.46484 7.16906 6.46484 6.73828C6.46484 6.3075 6.81531 5.95703 7.24609 5.95703C7.67688 5.95703 8.02734 6.3075 8.02734 6.73828C8.02734 7.16906 7.67688 7.51953 7.24609 7.51953ZM8.02734 4.88281H5.29297V2.14844H8.02734V4.88281Z" fill="#BDBDBD"/>
</svg>
