<svg width="29" height="30" viewBox="0 0 29 30" fill="none" xmlns="http://www.w3.org/2000/svg">
<path d="M28.7102 19.0754C28.7102 21.9325 28.7545 24.8737 28.6659 27.7308C28.6659 28.4031 28.3558 29.3275 27.8684 29.6636C27.381 29.9157 26.3176 29.6636 25.7416 29.3275C22.2412 27.3527 18.8295 25.2938 15.3734 23.235C14.6202 22.7728 13.9998 22.3106 14.2214 21.3863C14.4429 20.4619 15.2405 20.3779 16.0823 20.2938C17.9433 19.9997 19.1396 18.5712 19.051 16.8905C18.9624 15.2098 17.5445 13.8653 15.6393 13.8233C14.2214 13.7812 12.7149 13.8653 11.297 13.7812C10.2336 13.7392 9.92347 14.0754 9.92347 15.0838C9.96777 19.3275 9.92347 23.5291 9.92347 27.7728C9.92347 29.7476 9.569 30.0838 7.44219 30.0838C5.66986 30.0838 3.94183 30.0838 2.12519 30.0838C0.530083 30.0838 -0.00161821 29.5796 -0.00161821 28.0249C-0.00161821 22.1006 -0.0459266 16.1342 0.0426902 10.2098C0.0426902 9.53754 0.574391 8.65519 1.1504 8.23502C5.13816 5.62998 9.17022 3.10897 13.2023 0.46191C14.0441 -0.0843085 14.7974 -0.0843085 15.6393 0.46191C19.627 3.02494 23.6148 5.58796 27.6025 8.10897C28.4444 8.65519 28.7545 9.36947 28.7545 10.3359C28.7102 13.193 28.7102 16.1762 28.7102 19.0754ZM25.4757 25.8401C25.5643 25.5039 25.653 25.3359 25.653 25.1678C25.653 20.4199 25.6973 15.714 25.6086 11.0081C25.6086 10.5459 25.1656 9.99972 24.7668 9.74762C21.6209 7.6888 18.3864 5.67199 15.2848 3.61317C14.6645 3.193 14.1771 3.15099 13.5124 3.61317C10.3666 5.71401 7.13204 7.64678 3.98614 9.78964C3.49875 10.0838 3.09997 10.8401 3.09997 11.3863C3.05566 16.2182 3.09997 21.0922 3.05566 25.9241C3.05566 26.8905 3.36582 27.3527 4.38491 27.2266C4.73938 27.1846 5.09385 27.1846 5.44832 27.2266C6.68895 27.3947 7.04342 26.8905 7.04342 25.714C6.99911 21.4283 6.99911 17.1006 7.04342 12.8149C7.04342 11.3022 7.39789 10.9661 8.99299 10.9661C11.2084 10.9661 13.5124 10.9241 15.7279 10.9661C18.4307 11.0081 20.3803 12.2686 21.5323 14.6216C22.5957 16.8485 22.0197 19.4955 20.203 21.2602C19.9372 21.5543 19.627 21.8485 19.3169 22.2266C21.3993 23.4031 23.3489 24.5796 25.4757 25.8401Z" fill="white"/>
</svg>
