<svg width="114" height="80" viewBox="0 0 114 80" fill="none" xmlns="http://www.w3.org/2000/svg">
<path d="M0 74.1556C0 70.81 2.45633 68.3113 5.97141 68.3113C9.4865 68.3113 11.9428 70.7676 11.9428 74.1556C11.9428 77.5013 9.4865 80 5.97141 80C2.45633 80 0 77.5013 0 74.1556ZM10.1641 74.1556C10.1641 71.7417 8.47009 69.9206 5.97141 69.9206C3.47274 69.9206 1.77872 71.6993 1.77872 74.1556C1.77872 76.5696 3.47274 78.3907 5.97141 78.3907C8.47009 78.3483 10.1641 76.5696 10.1641 74.1556Z" fill="white"/>
<path d="M13.3404 74.7487C13.3404 72.25 14.8227 71.0642 16.9825 71.0642C19.1424 71.0642 20.6247 72.25 20.6247 74.7911V74.8757H19.0154V74.7911C19.0154 73.2241 18.2107 72.5888 16.9825 72.5888C15.7544 72.5888 14.9497 73.2241 14.9497 74.7911V79.7884H13.3404V74.7487Z" fill="white"/>
<path d="M21.387 75.4686C21.387 72.6735 23.4622 71.0642 25.7068 71.0642C27.062 71.0642 28.2478 71.6994 28.8407 72.7582V67.5491H30.45V75.4263C30.45 78.179 28.5442 79.9577 25.9609 79.9577C23.2928 79.9577 21.387 78.0943 21.387 75.4686ZM28.8407 75.511C28.8407 73.8169 27.6549 72.5464 25.9609 72.5464C24.2245 72.5464 23.0387 73.7746 23.0387 75.511C23.0387 77.205 24.2245 78.4755 25.9609 78.4755C27.6972 78.4755 28.8407 77.205 28.8407 75.511Z" fill="white"/>
<path d="M31.8052 75.511C31.8052 72.9276 33.7109 71.0642 36.379 71.0642C39.0471 71.0642 40.9105 72.97 40.9105 75.511V76.1039H33.5415C33.7956 77.6285 34.8968 78.4332 36.379 78.4332C37.4801 78.4332 38.2424 78.0944 38.7506 77.3744H40.5294C39.8941 78.9414 38.3271 79.9578 36.379 79.9578C33.7109 79.9578 31.8052 78.0944 31.8052 75.511ZM39.1741 74.664C38.8353 73.3088 37.7342 72.5888 36.379 72.5888C34.9815 72.5888 33.9227 73.3511 33.5839 74.664H39.1741Z" fill="white"/>
<path d="M42.2234 74.7487C42.2234 72.25 43.7057 71.0642 45.8655 71.0642C48.0254 71.0642 49.5077 72.25 49.5077 74.7911V74.8757H47.8983V74.7911C47.8983 73.2241 47.0937 72.5888 45.8655 72.5888C44.6374 72.5888 43.8327 73.2241 43.8327 74.7911V79.7884H42.2234V74.7487Z" fill="white"/>
<path d="M55.5214 68.5232H60.3494C63.1022 68.5232 64.288 70.0478 64.288 72.123C64.288 73.817 63.4833 75.1299 61.7469 75.5534L64.7115 79.7037H62.6363L59.9682 75.6804H57.3001V79.7037H55.5214V68.5232ZM60.3494 74.1135C61.9587 74.1135 62.5092 73.2664 62.5092 72.123C62.5092 70.9795 61.9587 70.1325 60.3494 70.1325H57.2578V74.1135H60.3494Z" fill="white"/>
<path d="M65.5161 75.511C65.5161 72.9276 67.4219 71.0642 70.09 71.0642C72.758 71.0642 74.6215 72.97 74.6215 75.511V76.1039H67.2525C67.5066 77.6285 68.6077 78.4332 70.09 78.4332C71.1911 78.4332 71.9534 78.0944 72.4616 77.3744H74.2403C73.6051 78.9414 72.0381 79.9578 70.09 79.9578C67.4219 79.9578 65.5161 78.0944 65.5161 75.511ZM72.8851 74.664C72.5463 73.3088 71.4452 72.5888 70.09 72.5888C68.6924 72.5888 67.6336 73.3511 67.2948 74.664H72.8851Z" fill="white"/>
<path d="M75.9344 75.3416C75.9344 72.5041 77.6284 71.0642 80.127 71.0642C82.6257 71.0642 84.3197 72.5041 84.3197 75.3416V79.746H82.7104V75.3416C82.7104 73.5205 81.694 72.5465 80.1694 72.5465C78.6448 72.5465 77.6284 73.4782 77.6284 75.3416V79.746H76.019V75.3416H75.9344Z" fill="white"/>
<path d="M85.6326 75.511C85.6326 72.9276 87.5383 71.0642 90.2064 71.0642C92.8745 71.0642 94.7803 72.97 94.7803 75.511C94.7803 78.0944 92.8745 79.9578 90.2064 79.9578C87.5383 79.9578 85.6326 78.0944 85.6326 75.511ZM93.1286 75.511C93.1286 73.817 91.9428 72.5465 90.2064 72.5465C88.47 72.5465 87.2842 73.7746 87.2842 75.511C87.2842 77.205 88.47 78.4755 90.2064 78.4755C91.9428 78.4755 93.1286 77.205 93.1286 75.511Z" fill="white"/>
<path d="M95.2038 71.2759H96.9825L99.7353 78.2637L102.488 71.2759H104.224L100.709 79.746H98.7189L95.2038 71.2759Z" fill="white"/>
<path d="M104.648 75.511C104.648 72.9276 106.554 71.0642 109.222 71.0642C111.89 71.0642 113.753 72.97 113.753 75.511V76.1039H106.384C106.638 77.6285 107.74 78.4332 109.222 78.4332C110.323 78.4332 111.085 78.0944 111.593 77.3744H113.372C112.737 78.9414 111.17 79.9578 109.222 79.9578C106.554 79.9578 104.648 78.0944 104.648 75.511ZM112.017 74.664C111.678 73.3088 110.577 72.5888 109.222 72.5888C107.824 72.5888 106.765 73.3511 106.427 74.664H112.017Z" fill="white"/>
<path d="M88.8513 35.3203C93.044 33.9227 96.1355 31.3817 97.999 27.8242C99.3542 25.2832 100.032 22.234 100.032 18.7189C100.032 8.51244 94.0604 1.05876 80.5082 1.05876H58.1048H57.9354V27.7819V27.8242C57.9354 38.2848 50.7359 45.9079 40.1059 45.9079C29.4759 45.9079 22.3187 38.2425 22.2764 27.8242V27.7819C22.2764 17.3213 29.4759 9.7406 40.1059 9.7406C42.8587 9.7406 45.3997 10.2488 47.6443 11.1805V0.847009C45.2726 0.296453 42.774 0 40.1059 0C23.4198 0 11.6464 11.7734 11.6464 27.7819V27.8242C11.6464 43.8327 23.4198 55.5638 40.1059 55.5638C47.1361 55.5638 53.3192 53.4463 58.1048 49.8041C64.6268 44.8491 68.5654 37.0143 68.5654 27.7819V10.757H80.6776C87.2843 10.757 89.4865 14.1027 89.4865 18.6765C89.4865 23.2504 87.2843 26.6808 80.6776 26.6808H72.1228L89.6136 54.4627H102.022L88.8513 35.3203Z" fill="white"/>
</svg>
