<?xml version="1.0" encoding="utf-8"?>
<!-- Generator: Adobe Illustrator 25.3.1, SVG Export Plug-In . SVG Version: 6.00 Build 0)  -->
<svg version="1.1" id="Layer_1" xmlns="http://www.w3.org/2000/svg" xmlns:xlink="http://www.w3.org/1999/xlink" x="0px" y="0px"
	 viewBox="0 0 263.7 66.8" style="enable-background:new 0 0 263.7 66.8;" xml:space="preserve">
<style type="text/css">
	.st0{fill:#FFFFFF;}
</style>
<g id="Layer_2_1_">
	<g id="LogKnot">
		<path class="st0" d="M23.5,39.5c-3.4,3.4-8.9,3.4-12.3,0c-3.4-3.4-3.4-8.9,0-12.3c3.4-3.4,8.9-3.4,12.3,0l3.1,3.1L47.7,9.4
			C34.4,1.4,17.2,5.8,9.3,19.1S5.7,49.5,19,57.4c8.8,5.3,19.8,5.3,28.7,0L26.6,36.4L23.5,39.5z"/>
		<path class="st0" d="M42,39.5c-0.8,0.8-1.6,1.4-2.6,1.8l-1.3,0.6L51.2,55c2.3-1.9,4.3-4.2,5.9-6.7L45.2,36.4L42,39.5z"/>
		<path class="st0" d="M59.2,44.4c3-7,3-14.9,0-21.9l-11,11L59.2,44.4z"/>
		<path class="st0" d="M39.4,25.5c1,0.4,1.9,1,2.6,1.8l3.1,3.1l11.9-11.9c-1.6-2.5-3.6-4.8-5.9-6.7L38.1,24.9L39.4,25.5z"/>
		<path class="st0" d="M35.9,29c-2.5,0-4.4,2-4.4,4.5s2,4.4,4.5,4.4c1.2,0,2.3-0.5,3.1-1.3l3.2-3.2l-3.2-3.1
			C38.2,29.5,37.1,29,35.9,29z"/>
		<path class="st0" d="M17.3,29c-1.2,0-2.3,0.5-3.1,1.3c-1.7,1.7-1.7,4.6,0,6.3c1.7,1.7,4.6,1.7,6.3,0l3.1-3.2l-3.1-3.1
			C19.6,29.5,18.5,29,17.3,29z"/>
		<path class="st0" d="M33.4,66.8C15,66.8,0,51.8,0,33.4S15,0,33.4,0s33.4,15,33.4,33.4C66.8,51.8,51.8,66.8,33.4,66.8z M33.4,2.1
			c-17.3,0-31.3,14-31.3,31.3s14,31.3,31.3,31.3s31.3-14,31.3-31.3l0,0C64.7,16.1,50.7,2.1,33.4,2.1z"/>
		<polygon class="st0" points="192.7,22 191.1,19.9 173,34.4 173,20.3 170.3,20.3 170.3,49.6 173,49.6 173,35.5 191.1,50 
			192.7,47.9 176.6,34.9 		"/>
		<polygon class="st0" points="88.8,20.3 86,20.3 86,49.6 109.3,49.6 109.3,46.9 88.8,46.9 		"/>
		<path class="st0" d="M123,49.6c-5.1,0-9.3-4.2-9.3-9.3v-2.6c0.2-5.1,4.5-9.2,9.6-9c4.9,0.2,8.8,4.1,9,9v2.6
			C132.3,45.4,128.1,49.6,123,49.6z M123,31c-3.6,0-6.6,3-6.6,6.6v2.6c-0.1,3.6,2.7,6.7,6.3,6.9c3.6,0.1,6.7-2.7,6.9-6.3
			c0-0.2,0-0.3,0-0.5v-2.6C129.6,34,126.7,31,123,31C123,31,123,31,123,31z"/>
		<path class="st0" d="M236.4,49.6c-5.1,0-9.3-4.2-9.3-9.3v-2.6c0.2-5.1,4.5-9.2,9.6-9c4.9,0.2,8.8,4.1,9,9v2.6
			C245.7,45.4,241.6,49.6,236.4,49.6z M236.4,31c-3.6,0-6.6,3-6.6,6.6v2.6c-0.1,3.6,2.7,6.7,6.3,6.9s6.7-2.7,6.9-6.3
			c0-0.2,0-0.3,0-0.5v-2.6C243.1,34,240.1,31,236.4,31C236.4,31,236.4,31,236.4,31L236.4,31z"/>
		<path class="st0" d="M148.5,28.3c-5.1,0-9.3,4.2-9.3,9.3v2.6c0,5.1,4.2,9.3,9.3,9.3h6.6v0.9c0,1.7-1.4,3.1-3.1,3.2H141v2.7h11
			c3.2,0,5.9-2.6,5.9-5.9V28.3H148.5z M148.5,46.9c-3.6,0-6.6-3-6.6-6.6v-2.6c0-3.6,2.9-6.6,6.6-6.6h6.6v15.8H148.5z"/>
		<path class="st0" d="M219.7,49.6H217V34.2c0-1.7-1.4-3.2-3.1-3.2c0,0,0,0-0.1,0h-10v18.6h-2.7V28.3h12.8c3.2,0,5.9,2.6,5.9,5.9
			L219.7,49.6z"/>
		<path class="st0" d="M263.7,49.6h-2.2c-3.2,0-5.9-2.6-5.9-5.9V21.5h2.7v22.2c0,1.7,1.4,3.2,3.2,3.2h2.2V49.6z"/>
		<rect x="251.9" y="28.3" class="st0" width="11.8" height="2.7"/>
	</g>
</g>
</svg>
