<svg width="375" height="223" viewBox="0 0 375 223" fill="none" xmlns="http://www.w3.org/2000/svg">
<rect width="375" height="190" fill="#BE9C59"/>
<rect width="375" height="190" fill="#E0C184" fill-opacity="0.5"/>
<g clip-path="url(#clip0_4513_26603)">
<path d="M226.842 37.4757C221.4 36.3605 215.69 38.9031 212.813 43.6538C209.913 48.449 210.359 54.8278 213.995 59.1101C217.63 63.3701 223.585 64.9759 228.849 63.0578C234.068 61.1397 237.481 56.0545 237.547 50.5455C237.481 44.2337 233.042 38.747 226.842 37.4757ZM235.897 50.6794C235.763 56.166 231.838 61.0728 226.351 62.0319C221.578 62.8794 216.694 60.716 214.173 56.5229C211.675 52.3298 212.121 46.9101 215.177 43.1408C218.233 39.4161 223.519 37.8995 228.091 39.5276C232.774 41.2004 235.852 45.6165 235.919 50.5455C235.897 50.5902 235.897 50.6348 235.897 50.6794Z" fill="#BE9C59"/>
<path d="M226.842 37.4757C221.4 36.3605 215.69 38.9031 212.813 43.6538C209.913 48.449 210.359 54.8278 213.995 59.1101C217.63 63.3701 223.585 64.9759 228.849 63.0578C234.068 61.1397 237.481 56.0545 237.547 50.5455C237.481 44.2337 233.042 38.747 226.842 37.4757ZM235.897 50.6794C235.763 56.166 231.838 61.0728 226.351 62.0319C221.578 62.8794 216.694 60.716 214.173 56.5229C211.675 52.3298 212.121 46.9101 215.177 43.1408C218.233 39.4161 223.519 37.8995 228.091 39.5276C232.774 41.2004 235.852 45.6165 235.919 50.5455C235.897 50.5902 235.897 50.6348 235.897 50.6794Z" fill="#E0C184" fill-opacity="0.5"/>
<path d="M229.585 35.9367C223.496 33.6618 216.337 35.6022 212.233 40.6205C208.107 45.6834 207.482 52.9543 210.872 58.5748C214.263 64.173 220.864 67.0501 227.265 65.8011C234.514 64.396 239.689 57.8388 239.778 50.5455C239.711 44.0552 235.696 38.234 229.585 35.9367ZM228.849 63.0578C223.585 64.9759 217.63 63.3924 213.995 59.1101C210.337 54.8055 209.891 48.449 212.813 43.6538C215.668 38.9031 221.4 36.3605 226.842 37.4757C233.042 38.747 237.481 44.2337 237.57 50.5455C237.503 56.0545 234.068 61.162 228.849 63.0578Z" fill="#5C5B5B"/>
<path d="M226.061 41.2673C222.203 40.4644 218.121 42.3155 216.114 45.6834C214.084 49.0735 214.396 53.5342 216.961 56.5898C219.526 59.6454 223.764 60.7828 227.511 59.4223C231.235 58.0841 233.644 54.4486 233.689 50.5455C233.6 46.0625 230.477 42.1817 226.061 41.2673ZM225.57 50.434C225.57 51.0362 225.057 51.5492 224.455 51.5492C223.273 51.5492 222.091 51.5492 220.909 51.5492C219.482 51.5492 219.482 49.3188 220.909 49.3188C221.712 49.3188 222.537 49.3188 223.34 49.3188C223.34 47.6907 223.34 46.0625 223.34 44.4567C223.34 43.0293 225.57 43.0293 225.57 44.4567C225.57 46.4417 225.57 48.449 225.57 50.434Z" fill="white"/>
<path d="M228.091 39.5276C223.541 37.8995 218.233 39.4161 215.199 43.1631C212.144 46.9324 211.698 52.3521 214.196 56.5452C216.694 60.7159 221.578 62.8794 226.373 62.0542C231.86 61.0951 235.786 56.1883 235.919 50.7017C235.919 50.6571 235.919 50.6125 235.919 50.5678C235.83 45.5942 232.752 41.2004 228.091 39.5276ZM227.489 59.4223C223.742 60.7829 219.504 59.6454 216.939 56.5898C214.396 53.5565 214.062 49.0958 216.092 45.6834C218.099 42.3156 222.18 40.4644 226.039 41.2673C230.455 42.1817 233.6 46.0625 233.667 50.5455C233.622 54.471 231.213 58.0841 227.489 59.4223Z" fill="#5C5B5B"/>
<path d="M223.34 44.4567C223.34 46.0848 223.34 47.713 223.34 49.3188C222.537 49.3188 221.712 49.3188 220.909 49.3188C219.482 49.3188 219.482 51.5492 220.909 51.5492C222.091 51.5492 223.273 51.5492 224.455 51.5492C225.058 51.5492 225.571 51.0362 225.571 50.434C225.571 48.449 225.571 46.4417 225.571 44.4567C225.571 43.0293 223.34 43.007 223.34 44.4567Z" fill="#5C5B5B"/>
<path d="M246.268 216.394C242.633 209.436 238.997 202.499 235.384 195.541C233.265 197.816 229.875 199.065 226.864 198.864C224.433 198.685 222.113 197.949 220.128 196.544C218.099 195.117 216.381 193.31 214.485 191.749C212.367 189.987 209.779 188.047 210.069 184.924C210.159 183.876 210.672 182.649 211.43 181.802C204.917 181.802 198.427 181.802 191.914 181.802C191.892 181.846 191.892 181.891 191.87 181.935C191.714 182.515 191.223 182.85 190.688 182.895C190.665 184.054 190.866 185.192 191.334 186.285C191.424 186.508 191.491 186.731 191.491 186.976C194.301 189.273 196.598 194.024 194.725 197.392C193.81 199.042 192.048 199.399 190.331 199.689C188.323 200.024 186.249 200.269 184.197 200.18C180.339 200.024 176.034 198.596 175.41 194.269C175.164 192.641 175.41 191.214 175.967 189.987C175.967 189.809 176.012 189.63 176.079 189.429C177.127 186.931 177.975 184.367 178.956 181.824C173.67 181.824 168.384 181.824 163.098 181.824C163.21 182.582 163.321 183.341 163.433 184.121C163.923 187.422 166.065 194.738 161.069 195.541C160.957 195.563 160.846 195.585 160.712 195.585C160.6 195.585 160.489 195.585 160.377 195.585C157.522 195.429 156.63 192.574 156.273 190.143C155.894 187.578 155.515 184.991 155.114 182.426C155.091 182.225 155.047 182.025 155.024 181.846C151.946 181.846 148.891 181.846 145.813 181.846C135.799 181.846 125.784 181.846 115.77 181.846C113.25 181.846 110.73 181.846 108.187 181.846C107.986 183.207 107.786 184.59 107.562 185.95C107.273 187.957 106.96 189.965 106.67 191.972C106.313 194.292 105.243 196.79 102.656 196.946C102.544 196.968 102.433 196.968 102.321 196.946C102.187 196.946 102.076 196.923 101.964 196.901C99.5778 196.5 98.7303 194.292 98.7303 192.106C94.0019 201.161 89.2513 210.239 84.5229 219.294C84.6345 219.294 84.746 219.294 84.8352 219.294C86.2626 219.294 87.6677 219.294 89.0952 219.294C93.6897 219.294 98.2842 219.294 102.879 219.294C116.841 219.294 130.803 219.294 144.742 219.294C160.89 219.294 177.038 219.294 193.208 219.294C206.568 219.294 219.928 219.294 233.265 219.294C238.083 219.294 242.9 219.294 247.718 219.294C247.272 218.312 246.781 217.353 246.268 216.394Z" fill="white"/>
<path d="M233.912 110.497C229.473 108.847 224.232 109.494 220.663 112.795C219.08 114.244 218.098 116.698 217.095 118.571C216.805 119.106 216.136 119.33 215.578 119.196C211.028 118.125 205.497 118.95 202.419 122.764C202.04 123.233 201.549 123.3 201.125 123.143C201.059 123.121 201.014 123.099 200.947 123.054C200.947 123.054 200.947 123.054 200.925 123.054C200.88 123.032 200.813 122.987 200.769 122.943C200.769 123.143 200.724 123.389 200.702 123.589C200.791 123.589 200.858 123.567 200.947 123.567C201.059 123.567 201.192 123.545 201.304 123.545C201.906 123.523 202.575 123.567 203.222 123.679C206.857 120.11 212.746 119.954 217.474 121.493C217.92 120.623 218.344 119.731 218.79 118.861C219.526 117.389 220.15 115.806 221.176 114.534C224.656 110.207 230.7 110.743 235.384 112.482C235.406 112.505 235.451 112.505 235.473 112.527C235.428 111.724 235.317 110.921 235.25 110.118C235.228 110.14 235.205 110.163 235.183 110.185C234.915 110.542 234.469 110.72 233.912 110.497Z" fill="white"/>
<path d="M173.291 87.8816C169.12 88.6622 163.923 88.4169 161.336 92.4538C160.31 94.0597 159.73 95.8663 158.994 97.6059C158.124 99.6802 157.121 101.687 156.072 103.65C154.02 107.464 151.812 111.211 149.894 115.092C148.467 117.969 146.883 121.671 149.114 124.571C151.121 127.203 155.381 127.894 157.901 125.53C158.593 124.883 159.485 125.151 159.931 125.731C160.265 125.307 160.578 124.883 160.934 124.482C160.488 124.192 160.109 123.813 159.842 123.344C159.752 123.389 159.663 123.411 159.596 123.456C157.009 124.459 153.262 123.255 151.79 120.868C150.296 118.46 150.719 114.757 152.794 112.795C154.466 111.211 157.076 110.631 159.306 111.189C159.619 109.583 160.667 108.78 161.983 108.379C161.983 107.843 161.96 107.308 161.96 106.773C161.916 105.033 164.615 105.033 164.659 106.773C164.659 107.196 164.681 107.598 164.681 108.022C165.819 107.999 166.979 108.066 167.938 108.089C170.213 108.133 171.975 109.561 172.086 111.925C172.153 113.263 172.086 114.623 172.086 115.962C172.086 117.634 172.109 119.33 172.086 121.002C172.064 123.21 170.748 124.816 168.607 125.128C168.495 125.151 168.384 125.173 168.272 125.173C168.205 125.173 168.138 125.173 168.072 125.173C166.889 125.173 165.707 125.195 164.525 125.195C164.503 128.585 164.57 131.953 164.793 135.343C164.86 136.503 163.678 136.882 162.853 136.481C162.942 136.927 163.031 137.373 163.165 137.797C163.767 137.373 164.86 137.551 165.284 138.31L176.525 133.292C176.324 132.645 176.547 131.797 177.35 131.463C182.301 129.388 187.275 127.292 192.382 125.575C194.011 125.017 195.683 124.459 197.401 124.058C197.311 123.411 197.2 122.764 197.178 122.117C196.598 122.006 196.107 121.582 196.085 120.846C195.929 114.356 196.375 107.843 196.219 101.353C196.174 99.6132 198.873 99.6132 198.917 101.353C199.007 104.765 198.917 108.178 198.828 111.613C199.007 111.746 199.163 111.902 199.319 112.036C199.386 111.925 199.453 111.813 199.564 111.702C200.055 111.211 201.014 111.144 201.482 111.702C202.285 112.661 203.088 113.642 203.891 114.601C204.359 115.159 204.449 115.962 203.891 116.519C203.869 116.542 203.824 116.564 203.802 116.586C204.114 116.898 204.449 117.211 204.783 117.523C207.973 116.006 211.809 115.716 215.266 116.319C215.578 115.716 215.89 115.114 216.225 114.512C215.89 114.334 215.533 114.133 215.221 113.887C215.02 114.512 214.441 115.003 213.638 114.757C210.872 113.91 208.664 111.144 207.66 108.512C206.701 105.992 205.742 103.472 204.783 100.951C203.69 98.0743 202.798 95.041 201.527 92.2308C200.969 90.9818 200.233 89.7551 199.073 88.9745C197.758 88.1046 196.107 87.837 194.568 87.5917C193.52 87.4132 193.386 86.365 193.832 85.6512C193.52 85.4059 193.23 85.1606 192.895 84.9375C192.851 84.9821 192.784 85.0268 192.739 85.0714C192.182 85.4728 191.602 85.8297 190.955 86.0973C189.817 86.588 188.524 86.8556 187.119 86.8333C184.375 86.7887 181.944 85.8297 179.982 84.2461C179.982 84.4246 179.982 84.603 179.959 84.7814C179.915 86.0973 178.353 86.4096 177.617 85.7405C177.573 85.852 177.506 85.9858 177.461 86.0973C177.64 86.1865 177.796 86.3427 177.952 86.5211C179.246 88.3277 182.413 88.7291 184.42 88.8406C186.36 88.9299 189.684 88.9299 191 87.1679C191.022 87.1233 191.066 87.0787 191.089 87.0564C192.159 85.8743 194.345 87.1902 193.319 88.5284C191.312 91.2048 187.52 91.6955 184.398 91.5171C181.275 91.3609 177.528 90.558 175.588 87.8593C174.874 86.8556 175.811 85.8966 176.792 85.8966C177.015 85.8966 177.238 85.9412 177.439 86.0527C177.484 85.9412 177.551 85.8074 177.595 85.6959C177.484 85.5843 177.394 85.4505 177.328 85.2944C177.261 85.1383 177.238 84.9375 177.238 84.7368C177.238 84.6699 177.238 84.5807 177.238 84.5138C177.238 84.4246 177.238 84.3353 177.238 84.2238C176.346 85.0044 175.253 85.5397 174.094 85.8966C174.45 86.6995 174.317 87.7032 173.291 87.8816Z" fill="white"/>
<path d="M292.481 135.232C287.931 135.232 283.359 135.232 278.809 135.232C276.4 135.232 273.991 135.232 271.582 135.232C270.378 135.232 268.125 134.83 268.014 136.615C267.969 137.485 268.281 138.488 268.393 139.336C268.683 141.477 268.995 143.618 269.285 145.759C270.423 153.9 271.538 162.018 272.675 170.159C278.184 170.159 283.693 170.159 289.224 170.159C289.381 168.977 289.559 167.795 289.715 166.635C290.607 160.212 291.499 153.788 292.392 147.365C292.771 144.666 293.128 141.968 293.507 139.291C293.663 137.998 294.555 135.366 292.481 135.232Z" fill="white"/>
<path d="M303.789 75.9492C302.54 79.0271 301.759 82.328 300.131 85.2275C299.127 87.0341 297.7 88.3054 296.272 89.7551C294.399 91.6732 293.685 94.4165 293.105 96.9814C293.105 97.093 293.061 97.2268 293.016 97.3606C292.994 97.4944 292.927 97.6282 292.882 97.7175C291.99 100.104 291.098 102.49 290.184 104.877C290.496 104.721 290.83 104.542 291.187 104.364C293.685 103.048 296.049 101.509 298.168 99.6579C301.023 97.1822 303.075 94.3496 305.038 91.1602C309.008 84.7145 307.023 77.1313 307.491 69.9273C305.952 71.7116 304.703 73.6966 303.789 75.9492Z" fill="#BE9C59"/>
<path d="M303.789 75.9492C302.54 79.0271 301.759 82.328 300.131 85.2275C299.127 87.0341 297.7 88.3054 296.272 89.7551C294.399 91.6732 293.685 94.4165 293.105 96.9814C293.105 97.093 293.061 97.2268 293.016 97.3606C292.994 97.4944 292.927 97.6282 292.882 97.7175C291.99 100.104 291.098 102.49 290.184 104.877C290.496 104.721 290.83 104.542 291.187 104.364C293.685 103.048 296.049 101.509 298.168 99.6579C301.023 97.1822 303.075 94.3496 305.038 91.1602C309.008 84.7145 307.023 77.1313 307.491 69.9273C305.952 71.7116 304.703 73.6966 303.789 75.9492Z" fill="#E0C184" fill-opacity="0.5"/>
<path d="M271.07 102.959C272.408 103.829 273.835 104.587 275.285 105.301C275.508 105.122 275.776 104.988 276.043 104.944C276.467 103.583 276.712 102.156 276.69 100.751C276.266 93.4798 270.021 87.9931 265.271 83.1087C264.111 81.9266 262.884 80.8337 261.345 80.1646C260.275 79.6962 259.093 79.4509 257.977 79.1163C257.42 78.9602 256.862 78.7818 256.327 78.6257C257.108 79.6516 257.866 80.6999 258.624 81.7481C259.672 83.2202 260.81 84.6922 261.613 86.3204C262.594 88.35 263.063 90.5357 263.709 92.6992C264.445 95.1749 265.672 97.0707 267.389 98.9888C268.527 100.305 269.598 102 271.07 102.959Z" fill="#BE9C59"/>
<path d="M271.07 102.959C272.408 103.829 273.835 104.587 275.285 105.301C275.508 105.122 275.776 104.988 276.043 104.944C276.467 103.583 276.712 102.156 276.69 100.751C276.266 93.4798 270.021 87.9931 265.271 83.1087C264.111 81.9266 262.884 80.8337 261.345 80.1646C260.275 79.6962 259.093 79.4509 257.977 79.1163C257.42 78.9602 256.862 78.7818 256.327 78.6257C257.108 79.6516 257.866 80.6999 258.624 81.7481C259.672 83.2202 260.81 84.6922 261.613 86.3204C262.594 88.35 263.063 90.5357 263.709 92.6992C264.445 95.1749 265.672 97.0707 267.389 98.9888C268.527 100.305 269.598 102 271.07 102.959Z" fill="#E0C184" fill-opacity="0.5"/>
<path d="M283.202 97.539C283.046 97.4721 283.626 97.6282 283.537 97.6282C284.005 97.6951 284.295 97.5613 284.697 97.2937C285.187 96.9814 285.678 96.513 286.08 95.9555C287.418 94.1489 288.109 91.8962 288.6 89.7328C289.358 86.3873 289.514 82.9302 289.425 79.5178C289.425 79.4509 289.425 79.4063 289.425 79.3394C289.425 79.2724 289.425 79.1832 289.425 79.1163C289.559 76.1946 290.273 73.3174 290.34 70.3957C290.384 68.879 290.228 67.3401 289.67 65.935C289.247 64.8867 288.622 63.9276 288.198 62.8571C287.351 60.7159 286.749 58.4633 286.258 56.2106C284.362 59.0878 282.6 62.1434 281.485 65.3328C280.771 67.3401 281.106 68.6783 281.396 70.7748C281.775 73.5181 282.355 76.4399 282.11 79.2278C281.976 80.7445 281.485 82.2388 281.24 83.7554C280.95 85.4282 280.771 87.1233 280.704 88.8183C280.638 91.0487 280.704 93.4798 281.597 95.5763C281.864 96.2008 282.176 96.7584 282.623 97.1599C282.779 97.2937 282.868 97.3829 283.202 97.539Z" fill="#BE9C59"/>
<path d="M283.202 97.539C283.046 97.4721 283.626 97.6282 283.537 97.6282C284.005 97.6951 284.295 97.5613 284.697 97.2937C285.187 96.9814 285.678 96.513 286.08 95.9555C287.418 94.1489 288.109 91.8962 288.6 89.7328C289.358 86.3873 289.514 82.9302 289.425 79.5178C289.425 79.4509 289.425 79.4063 289.425 79.3394C289.425 79.2724 289.425 79.1832 289.425 79.1163C289.559 76.1946 290.273 73.3174 290.34 70.3957C290.384 68.879 290.228 67.3401 289.67 65.935C289.247 64.8867 288.622 63.9276 288.198 62.8571C287.351 60.7159 286.749 58.4633 286.258 56.2106C284.362 59.0878 282.6 62.1434 281.485 65.3328C280.771 67.3401 281.106 68.6783 281.396 70.7748C281.775 73.5181 282.355 76.4399 282.11 79.2278C281.976 80.7445 281.485 82.2388 281.24 83.7554C280.95 85.4282 280.771 87.1233 280.704 88.8183C280.638 91.0487 280.704 93.4798 281.597 95.5763C281.864 96.2008 282.176 96.7584 282.623 97.1599C282.779 97.2937 282.868 97.3829 283.202 97.539Z" fill="#E0C184" fill-opacity="0.5"/>
<path d="M275.129 125.53C274.794 122.831 274.75 119.776 273.679 117.255C272.72 114.98 270.49 113.486 268.505 112.17C267.702 111.635 266.876 111.166 266.23 110.43C265.605 109.694 265.07 108.892 264.579 108.044C263.598 106.416 262.706 104.855 260.966 103.94C259.115 102.959 256.974 102.535 255.212 101.576C255.591 104.074 256.394 106.483 257.71 108.691C260.654 113.754 265.538 117.211 269.999 120.824C271.783 122.251 273.59 123.79 275.129 125.53Z" fill="#BE9C59"/>
<path d="M275.129 125.53C274.794 122.831 274.75 119.776 273.679 117.255C272.72 114.98 270.49 113.486 268.505 112.17C267.702 111.635 266.876 111.166 266.23 110.43C265.605 109.694 265.07 108.892 264.579 108.044C263.598 106.416 262.706 104.855 260.966 103.94C259.115 102.959 256.974 102.535 255.212 101.576C255.591 104.074 256.394 106.483 257.71 108.691C260.654 113.754 265.538 117.211 269.999 120.824C271.783 122.251 273.59 123.79 275.129 125.53Z" fill="#E0C184" fill-opacity="0.5"/>
<path d="M303.833 113.508C304.926 112.237 305.974 110.966 306.889 109.561C308.272 107.486 309.186 105.256 309.855 102.892C308.695 103.048 307.558 103.249 306.443 103.494C304.48 103.918 301.737 104.431 300.398 106.104C299.328 107.464 298.703 109.159 297.7 110.564C297.254 111.189 296.741 111.902 296.072 112.304C295.469 112.661 294.756 112.862 294.131 113.196C289.76 115.471 287.418 119.307 286.526 123.768C287.15 123.768 287.752 124.303 287.886 124.95C288.912 124.571 289.983 124.259 291.076 124.036C292.481 123.768 293.953 123.612 295.269 122.965C297.387 121.917 298.993 119.954 300.376 118.103C301.514 116.564 302.562 115.003 303.833 113.508Z" fill="#BE9C59"/>
<path d="M303.833 113.508C304.926 112.237 305.974 110.966 306.889 109.561C308.272 107.486 309.186 105.256 309.855 102.892C308.695 103.048 307.558 103.249 306.443 103.494C304.48 103.918 301.737 104.431 300.398 106.104C299.328 107.464 298.703 109.159 297.7 110.564C297.254 111.189 296.741 111.902 296.072 112.304C295.469 112.661 294.756 112.862 294.131 113.196C289.76 115.471 287.418 119.307 286.526 123.768C287.15 123.768 287.752 124.303 287.886 124.95C288.912 124.571 289.983 124.259 291.076 124.036C292.481 123.768 293.953 123.612 295.269 122.965C297.387 121.917 298.993 119.954 300.376 118.103C301.514 116.564 302.562 115.003 303.833 113.508Z" fill="#E0C184" fill-opacity="0.5"/>
<path d="M311.662 100.015C309.944 100.171 308.249 100.416 306.577 100.751C304.056 101.241 301.202 101.888 299.172 103.561C297.968 104.542 297.298 106.014 296.54 107.33C296.094 108.111 295.648 109.07 294.979 109.694C294.444 110.207 293.752 110.408 293.083 110.72C290.295 112.126 287.864 114.2 286.214 116.876C284.385 119.82 283.626 123.233 283.448 126.667C282.511 127.716 281.574 128.742 280.593 129.723C281.017 126.712 281.441 123.701 281.864 120.712C281.976 120.579 282.065 120.422 282.154 120.244C281.931 120.846 282.377 119.887 282.467 119.709C282.757 119.173 283.069 118.638 283.381 118.103C284.251 116.609 285.121 115.136 285.991 113.642C287.039 111.88 288.065 110.141 289.113 108.379C292.659 107.04 296.005 104.944 298.949 102.602C301.804 100.327 304.346 97.6059 306.287 94.528C307.447 92.6769 308.629 90.7811 309.342 88.6845C310.011 86.6772 310.257 84.5138 310.301 82.4172C310.435 77.1759 309.476 71.9123 310.703 66.7379C311.037 65.3551 309.476 64.5967 308.45 65.422C305.461 67.8531 303.142 70.7748 301.625 74.3211C300.265 77.4659 299.529 80.9229 297.834 83.9116C296.83 85.6959 295.336 86.811 294.02 88.3054C291.968 90.6472 291.12 93.7251 290.451 96.6915C289.158 100.149 287.864 103.606 286.57 107.04C286.526 107.196 286.504 107.33 286.504 107.486C285.5 109.159 284.496 110.832 283.515 112.527C283.292 112.906 283.069 113.285 282.846 113.664C283.314 110.274 283.782 106.862 284.229 103.472C284.385 102.379 284.519 101.264 284.675 100.171C285.544 99.9924 286.437 99.524 287.262 98.7657C289.135 97.0037 290.184 94.3719 290.875 91.9631C292.035 87.9039 292.28 83.5993 292.169 79.4063C292.28 76.4176 293.016 73.4735 293.083 70.4626C293.128 69.0128 292.994 67.5408 292.592 66.1357C292.213 64.7975 291.477 63.7046 290.92 62.4333C289.581 59.3108 288.868 55.7869 288.265 52.4636C288.042 51.2369 286.392 51.2816 285.79 52.1514C283.27 55.8315 280.861 59.7346 279.188 63.8607C278.764 64.909 278.385 66.0242 278.318 67.1616C278.251 68.1876 278.452 69.0128 278.608 70.128C279.01 73.0498 279.79 76.3284 279.433 79.2948C279.21 81.0344 278.697 82.7295 278.452 84.4692C278.207 86.1865 278.028 87.9262 278.028 89.6659C278.006 92.1639 278.274 94.7957 279.344 97.093C279.969 98.4312 280.905 99.3679 281.998 99.8809C281.441 104.029 280.861 108.178 280.303 112.326C279.746 110.497 279.076 108.691 278.207 107.04C278.965 105.122 279.433 103.048 279.433 100.974C279.433 100.929 279.433 100.862 279.433 100.795C279.433 100.728 279.433 100.684 279.411 100.617C278.853 92.6546 272.675 86.9672 267.479 81.5251C266.274 80.2538 264.958 79.0271 263.397 78.2019C262.148 77.5328 260.81 77.1536 259.449 76.7745C257.353 76.1723 255.234 75.5478 253.137 74.901C252.112 74.5887 250.863 75.9269 251.621 76.886C252.758 78.358 253.851 79.83 254.944 81.3021C256.728 83.7108 258.803 86.1865 259.806 89.0414C261.078 92.6323 261.591 96.1785 264.022 99.2341C265.293 100.84 266.743 102.312 268.059 103.873C268.705 104.654 269.486 105.189 270.356 105.702C272.14 106.773 274.014 107.687 275.887 108.579C275.909 108.602 275.954 108.602 275.976 108.624C277.604 111.925 278.474 115.761 279.322 119.285C279.032 121.315 278.764 123.344 278.474 125.374C278.363 126.11 278.274 126.846 278.162 127.582C278.028 126.868 277.917 126.154 277.805 125.441C277.448 122.564 277.359 119.486 276.355 116.742C275.441 114.267 273.612 112.572 271.538 111.033C269.954 109.851 268.348 109.025 267.278 107.33C266.252 105.702 265.382 103.94 263.865 102.691C262.393 101.464 260.587 100.885 258.803 100.282C257.085 99.7025 255.524 99.078 254.743 97.3383C254.163 96.0893 252.223 96.7584 252.223 98.0297C252.268 104.832 254.922 110.787 259.65 115.627C263.62 119.686 268.572 122.675 272.519 126.757C274.17 128.474 275.53 130.392 276.266 132.6C274.928 132.6 273.59 132.6 272.274 132.6C270.824 132.6 268.995 132.355 267.657 133.002C265.516 134.05 265.248 136.146 265.538 138.221C265.784 139.983 266.029 141.745 266.274 143.507C267.055 149.105 267.835 154.703 268.594 160.323C269.129 164.204 269.664 168.063 270.2 171.944C270.289 172.523 270.958 172.925 271.493 172.925C277.783 172.925 284.072 172.925 290.362 172.925C290.897 172.925 291.589 172.501 291.656 171.944C293.172 161.037 294.689 150.131 296.183 139.224C296.272 138.622 296.362 138.042 296.429 137.44C296.741 134.964 295.224 132.979 292.793 132.645C292.682 132.622 292.57 132.6 292.459 132.6C292.392 132.6 292.325 132.6 292.258 132.6C288.667 132.6 285.076 132.6 281.485 132.6C282.578 131.596 283.604 130.504 284.608 129.388C284.853 129.411 285.121 129.366 285.366 129.21C287.329 128.028 289.381 127.18 291.633 126.734C293.261 126.422 294.867 126.177 296.384 125.463C298.525 124.437 300.242 122.608 301.692 120.757C302.919 119.196 303.945 117.478 305.238 115.984C306.443 114.601 307.603 113.196 308.651 111.724C310.792 108.713 312.063 105.345 312.911 101.754C312.978 101.464 312.955 101.197 312.866 100.974C312.799 100.394 312.376 99.9478 311.662 100.015ZM305.06 91.2048C303.097 94.3942 301.045 97.2268 298.191 99.7025C296.072 101.531 293.685 103.093 291.21 104.409C290.875 104.587 290.54 104.765 290.206 104.921C291.098 102.535 291.99 100.149 292.905 97.7621C292.972 97.6505 293.016 97.539 293.038 97.4052C293.083 97.2714 293.105 97.1376 293.128 97.026C293.708 94.4611 294.421 91.7178 296.295 89.7997C297.722 88.35 299.127 87.0787 300.153 85.2721C301.781 82.3503 302.562 79.0717 303.811 75.9938C304.725 73.7412 305.974 71.7562 307.536 70.0165C307.045 77.1759 309.03 84.7591 305.06 91.2048ZM261.591 86.3427C260.788 84.7145 259.65 83.2202 258.602 81.7704C257.844 80.7222 257.085 79.6739 256.305 78.648C256.862 78.8041 257.42 78.9825 257.955 79.1386C259.07 79.4732 260.252 79.7185 261.323 80.1869C262.862 80.856 264.089 81.9489 265.248 83.131C269.999 88.0154 276.244 93.5021 276.668 100.773C276.69 102.156 276.445 103.606 276.021 104.966C275.731 105.011 275.463 105.145 275.263 105.323C273.813 104.609 272.385 103.851 271.047 102.981C269.575 102.022 268.482 100.327 267.323 99.0111C265.627 97.093 264.378 95.1972 263.642 92.7215C263.04 90.558 262.594 88.3723 261.591 86.3427ZM257.71 108.668C256.416 106.438 255.613 104.052 255.212 101.554C256.974 102.513 259.115 102.936 260.966 103.918C262.706 104.832 263.598 106.416 264.579 108.022C265.07 108.847 265.605 109.672 266.23 110.408C266.876 111.144 267.702 111.613 268.505 112.148C270.467 113.464 272.72 114.958 273.679 117.233C274.75 119.776 274.772 122.809 275.129 125.508C273.59 123.79 271.783 122.251 269.999 120.802C265.516 117.211 260.654 113.731 257.71 108.668ZM280.727 88.8184C280.772 87.1233 280.972 85.4282 281.262 83.7555C281.53 82.2388 281.998 80.7445 282.132 79.2278C282.377 76.4399 281.797 73.5181 281.418 70.7748C281.128 68.6783 280.794 67.3401 281.508 65.3328C282.623 62.1434 284.407 59.0878 286.28 56.2106C286.771 58.4633 287.373 60.7159 288.221 62.8571C288.645 63.9276 289.269 64.8867 289.693 65.935C290.273 67.3624 290.407 68.879 290.362 70.3957C290.295 73.3174 289.581 76.1946 289.448 79.1163C289.448 79.1832 289.425 79.2501 289.448 79.3394C289.448 79.4063 289.448 79.4509 289.448 79.5178C289.537 82.9302 289.381 86.3873 288.622 89.7328C288.132 91.8962 287.44 94.1489 286.102 95.9555C285.701 96.5131 285.21 96.9814 284.719 97.2937C284.318 97.539 284.006 97.6951 283.559 97.6282C283.649 97.6282 283.069 97.4498 283.225 97.539C282.913 97.3829 282.801 97.2937 282.667 97.1599C282.244 96.7584 281.909 96.2231 281.641 95.5763C280.727 93.5021 280.66 91.071 280.727 88.8184ZM293.507 139.247C293.128 141.945 292.771 144.644 292.392 147.32C291.5 153.744 290.607 160.167 289.715 166.591C289.559 167.773 289.381 168.955 289.225 170.115C283.716 170.115 278.207 170.115 272.675 170.115C271.538 162.018 270.423 153.878 269.285 145.737C268.995 143.596 268.683 141.455 268.393 139.313C268.282 138.466 267.969 137.44 268.014 136.592C268.103 134.83 270.378 135.21 271.582 135.21C273.991 135.21 276.4 135.21 278.809 135.21C283.359 135.21 287.931 135.21 292.481 135.21C294.555 135.366 293.663 137.998 293.507 139.247ZM295.246 122.987C293.953 123.634 292.459 123.768 291.053 124.058C289.961 124.281 288.89 124.571 287.864 124.972C287.73 124.326 287.128 123.79 286.504 123.79C287.396 119.33 289.738 115.516 294.109 113.218C294.733 112.884 295.47 112.683 296.049 112.326C296.719 111.925 297.231 111.189 297.678 110.587C298.681 109.181 299.306 107.486 300.376 106.126C301.715 104.453 304.458 103.962 306.421 103.516C307.558 103.271 308.695 103.07 309.833 102.914C309.164 105.256 308.227 107.486 306.867 109.583C305.952 110.966 304.904 112.259 303.811 113.531C302.54 115.003 301.491 116.586 300.332 118.125C298.971 119.976 297.365 121.961 295.246 122.987Z" fill="#5C5B5B"/>
<path d="M219.704 110.118C220.931 109.204 222.247 108.468 223.63 107.932C223.496 106.973 223.228 106.037 222.782 105.122C220.976 101.375 217.206 99.0334 213.08 98.9664C212.612 98.9664 212.166 98.9664 211.697 98.9664C210.069 98.9664 208.441 98.9664 206.791 98.9664C207.727 101.464 208.664 103.962 209.623 106.46C210.493 108.713 211.742 111.434 214.24 112.215C215.087 112.482 215.31 113.285 215.11 113.954C215.422 114.2 215.779 114.4 216.113 114.579C217.095 112.884 218.165 111.278 219.704 110.118Z" fill="#BE9C59"/>
<path d="M219.704 110.118C220.931 109.204 222.247 108.468 223.63 107.932C223.496 106.973 223.228 106.037 222.782 105.122C220.976 101.375 217.206 99.0334 213.08 98.9664C212.612 98.9664 212.166 98.9664 211.697 98.9664C210.069 98.9664 208.441 98.9664 206.791 98.9664C207.727 101.464 208.664 103.962 209.623 106.46C210.493 108.713 211.742 111.434 214.24 112.215C215.087 112.482 215.31 113.285 215.11 113.954C215.422 114.2 215.779 114.4 216.113 114.579C217.095 112.884 218.165 111.278 219.704 110.118Z" fill="#E0C184" fill-opacity="0.5"/>
<path d="M159.797 127.448C156.563 130.481 151.121 130.325 147.932 127.292C144.675 124.192 144.876 119.932 146.482 116.073C148.356 111.501 151.032 107.263 153.374 102.936C154.088 101.621 154.779 100.305 155.426 98.9664C148.11 98.9664 140.795 98.9664 133.479 98.9664C129.888 98.9664 126.275 98.9664 122.684 98.9664C119.629 98.9664 116.796 98.9441 114.053 100.684C110.908 102.691 109.168 106.17 109.124 109.851C109.101 111.813 109.124 113.776 109.124 115.739C109.124 117.055 109.124 118.348 109.124 119.664C109.637 119.664 110.15 119.664 110.685 119.686C113.54 119.776 115.926 121.404 117.599 123.634C119.361 125.954 119.874 128.407 119.874 131.195C119.874 133.715 119.874 136.213 119.874 138.734C123.911 138.756 127.97 138.823 132.007 138.823C142.244 138.823 152.504 138.823 162.741 138.823C162.719 138.377 162.897 138.064 163.165 137.864C163.054 137.44 162.942 136.994 162.853 136.548C162.451 136.347 162.139 135.968 162.095 135.41C161.871 131.931 161.805 128.452 161.827 124.995C161.515 124.883 161.225 124.727 160.957 124.549C160.622 124.95 160.288 125.374 159.953 125.798C160.288 126.221 160.377 126.913 159.797 127.448Z" fill="#BE9C59"/>
<path d="M159.797 127.448C156.563 130.481 151.121 130.325 147.932 127.292C144.675 124.192 144.876 119.932 146.482 116.073C148.356 111.501 151.032 107.263 153.374 102.936C154.088 101.621 154.779 100.305 155.426 98.9664C148.11 98.9664 140.795 98.9664 133.479 98.9664C129.888 98.9664 126.275 98.9664 122.684 98.9664C119.629 98.9664 116.796 98.9441 114.053 100.684C110.908 102.691 109.168 106.17 109.124 109.851C109.101 111.813 109.124 113.776 109.124 115.739C109.124 117.055 109.124 118.348 109.124 119.664C109.637 119.664 110.15 119.664 110.685 119.686C113.54 119.776 115.926 121.404 117.599 123.634C119.361 125.954 119.874 128.407 119.874 131.195C119.874 133.715 119.874 136.213 119.874 138.734C123.911 138.756 127.97 138.823 132.007 138.823C142.244 138.823 152.504 138.823 162.741 138.823C162.719 138.377 162.897 138.064 163.165 137.864C163.054 137.44 162.942 136.994 162.853 136.548C162.451 136.347 162.139 135.968 162.095 135.41C161.871 131.931 161.805 128.452 161.827 124.995C161.515 124.883 161.225 124.727 160.957 124.549C160.622 124.95 160.288 125.374 159.953 125.798C160.288 126.221 160.377 126.913 159.797 127.448Z" fill="#E0C184" fill-opacity="0.5"/>
<path d="M222.381 119.575C222.292 118.906 222.336 118.192 222.47 117.523C222.091 118.192 221.756 118.883 221.399 119.597C221.712 119.575 222.046 119.575 222.381 119.575Z" fill="#BE9C59"/>
<path d="M222.381 119.575C222.292 118.906 222.336 118.192 222.47 117.523C222.091 118.192 221.756 118.883 221.399 119.597C221.712 119.575 222.046 119.575 222.381 119.575Z" fill="#E0C184" fill-opacity="0.5"/>
<path d="M210.85 130.058C210.85 127.649 211.764 125.262 213.281 123.344C210.627 123.077 207.951 123.478 205.854 124.995C206.724 125.954 207.215 127.359 207.705 128.519C208.865 131.307 209.891 134.161 210.85 137.039C210.85 134.741 210.85 132.399 210.85 130.058Z" fill="#BE9C59"/>
<path d="M210.85 130.058C210.85 127.649 211.764 125.262 213.281 123.344C210.627 123.077 207.951 123.478 205.854 124.995C206.724 125.954 207.215 127.359 207.705 128.519C208.865 131.307 209.891 134.161 210.85 137.039C210.85 134.741 210.85 132.399 210.85 130.058Z" fill="#E0C184" fill-opacity="0.5"/>
<path d="M200.947 123.054C200.925 123.054 200.925 123.032 200.947 123.054C200.925 123.032 200.925 123.054 200.947 123.054Z" fill="#BE9C59"/>
<path d="M200.947 123.054C200.925 123.054 200.925 123.032 200.947 123.054C200.925 123.032 200.925 123.054 200.947 123.054Z" fill="#E0C184" fill-opacity="0.5"/>
<path d="M200.702 123.59C200.702 123.366 200.747 123.143 200.769 122.943C200.189 122.497 199.899 121.582 200.479 120.846C201.639 119.419 203.088 118.348 204.717 117.568C204.382 117.255 204.047 116.943 203.735 116.631C203.222 117.032 202.352 117.077 201.929 116.564C201.126 115.605 200.323 114.624 199.52 113.664C199.141 113.196 199.007 112.594 199.275 112.081C199.118 111.925 198.94 111.791 198.784 111.657C198.717 114.735 198.65 117.813 198.717 120.913C198.739 121.917 197.869 122.341 197.111 122.184C197.133 122.809 197.245 123.478 197.334 124.125C198.539 123.835 199.743 123.634 200.947 123.59C200.858 123.567 200.791 123.59 200.702 123.59Z" fill="#BE9C59"/>
<path d="M200.702 123.59C200.702 123.366 200.747 123.143 200.769 122.943C200.189 122.497 199.899 121.582 200.479 120.846C201.639 119.419 203.088 118.348 204.717 117.568C204.382 117.255 204.047 116.943 203.735 116.631C203.222 117.032 202.352 117.077 201.929 116.564C201.126 115.605 200.323 114.624 199.52 113.664C199.141 113.196 199.007 112.594 199.275 112.081C199.118 111.925 198.94 111.791 198.784 111.657C198.717 114.735 198.65 117.813 198.717 120.913C198.739 121.917 197.869 122.341 197.111 122.184C197.133 122.809 197.245 123.478 197.334 124.125C198.539 123.835 199.743 123.634 200.947 123.59C200.858 123.567 200.791 123.59 200.702 123.59Z" fill="#E0C184" fill-opacity="0.5"/>
<path d="M205.609 172.456C203.334 166.635 200.836 160.859 198.606 155.015C197.29 160.836 195.884 166.658 194.39 172.456C198.137 172.456 201.884 172.456 205.609 172.456Z" fill="#BE9C59"/>
<path d="M205.609 172.456C203.334 166.635 200.836 160.859 198.606 155.015C197.29 160.836 195.884 166.658 194.39 172.456C198.137 172.456 201.884 172.456 205.609 172.456Z" fill="#E0C184" fill-opacity="0.5"/>
<path d="M123.063 141.499C121.993 141.499 120.922 141.499 119.829 141.499C119.829 147.075 119.829 152.651 119.829 158.227C122.149 158.115 124.468 158.048 126.766 158.004C134.973 157.848 143.226 158.048 151.411 158.807C154.444 159.097 157.5 159.454 160.511 160.033C162.496 160.413 164.503 160.836 166.332 161.706C167.247 162.13 168.072 162.732 168.406 163.647C168.518 163.825 168.562 164.07 168.562 164.338C168.674 165.877 168.562 167.438 168.562 168.977C168.562 169.111 168.54 169.245 168.518 169.356C168.429 169.847 168.183 170.271 167.826 170.628C166.845 171.609 165.351 172.1 164.013 172.456C165.73 172.456 167.447 172.456 169.187 172.456C172.176 172.456 175.142 172.456 178.131 172.456C178.354 170.895 178.599 169.334 178.844 167.773C179.893 161.26 181.03 154.636 183.149 148.369C183.305 147.878 183.662 147.61 184.063 147.499C184.019 147.343 183.974 147.187 183.907 147.031C181.097 148.48 178.198 149.774 174.964 149.64C169.767 149.417 165.083 146.25 163.366 141.499C162.987 141.499 162.607 141.499 162.206 141.499C149.136 141.499 136.111 141.499 123.063 141.499Z" fill="#BE9C59"/>
<path d="M123.063 141.499C121.993 141.499 120.922 141.499 119.829 141.499C119.829 147.075 119.829 152.651 119.829 158.227C122.149 158.115 124.468 158.048 126.766 158.004C134.973 157.848 143.226 158.048 151.411 158.807C154.444 159.097 157.5 159.454 160.511 160.033C162.496 160.413 164.503 160.836 166.332 161.706C167.247 162.13 168.072 162.732 168.406 163.647C168.518 163.825 168.562 164.07 168.562 164.338C168.674 165.877 168.562 167.438 168.562 168.977C168.562 169.111 168.54 169.245 168.518 169.356C168.429 169.847 168.183 170.271 167.826 170.628C166.845 171.609 165.351 172.1 164.013 172.456C165.73 172.456 167.447 172.456 169.187 172.456C172.176 172.456 175.142 172.456 178.131 172.456C178.354 170.895 178.599 169.334 178.844 167.773C179.893 161.26 181.03 154.636 183.149 148.369C183.305 147.878 183.662 147.61 184.063 147.499C184.019 147.343 183.974 147.187 183.907 147.031C181.097 148.48 178.198 149.774 174.964 149.64C169.767 149.417 165.083 146.25 163.366 141.499C162.987 141.499 162.607 141.499 162.206 141.499C149.136 141.499 136.111 141.499 123.063 141.499Z" fill="#E0C184" fill-opacity="0.5"/>
<path d="M90.79 130.548C90.79 132.444 90.8793 134.407 91.9944 136.057C93.288 137.975 95.6299 138.555 97.8156 138.555C98.5517 138.555 99.1539 139.18 99.1539 139.916C99.1539 141.99 99.1539 144.086 99.1539 146.161C99.1539 151.045 99.1539 155.907 99.1539 160.792C100.96 160.256 102.834 159.944 104.685 159.654C108.811 159.007 112.96 158.606 117.13 158.361C117.13 151.915 117.13 145.469 117.13 139.046C117.13 136.459 117.13 133.871 117.13 131.284C117.13 129.032 116.885 127.18 115.435 125.262C114.231 123.656 112.558 122.43 110.506 122.385C109.324 122.363 108.12 122.385 106.938 122.385C103.771 122.385 100.581 122.318 97.4142 122.385C93.3103 122.452 90.79 126.846 90.79 130.548Z" fill="#BE9C59"/>
<path d="M90.79 130.548C90.79 132.444 90.8793 134.407 91.9944 136.057C93.288 137.975 95.6299 138.555 97.8156 138.555C98.5517 138.555 99.1539 139.18 99.1539 139.916C99.1539 141.99 99.1539 144.086 99.1539 146.161C99.1539 151.045 99.1539 155.907 99.1539 160.792C100.96 160.256 102.834 159.944 104.685 159.654C108.811 159.007 112.96 158.606 117.13 158.361C117.13 151.915 117.13 145.469 117.13 139.046C117.13 136.459 117.13 133.871 117.13 131.284C117.13 129.032 116.885 127.18 115.435 125.262C114.231 123.656 112.558 122.43 110.506 122.385C109.324 122.363 108.12 122.385 106.938 122.385C103.771 122.385 100.581 122.318 97.4142 122.385C93.3103 122.452 90.79 126.846 90.79 130.548Z" fill="#E0C184" fill-opacity="0.5"/>
<path d="M101.496 173.059C101.273 173.014 101.028 172.969 100.805 172.903C100.381 172.813 99.957 172.702 99.5332 172.613C99.667 172.925 99.8455 173.215 100.068 173.482C100.425 173.906 100.827 174.263 101.273 174.553C101.362 174.062 101.429 173.572 101.496 173.059Z" fill="#BE9C59"/>
<path d="M101.496 173.059C101.273 173.014 101.028 172.969 100.805 172.903C100.381 172.813 99.957 172.702 99.5332 172.613C99.667 172.925 99.8455 173.215 100.068 173.482C100.425 173.906 100.827 174.263 101.273 174.553C101.362 174.062 101.429 173.572 101.496 173.059Z" fill="#E0C184" fill-opacity="0.5"/>
<path d="M114.677 174.754C112.915 174.62 111.131 174.442 109.369 174.263C109.302 174.776 109.213 175.311 109.146 175.824C109.659 175.802 110.172 175.802 110.663 175.802C111.956 175.757 113.451 175.423 114.677 174.754Z" fill="#BE9C59"/>
<path d="M114.677 174.754C112.915 174.62 111.131 174.442 109.369 174.263C109.302 174.776 109.213 175.311 109.146 175.824C109.659 175.802 110.172 175.802 110.663 175.802C111.956 175.757 113.451 175.423 114.677 174.754Z" fill="#E0C184" fill-opacity="0.5"/>
<path d="M220.82 167.349C220.887 167.505 221.02 167.684 221.087 167.862C221.667 168.353 221.89 169.289 221.199 169.825C220.887 170.07 220.552 170.293 220.24 170.516C220.998 172.345 221.957 174.129 222.983 175.847C226.44 175.891 230.433 175.534 231.414 172.01C231.86 170.405 231.525 168.375 231.525 166.747C231.525 163.178 231.525 159.61 231.525 156.063C231.525 150.688 231.525 145.291 231.525 139.916C231.525 139.18 232.15 138.555 232.886 138.555C235.429 138.555 237.949 137.752 239.131 135.321C240.001 133.537 239.956 131.463 239.912 129.545C239.845 127.069 238.127 124.526 236.075 123.233C235.406 122.809 234.737 122.586 234.046 122.474C233.622 122.898 233.154 123.3 232.663 123.634C230.076 125.441 226.529 125.285 224.21 123.121C223.942 122.876 223.719 122.63 223.518 122.341C222.872 122.341 222.247 122.341 221.6 122.341C221.065 122.341 220.552 122.318 220.039 122.363C219.794 122.854 219.571 123.344 219.325 123.813C219.08 124.303 218.322 124.638 217.809 124.437C217.34 124.259 216.872 124.103 216.381 123.946C215.065 125.128 214.062 126.801 213.683 128.429C213.393 129.745 213.549 131.262 213.549 132.6C213.549 135.611 213.549 138.622 213.549 141.633C213.549 142.882 213.549 144.109 213.549 145.358C215.088 150.153 216.582 154.948 218.143 159.721C218.812 161.751 219.459 163.78 220.218 165.788C220.441 166.479 220.641 166.992 220.82 167.349Z" fill="#BE9C59"/>
<path d="M220.82 167.349C220.887 167.505 221.02 167.684 221.087 167.862C221.667 168.353 221.89 169.289 221.199 169.825C220.887 170.07 220.552 170.293 220.24 170.516C220.998 172.345 221.957 174.129 222.983 175.847C226.44 175.891 230.433 175.534 231.414 172.01C231.86 170.405 231.525 168.375 231.525 166.747C231.525 163.178 231.525 159.61 231.525 156.063C231.525 150.688 231.525 145.291 231.525 139.916C231.525 139.18 232.15 138.555 232.886 138.555C235.429 138.555 237.949 137.752 239.131 135.321C240.001 133.537 239.956 131.463 239.912 129.545C239.845 127.069 238.127 124.526 236.075 123.233C235.406 122.809 234.737 122.586 234.046 122.474C233.622 122.898 233.154 123.3 232.663 123.634C230.076 125.441 226.529 125.285 224.21 123.121C223.942 122.876 223.719 122.63 223.518 122.341C222.872 122.341 222.247 122.341 221.6 122.341C221.065 122.341 220.552 122.318 220.039 122.363C219.794 122.854 219.571 123.344 219.325 123.813C219.08 124.303 218.322 124.638 217.809 124.437C217.34 124.259 216.872 124.103 216.381 123.946C215.065 125.128 214.062 126.801 213.683 128.429C213.393 129.745 213.549 131.262 213.549 132.6C213.549 135.611 213.549 138.622 213.549 141.633C213.549 142.882 213.549 144.109 213.549 145.358C215.088 150.153 216.582 154.948 218.143 159.721C218.812 161.751 219.459 163.78 220.218 165.788C220.441 166.479 220.641 166.992 220.82 167.349Z" fill="#E0C184" fill-opacity="0.5"/>
<path d="M251.175 219.941C246.469 210.93 241.763 201.919 237.034 192.887C237.079 192.753 237.123 192.619 237.168 192.485C237.904 190.009 236.298 187.824 234.982 185.839C233.934 184.233 232.685 182.694 231.124 181.556C230.812 180.954 230.499 180.352 230.165 179.727C229.942 179.304 229.451 179.058 229.005 179.058C227.644 179.058 226.306 179.058 224.946 179.058C224.812 178.858 224.7 178.657 224.567 178.456C227.109 178.345 229.585 177.899 231.637 176.181C233.22 174.865 234.135 173.059 234.202 171.007C234.224 170.315 234.202 169.602 234.202 168.91C234.202 161.528 234.202 154.145 234.202 146.785C234.202 144.912 234.202 143.016 234.202 141.142C236.41 140.919 238.573 140.161 240.112 138.511C241.785 136.726 242.454 134.318 242.565 131.931C242.655 129.968 242.61 128.05 241.852 126.221C240.803 123.723 238.885 121.404 236.365 120.289C236.142 120.177 235.919 120.11 235.674 120.021C236.142 118.95 236.32 117.768 236.075 116.519C235.986 116.029 235.808 115.56 235.584 115.114C236.588 114.78 236.789 112.973 235.495 112.482C235.451 112.46 235.406 112.46 235.361 112.438C230.678 110.698 224.633 110.163 221.154 114.49C220.128 115.783 219.481 117.345 218.768 118.817C218.322 119.686 217.898 120.579 217.452 121.448C212.723 119.909 206.835 120.066 203.2 123.634C202.553 123.523 201.906 123.478 201.282 123.5C201.17 123.5 201.036 123.5 200.925 123.523C199.72 123.59 198.516 123.79 197.312 124.058C195.617 124.459 193.922 125.017 192.293 125.575C187.208 127.314 182.234 129.388 177.261 131.463C176.458 131.797 176.235 132.645 176.436 133.292C176.614 133.938 177.194 134.384 177.975 134.072C182.458 132.199 186.963 130.325 191.557 128.675C194.323 127.693 197.178 126.667 200.1 126.288C200.88 126.177 202.04 126.154 202.553 126.244C202.754 126.288 203.445 126.511 203.311 126.444C203.445 126.511 203.601 126.578 203.713 126.667C203.735 126.667 203.735 126.69 203.757 126.69C203.757 126.69 203.757 126.69 203.78 126.69C203.802 126.712 203.802 126.712 203.802 126.712C203.847 126.779 203.913 126.868 203.958 126.935C204.114 127.18 204.248 127.448 204.382 127.716C204.739 128.407 205.051 129.143 205.319 129.812C209.467 139.983 212.322 150.711 215.734 161.149C216.426 163.245 217.095 165.342 217.92 167.394C218.032 167.684 218.188 168.085 218.344 168.464C216.649 169.557 214.441 170.494 212.612 171.364C211.43 171.944 210.225 172.501 209.021 173.059C208.932 173.103 208.843 173.148 208.753 173.17C204.538 162.108 199.274 151.335 196.665 139.737C196.509 139.09 195.661 138.533 195.014 138.801C191.937 140.05 188.903 141.365 185.937 142.837C183.06 144.265 180.205 146.183 176.993 146.741C171.886 147.633 166.02 144.176 165.373 138.801C165.351 138.6 165.284 138.421 165.217 138.265C164.793 137.485 163.7 137.306 163.098 137.752C162.83 137.953 162.652 138.265 162.674 138.711C152.437 138.711 142.177 138.711 131.94 138.711C127.903 138.711 123.866 138.644 119.807 138.622C119.807 136.102 119.807 133.604 119.807 131.084C119.807 128.296 119.294 125.842 117.532 123.523C115.859 121.315 113.473 119.664 110.618 119.575C110.105 119.553 109.592 119.553 109.057 119.553C109.057 118.237 109.057 116.943 109.057 115.627C109.057 113.664 109.034 111.702 109.057 109.739C109.101 106.059 110.841 102.58 113.986 100.572C116.707 98.8326 119.562 98.8549 122.617 98.8549C126.208 98.8549 129.821 98.8549 133.412 98.8549C140.728 98.8549 148.043 98.8549 155.359 98.8549C154.712 100.193 154.021 101.531 153.307 102.825C150.965 107.152 148.289 111.39 146.415 115.962C144.832 119.82 144.631 124.08 147.865 127.18C151.054 130.214 156.474 130.37 159.73 127.337C160.31 126.801 160.221 126.11 159.864 125.641C159.418 125.062 158.526 124.794 157.834 125.441C155.314 127.805 151.076 127.113 149.047 124.482C146.817 121.582 148.4 117.88 149.827 115.003C151.746 111.122 153.954 107.375 156.006 103.561C157.076 101.576 158.057 99.5687 158.927 97.5167C159.663 95.7771 160.266 93.9705 161.269 92.3646C163.834 88.3277 169.053 88.573 173.224 87.7924C174.451 87.5694 174.428 86.1419 173.67 85.4951C173.38 85.2498 172.979 85.116 172.51 85.2052C168.072 86.0304 163.009 85.9635 159.864 89.7774C158.459 91.4725 157.678 93.5244 156.853 95.554C156.764 95.7771 156.675 95.9778 156.585 96.2008C151.746 96.2008 146.906 96.2008 142.066 96.2008C134.75 96.2008 127.435 96.1785 120.119 96.2008C113.071 96.2231 107.072 101.398 106.425 108.512C106.269 110.252 106.38 112.059 106.38 113.798C106.38 115.739 106.38 117.657 106.38 119.597C103.347 119.575 100.291 119.508 97.2581 119.597C94.2695 119.686 91.8161 121.448 90.0987 123.813C88.5151 125.998 88.0468 128.296 88.0468 130.927C88.0468 133.47 88.5151 136.035 90.1433 138.065C91.7045 139.983 94.0241 140.875 96.4106 141.12C96.4106 146.428 96.4106 151.759 96.4106 157.067C96.4106 158.606 96.4106 160.167 96.4106 161.706C95.6746 162.063 95.0278 162.554 94.6486 163.245C94.5817 163.379 94.5148 163.535 94.4925 163.669C94.4256 163.847 94.381 164.026 94.4033 164.271C94.4033 164.293 94.4033 164.316 94.4033 164.338C94.4033 164.561 94.4033 164.784 94.4033 165.007C94.4033 166.033 94.4033 167.059 94.4033 168.085C94.4033 169.423 94.6709 170.36 95.853 171.141C96.0537 171.274 96.2545 171.386 96.4775 171.497C96.589 172.613 96.9013 173.706 97.615 174.709C98.5071 175.958 99.6 176.806 100.827 177.363C100.537 179.348 100.224 181.311 99.9345 183.296C99.8899 183.586 99.8453 183.898 99.8007 184.188C94.4702 194.492 89.095 204.752 83.7422 215.034C82.8947 216.662 82.0248 218.313 81.1773 219.941C80.7089 220.833 81.2888 221.97 82.3371 221.97C87.8906 221.97 93.4665 221.97 99.0201 221.97C112.38 221.97 125.74 221.97 139.077 221.97C155.225 221.97 171.373 221.97 187.543 221.97C201.505 221.97 215.467 221.97 229.406 221.97C236.164 221.97 242.967 222.216 249.703 221.97H249.725C249.814 221.97 249.926 221.97 250.015 221.97C250.684 221.948 251.085 221.547 251.219 221.034C251.375 220.699 251.375 220.32 251.175 219.941ZM225.838 116.363C227.087 114.668 229.161 113.575 231.235 114.49C232.797 115.181 233.867 116.832 233.421 118.527C232.819 120.824 230.098 122.675 227.756 122.095C224.968 121.381 224.388 118.571 225.838 116.363ZM222.47 117.523C222.336 118.214 222.292 118.906 222.381 119.575C222.046 119.575 221.734 119.575 221.399 119.575C221.734 118.883 222.091 118.192 222.47 117.523ZM205.854 125.017C207.95 123.478 210.627 123.077 213.281 123.367C211.764 125.262 210.85 127.671 210.85 130.08C210.85 132.422 210.85 134.741 210.85 137.083C209.891 134.206 208.865 131.351 207.705 128.563C207.214 127.381 206.724 125.976 205.854 125.017ZM218.121 159.744C216.56 154.971 215.065 150.175 213.526 145.38C213.526 144.131 213.526 142.904 213.526 141.655C213.526 138.644 213.526 135.633 213.526 132.622C213.526 131.284 213.348 129.79 213.66 128.452C214.039 126.801 215.021 125.151 216.359 123.969C216.85 124.125 217.318 124.281 217.786 124.459C218.299 124.66 219.058 124.326 219.303 123.835C219.548 123.344 219.771 122.854 220.017 122.385C220.53 122.363 221.043 122.363 221.578 122.363C222.225 122.363 222.849 122.363 223.496 122.363C223.697 122.63 223.942 122.898 224.187 123.143C226.507 125.285 230.076 125.441 232.64 123.656C233.131 123.322 233.599 122.92 234.023 122.497C234.715 122.608 235.361 122.809 236.053 123.255C238.105 124.549 239.822 127.091 239.889 129.567C239.934 131.507 239.978 133.582 239.108 135.343C237.926 137.752 235.406 138.577 232.863 138.577C232.127 138.577 231.503 139.202 231.503 139.938C231.503 145.313 231.503 150.711 231.503 156.086C231.503 159.654 231.503 163.223 231.503 166.769C231.503 168.397 231.815 170.427 231.391 172.033C230.41 175.557 226.418 175.891 222.961 175.869C221.935 174.129 220.953 172.367 220.217 170.538C220.552 170.315 220.864 170.092 221.176 169.847C221.868 169.312 221.645 168.375 221.065 167.884C220.998 167.706 220.864 167.527 220.797 167.371C220.619 167.014 220.44 166.501 220.173 165.832C219.459 163.803 218.79 161.773 218.121 159.744ZM219.883 167.55C220.061 167.483 220.195 167.483 220.329 167.505C220.173 167.505 220.039 167.505 219.883 167.55ZM222.626 180.463C222.046 180.664 221.489 180.932 220.953 181.266C219.771 182.002 218.768 183.006 218.188 184.3C217.831 185.147 217.719 185.995 217.742 186.887C217.764 187.712 217.92 188.537 218.099 189.363C218.478 191.058 221.065 190.344 220.708 188.649C220.217 186.463 220.418 184.723 222.492 183.519C224.254 182.493 226.529 182.315 228.403 183.162C229.986 183.876 231.213 185.236 232.194 186.642C232.663 187.311 233.109 188.024 233.533 188.738C233.956 189.452 234.625 190.277 234.648 191.125C234.715 194.225 230.566 195.92 228.046 196.21C224.79 196.589 221.89 194.805 219.571 192.73C218.032 191.37 216.493 190.054 214.931 188.738C214.039 187.98 212.946 187.043 212.746 185.816C212.679 185.393 213.08 183.363 213.616 183.452C213.839 183.965 214.017 184.478 214.017 184.835C214.017 186.352 216.069 186.552 216.582 185.437C216.671 185.259 216.716 185.08 216.716 184.835C216.693 182.382 214.865 179.794 213.66 177.765C213.08 176.783 212.456 175.802 211.831 174.843C212.567 174.486 213.281 174.129 213.995 173.772C215.266 173.148 216.604 172.546 217.875 171.877C219.191 174.865 220.931 177.698 222.626 180.463ZM200.033 175.155C202.241 175.155 204.449 175.155 206.657 175.155C206.679 175.244 206.724 175.334 206.768 175.423C207.014 176.07 207.705 176.627 208.419 176.36C208.753 176.248 209.066 176.114 209.4 175.98C209.958 176.828 210.493 177.698 211.028 178.568C211.14 178.746 211.251 178.925 211.341 179.103C205.118 179.103 198.895 179.103 192.65 179.103C193.007 177.787 193.364 176.471 193.698 175.155C195.817 175.155 197.914 175.155 200.033 175.155ZM205.609 172.457C201.884 172.457 198.137 172.457 194.412 172.457C195.907 166.658 197.289 160.836 198.628 155.015C200.836 160.859 203.356 166.635 205.609 172.457ZM174.941 149.64C178.153 149.774 181.075 148.458 183.885 147.031C184.197 146.874 184.532 146.696 184.844 146.54C187.989 144.889 191.2 143.417 194.479 142.035C194.881 143.707 195.349 145.358 195.862 147.008C196.196 148.101 196.553 149.216 196.932 150.309C194.724 160.279 192.316 170.204 189.617 180.04C186.428 179.46 183.238 178.858 180.049 178.278C180.45 174.91 180.941 171.52 181.498 168.174C182.524 161.773 183.662 155.261 185.736 149.105C185.803 148.904 185.825 148.703 185.803 148.547C185.803 148.48 185.781 148.413 185.758 148.346C185.758 148.324 185.758 148.324 185.736 148.302C185.714 148.235 185.692 148.19 185.669 148.123C185.669 148.123 185.669 148.123 185.669 148.101C185.647 148.056 185.602 148.012 185.58 147.967C185.558 147.945 185.558 147.945 185.535 147.923C185.491 147.878 185.446 147.833 185.402 147.789C185.379 147.767 185.379 147.767 185.357 147.767C185.312 147.744 185.29 147.722 185.245 147.7C185.223 147.677 185.201 147.677 185.179 147.655C185.156 147.633 185.112 147.61 185.089 147.61C185.045 147.588 185 147.566 184.933 147.544C184.911 147.544 184.889 147.521 184.866 147.521C184.732 147.477 184.599 147.454 184.465 147.454C184.309 147.454 184.175 147.477 184.019 147.499C183.617 147.61 183.283 147.878 183.104 148.369C180.985 154.636 179.848 161.26 178.8 167.773C178.554 169.334 178.309 170.895 178.086 172.457C175.097 172.457 172.131 172.457 169.142 172.457C167.425 172.457 165.708 172.457 163.968 172.457C165.306 172.077 166.8 171.609 167.782 170.628C168.139 170.271 168.384 169.847 168.473 169.356C168.496 169.245 168.518 169.111 168.518 168.977C168.518 167.438 168.629 165.877 168.518 164.338C168.54 164.048 168.473 163.825 168.362 163.647C168.027 162.732 167.202 162.13 166.287 161.706C164.459 160.836 162.429 160.413 160.466 160.033C157.455 159.476 154.422 159.097 151.366 158.807C143.181 158.026 134.951 157.848 126.721 158.004C124.401 158.048 122.082 158.115 119.785 158.227C119.785 152.651 119.785 147.075 119.785 141.499C120.855 141.499 121.926 141.499 123.019 141.499C136.066 141.499 149.091 141.499 162.139 141.499C162.518 141.499 162.897 141.499 163.299 141.499C165.061 146.25 169.745 149.417 174.941 149.64ZM100.091 173.505C99.8676 173.237 99.6892 172.947 99.5554 172.635C99.9791 172.746 100.403 172.836 100.827 172.925C101.05 172.97 101.295 173.014 101.518 173.081C101.451 173.594 101.362 174.085 101.295 174.598C100.849 174.285 100.448 173.929 100.091 173.505ZM106.96 122.363C108.142 122.363 109.347 122.341 110.529 122.363C112.581 122.407 114.253 123.634 115.458 125.24C116.908 127.158 117.153 129.032 117.153 131.262C117.153 133.849 117.153 136.436 117.153 139.024C117.153 145.469 117.153 151.915 117.153 158.338C112.982 158.584 108.834 158.985 104.707 159.632C102.856 159.922 100.983 160.234 99.1762 160.769C99.1762 155.885 99.1762 151.023 99.1762 146.138C99.1762 144.064 99.1762 141.968 99.1762 139.893C99.1762 139.157 98.5517 138.533 97.838 138.533C95.63 138.533 93.3104 137.953 92.0168 136.035C90.9239 134.407 90.8124 132.444 90.8124 130.526C90.8124 126.824 93.3327 122.43 97.4589 122.341C100.604 122.296 103.793 122.363 106.96 122.363ZM160.422 181.779C160.779 184.121 161.113 186.463 161.47 188.805C161.559 189.385 161.693 190.009 161.738 190.589C161.782 191.303 161.515 192.775 160.756 192.842C159.128 192.864 159.083 190.478 158.905 189.229C158.615 187.333 158.347 185.459 158.057 183.564C157.567 180.33 157.098 177.096 156.608 173.862C157.478 173.75 158.325 173.616 159.195 173.482C159.596 176.27 159.998 179.014 160.422 181.779ZM97.7488 169.133C97.5258 169.022 97.3473 168.888 97.1466 168.776C97.1912 168.464 97.1466 168.107 97.1466 167.817C97.1466 167.639 97.1466 167.461 97.1466 167.282C98.5963 167.884 100.291 168.174 101.362 168.42C107.027 169.624 112.893 170.07 118.647 170.382C126.342 170.806 134.037 170.828 141.731 170.516C147.865 170.248 154.021 169.825 160.065 168.732C162.005 168.375 163.99 167.974 165.819 167.215C165.841 167.75 165.864 168.263 165.886 168.754C165.797 168.821 165.953 168.776 165.663 168.933C165.15 169.245 164.615 169.446 164.035 169.646C162.072 170.293 159.998 170.672 157.946 171.007C151.456 172.033 144.832 172.39 138.274 172.568C130.602 172.769 122.885 172.657 115.235 172.1C110.038 171.721 104.641 171.319 99.6223 169.847C98.9755 169.624 98.3287 169.423 97.7488 169.133ZM97.0797 168.71C97.0574 168.687 97.0351 168.665 97.0351 168.643C97.0797 168.62 97.0797 168.665 97.0797 168.71ZM121.77 160.836C129.531 160.524 137.315 160.569 145.077 161.015C151.143 161.372 157.545 161.706 163.41 163.446C164.124 163.669 164.838 163.892 165.485 164.249C165.529 164.271 165.551 164.293 165.596 164.316C165.217 164.539 164.815 164.717 164.414 164.851C162.83 165.409 161.18 165.765 159.53 166.055C154.154 167.037 148.668 167.438 143.203 167.706C130.602 168.308 117.599 168.33 105.109 166.323C103.057 165.989 101.005 165.632 99.0201 164.963C98.4625 164.784 97.9495 164.583 97.4589 164.293C97.6819 164.16 97.8826 164.048 98.128 163.959C99.7115 163.267 101.54 162.933 103.235 162.598C109.324 161.483 115.569 161.082 121.77 160.836ZM110.663 175.78C110.172 175.78 109.659 175.802 109.146 175.802C109.213 175.289 109.302 174.754 109.369 174.241C111.131 174.442 112.893 174.598 114.677 174.731C113.45 175.423 111.956 175.757 110.663 175.78ZM104.15 173.549C104.997 173.683 105.867 173.817 106.737 173.929C106.269 177.006 105.823 180.084 105.354 183.14C105.02 185.459 104.663 187.757 104.328 190.076C104.128 191.37 104.105 194.225 102.388 194.202C101.697 194.136 101.362 192.73 101.384 192.061C101.407 191.615 101.518 191.147 101.585 190.701C101.875 188.783 102.165 186.865 102.455 184.924C103.012 181.133 103.57 177.341 104.15 173.549ZM108.744 178.501C109.391 178.501 110.038 178.478 110.663 178.478C113.562 178.412 116.528 177.274 118.29 175.155C118.402 175.155 118.513 175.155 118.625 175.155C119.629 175.155 120.655 175.155 121.658 175.155C125.472 175.311 129.286 175.356 133.1 175.334C135.843 175.311 138.564 175.267 141.308 175.155C145.568 175.155 149.805 175.155 154.065 175.155C154.266 176.471 154.467 177.787 154.667 179.103C153.151 179.103 151.656 179.103 150.14 179.103C139.679 179.103 129.219 179.103 118.736 179.103C115.391 179.103 112.023 179.014 108.655 179.014C108.7 178.835 108.722 178.679 108.744 178.501ZM162.139 175.155C167.336 175.155 172.532 175.155 177.729 175.155C177.551 176.471 177.395 177.787 177.239 179.103C172.399 179.103 167.559 179.103 162.719 179.103C162.54 177.787 162.34 176.471 162.139 175.155ZM192.561 195.585C192.249 196.767 191.111 196.79 190.063 196.99C188.524 197.28 186.963 197.459 185.379 197.481C183.015 197.526 178.956 197.28 178.175 194.448C177.484 191.883 178.867 189.608 181.142 188.448C183.751 187.11 187.074 187.244 189.528 188.85C191.401 190.099 193.208 193.288 192.561 195.585ZM188.011 182.471C188.011 182.493 188.011 182.493 188.011 182.515C187.966 183.474 188.056 184.433 188.256 185.348C185.669 184.612 182.703 184.857 180.272 185.95C180.807 184.478 181.342 182.984 181.967 181.534C181.989 181.489 182.011 181.423 182.034 181.378C184.019 181.735 186.026 182.092 188.011 182.471ZM233.31 219.272C219.95 219.272 206.59 219.272 193.252 219.272C177.105 219.272 160.957 219.272 144.787 219.272C130.825 219.272 116.863 219.272 102.923 219.272C98.3287 219.272 93.7342 219.272 89.1396 219.272C87.7122 219.272 86.3071 219.272 84.8797 219.272C84.7682 219.272 84.6789 219.272 84.5674 219.272C89.2958 210.216 94.0464 201.139 98.7748 192.084C98.7971 194.269 99.6446 196.477 102.009 196.879C102.12 196.901 102.232 196.923 102.366 196.923C102.499 196.946 102.611 196.923 102.7 196.923C105.31 196.767 106.38 194.269 106.715 191.95C107.005 189.942 107.317 187.935 107.607 185.928C107.808 184.567 108.008 183.185 108.231 181.824C110.752 181.824 113.272 181.824 115.815 181.824C125.829 181.824 135.843 181.824 145.857 181.824C148.935 181.824 151.991 181.824 155.069 181.824C155.091 182.025 155.136 182.225 155.158 182.404C155.537 184.969 155.916 187.556 156.318 190.121C156.675 192.574 157.567 195.407 160.422 195.563C160.533 195.585 160.645 195.585 160.756 195.563C160.89 195.563 161.002 195.541 161.113 195.518C166.109 194.715 163.968 187.422 163.477 184.099C163.366 183.341 163.254 182.582 163.143 181.802C168.429 181.802 173.715 181.802 179 181.802C178.019 184.322 177.172 186.909 176.123 189.407C176.034 189.586 176.012 189.786 176.012 189.965C175.432 191.191 175.209 192.619 175.454 194.247C176.079 198.574 180.406 200.001 184.242 200.157C186.294 200.247 188.346 200.024 190.375 199.667C192.093 199.377 193.855 199.042 194.769 197.37C196.643 194.002 194.323 189.251 191.535 186.954C191.535 186.731 191.468 186.485 191.379 186.262C190.911 185.192 190.71 184.032 190.732 182.872C191.267 182.828 191.758 182.493 191.914 181.913C191.937 181.869 191.937 181.824 191.959 181.779C198.471 181.779 204.962 181.779 211.474 181.779C210.694 182.649 210.203 183.876 210.114 184.902C209.824 188.002 212.389 189.965 214.53 191.727C216.426 193.31 218.165 195.095 220.173 196.522C222.18 197.927 224.477 198.663 226.908 198.842C229.919 199.042 233.31 197.793 235.428 195.518C239.064 202.477 242.699 209.413 246.312 216.372C246.803 217.331 247.316 218.29 247.807 219.249C242.967 219.272 238.127 219.272 233.31 219.272Z" fill="#5C5B5B"/>
<path d="M97.5483 182.895C99.2879 182.895 99.2879 180.196 97.5483 180.196C95.6971 180.196 93.8459 180.196 91.9947 180.196C90.255 180.196 90.255 182.895 91.9947 182.895C93.8459 182.895 95.6971 182.895 97.5483 182.895Z" fill="#5C5B5B"/>
<path d="M87.8907 190.165C89.7419 190.165 91.5931 190.165 93.4443 190.165C95.1839 190.165 95.1839 187.467 93.4443 187.467C91.5931 187.467 89.7419 187.467 87.8907 187.467C86.151 187.467 86.151 190.165 87.8907 190.165Z" fill="#5C5B5B"/>
<path d="M89.3405 194.738C87.4893 194.738 85.6381 194.738 83.7869 194.738C82.0473 194.738 82.0473 197.436 83.7869 197.436C85.6381 197.436 87.4893 197.436 89.3405 197.436C91.0802 197.436 91.0802 194.738 89.3405 194.738Z" fill="#5C5B5B"/>
<path d="M85.2365 202.009C83.3853 202.009 81.5341 202.009 79.6829 202.009C77.9433 202.009 77.9433 204.707 79.6829 204.707C81.5341 204.707 83.3853 204.707 85.2365 204.707C86.9762 204.707 86.9762 202.009 85.2365 202.009Z" fill="#5C5B5B"/>
<path d="M75.5792 209.28C73.8395 209.28 73.8395 211.978 75.5792 211.978C77.4304 211.978 79.2816 211.978 81.1327 211.978C82.8724 211.978 82.8724 209.28 81.1327 209.28C79.2816 209.28 77.4304 209.28 75.5792 209.28Z" fill="#5C5B5B"/>
<path d="M77.0512 216.551C75.2 216.551 73.3488 216.551 71.4976 216.551C69.758 216.551 69.758 219.249 71.4976 219.249C73.3488 219.249 75.2 219.249 77.0512 219.249C78.7686 219.249 78.7909 216.551 77.0512 216.551Z" fill="#5C5B5B"/>
<path d="M240.781 180.196C238.93 180.196 237.079 180.196 235.228 180.196C233.488 180.196 233.488 182.895 235.228 182.895C237.079 182.895 238.93 182.895 240.781 182.895C242.521 182.895 242.521 180.196 240.781 180.196Z" fill="#5C5B5B"/>
<path d="M239.332 190.165C241.183 190.165 243.034 190.165 244.885 190.165C246.625 190.165 246.625 187.467 244.885 187.467C243.034 187.467 241.183 187.467 239.332 187.467C237.592 187.467 237.592 190.165 239.332 190.165Z" fill="#5C5B5B"/>
<path d="M243.435 197.436C245.286 197.436 247.138 197.436 248.989 197.436C250.728 197.436 250.728 194.738 248.989 194.738C247.138 194.738 245.286 194.738 243.435 194.738C241.695 194.738 241.695 197.436 243.435 197.436Z" fill="#5C5B5B"/>
<path d="M247.539 204.707C249.391 204.707 251.242 204.707 253.093 204.707C254.833 204.707 254.833 202.009 253.093 202.009C251.242 202.009 249.391 202.009 247.539 202.009C245.8 202.009 245.8 204.707 247.539 204.707Z" fill="#5C5B5B"/>
<path d="M257.196 209.28C255.345 209.28 253.494 209.28 251.643 209.28C249.903 209.28 249.903 211.978 251.643 211.978C253.494 211.978 255.345 211.978 257.196 211.978C258.936 211.978 258.936 209.28 257.196 209.28Z" fill="#5C5B5B"/>
<path d="M261.301 216.551C259.45 216.551 257.598 216.551 255.747 216.551C254.007 216.551 254.007 219.249 255.747 219.249C257.598 219.249 259.45 219.249 261.301 219.249C263.04 219.249 263.04 216.551 261.301 216.551Z" fill="#5C5B5B"/>
<path d="M102.432 184.924C102.143 186.842 101.853 188.76 101.563 190.701C101.496 191.147 101.384 191.615 101.362 192.061C101.317 192.73 101.674 194.136 102.366 194.202C104.083 194.225 104.105 191.37 104.306 190.076C104.641 187.757 104.997 185.459 105.332 183.14C105.8 180.062 106.246 176.984 106.715 173.929C105.845 173.817 104.997 173.683 104.128 173.549C103.57 177.341 103.012 181.133 102.432 184.924Z" fill="white"/>
<path d="M159.195 173.505C158.325 173.639 157.478 173.772 156.608 173.884C157.098 177.118 157.567 180.352 158.057 183.586C158.347 185.482 158.615 187.355 158.905 189.251C159.083 190.5 159.128 192.886 160.756 192.864C161.514 192.797 161.782 191.325 161.737 190.612C161.693 190.009 161.559 189.407 161.47 188.827C161.113 186.485 160.778 184.144 160.422 181.802C159.998 179.014 159.596 176.27 159.195 173.505Z" fill="white"/>
<path d="M115.235 172.077C122.907 172.635 130.602 172.746 138.274 172.546C144.832 172.367 151.456 172.01 157.946 170.984C159.998 170.65 162.05 170.293 164.035 169.624C164.615 169.423 165.15 169.222 165.663 168.91C165.953 168.732 165.819 168.799 165.886 168.732C165.886 168.219 165.864 167.706 165.819 167.193C163.99 167.951 162.005 168.353 160.065 168.71C154.021 169.802 147.865 170.226 141.731 170.494C134.037 170.806 126.342 170.784 118.647 170.36C112.871 170.048 107.027 169.602 101.362 168.397C100.292 168.174 98.5965 167.862 97.1467 167.26C97.1467 167.438 97.1467 167.617 97.1467 167.795C97.1467 168.107 97.1913 168.464 97.1467 168.754C97.3475 168.888 97.5482 168.999 97.7489 169.111C98.3288 169.423 98.9756 169.624 99.6224 169.802C104.641 171.297 110.038 171.698 115.235 172.077Z" fill="white"/>
<path d="M97.0574 168.643C97.0574 168.643 97.0797 168.687 97.102 168.71C97.0797 168.665 97.0797 168.62 97.0574 168.643Z" fill="white"/>
<path d="M98.1059 163.981C97.8828 164.07 97.6598 164.204 97.4368 164.316C97.9274 164.606 98.4404 164.806 98.998 164.985C100.961 165.632 103.035 166.011 105.087 166.345C117.577 168.33 130.58 168.33 143.181 167.728C148.623 167.461 154.132 167.059 159.507 166.078C161.158 165.765 162.808 165.431 164.392 164.873C164.793 164.717 165.195 164.561 165.574 164.338C165.529 164.316 165.507 164.293 165.462 164.271C164.816 163.914 164.124 163.691 163.388 163.468C157.522 161.729 151.144 161.394 145.055 161.037C137.293 160.591 129.509 160.546 121.748 160.859C115.547 161.104 109.302 161.483 103.191 162.643C101.518 162.955 99.6894 163.29 98.1059 163.981Z" fill="white"/>
<path d="M114.053 65.1989C114.053 67.5408 114.053 69.905 114.053 72.2468C114.053 74.1873 114.053 76.1054 114.053 78.0458C114.053 78.4472 114.053 78.8487 114.053 79.2278C115.324 79.2055 116.595 79.2501 117.867 79.2501C121.257 79.2501 124.669 79.2501 128.059 79.2501C131.985 79.2501 135.91 79.2501 139.836 79.2501C143.07 79.2501 146.326 79.2501 149.56 79.2501C150.497 79.2501 151.433 79.2501 152.392 79.2501C152.392 78.6479 152.415 78.0458 152.415 77.4659C152.415 75.4362 152.415 73.4289 152.415 71.3993C152.415 69.0574 152.415 66.6933 152.415 64.3514C152.415 62.411 152.415 60.4929 152.415 58.5525C152.415 58.151 152.415 57.7496 152.415 57.3704C151.143 57.3927 149.872 57.3481 148.601 57.3481C145.211 57.3481 141.798 57.3481 138.408 57.3481C134.483 57.3481 130.557 57.3481 126.632 57.3481C123.398 57.3481 120.142 57.3481 116.908 57.3481C115.971 57.3481 115.034 57.3481 114.097 57.3481C114.097 57.9503 114.075 58.5525 114.075 59.1324C114.053 61.162 114.053 63.1916 114.053 65.1989Z" fill="#BE9C59"/>
<path d="M114.053 65.1989C114.053 67.5408 114.053 69.905 114.053 72.2468C114.053 74.1873 114.053 76.1054 114.053 78.0458C114.053 78.4472 114.053 78.8487 114.053 79.2278C115.324 79.2055 116.595 79.2501 117.867 79.2501C121.257 79.2501 124.669 79.2501 128.059 79.2501C131.985 79.2501 135.91 79.2501 139.836 79.2501C143.07 79.2501 146.326 79.2501 149.56 79.2501C150.497 79.2501 151.433 79.2501 152.392 79.2501C152.392 78.6479 152.415 78.0458 152.415 77.4659C152.415 75.4362 152.415 73.4289 152.415 71.3993C152.415 69.0574 152.415 66.6933 152.415 64.3514C152.415 62.411 152.415 60.4929 152.415 58.5525C152.415 58.151 152.415 57.7496 152.415 57.3704C151.143 57.3927 149.872 57.3481 148.601 57.3481C145.211 57.3481 141.798 57.3481 138.408 57.3481C134.483 57.3481 130.557 57.3481 126.632 57.3481C123.398 57.3481 120.142 57.3481 116.908 57.3481C115.971 57.3481 115.034 57.3481 114.097 57.3481C114.097 57.9503 114.075 58.5525 114.075 59.1324C114.053 61.162 114.053 63.1916 114.053 65.1989Z" fill="#E0C184" fill-opacity="0.5"/>
<path d="M111.622 80.4768C111.622 81.1236 112.179 81.6812 112.826 81.6812C114.187 81.6812 115.525 81.6812 116.885 81.6812C120.119 81.6812 123.376 81.6812 126.61 81.6812C130.535 81.6812 134.461 81.6812 138.386 81.6812C141.776 81.6812 145.189 81.6812 148.579 81.6812C150.229 81.6812 151.88 81.7258 153.53 81.6812C153.552 81.6812 153.575 81.6812 153.597 81.6812C154.221 81.6812 154.846 81.1236 154.801 80.4768C154.801 79.6739 154.801 78.8487 154.801 78.0458C154.801 76.1054 154.801 74.1873 154.801 72.2468C154.801 69.905 154.801 67.5408 154.801 65.1989C154.801 63.1693 154.801 61.162 154.801 59.1324C154.801 58.151 154.824 57.1474 154.801 56.166C154.801 56.1437 154.801 56.1437 154.801 56.1214C154.801 55.4746 154.244 54.917 153.597 54.917C152.236 54.917 150.898 54.917 149.538 54.917C146.304 54.917 143.047 54.917 139.813 54.917C135.888 54.917 131.963 54.917 128.037 54.917C124.647 54.917 121.235 54.917 117.844 54.917C116.194 54.917 114.543 54.8724 112.893 54.917C112.871 54.917 112.848 54.917 112.826 54.917C112.179 54.917 111.622 55.4746 111.622 56.1214C111.622 56.9243 111.622 57.7496 111.622 58.5525C111.622 60.4929 111.622 62.411 111.622 64.3514C111.622 66.6933 111.622 69.0574 111.622 71.3993C111.622 73.4289 111.622 75.4362 111.622 77.4659C111.622 78.4472 111.599 79.4509 111.622 80.4322C111.622 80.4545 111.622 80.4768 111.622 80.4768ZM116.885 57.3481C120.119 57.3481 123.376 57.3481 126.61 57.3481C130.535 57.3481 134.461 57.3481 138.386 57.3481C141.776 57.3481 145.189 57.3481 148.579 57.3481C149.85 57.3481 151.121 57.3927 152.393 57.3704C152.393 57.7719 152.393 58.1733 152.393 58.5525C152.393 60.4929 152.393 62.411 152.393 64.3514C152.393 66.6933 152.393 69.0574 152.393 71.3993C152.393 73.4289 152.393 75.4362 152.393 77.4659C152.393 78.0681 152.393 78.6703 152.37 79.2501C151.433 79.2501 150.497 79.2501 149.538 79.2501C146.304 79.2501 143.047 79.2501 139.813 79.2501C135.888 79.2501 131.963 79.2501 128.037 79.2501C124.647 79.2501 121.235 79.2501 117.844 79.2501C116.573 79.2501 115.302 79.2055 114.031 79.2278C114.031 78.8264 114.031 78.4249 114.031 78.0458C114.031 76.1054 114.031 74.1873 114.031 72.2468C114.031 69.905 114.031 67.5408 114.031 65.1989C114.031 63.1693 114.031 61.162 114.031 59.1324C114.031 58.5302 114.053 57.928 114.053 57.3481C115.012 57.3481 115.949 57.3481 116.885 57.3481Z" fill="#5C5B5B"/>
<path d="M194.769 68.9013C193.096 69.0351 191.446 68.656 189.996 67.92C188.836 68.2991 187.632 68.4329 186.45 68.3437C184.777 68.2322 183.149 67.7192 181.721 66.8048C181.164 68.0315 180.338 69.0798 179.29 69.905C178.599 70.4403 177.84 70.8863 177.015 71.1986C176.837 71.6224 176.458 71.9123 175.833 71.8231C173.246 71.4885 173.781 77.0421 176.458 75.9492C176.971 75.7485 177.394 75.86 177.684 76.1723C177.952 76.3284 178.175 76.5737 178.287 76.9752C179.558 81.592 183.974 85.1606 188.948 83.9785C192.338 83.1756 193.832 79.8077 194.523 76.6852C195.059 74.2542 195.326 71.4662 195.081 68.8344C194.992 68.879 194.88 68.9013 194.769 68.9013ZM185.446 73.8304C183.706 73.8304 183.706 71.1317 185.446 71.1317C187.186 71.1317 187.186 73.8304 185.446 73.8304ZM190.13 81.7704C189.639 82.105 189.037 82.3503 188.435 82.3057C187.632 82.2388 187.007 81.7928 186.583 81.1236C186.16 80.4992 186.472 79.6516 187.074 79.2725C187.609 78.9379 188.278 79.094 188.702 79.4955C188.747 79.4732 188.769 79.4509 188.791 79.4286C189.416 79.0048 190.263 79.3394 190.643 79.9193C191.022 80.5884 190.687 81.369 190.13 81.7704ZM191.825 73.4066C190.085 73.4066 190.085 70.7079 191.825 70.7079C193.564 70.7079 193.564 73.4066 191.825 73.4066Z" fill="white"/>
<path d="M179.714 64.173C179.893 63.147 181.298 62.924 181.967 63.5708C183.238 64.8421 184.844 65.5335 186.539 65.645C186.16 64.9759 185.937 64.2176 185.892 63.3701C185.825 62.0318 187.788 61.5189 188.413 62.6787C188.859 63.5485 189.483 64.2845 190.197 64.8421C191.424 65.8011 192.985 66.2918 194.658 66.2026C194.613 66.0242 194.568 65.8681 194.524 65.6896C194.457 65.4443 194.368 65.1989 194.278 64.9536C194.234 64.8421 194.189 64.7306 194.145 64.6191C194.1 64.5075 194.055 64.3737 194.011 64.2622C193.944 64.1061 193.877 63.9499 193.788 63.8161C193.743 63.7492 193.721 63.6823 193.676 63.5931C193.587 63.4147 193.498 63.2585 193.386 63.0801C193.364 63.0355 193.342 62.9909 193.319 62.9686C193.208 62.7902 193.096 62.5894 192.963 62.411C192.94 62.3887 192.94 62.3664 192.918 62.3664C192.784 62.1657 192.65 61.9872 192.494 61.8088C192.494 61.8088 192.494 61.8088 192.472 61.7865C192.115 61.3404 191.714 60.8944 191.267 60.5152C189.238 58.7086 186.517 57.7942 183.573 58.4187C181.164 58.9317 179.023 60.4706 177.952 62.6787C177.127 64.396 176.926 66.2918 176.971 68.1876C178.488 67.3624 179.424 65.8904 179.714 64.173Z" fill="white"/>
<path d="M184.465 147.432C184.599 147.432 184.755 147.454 184.889 147.499C184.911 147.499 184.933 147.521 184.956 147.521C185 147.543 185.045 147.566 185.112 147.588C185.134 147.61 185.179 147.61 185.201 147.633C185.223 147.655 185.245 147.655 185.268 147.677C185.312 147.7 185.335 147.722 185.379 147.744C185.402 147.744 185.402 147.767 185.424 147.767C185.468 147.811 185.513 147.856 185.558 147.9C185.58 147.923 185.58 147.923 185.602 147.945C185.647 147.99 185.669 148.034 185.692 148.079C185.692 148.079 185.692 148.079 185.692 148.101C185.714 148.146 185.736 148.213 185.758 148.28C185.758 148.302 185.758 148.302 185.781 148.324C185.803 148.391 185.825 148.458 185.825 148.525C185.848 148.703 185.825 148.882 185.758 149.082C183.684 155.238 182.547 161.751 181.521 168.152C180.985 171.52 180.495 174.888 180.071 178.255C183.26 178.835 186.45 179.437 189.639 180.017C192.338 170.182 194.747 160.256 196.955 150.287C196.576 149.194 196.219 148.101 195.884 146.986C195.371 145.335 194.925 143.685 194.501 142.012C191.223 143.395 188.011 144.867 184.866 146.518C184.554 146.674 184.242 146.852 183.907 147.008C183.974 147.164 184.019 147.32 184.063 147.477C184.175 147.454 184.331 147.432 184.465 147.432Z" fill="#E0E0E0"/>
<path d="M181.967 181.512C181.343 182.961 180.807 184.433 180.272 185.928C182.703 184.835 185.647 184.59 188.257 185.326C188.056 184.411 187.967 183.474 188.011 182.493C188.011 182.471 188.011 182.471 188.011 182.448C186.026 182.069 184.019 181.712 182.034 181.333C182.012 181.4 181.989 181.467 181.967 181.512Z" fill="white"/>
<path d="M214.017 173.772C213.303 174.107 212.59 174.486 211.854 174.843C212.478 175.802 213.08 176.783 213.682 177.765C214.887 179.794 216.716 182.359 216.738 184.835C216.738 185.058 216.693 185.259 216.604 185.437L217.742 186.887C217.719 186.017 217.809 185.147 218.188 184.3C218.745 183.028 219.771 182.002 220.953 181.266C221.489 180.932 222.046 180.664 222.626 180.463C220.953 177.698 219.191 174.865 217.898 171.877C216.626 172.546 215.311 173.148 214.017 173.772Z" fill="white"/>
<path d="M188.413 79.6739C188.435 79.6739 188.457 79.6739 188.502 79.6516C188.48 79.6516 188.479 79.6516 188.479 79.6516C188.435 79.6516 188.435 79.6516 188.413 79.6739Z" fill="#BE9C59"/>
<path d="M188.413 79.6739C188.435 79.6739 188.457 79.6739 188.502 79.6516C188.48 79.6516 188.479 79.6516 188.479 79.6516C188.435 79.6516 188.435 79.6516 188.413 79.6739Z" fill="#E0C184" fill-opacity="0.5"/>
<path d="M219.883 167.55C220.039 167.505 220.172 167.483 220.329 167.505C220.195 167.483 220.061 167.505 219.883 167.55Z" fill="#BE9C59"/>
<path d="M219.883 167.55C220.039 167.505 220.172 167.483 220.329 167.505C220.195 167.483 220.061 167.505 219.883 167.55Z" fill="#E0C184" fill-opacity="0.5"/>
<path d="M214.04 184.813C214.04 184.456 213.861 183.943 213.638 183.43C213.103 183.341 212.701 185.348 212.768 185.794C212.969 187.021 214.062 187.957 214.954 188.716C216.515 190.032 218.077 191.348 219.593 192.708C221.913 194.76 224.812 196.567 228.068 196.187C230.566 195.897 234.737 194.202 234.67 191.102C234.648 190.255 233.979 189.407 233.555 188.716C233.131 188.002 232.685 187.311 232.217 186.619C231.236 185.214 230.009 183.854 228.425 183.14C226.552 182.292 224.277 182.471 222.515 183.497C220.441 184.701 220.24 186.441 220.731 188.627C221.11 190.322 218.5 191.035 218.121 189.34C217.943 188.515 217.787 187.69 217.764 186.865L216.627 185.415C216.092 186.53 214.062 186.329 214.04 184.813Z" fill="#E0E0E0"/>
<path d="M185.446 71.1317C183.706 71.1317 183.706 73.8304 185.446 73.8304C187.186 73.8304 187.186 71.1317 185.446 71.1317Z" fill="#5C5B5B"/>
<path d="M191.825 70.7079C190.085 70.7079 190.085 73.4066 191.825 73.4066C193.565 73.4066 193.565 70.7079 191.825 70.7079Z" fill="#5C5B5B"/>
<path d="M197.78 73.5628C198.025 70.9309 197.891 68.2099 197.334 65.8011C195.996 59.913 191.067 55.2293 184.799 55.5861C181.543 55.7646 178.465 57.3481 176.525 59.9799C174.584 62.6117 174.183 66.0465 174.383 69.2582C172.666 69.8158 171.551 71.7116 171.462 73.5405C171.439 73.8973 171.462 74.2765 171.529 74.611C171.975 76.9306 173.737 79.0717 176.079 78.8264C176.413 79.7408 176.859 80.6107 177.372 81.4136C177.328 81.5474 177.283 81.7035 177.283 81.8597C177.238 82.7518 177.238 83.6662 177.194 84.5584C177.194 84.6253 177.194 84.7145 177.194 84.7814C177.194 85.0045 177.216 85.1829 177.283 85.339C177.751 86.4988 179.826 86.2981 179.892 84.7814C179.892 84.603 179.892 84.4246 179.915 84.2461C181.877 85.8297 184.309 86.7887 187.052 86.8333C188.479 86.8556 189.751 86.588 190.888 86.0973C191.535 85.8297 192.115 85.4728 192.672 85.0714C194.479 83.7332 195.795 81.7035 196.598 79.3617C197.2 77.5997 197.601 75.5924 197.78 73.5628ZM178.019 62.7233C179.09 60.4929 181.231 58.954 183.639 58.4633C186.584 57.8388 189.305 58.7532 191.334 60.5598C191.758 60.939 192.159 61.3627 192.539 61.8311C192.539 61.8311 192.539 61.8311 192.561 61.8534C192.695 62.0319 192.851 62.2103 192.985 62.411C193.007 62.4333 193.007 62.4556 193.029 62.4556C193.163 62.634 193.275 62.8125 193.386 63.0132C193.408 63.0578 193.431 63.1024 193.453 63.1247C193.542 63.3031 193.654 63.4593 193.743 63.6377C193.788 63.7046 193.81 63.7715 193.854 63.8607C193.921 64.0169 194.011 64.1507 194.077 64.3068C194.122 64.4183 194.167 64.5521 194.211 64.6637C194.256 64.7752 194.301 64.8867 194.345 64.9982C194.434 65.2436 194.501 65.4889 194.59 65.7342C194.635 65.8904 194.68 66.0688 194.724 66.2472C193.052 66.3364 191.513 65.8681 190.264 64.8867C189.55 64.3291 188.925 63.5931 188.479 62.7233C187.877 61.5635 185.892 62.0765 185.959 63.4147C186.004 64.2399 186.227 65.0205 186.606 65.6896C184.911 65.5781 183.305 64.8644 182.034 63.6154C181.364 62.9463 179.959 63.1693 179.781 64.2176C179.491 65.9573 178.554 67.4293 177.082 68.2991C176.993 66.3587 177.194 64.4406 178.019 62.7233ZM194.524 76.7076C193.832 79.83 192.338 83.1979 188.948 84.0008C183.996 85.1829 179.558 81.6143 178.287 76.9975C178.175 76.6183 177.952 76.3507 177.684 76.1946C177.394 75.9046 176.971 75.7708 176.458 75.9715C173.759 77.0644 173.246 71.4885 175.833 71.8454C176.458 71.9346 176.837 71.6447 177.015 71.2209C177.841 70.9086 178.621 70.4626 179.29 69.9273C180.339 69.1021 181.186 68.0315 181.721 66.8271C183.149 67.7415 184.777 68.2768 186.45 68.366C187.632 68.433 188.836 68.2991 189.996 67.9423C191.446 68.7006 193.096 69.0575 194.769 68.9236C194.88 68.9236 194.992 68.9013 195.081 68.8567C195.326 71.4885 195.059 74.2542 194.524 76.7076Z" fill="#5C5B5B"/>
<path d="M159.151 120.021C159.128 119.129 159.084 118.214 159.061 117.322C159.017 116.185 158.994 115.07 158.95 113.932C156.653 113.085 153.909 114.49 153.619 117.032C153.463 118.281 153.798 119.575 154.868 120.289C155.85 120.935 157.5 121.493 158.66 120.98C158.705 120.958 158.994 120.712 159.173 120.668C159.173 120.512 159.173 120.378 159.173 120.222C159.173 120.132 159.151 120.088 159.151 120.021Z" fill="white"/>
<path d="M200.479 120.846C199.877 121.582 200.189 122.474 200.769 122.943C200.813 122.987 200.88 123.01 200.925 123.054C200.925 123.054 200.925 123.054 200.947 123.054C200.992 123.077 201.059 123.121 201.126 123.143C201.549 123.3 202.018 123.233 202.419 122.764C205.497 118.95 211.028 118.125 215.578 119.196C216.136 119.33 216.827 119.107 217.095 118.571C218.098 116.675 219.08 114.244 220.663 112.795C224.254 109.494 229.473 108.847 233.912 110.497C234.469 110.698 234.915 110.542 235.205 110.185C235.741 109.538 235.696 108.289 234.625 107.888C231.904 106.884 229.027 106.661 226.284 107.174C226.262 107.04 226.239 106.906 226.217 106.773C225.28 102.468 222.135 98.8772 218.076 97.2268C215.355 96.1339 212.567 96.2677 209.712 96.2677C208.419 96.2677 207.125 96.2677 205.832 96.2677C205.006 93.8589 204.248 91.294 202.865 89.2198C201.059 86.4988 198.293 85.5174 195.193 85.0045C194.702 84.9152 194.301 85.0714 194.011 85.339C193.275 86.0081 193.252 87.3909 194.479 87.5917C196.018 87.837 197.668 88.1046 198.984 88.9745C200.166 89.7551 200.88 90.9595 201.438 92.2308C202.709 95.041 203.601 98.0743 204.694 100.951C205.653 103.472 206.612 105.992 207.571 108.512C208.575 111.144 210.783 113.91 213.549 114.757C214.351 115.003 214.931 114.512 215.132 113.887C215.333 113.218 215.11 112.415 214.262 112.148C211.742 111.367 210.493 108.668 209.645 106.394C208.686 103.896 207.75 101.398 206.813 98.8995C208.441 98.8995 210.069 98.8995 211.72 98.8995C212.188 98.8995 212.634 98.8995 213.102 98.8995C217.229 98.9664 220.998 101.308 222.805 105.055C223.251 105.97 223.496 106.907 223.652 107.866C222.269 108.401 220.931 109.115 219.727 110.051C218.188 111.211 217.117 112.817 216.18 114.512C215.846 115.114 215.534 115.716 215.221 116.319C211.764 115.716 207.928 116.006 204.739 117.523C203.088 118.348 201.638 119.419 200.479 120.846Z" fill="#5C5B5B"/>
<path d="M227.756 122.095C230.098 122.697 232.819 120.824 233.421 118.527C233.867 116.832 232.797 115.159 231.235 114.49C229.161 113.575 227.109 114.668 225.838 116.363C224.388 118.571 224.968 121.381 227.756 122.095Z" fill="white"/>
<path d="M162.05 135.366C162.095 135.923 162.407 136.303 162.808 136.503C163.634 136.905 164.816 136.526 164.749 135.366C164.526 131.976 164.481 128.608 164.481 125.218C165.663 125.218 166.845 125.195 168.027 125.195C168.094 125.195 168.161 125.195 168.228 125.195C168.34 125.195 168.473 125.173 168.563 125.151C170.726 124.839 172.02 123.233 172.042 121.025C172.064 119.352 172.042 117.657 172.042 115.984C172.042 114.646 172.109 113.285 172.042 111.947C171.93 109.583 170.168 108.155 167.893 108.111C166.912 108.089 165.775 108.022 164.637 108.044C164.637 107.62 164.637 107.219 164.615 106.795C164.57 105.055 161.872 105.055 161.916 106.795C161.938 107.33 161.938 107.866 161.938 108.401C160.6 108.802 159.574 109.605 159.262 111.211C157.009 110.653 154.422 111.211 152.749 112.817C150.675 114.78 150.274 118.482 151.746 120.891C153.195 123.255 156.965 124.482 159.552 123.478C159.641 123.456 159.73 123.411 159.797 123.366C160.087 123.813 160.444 124.214 160.89 124.504C161.158 124.682 161.448 124.839 161.76 124.95C161.782 128.429 161.827 131.886 162.05 135.366ZM158.66 120.958C157.522 121.493 155.85 120.913 154.868 120.266C153.775 119.553 153.463 118.259 153.619 117.01C153.931 114.467 156.653 113.062 158.95 113.91C158.994 115.047 159.017 116.162 159.061 117.3C159.084 118.192 159.128 119.107 159.151 119.999C159.151 120.066 159.151 120.132 159.151 120.177C159.151 120.333 159.151 120.467 159.151 120.623C158.994 120.69 158.704 120.935 158.66 120.958ZM162.34 111.033C163.121 110.453 164.994 110.81 165.886 110.81C166.823 110.81 168.897 110.408 169.299 111.59C169.566 112.349 169.366 113.464 169.366 114.244C169.366 115.939 169.366 117.634 169.366 119.33C169.366 120.356 169.745 122.407 168.228 122.519C167.091 122.519 165.975 122.519 164.838 122.519C163.745 122.519 162.05 122.854 161.872 121.359C161.76 120.445 161.872 119.419 161.872 118.482C161.872 116.943 161.872 115.426 161.872 113.887C161.894 113.129 161.604 111.568 162.34 111.033Z" fill="#5C5B5B"/>
<path d="M181.164 188.448C178.889 189.608 177.506 191.883 178.198 194.448C178.956 197.258 183.038 197.503 185.402 197.481C186.963 197.459 188.547 197.28 190.086 196.99C191.134 196.79 192.249 196.767 192.584 195.585C193.208 193.288 191.424 190.099 189.55 188.85C187.075 187.244 183.774 187.11 181.164 188.448Z" fill="#E0E0E0"/>
<path d="M165.417 138.89C166.064 144.243 171.93 147.722 177.038 146.83C180.249 146.272 183.104 144.354 185.981 142.927C188.948 141.455 192.003 140.139 195.059 138.89C195.706 138.622 196.575 139.18 196.709 139.826C199.319 151.424 204.582 162.197 208.798 173.259C208.887 173.215 208.976 173.17 209.065 173.148C210.27 172.59 211.474 172.033 212.656 171.453C214.485 170.583 216.671 169.624 218.388 168.553C218.21 168.152 218.076 167.773 217.965 167.483C217.139 165.431 216.47 163.334 215.779 161.238C212.344 150.8 209.511 140.072 205.363 129.901C205.095 129.232 204.783 128.519 204.426 127.805C204.292 127.537 204.136 127.292 204.003 127.024C203.958 126.935 203.891 126.868 203.846 126.801L203.824 126.779C203.824 126.779 203.824 126.779 203.802 126.779C203.802 126.779 203.779 126.757 203.757 126.757C203.646 126.667 203.49 126.6 203.356 126.534C203.512 126.6 202.82 126.377 202.597 126.333C202.084 126.244 200.925 126.266 200.144 126.377C197.222 126.757 194.367 127.783 191.602 128.764C187.007 130.392 182.502 132.266 178.019 134.161C177.238 134.496 176.658 134.028 176.48 133.381L165.239 138.399C165.328 138.511 165.395 138.689 165.417 138.89Z" fill="#E0E0E0"/>
<path d="M191.022 87.101C191 87.1456 190.955 87.1679 190.933 87.2125C189.617 88.9745 186.294 88.9745 184.354 88.8853C182.346 88.7737 179.157 88.3723 177.885 86.5657C177.596 86.1419 177.172 85.9858 176.77 85.9858C175.789 85.9858 174.852 86.9449 175.566 87.9485C177.484 90.6472 181.253 91.4279 184.376 91.6063C187.498 91.7624 191.29 91.2717 193.297 88.6176C194.279 87.2348 192.093 85.9189 191.022 87.101Z" fill="#5C5B5B"/>
<path d="M198.717 120.913C198.65 117.835 198.695 114.757 198.784 111.657C198.873 108.245 198.94 104.832 198.873 101.398C198.828 99.6579 196.13 99.6579 196.174 101.398C196.33 107.888 195.884 114.4 196.041 120.891C196.063 121.627 196.576 122.051 197.133 122.162C197.869 122.318 198.739 121.894 198.717 120.913Z" fill="#5C5B5B"/>
<path d="M199.497 113.664C200.3 114.624 201.103 115.605 201.906 116.564C202.352 117.099 203.222 117.055 203.713 116.631C203.735 116.609 203.78 116.586 203.802 116.564C204.36 116.006 204.27 115.226 203.802 114.646C202.999 113.687 202.196 112.705 201.393 111.746C200.925 111.189 199.966 111.256 199.475 111.746C199.364 111.858 199.297 111.969 199.23 112.081C199.007 112.594 199.118 113.196 199.497 113.664Z" fill="#5C5B5B"/>
<path d="M161.894 121.359C162.072 122.854 163.767 122.519 164.86 122.519C165.998 122.519 167.113 122.519 168.25 122.519C169.767 122.407 169.388 120.378 169.388 119.33C169.388 117.634 169.388 115.939 169.388 114.244C169.388 113.464 169.589 112.349 169.321 111.59C168.897 110.43 166.845 110.81 165.908 110.81C165.016 110.81 163.165 110.453 162.362 111.033C161.626 111.568 161.894 113.129 161.894 113.888C161.894 115.426 161.894 116.943 161.894 118.482C161.894 119.419 161.782 120.445 161.894 121.359Z" fill="white"/>
<path d="M188.747 79.4509C188.725 79.4732 188.703 79.4955 188.658 79.5178C188.234 79.1163 187.565 78.9602 187.03 79.2948C186.45 79.6739 186.138 80.4992 186.539 81.146C186.985 81.8151 187.588 82.2834 188.39 82.328C188.993 82.3726 189.595 82.1273 190.086 81.7928C190.665 81.3913 190.978 80.5884 190.576 79.9416C190.242 79.3617 189.372 79.0048 188.747 79.4509ZM188.413 79.6739C188.435 79.6739 188.457 79.6516 188.48 79.6516H188.502C188.457 79.6516 188.435 79.6739 188.413 79.6739Z" fill="#5C5B5B"/>
<path d="M86.4857 62.1434C81.2667 62.1434 76.0476 62.1434 70.8063 62.1434C70.6725 62.9686 70.5164 63.7715 70.3826 64.5968C69.0443 72.3807 67.7061 80.1646 66.3679 87.9708C66.9478 87.9708 67.5277 87.9708 68.1076 87.9708C75.7131 87.9708 83.3186 87.9708 90.9241 87.9708C90.8349 87.4355 90.7456 86.878 90.6341 86.3427C89.2513 78.2465 87.8685 70.1949 86.4857 62.1434Z" fill="white"/>
<path d="M89.8757 63.7715C89.675 62.5672 89.4742 61.3851 89.2512 60.1807C89.1397 59.5116 88.3814 59.0432 87.7569 59.0432C81.668 59.0432 75.5792 59.0432 69.4903 59.0432C68.8658 59.0432 68.1075 59.5116 67.996 60.1807C66.5685 68.6114 65.1188 77.0644 63.6691 85.4952C63.4684 86.6995 63.2676 87.8816 63.0446 89.086C62.8662 90.0674 63.4461 91.0487 64.5389 91.0487C68.732 91.0487 72.9027 91.0487 77.0958 91.0487C77.0958 98.6988 77.0958 106.371 77.0958 114.021C77.0958 126.333 77.0958 138.644 77.0958 150.978C77.0958 153.789 77.0958 156.599 77.0958 159.431C77.0958 161.416 80.196 161.416 80.196 159.431C80.196 151.692 80.196 143.975 80.196 136.236C80.196 123.924 80.196 111.613 80.196 99.2787C80.196 96.5354 80.196 93.7921 80.196 91.0487C83.1847 91.0487 86.1956 91.0487 89.1843 91.0487C90.3664 91.0487 91.5708 91.0487 92.7529 91.0487C93.645 91.0487 94.1357 90.4465 94.2249 89.7551C94.2695 89.5544 94.2918 89.3314 94.2472 89.086C92.7752 80.6553 91.3254 72.2023 89.8757 63.7715ZM68.1075 87.9485C67.5276 87.9485 66.9477 87.9485 66.3678 87.9485C67.706 80.1646 69.0442 72.3807 70.3824 64.5745C70.5163 63.7492 70.6724 62.9463 70.8062 62.1211C76.0252 62.1211 81.2443 62.1211 86.4856 62.1211C87.8684 70.1726 89.2512 78.2465 90.634 86.2981C90.7232 86.8334 90.8125 87.391 90.924 87.9262C83.3185 87.9485 75.713 87.9485 68.1075 87.9485Z" fill="#5C5B5B"/>
<path d="M70.4049 166.39C69.3566 168.174 68.3084 169.981 67.2378 171.765C67.5277 171.765 67.8177 171.765 68.1076 171.765C75.4232 171.765 82.7387 171.765 90.032 171.765C88.9837 169.981 87.9354 168.174 86.8649 166.39C81.4005 166.39 75.8916 166.39 70.4049 166.39Z" fill="white"/>
<path d="M89.675 165.029C89.162 164.137 88.8051 163.401 87.6453 163.312C86.6863 163.245 85.7049 163.312 84.7459 163.312C81.0881 163.312 77.4526 163.312 73.7949 163.312C72.0329 163.312 69.0665 162.665 67.996 164.383C66.3232 167.037 64.8065 169.825 63.2007 172.523C62.5985 173.527 63.3568 174.843 64.5389 174.843C72.7466 174.843 80.9543 174.843 89.162 174.843C90.3441 174.843 91.5485 174.843 92.7305 174.843C93.3773 174.843 93.8011 174.508 94.0464 174.085C94.3364 173.661 94.4256 173.103 94.0688 172.523C92.619 170.025 91.147 167.527 89.675 165.029ZM68.1075 171.765C67.8175 171.765 67.5276 171.765 67.2376 171.765C68.2859 169.981 69.3342 168.174 70.4047 166.39C75.8914 166.39 81.4004 166.39 86.887 166.39C87.9353 168.174 88.9836 169.981 90.0541 171.765C82.7386 171.765 75.423 171.765 68.1075 171.765Z" fill="#5C5B5B"/>
</g>
<defs>
<clipPath id="clip0_4513_26603">
<rect width="250" height="187.059" fill="white" transform="translate(63 35)"/>
</clipPath>
</defs>
</svg>
