<?xml version="1.0" encoding="utf-8"?>
<!-- Generator: Adobe Illustrator 25.2.3, SVG Export Plug-In . SVG Version: 6.00 Build 0)  -->
<svg version="1.1" id="Layer_1" xmlns="http://www.w3.org/2000/svg" xmlns:xlink="http://www.w3.org/1999/xlink" x="0px" y="0px"
	 viewBox="0 0 11 9" style="enable-background:new 0 0 11 9;" xml:space="preserve">
<style type="text/css">
	.st0{fill:#EB5757;}
	.st1{fill-rule:evenodd;clip-rule:evenodd;fill:#EB5757;}
</style>
<g>
	<g>
		<rect x="0.5" class="st0" width="10" height="1"/>
	</g>
	<g>
		<path class="st1" d="M2.2,8.4l3.3-3.7l3.3,3.7c0.2,0.2,0.4,0.2,0.6,0c0.2-0.2,0.2-0.5,0-0.7L5.8,3.6C5.7,3.5,5.6,3.5,5.5,3.5
			c-0.1,0-0.2,0-0.3,0.1L1.6,7.7C1.5,7.8,1.5,7.9,1.5,8c0,0.1,0,0.2,0.1,0.3C1.8,8.5,2,8.5,2.2,8.4z"/>
		<path class="st0" d="M1.9,8.6C1.9,8.6,1.9,8.6,1.9,8.6c-0.1,0-0.3-0.1-0.4-0.2C1.5,8.3,1.4,8.2,1.4,8s0.1-0.3,0.1-0.4l3.6-4.1
			c0.2-0.2,0.5-0.2,0.7,0l3.6,4.1c0.2,0.2,0.2,0.6,0,0.8c-0.2,0.2-0.5,0.2-0.7,0L5.5,4.8L2.3,8.4C2.2,8.5,2,8.6,1.9,8.6z M5.5,3.6
			c-0.1,0-0.2,0-0.2,0.1L1.7,7.8C1.6,7.8,1.6,7.9,1.6,8s0,0.2,0.1,0.3c0.1,0.1,0.1,0.1,0.2,0.1h0c0.1,0,0.2,0,0.2-0.1l3.4-3.8
			l3.4,3.8c0.1,0.1,0.3,0.1,0.4,0c0.1-0.1,0.1-0.4,0-0.5L5.7,3.7C5.7,3.6,5.6,3.6,5.5,3.6z"/>
	</g>
</g>
</svg>
