<svg width="60" height="43" viewBox="0 0 60 43" fill="none" xmlns="http://www.w3.org/2000/svg">
<path d="M0 39.1139C0 37.3492 1.29561 36.0312 3.14966 36.0312C5.00372 36.0312 6.29933 37.3269 6.29933 39.1139C6.29933 40.8786 5.00372 42.1966 3.14966 42.1966C1.29561 42.1966 0 40.8786 0 39.1139ZM5.36113 39.1139C5.36113 37.8406 4.46761 36.8801 3.14966 36.8801C1.83172 36.8801 0.938197 37.8183 0.938197 39.1139C0.938197 40.3872 1.83172 41.3477 3.14966 41.3477C4.46761 41.3254 5.36113 40.3872 5.36113 39.1139Z" fill="black"/>
<path d="M7.03638 39.4266C7.03638 38.1086 7.81821 37.4832 8.95745 37.4832C10.0967 37.4832 10.8785 38.1086 10.8785 39.4489V39.4936H10.0297V39.4489C10.0297 38.6224 9.60525 38.2873 8.95745 38.2873C8.30965 38.2873 7.88522 38.6224 7.88522 39.4489V42.0848H7.03638V39.4266Z" fill="black"/>
<path d="M11.2808 39.8064C11.2808 38.3321 12.3753 37.4832 13.5592 37.4832C14.2741 37.4832 14.8995 37.8183 15.2123 38.3767V35.6292H16.0611V39.784C16.0611 41.236 15.0559 42.1742 13.6933 42.1742C12.286 42.1742 11.2808 41.1913 11.2808 39.8064ZM15.2123 39.8287C15.2123 38.9352 14.5868 38.265 13.6933 38.265C12.7774 38.265 12.1519 38.9128 12.1519 39.8287C12.1519 40.7222 12.7774 41.3924 13.6933 41.3924C14.6091 41.3924 15.2123 40.7222 15.2123 39.8287Z" fill="black"/>
<path d="M16.7759 39.8286C16.7759 38.466 17.7811 37.4832 19.1884 37.4832C20.5957 37.4832 21.5786 38.4884 21.5786 39.8286V40.1414H17.6917C17.8258 40.9456 18.4066 41.37 19.1884 41.37C19.7692 41.37 20.1713 41.1913 20.4393 40.8115H21.3775C21.0424 41.638 20.2159 42.1741 19.1884 42.1741C17.7811 42.1741 16.7759 41.1913 16.7759 39.8286ZM20.6627 39.3819C20.484 38.6671 19.9032 38.2873 19.1884 38.2873C18.4512 38.2873 17.8928 38.6894 17.7141 39.3819H20.6627Z" fill="black"/>
<path d="M22.271 39.4266C22.271 38.1086 23.0528 37.4832 24.1921 37.4832C25.3313 37.4832 26.1131 38.1086 26.1131 39.4489V39.4936H25.2643V39.4489C25.2643 38.6224 24.8399 38.2873 24.1921 38.2873C23.5443 38.2873 23.1198 38.6224 23.1198 39.4489V42.0848H22.271V39.4266Z" fill="black"/>
<path d="M29.2852 36.1428H31.8317C33.2837 36.1428 33.9091 36.947 33.9091 38.0416C33.9091 38.9351 33.4847 39.6276 32.5688 39.8509L34.1325 42.0401H33.0379L31.6307 39.918H30.2234V42.0401H29.2852V36.1428ZM31.8317 39.0914C32.6805 39.0914 32.9709 38.6447 32.9709 38.0416C32.9709 37.4384 32.6805 36.9917 31.8317 36.9917H30.201V39.0914H31.8317Z" fill="black"/>
<path d="M34.5569 39.8286C34.5569 38.466 35.5621 37.4832 36.9694 37.4832C38.3767 37.4832 39.3596 38.4884 39.3596 39.8286V40.1414H35.4727C35.6068 40.9456 36.1876 41.37 36.9694 41.37C37.5502 41.37 37.9523 41.1913 38.2203 40.8115H39.1585C38.8235 41.638 37.9969 42.1741 36.9694 42.1741C35.5621 42.1741 34.5569 41.1913 34.5569 39.8286ZM38.4437 39.3819C38.265 38.6671 37.6842 38.2873 36.9694 38.2873C36.2322 38.2873 35.6738 38.6894 35.4951 39.3819H38.4437Z" fill="black"/>
<path d="M40.0522 39.7393C40.0522 38.2426 40.9458 37.4832 42.2637 37.4832C43.5817 37.4832 44.4752 38.2426 44.4752 39.7393V42.0625H43.6263V39.7393C43.6263 38.7788 43.0902 38.265 42.286 38.265C41.4819 38.265 40.9458 38.7564 40.9458 39.7393V42.0625H40.0969V39.7393H40.0522Z" fill="black"/>
<path d="M45.1675 39.8286C45.1675 38.466 46.1727 37.4832 47.58 37.4832C48.9873 37.4832 49.9925 38.4884 49.9925 39.8286C49.9925 41.1913 48.9873 42.1741 47.58 42.1741C46.1727 42.1741 45.1675 41.1913 45.1675 39.8286ZM49.1213 39.8286C49.1213 38.9351 48.4958 38.265 47.58 38.265C46.6641 38.265 46.0387 38.9128 46.0387 39.8286C46.0387 40.7222 46.6641 41.3923 47.58 41.3923C48.4958 41.3923 49.1213 40.7222 49.1213 39.8286Z" fill="black"/>
<path d="M50.2158 37.595H51.154L52.606 41.2808L54.058 37.595H54.9738L53.1198 42.0626H52.0699L50.2158 37.595Z" fill="black"/>
<path d="M55.1973 39.8286C55.1973 38.466 56.2025 37.4832 57.6098 37.4832C59.0171 37.4832 59.9999 38.4884 59.9999 39.8286V40.1414H56.1131C56.2472 40.9456 56.8279 41.37 57.6098 41.37C58.1906 41.37 58.5926 41.1913 58.8607 40.8115H59.7989C59.4638 41.638 58.6373 42.1741 57.6098 42.1741C56.2025 42.1741 55.1973 41.1913 55.1973 39.8286ZM59.0841 39.3819C58.9054 38.6671 58.3246 38.2873 57.6098 38.2873C56.8726 38.2873 56.3142 38.6894 56.1355 39.3819H59.0841Z" fill="black"/>
<path d="M46.8653 18.6299C49.0768 17.8928 50.7075 16.5525 51.6903 14.6761C52.4052 13.3358 52.7626 11.7275 52.7626 9.87342C52.7626 4.48995 49.6129 0.558451 42.4647 0.558451H30.6479H30.5586V14.6538V14.6761C30.5586 20.1936 26.7611 24.2144 21.1542 24.2144C15.5474 24.2144 11.7723 20.1713 11.7499 14.6761V14.6538C11.7499 9.13626 15.5474 5.13775 21.1542 5.13775C22.6062 5.13775 23.9465 5.40581 25.1304 5.89724V0.446761C23.8795 0.156366 22.5615 0 21.1542 0C12.353 0 6.14307 6.20998 6.14307 14.6538V14.6761C6.14307 23.1199 12.353 29.3075 21.1542 29.3075C24.8624 29.3075 28.1237 28.1906 30.6479 26.2695C34.088 23.656 36.1654 19.5235 36.1654 14.6538V5.67386H42.5541C46.0388 5.67386 47.2004 7.43857 47.2004 9.85108C47.2004 12.2636 46.0388 14.073 42.5541 14.073H38.0418L47.2674 28.7267H53.8125L46.8653 18.6299Z" fill="black"/>
</svg>
