<svg width="217" height="40" viewBox="0 0 217 40" fill="none" xmlns="http://www.w3.org/2000/svg">
<path d="M66.9345 19.6476C66.9345 19.6476 67.3254 19.6476 67.3868 19.7929C67.4665 20.0398 67.5054 20.2982 67.5017 20.5576C67.5017 20.5576 67.4021 21.3224 67.4021 21.4753C67.3781 21.8622 67.3191 22.2462 67.2258 22.6225C67.1738 22.9828 67.0226 23.3217 66.7889 23.6013C66.5655 23.8913 66.2616 24.1094 65.915 24.2284C65.5624 24.2973 65.1485 24.519 64.6963 24.6032C64.244 24.6873 63.8531 24.6796 63.2935 24.7408C62.7184 24.8054 62.1398 24.8335 61.5612 24.8249C60.6413 24.8249 59.2616 24.8249 59.1466 24.8249C59.0316 24.8249 55.4826 24.6949 55.1147 24.6796C54.4507 24.565 53.8057 24.3591 53.1984 24.0678C52.9161 23.9123 52.6724 23.6954 52.4854 23.4334C52.2983 23.1713 52.1726 22.8706 52.1176 22.5536C52.0409 21.9648 52.1175 20.1599 52.0562 19.6323C51.9949 19.1046 52.1482 14.3478 52.1482 14.3478V10.4093L52.2402 5.77491L52.3398 0.543991C52.3132 0.456752 52.3132 0.363565 52.3398 0.276327C52.3935 0.146319 52.4242 -0.0142799 52.7768 0.00101516C53.1294 0.0163103 54.6164 0.00101516 54.8541 0.0469004C55.341 0.0834881 55.8167 0.210582 56.2568 0.42163C56.6625 0.647908 57.0235 0.945914 57.3223 1.3011C57.6848 1.70996 57.8815 2.23892 57.8742 2.78472C57.8742 3.54948 57.9202 7.69445 57.8742 7.85504C57.8689 8.09046 57.8843 8.32588 57.9202 8.55862C57.9202 8.78804 57.9661 15.2349 57.9661 15.2349C57.9661 15.2349 57.9661 17.1009 57.9661 17.3151C57.9661 17.5292 57.9202 18.5387 57.8895 18.7604C57.8924 19.0111 57.9472 19.2584 58.0505 19.487C58.1118 19.617 58.2881 19.6629 58.633 19.6781C58.978 19.6934 61.8678 19.6781 61.8678 19.6781L66.26 19.724L66.9345 19.6476Z" fill="#514736"/>
<path d="M85.5765 15.5409C85.5569 14.5484 85.4284 13.5611 85.1933 12.5966C84.9909 11.85 84.7347 11.1191 84.4267 10.4094C84.1647 9.75455 83.7884 9.15125 83.3153 8.6275C82.5902 7.78616 81.6536 7.15265 80.6018 6.79209C78.4672 5.94831 76.0857 5.97577 73.9713 6.86856C73.3645 7.19798 72.8029 7.6041 72.3003 8.07688C71.5882 8.80046 70.9489 9.59194 70.3916 10.44C68.8586 12.4972 68.5213 15.8927 69.2955 18.3246C69.7639 20.1837 70.7219 21.8841 72.0703 23.2496C74.1859 25.1921 78.2025 25.3527 80.8854 24.7026C82.5258 24.305 83.5069 22.6378 84.2351 21.2536C85.14 19.4861 85.6004 17.5255 85.5765 15.5409ZM80.1572 15.6556C80.1883 16.6236 80.0851 17.5913 79.8506 18.5311C79.6436 19.2958 79.084 20.8712 77.2367 20.8712C75.3894 20.8712 74.8681 18.8064 74.8375 18.577C74.8068 18.3475 74.6765 15.3038 74.6612 14.8908C74.5999 13.1472 75.1748 10.4629 77.4053 10.4629C77.941 10.4031 78.4802 10.5401 78.9219 10.8484C79.3635 11.1567 79.6774 11.6151 79.8046 12.1377C80.0205 13.2984 80.1384 14.4752 80.1572 15.6556Z" fill="#514736"/>
<path d="M103.912 14.883C103.912 14.4012 103.812 13.2235 103.72 12.6653C102.954 7.87789 96.469 5.01771 92.299 6.98313C90.6357 7.74788 89.3173 9.78213 88.4664 11.3652C88.1002 12.3255 87.9081 13.3432 87.8992 14.3707C87.6698 16.7351 87.9736 19.1208 88.7884 21.3529C89.3651 22.3528 90.1491 23.2184 91.0879 23.8918C92.8893 25.2149 95.6334 25.0772 97.5191 24.083C97.8164 23.8549 98.091 23.5988 98.3393 23.3183V23.5554C98.3111 23.8137 98.2624 24.0694 98.1936 24.3201C98.1323 24.626 97.9407 25.6737 97.841 25.9949C97.6377 26.4491 97.3547 26.8635 97.0055 27.2185C96.4996 27.5382 95.9565 27.795 95.3881 27.9833C94.6967 28.1367 93.9862 28.1857 93.2802 28.1286C92.838 28.1192 92.3984 28.0602 91.9694 27.9527C91.4719 27.8166 90.9871 27.6375 90.5207 27.4174C90.4193 27.3858 90.3124 27.3756 90.2068 27.3875C90.1013 27.3993 89.9993 27.433 89.9075 27.4862C89.767 27.7031 89.6488 27.9338 89.5549 28.1745C89.3305 28.7202 89.1411 29.2796 88.9876 29.8493C88.9114 30.2962 88.8806 30.7498 88.8957 31.2029C88.9417 31.3253 88.9417 31.3941 89.3096 31.5394C90.6724 31.844 92.052 32.0688 93.4412 32.2124C96.6989 32.2124 99.9873 32.503 101.973 29.4134C102.103 29.2069 102.739 27.8227 102.938 27.4174C103.138 27.012 103.552 25.1231 103.628 24.7331C103.705 24.3431 103.874 21.4446 103.874 21.2917C103.874 21.1387 103.927 15.3648 103.912 14.883ZM98.4466 13.8812C98.4466 14.7071 98.4006 17.3608 98.4006 17.4603C98.4357 17.91 98.4125 18.3624 98.3316 18.8062C98.2144 19.2748 97.9396 19.6891 97.5532 19.9799C97.1668 20.2708 96.6921 20.4207 96.2083 20.4046C95.706 20.4099 95.2145 20.2588 94.8023 19.9723C94.3901 19.6858 94.0778 19.2782 93.9088 18.8062C93.7489 18.0151 93.6312 17.2161 93.5561 16.4126C93.5561 16.0072 93.6635 13.7589 93.6481 13.3535C93.6955 12.6707 93.8669 12.0021 94.154 11.3805C94.3718 11.0608 94.6581 10.7934 94.9922 10.5976C95.3263 10.4019 95.6998 10.2827 96.0857 10.2486C96.5423 10.2676 96.9817 10.428 97.3428 10.7075C97.7288 10.9815 98.0613 11.3236 98.3239 11.717C98.4665 12.4291 98.5078 13.1576 98.4466 13.8812Z" fill="#514736"/>
<path d="M144.584 12.3442C144.537 11.7806 144.4 11.2281 144.178 10.7077C143.773 9.85854 143.229 9.08304 142.568 8.41339C141.965 7.90467 141.324 7.44196 140.652 7.02918C140.322 6.86858 139.517 6.56268 138.988 6.38679C138.274 6.21513 137.545 6.11268 136.811 6.08089C136.811 6.08089 136.213 6.08089 135.891 6.08089C135.144 6.21805 134.41 6.42283 133.699 6.69269C133.05 7.00857 132.456 7.42404 131.936 7.92394C129.575 9.96584 128.993 13.2772 129.169 16.1833C129.215 16.948 129.491 18.4776 129.667 19.38C130.204 22.0948 132.733 24.6338 135.539 24.8862C137.634 25.038 139.74 24.8258 141.763 24.2591C142.162 24.1597 143.434 23.4943 143.603 23.4408C143.771 23.3873 143.955 22.9896 143.971 22.7755C143.972 22.4236 143.923 22.0733 143.825 21.7354C143.701 21.3007 143.55 20.8742 143.373 20.4583C143.243 20.2222 143.038 20.0364 142.79 19.9306C142.662 19.9136 142.533 19.9406 142.422 20.0071C142.422 20.0071 141.955 20.2212 141.656 20.3665C140.989 20.5332 140.31 20.6407 139.624 20.6877C139.203 20.7336 138.352 20.7336 138.091 20.7489C137.517 20.7119 136.948 20.6093 136.397 20.443C135.769 20.2671 134.864 18.8064 134.757 18.5311C134.625 18.166 134.596 17.772 134.673 17.3916C134.749 17.101 135.156 17.0322 135.201 17.0169C135.247 17.0016 138.482 17.101 138.544 17.0857C138.605 17.0704 140.59 17.0857 141.265 17.0857C141.939 17.0857 142.667 17.0857 143.204 17.0857C143.513 17.1146 143.825 17.0861 144.124 17.0016C144.331 16.896 144.503 16.7343 144.622 16.5351C144.674 16.1727 144.702 15.8074 144.706 15.4415C144.729 14.4075 144.688 13.3732 144.584 12.3442ZM139.502 13.3384C139.456 13.6137 139.111 13.6902 138.697 13.6596C137.539 13.5755 136.397 13.5831 135.224 13.5143C135.043 13.5267 134.861 13.5267 134.68 13.5143C134.596 13.5143 134.581 13.0325 134.68 12.4666C134.928 11.7241 135.348 11.0507 135.907 10.5012C136.155 10.2619 136.457 10.0861 136.788 9.98878L137.371 9.87407C137.565 9.85172 137.762 9.87085 137.948 9.93018C138.135 9.98951 138.306 10.0877 138.452 10.2182C138.884 10.6538 139.221 11.1748 139.44 11.7477C139.522 12.2739 139.542 12.8076 139.502 13.3384Z" fill="#514736"/>
<path d="M147.933 24.6491C147.933 24.6491 147.696 21.0165 147.696 20.5653C147.696 20.1141 147.887 15.6709 147.918 15.3038C147.949 14.9367 148.133 11.4035 148.133 11.0059C148.133 10.6082 148.064 9.25457 148.018 8.7116C147.935 8.2316 147.755 7.77352 147.489 7.36563C147.467 7.3396 147.452 7.30843 147.446 7.27509C147.44 7.24174 147.442 7.20733 147.453 7.17514C147.463 7.14294 147.482 7.11402 147.507 7.09114C147.532 7.06827 147.563 7.05218 147.596 7.04443C148.262 6.8197 148.951 6.6734 149.65 6.60852C150.17 6.6516 150.683 6.74639 151.184 6.89148C151.675 7.06067 152.132 7.31716 152.533 7.64859C152.747 7.83195 152.943 8.03697 153.115 8.26039C153.192 8.35981 153.437 8.19921 153.537 8.14568C154.085 7.74799 154.662 7.39018 155.261 7.07502C155.873 6.80546 156.51 6.59794 157.162 6.45557C157.909 6.397 158.659 6.42008 159.401 6.5244C160.113 6.75839 160.779 7.11279 161.371 7.57211C161.937 8.02742 162.384 8.61252 162.674 9.27752C162.959 9.91399 163.136 10.5939 163.195 11.2888C163.195 11.8853 163.241 13.3001 163.287 13.5219C163.333 13.7437 163.463 19.5558 163.463 19.5558C163.463 19.5558 163.387 22.4542 163.402 22.5307C163.333 22.9361 163.215 23.3317 163.049 23.7084C162.967 23.9338 162.82 24.1304 162.628 24.2744C162.268 24.4162 161.887 24.4964 161.501 24.5114C160.995 24.5114 159.968 24.5955 159.646 24.5726C159.221 24.5771 158.808 24.4307 158.481 24.1596C156.994 22.7295 157.523 19.8235 157.469 17.9651C157.469 17.4451 157.469 12.8107 157.369 12.4436C157.147 11.9742 156.771 11.5941 156.304 11.3653C155.863 11.2045 155.38 11.2045 154.94 11.3653C154.441 11.6847 153.976 12.0536 153.552 12.4665C153.301 12.8834 153.161 13.3572 153.146 13.8431C153.146 14.3325 153.207 15.0208 153.222 15.7932C153.238 16.5656 153.368 22.806 153.368 22.806C153.368 22.806 153.368 23.6625 153.368 23.739C153.319 23.9053 153.226 24.0557 153.1 24.1749C152.887 24.3636 152.617 24.4766 152.333 24.4961C151.912 24.4961 150.8 24.565 150.333 24.5803C149.865 24.5955 149.053 24.5803 148.876 24.5803L147.933 24.6491Z" fill="#514736"/>
<path d="M182.427 15.0896C182.433 14.0586 182.309 13.0309 182.059 12.0305C181.698 10.842 181.088 9.74378 180.268 8.8089C179.449 7.87401 178.439 7.1239 177.307 6.60843C175.329 5.72132 172.708 6.11899 170.738 6.78432C169.785 7.19296 168.92 7.78256 168.193 8.52032C167.576 9.28531 167.046 10.1164 166.614 10.9981C166.37 11.7194 166.228 12.471 166.192 13.2312C166.192 13.6518 166.192 16.1296 166.192 16.6114C166.192 17.0932 166.453 18.2862 166.529 18.9057C166.811 19.8257 167.197 20.7108 167.679 21.5441C168.2 22.3355 168.86 23.0272 169.626 23.586C170.459 24.1373 171.368 24.5649 172.324 24.8555C172.947 24.9612 173.578 25.0098 174.21 25.0008C174.918 25.0153 175.623 24.9225 176.303 24.7255C177.871 24.2403 179.268 23.3167 180.327 22.0641C180.961 21.2588 181.477 20.368 181.86 19.4181C182.13 18.8208 182.278 18.1762 182.297 17.5215C182.366 17.0091 182.466 16.5426 182.427 15.0896ZM176.671 18.0033C176.634 18.7743 176.352 19.5136 175.866 20.114C175.429 20.4811 175.099 20.9935 174.371 20.9782C174.031 20.9511 173.7 20.8543 173.399 20.6938C173.099 20.5332 172.834 20.3124 172.623 20.0452C172.184 19.206 171.871 18.3066 171.696 17.3762C171.627 16.7185 171.696 13.6595 171.696 13.3689C171.822 12.6869 172.06 12.0305 172.401 11.4264C172.722 10.9889 173.122 10.6154 173.581 10.3251C173.829 10.2417 174.087 10.1903 174.348 10.1722C174.532 10.1455 174.72 10.1554 174.9 10.2014C175.08 10.2473 175.249 10.3283 175.398 10.4398C175.812 10.6551 176.141 11.0024 176.333 11.4264C176.681 12.2849 176.868 13.2 176.885 14.126C176.87 15.1584 176.709 17.315 176.671 18.0033Z" fill="#514736"/>
<path d="M183.094 6.7614C183.261 6.66572 183.447 6.60824 183.638 6.59315C184.061 6.55383 184.486 6.53851 184.911 6.54727C185.976 6.63904 187.916 6.05018 188.621 7.17437C188.983 7.8176 189.296 8.48742 189.556 9.17802C189.61 9.3998 190.208 11.7017 190.208 11.7017L191.817 18.3321L192.093 19.8616L192.285 19.9075L192.929 16.3667L194.255 11.1052L195.458 6.93729C195.665 6.78541 195.895 6.66909 196.14 6.59315C196.539 6.59315 200.74 6.40961 200.571 7.15907C200.571 7.27378 200.188 8.68858 199.958 9.39215C199.728 10.0957 198.302 14.5313 198.302 14.5313L196.347 21.4141C196.347 21.4141 195.658 23.6701 195.627 23.8231C195.535 24.073 195.373 24.2909 195.159 24.4502C194.359 24.597 193.55 24.6941 192.737 24.7408C192.316 24.7408 191.38 24.6337 190.721 24.6184C190.008 24.6273 189.311 24.4045 188.736 23.9837C188.123 23.5019 187.624 22.0106 187.494 21.7965C187.364 21.5823 185.141 13.2695 185.141 13.2695L183.194 7.25849C183.194 7.25849 182.964 6.88376 183.094 6.7614Z" fill="#514736"/>
<path d="M207.316 17.2309C207.608 17.2309 208.236 17.2309 208.489 17.2309C208.742 17.2309 212.736 17.4221 213.088 17.4068C213.441 17.3915 214.767 17.4068 215.212 17.3303C215.624 17.278 216.021 17.1399 216.377 16.925C216.729 16.7185 216.783 16.1603 216.844 15.7167C216.906 15.2731 216.798 12.933 216.745 12.3518C216.61 11.5616 216.379 10.791 216.055 10.0575C215.575 9.1405 214.925 8.32296 214.139 7.64854C212.839 6.74312 211.318 6.20415 209.737 6.0884C208.156 5.97266 206.573 6.28442 205.155 6.99085C201.322 8.97157 201.092 13.9195 201.368 17.6439C201.469 18.8221 201.819 19.9657 202.395 20.9992C202.971 22.0327 203.76 22.9326 204.71 23.6396C206.788 25.1691 209.309 25.062 211.747 24.7408C212.578 24.5678 213.39 24.3116 214.169 23.976C214.833 23.7242 215.474 23.4173 216.086 23.0583C217.197 22.5001 215.994 20.244 215.219 19.854C214.928 19.7087 214.552 19.854 213.947 20.0605C213.127 20.3073 212.289 20.4914 211.44 20.6111C209.555 20.7717 207.117 19.9152 206.841 17.6821C206.834 17.4068 207.025 17.2615 207.316 17.2309ZM206.956 13.063C207.01 12.7877 207.332 11.5335 207.447 11.2123C207.643 10.7917 207.94 10.4263 208.313 10.1493C208.586 9.9904 208.88 9.87189 209.187 9.7975C209.549 9.79582 209.908 9.87416 210.237 10.0269C210.667 10.2736 211.036 10.6133 211.318 11.0211C211.509 11.3882 211.64 11.4111 211.701 11.8776C211.742 12.3151 211.742 12.7555 211.701 13.193C211.7 13.2342 211.691 13.2748 211.674 13.3124C211.657 13.3501 211.633 13.3841 211.604 13.4125C211.574 13.4409 211.538 13.4632 211.5 13.478C211.461 13.4928 211.42 13.4999 211.379 13.4989C211.187 13.4989 209.455 13.5754 209.041 13.5601C208.627 13.5448 207.186 13.6136 207.117 13.6136C207.048 13.6136 206.88 13.3383 206.956 13.063Z" fill="#514736"/>
<path d="M127.237 7.86262C127.2 8.57146 127.036 9.26801 126.754 9.91981C126.531 10.5881 126.213 11.2215 125.812 11.8011C125.505 12.3251 125.111 12.7931 124.646 13.1853C124.087 13.583 123.412 13.8277 122.837 14.1948C124.116 14.8984 125.072 16.0687 125.505 17.4603L126.272 19.9916C126.625 20.9973 127.198 21.9117 127.95 22.6683C128.28 23.043 128.502 23.1424 128.035 23.4789C127.567 23.8154 126.877 24.2437 126.785 24.2895C126.491 24.4199 126.186 24.5224 125.873 24.5954C125.401 24.71 124.917 24.769 124.432 24.7713C123.612 24.7497 122.83 24.4222 122.24 23.8536C121.689 23.166 121.302 22.3635 121.105 21.5058L119.825 17.7815C119.627 17.1596 119.277 16.597 118.806 16.1449C118.237 15.7281 117.539 15.5274 116.836 15.579C116.337 15.579 115.302 15.3037 115.371 16.0073V17.858L115.211 20.0299L115.371 23.976V24.4731C114.824 24.5238 114.273 24.5417 113.723 24.5266C113.34 24.5266 112.957 24.6872 112.528 24.6872C111.581 24.7724 110.627 24.6948 109.707 24.4578C109.707 24.4578 109.707 23.9148 109.707 23.8766V18.5921L109.852 6.56254L109.684 0.390969L109.937 0.146248C111.999 0.092715 112.781 0.222723 114.191 0.199781C115.601 0.176838 118.024 0.0391822 118.836 0.0391822C119.916 0.0119631 120.994 0.161808 122.025 0.48274C122.967 0.681583 123.853 1.08931 124.616 1.67576C125.414 2.42051 126.046 3.32472 126.471 4.32945C126.954 5.44636 127.214 6.64642 127.237 7.86262ZM115.463 4.32181C115.165 4.69654 115.341 5.69837 115.341 6.11133V11.1893C115.463 11.2051 115.587 11.2051 115.709 11.1893C117.066 11.1893 118.775 11.3346 119.909 10.6999C120.36 10.4681 120.727 10.1019 120.959 9.65215C121.232 9.034 121.355 8.36093 121.32 7.68673C121.354 7.20835 121.292 6.72797 121.138 6.27365C120.984 5.81932 120.741 5.40017 120.423 5.04068C119.212 3.86295 117.295 4.22239 115.824 4.15356C115.754 4.14603 115.684 4.15774 115.62 4.1874C115.556 4.21707 115.502 4.26356 115.463 4.32181Z" fill="#514736"/>
<path d="M22.0007 33.7649C22.2046 33.5632 22.4801 33.45 22.7673 33.45C23.0544 33.45 23.3299 33.5632 23.5338 33.7649L28.8382 39.0035C29.042 39.2053 29.3176 39.3185 29.6047 39.3185C29.8918 39.3185 30.1674 39.2053 30.3712 39.0035L31.5517 37.8258C31.7539 37.6224 31.8674 37.3475 31.8674 37.061C31.8674 36.7746 31.7539 36.4997 31.5517 36.2963L26.2703 31.0195C26.0681 30.8161 25.9546 30.5412 25.9546 30.2547C25.9546 29.9682 26.0681 29.6934 26.2703 29.49L28.8228 26.9433C29.0286 26.7452 29.3034 26.6345 29.5894 26.6345C29.8753 26.6345 30.1501 26.7452 30.3559 26.9433L35.6373 32.2201C35.843 32.4183 36.1178 32.529 36.4038 32.529C36.6898 32.529 36.9646 32.4183 37.1703 32.2201L38.3584 31.0348C38.557 30.8295 38.668 30.5553 38.668 30.27C38.668 29.9847 38.557 29.7106 38.3584 29.5053L26.2856 17.3992C26.0834 17.1958 25.97 16.9209 25.97 16.6344C25.97 16.348 26.0834 16.0731 26.2856 15.8697L28.8382 13.3231C29.0439 13.1249 29.3187 13.0142 29.6047 13.0142C29.8907 13.0142 30.1655 13.1249 30.3712 13.3231L42.5054 25.3985C42.7092 25.6003 42.9847 25.7135 43.2719 25.7135C43.559 25.7135 43.8345 25.6003 44.0384 25.3985L45.2189 24.2208C45.4211 24.0174 45.5345 23.7425 45.5345 23.4561C45.5345 23.1696 45.4211 22.8947 45.2189 22.6913L23.5491 1.03346C23.3434 0.835332 23.0686 0.724609 22.7826 0.724609C22.4966 0.724609 22.2218 0.835332 22.0161 1.03346L0.315682 22.676C0.113466 22.8794 0 23.1543 0 23.4408C0 23.7272 0.113466 24.0021 0.315682 24.2055L1.5268 25.3985C1.73066 25.6003 2.00618 25.7135 2.29332 25.7135C2.58047 25.7135 2.85598 25.6003 3.05985 25.3985L22.0007 6.4938C22.2046 6.29206 22.4801 6.17885 22.7673 6.17885C23.0544 6.17885 23.3299 6.29206 23.5338 6.4938L26.0863 9.03279C26.2849 9.23808 26.3959 9.51224 26.3959 9.79754C26.3959 10.0828 26.2849 10.357 26.0863 10.5623L7.14544 29.49C6.94686 29.6953 6.83588 29.9694 6.83588 30.2547C6.83588 30.54 6.94686 30.8142 7.14544 31.0195L8.33356 32.2048C8.53932 32.403 8.81412 32.5137 9.10009 32.5137C9.38605 32.5137 9.66085 32.403 9.86661 32.2048L22.0007 20.1294C22.2046 19.9276 22.4801 19.8144 22.7673 19.8144C23.0544 19.8144 23.3299 19.9276 23.5338 20.1294L26.0863 22.676C26.2886 22.8794 26.402 23.1543 26.402 23.4408C26.402 23.7272 26.2886 24.0021 26.0863 24.2055L13.9829 36.3116C13.7807 36.515 13.6672 36.7898 13.6672 37.0763C13.6672 37.3628 13.7807 37.6377 13.9829 37.8411L15.1633 39.0035C15.3691 39.2016 15.6439 39.3124 15.9298 39.3124C16.2158 39.3124 16.4906 39.2016 16.6964 39.0035L22.0007 33.7649Z" fill="#8C7D5E"/>
<path d="M127.099 30.8665C127.175 30.8676 127.249 30.8896 127.312 30.9301C127.376 30.9706 127.427 31.0281 127.46 31.0959C127.614 31.3596 127.708 31.6545 127.733 31.9589C127.758 32.2633 127.714 32.5695 127.605 32.8549C127.391 33.3902 127.191 33.742 126.977 34.2085C126.157 36.1316 124.833 37.7987 123.144 39.0341C122.644 39.3939 122.113 39.7087 121.557 39.9747C121.497 40.0003 121.43 40.0066 121.365 39.993C121.301 39.9793 121.242 39.9462 121.197 39.8982C120.927 39.5977 120.627 39.326 120.3 39.0876C120.276 39.0733 120.257 39.0532 120.243 39.029C120.229 39.0049 120.222 38.9777 120.222 38.95C120.222 38.9222 120.229 38.895 120.243 38.8709C120.257 38.8467 120.276 38.8266 120.3 38.8123C121.08 38.4759 121.816 38.0471 122.493 37.5352C123.173 36.9639 123.78 36.3116 124.302 35.5927C124.973 34.7252 125.491 33.7503 125.835 32.7096C125.843 32.6852 125.846 32.6591 125.842 32.6336C125.839 32.608 125.829 32.5837 125.814 32.5627C125.799 32.5417 125.779 32.5246 125.756 32.5129C125.733 32.5012 125.707 32.4952 125.681 32.4954C125.436 32.4954 124.815 32.396 124.371 32.396C123.796 32.396 123.366 32.4954 122.991 32.4954C122.882 32.4957 122.774 32.5215 122.677 32.5706C122.58 32.6197 122.496 32.6909 122.431 32.7784C121.927 33.4972 121.36 34.1703 120.737 34.7897C120.522 35.0057 120.234 35.1341 119.929 35.1496C119.625 35.1652 119.325 35.0668 119.089 34.8738C119.02 34.8126 118.944 34.7591 118.859 34.6979C118.834 34.6779 118.813 34.6523 118.799 34.6232C118.785 34.594 118.777 34.5621 118.777 34.5297C118.777 34.4973 118.785 34.4653 118.799 34.4362C118.813 34.407 118.834 34.3815 118.859 34.3614C119.403 33.9463 119.916 33.4913 120.392 33.0002C120.862 32.4506 121.28 31.8593 121.642 31.2336C121.717 31.1134 121.823 31.0145 121.947 30.9462C122.072 30.878 122.212 30.8426 122.355 30.8436H124.079L127.099 30.8665Z" fill="#514736"/>
<path d="M133.301 31.6313C133.301 32.3961 133.17 33.2143 133.216 34.0097C133.216 34.4838 133.278 34.9656 133.301 35.4474C133.301 35.5103 133.276 35.5706 133.231 35.6151C133.186 35.6595 133.126 35.6845 133.063 35.6845H132.381C132.184 35.6847 131.995 35.6094 131.852 35.4742C131.709 35.3389 131.624 35.1541 131.614 34.958C131.614 34.5832 131.683 34.1932 131.668 33.8108V32.8626V31.5854V30.2394C131.667 30.2038 131.675 30.1685 131.689 30.136C131.704 30.1036 131.726 30.0746 131.753 30.0513C131.78 30.028 131.812 30.0109 131.846 30.0011C131.88 29.9913 131.916 29.9892 131.952 29.9947C132.331 30.0705 132.673 30.2749 132.918 30.5731C133.164 30.8713 133.299 31.2452 133.301 31.6313ZM137.133 29.9565C137.133 29.9228 137.14 29.8895 137.154 29.8589C137.167 29.8282 137.188 29.801 137.214 29.7791C137.239 29.7572 137.269 29.7412 137.302 29.7322C137.334 29.7232 137.368 29.7214 137.402 29.7271C137.798 29.8096 138.154 30.0257 138.409 30.339C138.664 30.6524 138.804 31.0439 138.804 31.4478C138.862 32.2957 138.862 33.1465 138.804 33.9944C138.743 35.3004 138.312 36.5624 137.563 37.6346C137 38.3179 136.31 38.8866 135.531 39.3094C135.184 39.5555 134.79 39.7297 134.374 39.8218C134.082 39.8218 133.921 39.4012 133.822 39.1794C133.779 39.0974 133.753 39.0076 133.745 38.9153C133.738 38.8231 133.749 38.7302 133.779 38.6424C133.808 38.5546 133.855 38.4736 133.916 38.4042C133.978 38.3349 134.052 38.2786 134.136 38.2388C134.8 37.9723 135.413 37.5918 135.945 37.1146C136.443 36.5686 136.786 35.9011 136.942 35.1798C137.096 34.5066 137.186 33.8203 137.21 33.1302C137.21 32.4802 137.103 31.7995 137.103 31.1342L137.133 29.9565Z" fill="#514736"/>
<path d="M148.401 30.7748C147.826 32.9253 146.779 34.9212 145.335 36.6175C144.457 37.573 143.419 38.3699 142.269 38.9729C142.1 39.0723 141.939 39.1641 141.771 39.2482C141.724 39.283 141.668 39.3018 141.61 39.3018C141.472 39.3018 141.249 38.95 141.15 38.8582C141.071 38.7752 141.013 38.6758 140.978 38.5673C140.943 38.4588 140.933 38.3439 140.949 38.231C140.964 38.1182 141.005 38.0102 141.067 37.9149C141.13 37.8197 141.213 37.7396 141.311 37.6805C142.804 36.9545 144.085 35.856 145.028 34.4915C145.537 33.673 145.953 32.801 146.27 31.8913C146.478 31.2233 146.622 30.537 146.699 29.8418C146.703 29.8186 146.712 29.7966 146.726 29.7774C146.74 29.7583 146.758 29.7426 146.778 29.7315C146.799 29.7204 146.822 29.7143 146.846 29.7135C146.869 29.7127 146.893 29.7173 146.914 29.727C147.372 29.933 147.815 30.1706 148.24 30.4383C148.299 30.4698 148.347 30.5195 148.376 30.58C148.405 30.6406 148.414 30.7089 148.401 30.7748Z" fill="#514736"/>
<path d="M151.038 35.7074C150.954 35.6236 150.887 35.5241 150.842 35.4145C150.796 35.3049 150.773 35.1875 150.773 35.0689C150.773 34.9502 150.796 34.8328 150.842 34.7232C150.887 34.6136 150.954 34.5141 151.038 34.4303C152.004 33.5202 152.824 32.4878 153.713 31.5089C153.866 31.297 154.065 31.1228 154.296 30.9998C154.526 30.8768 154.782 30.8082 155.044 30.7993C155.305 30.7905 155.565 30.8416 155.803 30.9487C156.042 31.0558 156.252 31.2161 156.419 31.4172C157.293 32.3196 157.952 33.3749 158.772 34.3309C159.531 35.2322 160.362 36.071 161.256 36.8393C161.303 36.8767 161.335 36.9291 161.348 36.9876C161.36 37.0461 161.352 37.1072 161.325 37.1605C161.124 37.5025 160.898 37.8296 160.65 38.1393C160.628 38.1652 160.6 38.186 160.569 38.2002C160.538 38.2144 160.504 38.2218 160.47 38.2218C160.436 38.2218 160.402 38.2144 160.371 38.2002C160.34 38.186 160.312 38.1652 160.29 38.1393C159.715 37.5734 159.186 36.954 158.665 36.3345C158.361 35.9688 158.082 35.583 157.83 35.1797C157.443 34.6803 157.028 34.2029 156.588 33.7497C155.691 32.6331 155.522 32.4878 155.2 32.4878C154.748 32.4878 154.38 32.9008 154.104 33.2526C153.828 33.6043 153.453 34.0173 153.138 34.3997C152.625 35.0344 152.127 35.7227 151.743 36.0974C151.696 36.1432 151.633 36.1688 151.567 36.1688C151.501 36.1688 151.438 36.1432 151.391 36.0974L151.038 35.7074Z" fill="#514736"/>
<path d="M116.054 32.7324C116.054 31.7841 115.762 30.9658 114.812 30.9658L107.974 31.0194C107.785 31.0194 107.604 31.0943 107.47 31.2277C107.337 31.3611 107.261 31.542 107.261 31.7306C107.261 31.8377 107.261 31.9447 107.261 32.0518C107.315 34.346 107.323 36.6403 107.261 38.8887C107.261 38.9269 107.269 38.9646 107.284 38.9999C107.298 39.0352 107.32 39.0672 107.347 39.0942C107.374 39.1212 107.406 39.1426 107.441 39.1572C107.477 39.1718 107.515 39.1793 107.553 39.1793H115.678C115.778 39.1793 115.873 39.1398 115.944 39.0695C116.014 38.9993 116.054 38.904 116.054 38.8046L115.954 36.8086L116.054 32.7324ZM114.337 37.6727C114.294 37.6841 114.249 37.6841 114.206 37.6727C113.34 37.7416 112.466 37.7951 111.592 37.7874C110.642 37.8148 109.692 37.743 108.756 37.5733C108.756 36.8086 108.856 36.0438 108.848 35.279C108.848 34.3843 108.779 33.4972 108.756 32.6024C108.756 32.5314 108.784 32.4633 108.835 32.4131C108.885 32.3629 108.953 32.3347 109.024 32.3347H109.362C110.128 32.3347 110.305 32.243 111.056 32.243H112.535C112.803 32.243 113.44 32.3271 113.7 32.3577C113.784 32.3557 113.867 32.3701 113.945 32.4001C114.023 32.4301 114.094 32.4752 114.155 32.5327C114.215 32.5903 114.264 32.6591 114.298 32.7354C114.331 32.8116 114.35 32.8938 114.352 32.9771C114.375 33.3745 114.375 33.7728 114.352 34.1702C114.352 34.5908 114.352 35.0037 114.352 35.4167C114.352 35.8297 114.352 36.1815 114.352 36.5715V37.145C114.344 37.2674 114.444 37.5963 114.337 37.6727Z" fill="#514736"/>
<path d="M159.907 30.6906C160.092 30.8847 160.266 31.089 160.428 31.3024L160.236 31.5089C160.172 31.5796 160.093 31.6361 160.005 31.6747C159.917 31.7134 159.822 31.7334 159.726 31.7334C159.631 31.7334 159.536 31.7134 159.448 31.6747C159.36 31.6361 159.281 31.5796 159.217 31.5089C158.981 31.251 158.725 31.0131 158.45 30.7976L158.535 30.7059C158.621 30.6106 158.726 30.5342 158.844 30.4814C158.961 30.4286 159.088 30.4007 159.217 30.3992C159.346 30.3978 159.474 30.4229 159.592 30.4731C159.711 30.5232 159.818 30.5972 159.907 30.6906Z" fill="#514736"/>
<path d="M161.064 29.5893C161.256 29.7881 161.447 29.987 161.585 30.1476C161.515 30.2073 161.449 30.2711 161.386 30.3388C161.32 30.4075 161.241 30.4622 161.153 30.4995C161.066 30.5369 160.972 30.5561 160.876 30.5561C160.781 30.5561 160.687 30.5369 160.599 30.4995C160.512 30.4622 160.432 30.4075 160.367 30.3388C160.145 30.1009 159.909 29.8762 159.661 29.6658L159.715 29.6122C159.891 29.4317 160.132 29.328 160.385 29.3237C160.638 29.3194 160.882 29.4149 161.064 29.5893Z" fill="#514736"/>
<path d="M127.345 29.1764C127.544 29.3656 127.733 29.5647 127.912 29.7729C127.82 29.8341 127.621 29.9412 127.398 30.0941C127.298 30.1628 127.176 30.1928 127.054 30.1788C126.933 30.1647 126.821 30.1075 126.739 30.0176C126.505 29.7422 126.249 29.4865 125.973 29.2529L126.203 29.077C126.375 28.9579 126.583 28.9027 126.792 28.9209C127 28.939 127.196 29.0294 127.345 29.1764Z" fill="#514736"/>
<path d="M129.307 28.8398C129.506 29.054 129.682 29.2605 129.79 29.3981L129.261 29.7499C129.172 29.81 129.063 29.8333 128.957 29.8147C128.851 29.7962 128.757 29.7373 128.694 29.6505C128.451 29.3277 128.179 29.0281 127.881 28.7557L127.958 28.7022C128.159 28.5527 128.409 28.484 128.659 28.5095C128.909 28.535 129.14 28.6528 129.307 28.8398Z" fill="#514736"/>
</svg>
