<svg width="192" height="33" viewBox="0 0 192 33" fill="none" xmlns="http://www.w3.org/2000/svg">
<path d="M0.16 30.785V1.625C0.16 1.409 0.214 1.211 0.322 1.031C0.436 0.850998 0.583 0.709998 0.763 0.607999C0.943 0.505999 1.132 0.454999 1.33 0.454999H6.46C6.682 0.454999 6.898 0.496999 7.108 0.580998C7.318 0.658998 7.492 0.766999 7.63 0.904999C7.768 1.043 7.843 1.193 7.855 1.355L11.95 14.585L16.045 1.355C16.111 1.103 16.282 0.889998 16.558 0.715999C16.84 0.541999 17.149 0.454999 17.485 0.454999H22.615C22.951 0.454999 23.23 0.565999 23.452 0.787998C23.674 1.01 23.785 1.289 23.785 1.625V30.785C23.785 31.121 23.674 31.4 23.452 31.622C23.23 31.844 22.951 31.955 22.615 31.955H19.375C19.039 31.955 18.766 31.847 18.556 31.631C18.352 31.409 18.25 31.127 18.25 30.785V12.11L14.83 23.09C14.806 23.174 14.755 23.261 14.677 23.351C14.599 23.441 14.485 23.549 14.335 23.675L14.11 23.81C13.828 23.93 13.588 23.99 13.39 23.99H10.51C10.312 23.99 10.072 23.93 9.79 23.81L9.565 23.675C9.355 23.507 9.205 23.312 9.115 23.09L5.695 12.11V30.785C5.695 30.977 5.641 31.163 5.533 31.343C5.431 31.523 5.293 31.67 5.119 31.784C4.945 31.898 4.762 31.955 4.57 31.955H1.33C1.138 31.955 0.952 31.898 0.772 31.784C0.592 31.67 0.445 31.523 0.331 31.343C0.217 31.163 0.16 30.977 0.16 30.785ZM28.967 27.68C28.157 26.33 27.752 24.86 27.752 23.27L27.707 2.525C27.707 1.997 27.782 1.586 27.932 1.292C28.088 0.997998 28.31 0.793998 28.598 0.679998C28.892 0.559998 29.27 0.499998 29.732 0.499998H31.352C31.808 0.499998 32.114 0.505998 32.27 0.517999C32.432 0.523998 32.555 0.547998 32.639 0.589998C32.729 0.625998 32.84 0.700998 32.972 0.814999C33.128 0.928999 33.242 1.121 33.314 1.391C33.386 1.661 33.422 2.024 33.422 2.48L33.467 23C33.467 23.66 33.626 24.275 33.944 24.845C34.268 25.409 34.703 25.859 35.249 26.195C35.795 26.525 36.386 26.69 37.022 26.69H37.742C38.39 26.69 38.984 26.525 39.524 26.195C40.07 25.859 40.502 25.409 40.82 24.845C41.138 24.281 41.297 23.666 41.297 23L41.342 2.48C41.342 1.958 41.417 1.553 41.567 1.265C41.717 0.976999 41.933 0.778999 42.215 0.670998C42.503 0.556998 42.872 0.499998 43.322 0.499998H45.077C45.599 0.499998 46.004 0.556998 46.292 0.670998C46.586 0.778999 46.802 0.976999 46.94 1.265C47.078 1.553 47.147 1.973 47.147 2.525L47.102 23.27C47.102 24.32 46.919 25.328 46.553 26.294C46.187 27.254 45.668 28.127 44.996 28.913C44.33 29.693 43.547 30.347 42.647 30.875C41.297 31.685 39.827 32.09 38.237 32.09H36.617C35.549 32.09 34.529 31.913 33.557 31.559C32.591 31.199 31.715 30.689 30.929 30.029C30.143 29.363 29.489 28.58 28.967 27.68ZM50.9805 31.01V1.76C50.9805 1.562 51.0315 1.373 51.1335 1.193C51.2355 1.013 51.3765 0.868999 51.5565 0.760998C51.7365 0.646998 51.9345 0.589998 52.1505 0.589998H55.4355C55.6275 0.589998 55.8045 0.646998 55.9665 0.760998C56.1345 0.874999 56.2665 1.022 56.3625 1.202C56.4645 1.382 56.5155 1.568 56.5155 1.76V10.04L62.0955 1.445C62.2815 1.211 62.5035 1.007 62.7615 0.832999C63.0195 0.652998 63.2625 0.571998 63.4905 0.589998L66.8205 0.544999C67.0965 0.556998 67.3485 0.631998 67.5765 0.769998C67.8045 0.907998 67.9815 1.082 68.1075 1.292C68.2395 1.502 68.3055 1.718 68.3055 1.94C68.3055 2.24 68.2455 2.45 68.1255 2.57L60.2505 14.63L70.2405 29.885C70.3905 30.233 70.4655 30.503 70.4655 30.695C70.4655 30.953 70.4085 31.193 70.2945 31.415C70.1805 31.631 70.0155 31.802 69.7995 31.928C69.5895 32.048 69.3465 32.102 69.0705 32.09H65.2905C65.0385 32.09 64.8045 32.021 64.5885 31.883C64.3725 31.739 64.1865 31.523 64.0305 31.235L56.5155 19.445V31.01C56.5155 31.19 56.4645 31.364 56.3625 31.532C56.2665 31.694 56.1345 31.829 55.9665 31.937C55.8045 32.039 55.6275 32.09 55.4355 32.09H52.1505C51.9345 32.09 51.7365 32.039 51.5565 31.937C51.3765 31.835 51.2355 31.7 51.1335 31.532C51.0315 31.364 50.9805 31.19 50.9805 31.01ZM74.4241 27.68C73.6141 26.33 73.2091 24.86 73.2091 23.27L73.1641 2.525C73.1641 1.997 73.2391 1.586 73.3891 1.292C73.5451 0.997998 73.7671 0.793998 74.0551 0.679998C74.3491 0.559998 74.7271 0.499998 75.1891 0.499998H76.8091C77.2651 0.499998 77.5711 0.505998 77.7271 0.517999C77.8891 0.523998 78.0121 0.547998 78.0961 0.589998C78.1861 0.625998 78.2971 0.700998 78.4291 0.814999C78.5851 0.928999 78.6991 1.121 78.7711 1.391C78.8431 1.661 78.8791 2.024 78.8791 2.48L78.9241 23C78.9241 23.66 79.0831 24.275 79.4011 24.845C79.7251 25.409 80.1601 25.859 80.7061 26.195C81.2521 26.525 81.8431 26.69 82.4791 26.69H83.1991C83.8471 26.69 84.4411 26.525 84.9811 26.195C85.5271 25.859 85.9591 25.409 86.2771 24.845C86.5951 24.281 86.7541 23.666 86.7541 23L86.7991 2.48C86.7991 1.958 86.8741 1.553 87.0241 1.265C87.1741 0.976999 87.3901 0.778999 87.6721 0.670998C87.9601 0.556998 88.3291 0.499998 88.7791 0.499998H90.5341C91.0561 0.499998 91.4611 0.556998 91.7491 0.670998C92.0431 0.778999 92.2591 0.976999 92.3971 1.265C92.5351 1.553 92.6041 1.973 92.6041 2.525L92.5591 23.27C92.5591 24.32 92.3761 25.328 92.0101 26.294C91.6441 27.254 91.1251 28.127 90.4531 28.913C89.7871 29.693 89.0041 30.347 88.1041 30.875C86.7541 31.685 85.2841 32.09 83.6941 32.09H82.0741C81.0061 32.09 79.9861 31.913 79.0141 31.559C78.0481 31.199 77.1721 30.689 76.3861 30.029C75.6001 29.363 74.9461 28.58 74.4241 27.68ZM104.448 29.93C103.698 29.108 103.113 28.166 102.693 27.104C102.273 26.042 102.062 24.944 102.062 23.81V23.765C102.062 23.489 102.128 23.234 102.26 23C102.393 22.766 102.57 22.58 102.792 22.442C103.014 22.304 103.251 22.235 103.503 22.235H106.698C106.716 22.253 106.74 22.265 106.77 22.271C106.8 22.277 106.836 22.28 106.878 22.28H106.968C107.238 22.394 107.463 22.574 107.643 22.82C107.823 23.06 107.913 23.315 107.913 23.585V24.035C107.913 24.497 108.006 24.932 108.192 25.34C108.378 25.748 108.636 26.099 108.966 26.393C109.302 26.681 109.686 26.885 110.118 27.005C110.43 27.095 110.745 27.14 111.062 27.14H111.198C111.3 27.14 111.387 27.137 111.459 27.131C111.537 27.125 111.585 27.113 111.603 27.095H111.648C112.194 27.053 112.689 26.891 113.133 26.609C113.583 26.327 113.934 25.961 114.186 25.511C114.444 25.061 114.573 24.569 114.573 24.035L114.663 21.785C114.639 20.999 114.471 20.345 114.159 19.823C113.847 19.295 113.385 18.884 112.773 18.59C112.053 18.188 110.943 17.963 109.443 17.915L108.588 17.825C106.854 17.699 105.537 17.201 104.637 16.331C103.737 15.455 103.149 14.438 102.873 13.28C102.603 12.122 102.468 10.847 102.468 9.455L102.513 7.88L102.558 7.25C102.534 6.272 102.693 5.357 103.035 4.505C103.377 3.653 103.893 2.903 104.583 2.255C105.297 1.541 106.149 1.004 107.139 0.643998C108.129 0.283998 109.212 0.115999 110.388 0.139998H111.783C112.833 0.139998 113.838 0.343998 114.798 0.751999C115.758 1.154 116.613 1.73 117.363 2.48C118.101 3.218 118.668 4.094 119.064 5.108C119.46 6.116 119.658 7.175 119.658 8.285V8.33C119.658 8.582 119.598 8.81 119.478 9.014C119.364 9.218 119.208 9.38 119.01 9.5C118.812 9.62 118.593 9.68 118.353 9.68H115.248C114.912 9.656 114.633 9.524 114.411 9.284C114.189 9.044 114.078 8.756 114.078 8.42V8.105C114.078 7.673 113.985 7.268 113.799 6.89C113.613 6.506 113.352 6.173 113.016 5.891C112.686 5.609 112.305 5.402 111.873 5.27C111.603 5.18 111.303 5.135 110.973 5.135H110.613C110.583 5.165 110.508 5.18 110.388 5.18C109.836 5.24 109.35 5.402 108.93 5.666C108.51 5.93 108.183 6.272 107.949 6.692C107.715 7.112 107.598 7.583 107.598 8.105V10.715C107.658 11.309 107.856 11.774 108.192 12.11C108.528 12.446 109.014 12.692 109.65 12.848C110.286 12.998 111.132 13.097 112.188 13.145C114.012 13.259 115.509 13.661 116.679 14.351C117.849 15.041 118.713 16.016 119.271 17.276C119.829 18.536 120.108 20.099 120.108 21.965C120.108 22.751 120.069 23.507 119.991 24.233C119.919 24.953 119.757 25.712 119.505 26.51C119.253 27.302 118.884 28.052 118.398 28.76C117.606 29.918 116.616 30.824 115.428 31.478C114.246 32.126 112.986 32.45 111.648 32.45H110.253C109.155 32.45 108.111 32.234 107.121 31.802C106.131 31.37 105.24 30.746 104.448 29.93ZM127.451 30.785V5.63H123.806C123.416 5.63 123.101 5.534 122.861 5.342C122.621 5.144 122.501 4.88 122.501 4.55V1.535C122.501 1.205 122.621 0.943999 122.861 0.751999C123.101 0.553999 123.416 0.454999 123.806 0.454999H136.946C137.18 0.454999 137.396 0.505999 137.594 0.607999C137.798 0.703999 137.957 0.835999 138.071 1.004C138.191 1.166 138.251 1.343 138.251 1.535V4.55C138.251 4.742 138.191 4.922 138.071 5.09C137.957 5.252 137.798 5.384 137.594 5.486C137.396 5.582 137.18 5.63 136.946 5.63H133.121V30.785C133.121 31.127 133.01 31.415 132.788 31.649C132.566 31.883 132.287 32 131.951 32H128.621C128.429 32 128.24 31.946 128.054 31.838C127.874 31.724 127.727 31.574 127.613 31.388C127.505 31.202 127.451 31.001 127.451 30.785ZM145.551 30.965V18.14C145.467 17.468 145.257 16.748 144.921 15.98L139.701 2.345C139.611 2.165 139.566 1.97 139.566 1.76C139.566 1.52 139.632 1.298 139.764 1.094C139.902 0.883999 140.088 0.718999 140.322 0.598999C140.562 0.472998 140.82 0.409998 141.096 0.409998H143.886C144.546 0.409998 145.056 0.724998 145.416 1.355L148.431 10.31C148.491 10.37 148.566 10.4 148.656 10.4C148.686 10.4 148.731 10.37 148.791 10.31L151.896 1.355C151.986 1.085 152.16 0.859999 152.418 0.679998C152.676 0.499998 152.952 0.409998 153.246 0.409998H156.081C156.369 0.409998 156.63 0.475998 156.864 0.607999C157.098 0.733998 157.281 0.904998 157.413 1.121C157.545 1.337 157.611 1.565 157.611 1.805C157.611 1.877 157.599 1.973 157.575 2.093C157.551 2.213 157.533 2.297 157.521 2.345L152.211 15.98C151.941 16.7 151.761 17.42 151.671 18.14V30.965C151.671 31.187 151.605 31.391 151.473 31.577C151.341 31.763 151.164 31.91 150.942 32.018C150.72 32.126 150.483 32.18 150.231 32.18H146.946C146.706 32.18 146.478 32.126 146.262 32.018C146.052 31.91 145.881 31.763 145.749 31.577C145.617 31.385 145.551 31.181 145.551 30.965ZM160.207 30.92V1.49C160.207 1.274 160.258 1.076 160.36 0.895999C160.468 0.715999 160.609 0.574999 160.783 0.472998C160.957 0.370998 161.14 0.319998 161.332 0.319998H164.662C164.854 0.319998 165.037 0.370998 165.211 0.472998C165.385 0.574999 165.523 0.715999 165.625 0.895999C165.733 1.076 165.787 1.274 165.787 1.49V26.465H172.537C172.873 26.465 173.137 26.561 173.329 26.753C173.521 26.945 173.617 27.209 173.617 27.545V30.92C173.617 31.226 173.518 31.484 173.32 31.694C173.128 31.898 172.867 32 172.537 32H161.287C161.095 32 160.915 31.952 160.747 31.856C160.585 31.754 160.453 31.622 160.351 31.46C160.255 31.292 160.207 31.112 160.207 30.92ZM176.041 30.695V1.625C176.041 1.283 176.152 1.004 176.374 0.787998C176.602 0.565999 176.896 0.454999 177.256 0.454999H190.531C190.873 0.454999 191.161 0.565999 191.395 0.787998C191.629 1.01 191.746 1.289 191.746 1.625V4.73C191.746 4.952 191.692 5.156 191.584 5.342C191.476 5.528 191.329 5.675 191.143 5.783C190.957 5.891 190.753 5.945 190.531 5.945H181.441V12.83H188.326C188.662 12.83 188.932 12.935 189.136 13.145C189.346 13.349 189.451 13.619 189.451 13.955V17.105C189.451 17.441 189.346 17.714 189.136 17.924C188.932 18.128 188.662 18.23 188.326 18.23H181.441V26.42H190.531C190.873 26.42 191.161 26.531 191.395 26.753C191.629 26.975 191.746 27.254 191.746 27.59V30.695C191.746 30.917 191.692 31.121 191.584 31.307C191.476 31.493 191.329 31.64 191.143 31.748C190.957 31.856 190.753 31.91 190.531 31.91H177.256C176.902 31.91 176.611 31.793 176.383 31.559C176.155 31.325 176.041 31.037 176.041 30.695Z" fill="#262626"/>
</svg>
