<?xml version="1.0" encoding="utf-8"?>
<!-- Generator: Adobe Illustrator 25.0.0, SVG Export Plug-In . SVG Version: 6.00 Build 0)  -->
<svg version="1.1" id="Layer_1" xmlns="http://www.w3.org/2000/svg" xmlns:xlink="http://www.w3.org/1999/xlink" x="0px" y="0px"
	 viewBox="0 0 51 80" style="enable-background:new 0 0 51 80;" xml:space="preserve">
<style type="text/css">
	.st0{fill:none;}
	.st1{fill:#8C7D60;}
	.st2{fill:#FFFFFF;}
	.st3{fill:#FFFFFF;filter:url(#Adobe_OpacityMaskFilter);}
	.st4{mask:url(#path-3-inside-1_1_);fill:#8C7D60;}
	.st5{fill:#FFFFFF;filter:url(#Adobe_OpacityMaskFilter_1_);}
	.st6{mask:url(#path-5-inside-2_1_);fill:#8C7D60;}
	.st7{fill:#FFFFFF;filter:url(#Adobe_OpacityMaskFilter_2_);}
	.st8{mask:url(#path-7-inside-3_1_);fill:#8C7D60;}
</style>
<g>
	<rect x="0" y="0" class="st0" width="51" height="80"/>
	<path class="st1" d="M44.1,76.8h-3.2V37.3c0-0.9-0.7-1.6-1.6-1.6H27.2v-4c0-0.9-0.7-1.6-1.6-1.6H14.4c-0.9,0-1.6,0.7-1.6,1.6v4
		h-1.3c-0.9,0-1.6,0.7-1.6,1.6v39.5H6.7c-0.9,0-1.6,0.7-1.7,1.5C5,79.2,5.7,80,6.6,80h11.5c0.4,0,0.8-0.4,0.8-0.8v-9.3h-0.7
		c-0.9,0-1.6-0.7-1.7-1.5c0-0.9,0.7-1.7,1.6-1.7c0.5,0,14.7,0,14.3,0c0.9,0,1.6,0.7,1.7,1.5c0,0.9-0.7,1.7-1.6,1.7h-0.7v9.3
		c0,0.4,0.4,0.8,0.8,0.8h11.5c0.9,0,1.7-0.8,1.6-1.7C45.7,77.4,44.9,76.8,44.1,76.8z M21.4,63.4h-1.8c-0.9,0-1.6-0.7-1.6-1.6
		c0-0.9,0.7-1.6,1.6-1.6h1.8c0.9,0,1.6,0.7,1.6,1.6C23,62.6,22.3,63.4,21.4,63.4z M21.4,57.3h-1.8c-0.9,0-1.6-0.7-1.6-1.6
		c0-0.9,0.7-1.6,1.6-1.6h1.8c0.9,0,1.6,0.7,1.6,1.6C23,56.6,22.3,57.3,21.4,57.3z M21.4,51.3h-1.8c-0.9,0-1.6-0.7-1.6-1.6
		c0-0.9,0.7-1.6,1.6-1.6h1.8c0.9,0,1.6,0.7,1.6,1.6C23,50.5,22.3,51.3,21.4,51.3z M21.4,45.2h-1.8c-0.9,0-1.6-0.7-1.6-1.6
		c0-0.9,0.7-1.6,1.6-1.6h1.8c0.9,0,1.6,0.7,1.6,1.6C23,44.5,22.3,45.2,21.4,45.2z M31,63.4h-1.8c-0.9,0-1.6-0.7-1.6-1.6
		c0-0.9,0.7-1.6,1.6-1.6H31c0.9,0,1.6,0.7,1.6,1.6C32.6,62.6,31.9,63.4,31,63.4z M31,57.3h-1.8c-0.9,0-1.6-0.7-1.6-1.6
		c0-0.9,0.7-1.6,1.6-1.6H31c0.9,0,1.6,0.7,1.6,1.6C32.6,56.6,31.9,57.3,31,57.3z M31,51.3h-1.8c-0.9,0-1.6-0.7-1.6-1.6
		c0-0.9,0.7-1.6,1.6-1.6H31c0.9,0,1.6,0.7,1.6,1.6C32.6,50.5,31.9,51.3,31,51.3z M31,45.2h-1.8c-0.9,0-1.6-0.7-1.6-1.6
		c0-0.9,0.7-1.6,1.6-1.6H31c0.9,0,1.6,0.7,1.6,1.6C32.6,44.5,31.9,45.2,31,45.2z M22.1,79.2v-8.5c0-0.4,0.4-0.8,0.8-0.8h4.8
		c0.4,0,0.8,0.4,0.8,0.8v8.5c0,0.4-0.4,0.8-0.8,0.8h-4.8C22.5,80,22.1,79.6,22.1,79.2z"/>
	<g>
		<path class="st2" d="M46.8,0.5h-43C2.2,0.5,1,1.7,1,3.3v14.5c0,1.6,1.2,2.8,2.8,2.8h18.8l2,3.6c0.1,0.2,0.3,0.3,0.7,0.3
			c0.3,0,0.4-0.1,0.7-0.3l2-3.6h18.8c1.6,0,2.8-1.2,2.8-2.8V3.3C49.6,1.7,48.3,0.5,46.8,0.5z"/>
		<path class="st1" d="M25.3,25.5c-0.7,0-1.3-0.3-1.6-0.9l-1.7-3H3.8c-2.1,0-3.8-1.7-3.8-3.8V3.3c0-2.1,1.7-3.8,3.8-3.8h43
			c2.1,0,3.8,1.6,3.9,3.7l0,14.5c0,2.1-1.7,3.8-3.8,3.8H28.6l-1.9,3.3C26.5,25.1,26.1,25.5,25.3,25.5z M25.5,23.7L25.5,23.7
			C25.5,23.7,25.5,23.7,25.5,23.7z M3.8,1.5C2.8,1.5,2,2.3,2,3.3v14.5c0,1,0.8,1.8,1.8,1.8h19.4l2.1,3.7l2.1-3.7h19.4
			c1,0,1.8-0.8,1.8-1.8V3.3c-0.1-1-0.9-1.8-1.9-1.8H3.8z"/>
	</g>
	<path d="M13,6.7h-3V5h7.7v1.7h-3v9.4H13V6.7z"/>
	<defs>
		<filter id="Adobe_OpacityMaskFilter" filterUnits="userSpaceOnUse" x="8" y="3" width="11.7" height="15.1">
			<feColorMatrix  type="matrix" values="1 0 0 0 0  0 1 0 0 0  0 0 1 0 0  0 0 0 1 0"/>
		</filter>
	</defs>
	<mask maskUnits="userSpaceOnUse" x="8" y="3" width="11.7" height="15.1" id="path-3-inside-1_1_">
		<path class="st3" d="M13,6.7h-3V5h7.7v1.7h-3v9.4H13V6.7z"/>
	</mask>
	<path class="st4" d="M13,6.7h2v-2h-2V6.7z M10,6.7H8v2h2V6.7z M10,5V3H8v2H10z M17.7,5h2V3h-2V5z M17.7,6.7v2h2v-2H17.7z M14.7,6.7
		v-2h-2v2H14.7z M14.7,16.1v2h2v-2H14.7z M13,16.1h-2v2h2V16.1z M13,4.7h-3v4h3V4.7z M12,6.7V5H8v1.7H12z M10,7h7.7V3H10V7z M15.7,5
		v1.7h4V5H15.7z M17.7,4.7h-3v4h3V4.7z M12.7,6.7v9.4h4V6.7H12.7z M14.7,14.1H13v4h1.7V14.1z M15,16.1V6.7h-4v9.4H15z"/>
	<path d="M28.5,6.3c1.1,1.1,1.7,2.6,1.7,4.1c0,1.7-0.6,3-1.7,4.1s-2.6,1.7-4.1,1.7c-1.7,0-3-0.6-4.1-1.7c-1.1-1.1-1.7-2.6-1.7-4.1
		s0.6-3,1.7-4.1c1.1-1.1,2.6-1.7,4.1-1.7C25.9,4.6,27.2,5.2,28.5,6.3z M24.2,6.3c-1.1,0-2.1,0.4-3,1.2C20.4,8.4,20,9.4,20,10.5
		c0,1.1,0.4,2.1,1.2,3c0.8,0.8,1.8,1.2,3,1.2c1.1,0,2.1-0.4,2.9-1.2c0.8-0.8,1.3-1.8,1.3-3c0-1.1-0.4-2.1-1.2-2.9
		C26.5,6.8,25.4,6.3,24.2,6.3z"/>
	<defs>
		<filter id="Adobe_OpacityMaskFilter_1_" filterUnits="userSpaceOnUse" x="16.5" y="2.6" width="15.7" height="15.7">
			<feColorMatrix  type="matrix" values="1 0 0 0 0  0 1 0 0 0  0 0 1 0 0  0 0 0 1 0"/>
		</filter>
	</defs>
	<mask maskUnits="userSpaceOnUse" x="16.5" y="2.6" width="15.7" height="15.7" id="path-5-inside-2_1_">
		<path class="st5" d="M28.5,6.3c1.1,1.1,1.7,2.6,1.7,4.1c0,1.7-0.6,3-1.7,4.1s-2.6,1.7-4.1,1.7c-1.7,0-3-0.6-4.1-1.7
			c-1.1-1.1-1.7-2.6-1.7-4.1s0.6-3,1.7-4.1c1.1-1.1,2.6-1.7,4.1-1.7C25.9,4.6,27.2,5.2,28.5,6.3z M24.2,6.3c-1.1,0-2.1,0.4-3,1.2
			C20.4,8.4,20,9.4,20,10.5c0,1.1,0.4,2.1,1.2,3c0.8,0.8,1.8,1.2,3,1.2c1.1,0,2.1-0.4,2.9-1.2c0.8-0.8,1.3-1.8,1.3-3
			c0-1.1-0.4-2.1-1.2-2.9C26.5,6.8,25.4,6.3,24.2,6.3z"/>
	</mask>
	<path class="st6" d="M28.5,6.3l1.4-1.4l0,0l0,0L28.5,6.3z M24.3,4.6v2V4.6z M21.2,7.6l-1.3-1.5l-0.1,0l0,0L21.2,7.6z M21.2,13.5
		l-1.5,1.3l0,0.1l0,0L21.2,13.5z M27.1,7.7c0.7,0.7,1.1,1.7,1.1,2.7h4c0-2.1-0.7-4-2.3-5.6L27.1,7.7z M28.2,10.5
		c0,1.2-0.4,2-1.1,2.7l2.8,2.8c1.5-1.5,2.3-3.4,2.3-5.6H28.2z M27.1,13.2c-0.7,0.7-1.7,1.1-2.7,1.1v4c2.1,0,4-0.7,5.6-2.3L27.1,13.2
		z M24.3,14.3c-1.2,0-2-0.4-2.7-1.1L18.8,16c1.5,1.5,3.4,2.3,5.6,2.3V14.3z M21.6,13.2c-0.7-0.7-1.1-1.7-1.1-2.7h-4
		c0,2.1,0.7,4,2.3,5.6L21.6,13.2z M20.5,10.5c0-1.1,0.4-2,1.1-2.7l-2.8-2.8c-1.5,1.5-2.3,3.5-2.3,5.6H20.5z M21.6,7.7
		c0.7-0.7,1.7-1.1,2.7-1.1v-4c-2.1,0-4,0.7-5.6,2.3L21.6,7.7z M24.3,6.6c1,0,1.9,0.3,2.8,1.2l2.7-3c-1.6-1.4-3.4-2.2-5.5-2.2V6.6z
		 M24.2,4.3c-1.7,0-3.2,0.7-4.3,1.7l2.6,3c0.6-0.5,1.2-0.7,1.7-0.7V4.3z M19.8,6.2C18.6,7.3,18,8.8,18,10.5h4c0-0.6,0.2-1.1,0.6-1.5
		L19.8,6.2z M18,10.5c0,1.7,0.7,3.2,1.7,4.3l3-2.6C22.2,11.6,22,11,22,10.5H18z M19.8,14.9c1.2,1.2,2.7,1.8,4.4,1.8v-4
		c-0.7,0-1.2-0.2-1.6-0.6L19.8,14.9z M24.2,16.7c1.7,0,3.2-0.7,4.3-1.8l-2.8-2.8c-0.4,0.4-0.9,0.6-1.5,0.6V16.7z M28.5,14.9
		c1.1-1.1,1.9-2.5,1.9-4.4h-4c0,0.6-0.2,1.1-0.8,1.6L28.5,14.9z M30.5,10.5c0-1.7-0.7-3.2-1.8-4.3L25.8,9c0.4,0.4,0.6,0.9,0.6,1.5
		H30.5z M28.7,6.2C27.5,5,26,4.3,24.2,4.3v4c0.7,0,1.2,0.2,1.6,0.6L28.7,6.2z"/>
	<path d="M36.3,5c1.1,0,2.1,0.4,2.9,1.2C40,7,40.5,8,40.5,9.1c0,1.1-0.4,2.1-1.2,3c-0.8,0.9-1.7,1.2-2.9,1.2h-2.6v2.7h-1.7V5H36.3z
		 M33.9,11.7h2.5c0.7,0,1.2-0.2,1.8-0.8c0.6-0.6,0.8-1.1,0.8-1.8c0-0.7-0.2-1.2-0.8-1.8c-0.4-0.4-1-0.7-1.8-0.7h-2.6v5H33.9z"/>
	<defs>
		<filter id="Adobe_OpacityMaskFilter_2_" filterUnits="userSpaceOnUse" x="30.1" y="3" width="12.4" height="15.1">
			<feColorMatrix  type="matrix" values="1 0 0 0 0  0 1 0 0 0  0 0 1 0 0  0 0 0 1 0"/>
		</filter>
	</defs>
	<mask maskUnits="userSpaceOnUse" x="30.1" y="3" width="12.4" height="15.1" id="path-7-inside-3_1_">
		<path class="st7" d="M36.3,5c1.1,0,2.1,0.4,2.9,1.2C40,7,40.5,8,40.5,9.1c0,1.1-0.4,2.1-1.2,3c-0.8,0.9-1.7,1.2-2.9,1.2h-2.6v2.7
			h-1.7V5H36.3z M33.9,11.7h2.5c0.7,0,1.2-0.2,1.8-0.8c0.6-0.6,0.8-1.1,0.8-1.8c0-0.7-0.2-1.2-0.8-1.8c-0.4-0.4-1-0.7-1.8-0.7h-2.6
			v5H33.9z"/>
	</mask>
	<path class="st8" d="M33.7,13.4v-2h-2v2H33.7z M33.7,16.1v2h2v-2H33.7z M32.1,16.1h-2v2h2V16.1z M32.1,5V3h-2v2H32.1z M33.7,6.7v-2
		h-2v2H33.7z M33.7,11.7h-2v2h2V11.7z M36.3,7c0.6,0,1.1,0.2,1.5,0.6l2.8-2.8C39.5,3.7,38,3,36.3,3V7z M37.8,7.6
		c0.4,0.4,0.6,0.9,0.6,1.5h4c0-1.7-0.7-3.2-1.8-4.3L37.8,7.6z M38.5,9.1c0,0.5-0.2,1.1-0.7,1.7l3,2.6c1-1.2,1.7-2.6,1.7-4.3H38.5z
		 M37.7,10.8c-0.3,0.4-0.6,0.6-1.4,0.6v4c1.7,0,3.2-0.5,4.4-1.9L37.7,10.8z M36.3,11.4h-2.6v4h2.6V11.4z M31.7,13.4v2.7h4v-2.7H31.7
		z M33.7,14.1h-1.7v4h1.7V14.1z M34.1,16.1V5h-4v11.1H34.1z M32.1,7h4.3V3h-4.3V7z M33.9,13.7h2.5v-4h-2.5V13.7z M36.3,13.7
		c1.2,0,2.3-0.5,3.2-1.4l-2.8-2.8c-0.1,0.1-0.2,0.2-0.2,0.2c0,0,0,0-0.2,0V13.7z M39.5,12.3c0.9-0.9,1.4-2,1.4-3.2h-4
		c0,0.1,0,0.1,0,0.2c0,0,0,0.1-0.2,0.2L39.5,12.3z M40.9,9.1c0-1.2-0.5-2.3-1.4-3.2l-2.8,2.8C36.8,8.9,36.9,9,36.9,9c0,0,0,0,0,0.2
		H40.9z M39.5,5.9c-0.9-0.9-2-1.3-3.2-1.3v4c0.2,0,0.3,0,0.3,0c0,0,0,0,0.1,0L39.5,5.9z M36.3,4.7h-2.6v4h2.6V4.7z M31.7,6.7v5h4v-5
		H31.7z M33.7,13.7h0.1v-4h-0.1V13.7z"/>
</g>
</svg>
