<svg width="10" height="10" viewBox="0 0 10 10" fill="none" xmlns="http://www.w3.org/2000/svg">
    <path d="M8.59838 0H1.40188C1.28166 0 1.18408 0.0975737 1.18408 0.217798V9.7822C1.18408 9.90243 1.28166 10 1.40188 10H3.5118C3.63203 10 3.7296 9.90243 3.7296 9.7822V8.04918H6.27055V9.7822C6.27055 9.90243 6.36812 10 6.48835 10H8.59827C8.71849 10 8.81607 9.90243 8.81607 9.7822V0.217798C8.81618 0.0974648 8.71849 0 8.59838 0ZM3.59348 6.42473C3.59348 6.51501 3.52041 6.58808 3.43013 6.58808H2.45907C2.3688 6.58808 2.29573 6.51501 2.29573 6.42473V5.45367C2.29573 5.3634 2.3688 5.29033 2.45907 5.29033H3.43013C3.52041 5.29033 3.59348 5.3634 3.59348 5.45367V6.42473ZM3.59348 4.36926C3.59348 4.45953 3.52041 4.5326 3.43013 4.5326H2.45907C2.3688 4.5326 2.29573 4.45953 2.29573 4.36926V3.3982C2.29573 3.30792 2.3688 3.23485 2.45907 3.23485H3.43013C3.52041 3.23485 3.59348 3.30792 3.59348 3.3982V4.36926ZM3.59348 2.31378C3.59348 2.40406 3.52041 2.47713 3.43013 2.47713H2.45907C2.3688 2.47713 2.29573 2.40406 2.29573 2.31378V1.34273C2.29573 1.25245 2.3688 1.17938 2.45907 1.17938H3.43013C3.52041 1.17938 3.59348 1.25245 3.59348 1.34273V2.31378ZM5.64895 6.42473C5.64895 6.51501 5.57588 6.58808 5.4856 6.58808H4.51455C4.42427 6.58808 4.3512 6.51501 4.3512 6.42473V5.45367C4.3512 5.3634 4.42427 5.29033 4.51455 5.29033H5.4856C5.57588 5.29033 5.64895 5.3634 5.64895 5.45367V6.42473ZM5.64895 4.36926C5.64895 4.45953 5.57588 4.5326 5.4856 4.5326H4.51455C4.42427 4.5326 4.3512 4.45953 4.3512 4.36926V3.3982C4.3512 3.30792 4.42427 3.23485 4.51455 3.23485H5.4856C5.57588 3.23485 5.64895 3.30792 5.64895 3.3982V4.36926ZM5.64895 2.31378C5.64895 2.40406 5.57588 2.47713 5.4856 2.47713H4.51455C4.42427 2.47713 4.3512 2.40406 4.3512 2.31378V1.34273C4.3512 1.25245 4.42427 1.17938 4.51455 1.17938H5.4856C5.57588 1.17938 5.64895 1.25245 5.64895 1.34273V2.31378ZM7.70442 6.42473C7.70442 6.51501 7.63135 6.58808 7.54108 6.58808H6.57002C6.47974 6.58808 6.40667 6.51501 6.40667 6.42473V5.45367C6.40667 5.3634 6.47974 5.29033 6.57002 5.29033H7.54108C7.63135 5.29033 7.70442 5.3634 7.70442 5.45367V6.42473ZM7.70442 4.36926C7.70442 4.45953 7.63135 4.5326 7.54108 4.5326H6.57002C6.47974 4.5326 6.40667 4.45953 6.40667 4.36926V3.3982C6.40667 3.30792 6.47974 3.23485 6.57002 3.23485H7.54108C7.63135 3.23485 7.70442 3.30792 7.70442 3.3982V4.36926ZM7.70442 2.31378C7.70442 2.40406 7.63135 2.47713 7.54108 2.47713H6.57002C6.47974 2.47713 6.40667 2.40406 6.40667 2.31378V1.34273C6.40667 1.25245 6.47974 1.17938 6.57002 1.17938H7.54108C7.63135 1.17938 7.70442 1.25245 7.70442 1.34273V2.31378Z" fill="#BDBDBD"/>
</svg>
