<svg width="19" height="12" viewBox="0 0 19 12" fill="none" xmlns="http://www.w3.org/2000/svg">
<path d="M12.0742 6.91394C12.0742 8.49769 13.3229 9.27434 14.328 9.27434C15.3331 9.27434 16.5818 8.49769 16.5818 6.91394C16.5818 5.68044 15.3636 4.69059 14.328 4.09668C13.3077 4.70582 12.0742 5.68044 12.0742 6.91394Z" fill="white"/>
<path d="M2.89111 6.94421C2.89111 8.52797 4.13984 9.30462 5.14492 9.30462C6.15 9.30462 7.39873 8.52797 7.39873 6.94421C7.39873 5.71071 6.18045 4.72086 5.14492 4.12695C4.10939 4.72086 2.89111 5.71071 2.89111 6.94421Z" fill="white"/>
<path d="M0.530945 0V12H18.9269V0H0.530945ZM18.9117 2.92386C17.8 2.92386 16.4599 3.13706 15.4091 3.59391C16.5512 4.35533 17.6477 5.49746 17.6477 6.95939C17.6477 8.87817 16.0335 10.3401 14.267 10.3401C12.5005 10.3401 10.932 8.87817 10.932 6.95939C10.932 5.51269 11.9827 4.35533 13.1096 3.59391C12.0589 3.13706 10.8254 2.92386 9.71369 2.92386C8.60201 2.92386 7.36851 3.13706 6.31775 3.59391C7.45988 4.35533 8.49541 5.49746 8.49541 6.95939C8.49541 8.87817 6.94211 10.3401 5.16039 10.3401C3.39389 10.3401 1.74922 8.87817 1.74922 6.95939C1.74922 5.51269 2.87612 4.35533 4.00303 3.59391C2.95227 3.13706 1.61216 2.92386 0.500488 2.92386V1.8731C2.37358 1.8731 4.01825 2.34518 5.14516 2.92386C6.27206 2.34518 7.82536 1.8731 9.69846 1.8731C11.5716 1.8731 13.1249 2.34518 14.2365 2.92386C15.3634 2.34518 17.0233 1.8731 18.8812 1.8731V2.92386H18.9117Z" fill="white"/>
</svg>
