<svg width="42" height="40" viewBox="0 0 42 40" fill="none" xmlns="http://www.w3.org/2000/svg">
<g clip-path="url(#clip0)">
<path d="M17.0363 17.8534C17.9772 17.8534 18.7399 17.0907 18.7399 16.1499C18.7399 15.209 17.9772 14.4463 17.0363 14.4463C16.0955 14.4463 15.3328 15.209 15.3328 16.1499C15.3328 17.0907 16.0955 17.8534 17.0363 17.8534Z" fill="#1F91B3"/>
<path d="M27.2578 17.8534C28.1986 17.8534 28.9614 17.0907 28.9614 16.1499C28.9614 15.209 28.1986 14.4463 27.2578 14.4463C26.3169 14.4463 25.5542 15.209 25.5542 16.1499C25.5542 17.0907 26.3169 17.8534 27.2578 17.8534Z" fill="#1F91B3"/>
<path d="M15.7416 21.2605C15.5372 21.2605 15.3328 21.3968 15.3328 21.6012C15.3328 21.6694 15.3328 21.6694 15.3328 21.7375C15.6053 25.4854 18.8762 28.3474 22.6241 28.0748C26.0312 27.8022 28.6888 25.1447 28.9614 21.7375C28.9614 21.4649 28.8251 21.2605 28.5525 21.2605H15.7416Z" fill="#1F91B3"/>
<path d="M41.7041 19.8298C41.7722 9.13134 33.118 0.272733 22.3514 0.20459C22.2833 0.20459 22.2151 0.20459 22.2151 0.20459C17.0363 0.20459 12.1981 2.18074 8.51838 5.79232C6.61037 7.63219 5.17936 9.88091 4.15722 12.2659C1.63592 13.7651 0.000488281 16.4908 0.000488281 19.5572C0.000488281 23.3732 2.58993 26.7804 6.26965 27.7344C6.47408 27.8025 6.74665 27.6663 6.8148 27.3937V27.3255V15.0598C7.56437 12.5385 8.99538 10.1535 10.9034 8.24548C13.9698 5.24718 18.0584 3.61174 22.2833 3.61174C31.1419 3.67989 38.2969 10.9712 38.2288 19.8298C38.1606 26.9848 33.3906 33.1177 26.8489 35.0939C26.3037 33.9354 25.1453 33.1859 23.7824 33.1859H20.3753H20.3071C18.4673 33.1859 16.9681 34.7531 16.9681 36.593V36.6611C16.9681 38.501 18.5354 40.0002 20.3753 40.0002H23.7824C24.8727 40.0002 25.8267 39.455 26.44 38.7054C35.1623 36.7293 41.6359 29.0291 41.7041 19.8298Z" fill="#1F91B3"/>
</g>
<defs>
<clipPath id="clip0">
<rect width="41.7036" height="40" fill="white" transform="translate(0.000488281)"/>
</clipPath>
</defs>
</svg>
