<svg width="20" height="20" viewBox="0 0 20 20" fill="none" xmlns="http://www.w3.org/2000/svg">
<g clip-path="url(#clip0)">
<path d="M8.33521 1.20728H11.6778V1.76971H12.8849V1.12854C12.8851 0.506287 12.3791 0 11.7571 0H8.25586C7.63391 0 7.12793 0.506287 7.12793 1.12854V1.76971H8.33521V1.20728Z" fill="#BDBDBD"/>
<path d="M15.6727 6.55273H4.3403C4.02978 6.55273 3.78533 6.81763 3.81036 7.12723L4.75778 18.8423C4.81057 19.4963 5.35607 20 6.01144 20H14.0014C14.6568 20 15.2023 19.4963 15.2551 18.8422L16.2025 7.12723C16.2277 6.81763 15.9832 6.55273 15.6727 6.55273ZM7.08428 18.7505C7.07162 18.7512 7.05895 18.7517 7.04644 18.7517C6.72997 18.7517 6.46432 18.5052 6.44464 18.1851L5.85092 8.56766C5.83047 8.23486 6.08361 7.94846 6.41625 7.92801C6.74783 7.90787 7.03546 8.1604 7.0559 8.49335L7.64947 18.1108C7.67007 18.4436 7.41693 18.7299 7.08428 18.7505ZM10.6168 18.148C10.6168 18.4813 10.3466 18.7515 10.0132 18.7515C9.6798 18.7515 9.40957 18.4813 9.40957 18.148V8.53043C9.40957 8.19702 9.6798 7.92679 10.0132 7.92679C10.3465 7.92679 10.6168 8.19702 10.6168 8.53043V18.148ZM14.1621 8.56598L13.5952 18.1834C13.5764 18.5042 13.3103 18.7515 12.9932 18.7515C12.9813 18.7515 12.9693 18.7512 12.9572 18.7506C12.6244 18.7309 12.3705 18.4453 12.3902 18.1125L12.9569 8.49487C12.9765 8.16208 13.2612 7.90817 13.5949 7.92786C13.9277 7.94739 14.1816 8.23318 14.1621 8.56598Z" fill="#BDBDBD"/>
<path d="M17.7597 4.69L17.3633 3.50165C17.2587 3.18839 16.9655 2.97705 16.6351 2.97705H3.3769C3.0467 2.97705 2.75328 3.18839 2.64891 3.50165L2.25248 4.69C2.17604 4.91919 2.27552 5.15295 2.46122 5.26953C2.53691 5.31699 2.62647 5.34552 2.72489 5.34552H17.2873C17.3857 5.34552 17.4754 5.31699 17.5509 5.26938C17.7366 5.1528 17.8361 4.91904 17.7597 4.69Z" fill="#BDBDBD"/>
</g>
<defs>
<clipPath id="clip0">
<rect width="20" height="20" fill="white"/>
</clipPath>
</defs>
</svg>
