<svg width="18" height="15" viewBox="0 0 18 15" fill="none" xmlns="http://www.w3.org/2000/svg">
<path d="M16.6323 1.29923C14.9 -0.433078 12.0914 -0.433078 10.359 1.29923L9.38044 2.27777C9.14713 2.51108 8.76876 2.51108 8.53546 2.27777L7.57256 1.31487C5.84025 -0.417442 3.03161 -0.417442 1.29923 1.31487C-0.433077 3.04718 -0.433077 5.85582 1.29923 7.5882L8.53604 14.825C8.76934 15.0583 9.14771 15.0583 9.38102 14.825L16.6322 7.57257C18.3646 5.84019 18.3646 3.03162 16.6323 1.29923Z" fill="white"/>
<path d="M16.6323 1.29923C14.9 -0.433078 12.0914 -0.433078 10.359 1.29923L9.38044 2.27777C9.14713 2.51108 8.76876 2.51108 8.53546 2.27777L7.57256 1.31487C5.84025 -0.417442 3.03161 -0.417442 1.29923 1.31487C-0.433077 3.04718 -0.433077 5.85582 1.29923 7.5882L8.53604 14.825C8.76934 15.0583 9.14771 15.0583 9.38102 14.825L16.6322 7.57257C18.3646 5.84019 18.3646 3.03162 16.6323 1.29923Z" fill="url(#paint0_linear)"/>
<defs>
<linearGradient id="paint0_linear" x1="8.96576" y1="0" x2="8.96576" y2="15" gradientUnits="userSpaceOnUse">
<stop stop-color="white"/>
<stop offset="1" stop-color="white" stop-opacity="0"/>
</linearGradient>
</defs>
</svg>
