<svg width="15" height="17" viewBox="0 0 15 17" fill="none" xmlns="http://www.w3.org/2000/svg">
<path d="M13.375 7.25C13.375 11.625 7.75 15.375 7.75 15.375C7.75 15.375 2.125 11.625 2.125 7.25C2.125 5.75816 2.71763 4.32742 3.77252 3.27252C4.82742 2.21763 6.25816 1.625 7.75 1.625C9.24184 1.625 10.6726 2.21763 11.7275 3.27252C12.7824 4.32742 13.375 5.75816 13.375 7.25Z" stroke="black" stroke-linecap="round" stroke-linejoin="round"/>
<path d="M7.75 9.125C8.78553 9.125 9.625 8.28553 9.625 7.25C9.625 6.21447 8.78553 5.375 7.75 5.375C6.71447 5.375 5.875 6.21447 5.875 7.25C5.875 8.28553 6.71447 9.125 7.75 9.125Z" stroke="black" stroke-linecap="round" stroke-linejoin="round"/>
</svg>
