<svg width="20" height="20" viewBox="0 0 20 20" fill="none" xmlns="http://www.w3.org/2000/svg">
<path d="M15 17.5H5C4.30969 17.5 3.75 18.0597 3.75 18.75C3.75 19.4403 4.30969 20 5 20H15C15.6903 20 16.25 19.4403 16.25 18.75C16.25 18.0597 15.6903 17.5 15 17.5Z" fill="white"/>
<path d="M10 16.25C10.4059 16.25 10.7864 16.0529 11.0205 15.7218C11.492 15.0552 15.625 9.10219 15.625 5.37508C15.625 2.41121 13.1015 0 10 0C6.89852 0 4.375 2.41121 4.375 5.37508C4.375 9.10219 8.50801 15.0553 8.97949 15.7218C9.21355 16.0529 9.5941 16.25 10 16.25ZM8.125 5.62687C8.125 4.59047 8.96453 3.75 10 3.75C11.0364 3.75 11.875 4.59047 11.875 5.62687C11.875 6.66316 11.0364 7.5 10 7.5C8.96453 7.5 8.125 6.66316 8.125 5.62687Z" fill="white"/>
</svg>
