<?xml version="1.0" encoding="utf-8"?>
<!-- Generator: Adobe Illustrator 25.0.0, SVG Export Plug-In . SVG Version: 6.00 Build 0)  -->
<svg version="1.1" id="Layer_1" xmlns="http://www.w3.org/2000/svg" xmlns:xlink="http://www.w3.org/1999/xlink" x="0px" y="0px"
	 viewBox="0 0 21 20" style="enable-background:new 0 0 21 20;" xml:space="preserve">
<style type="text/css">
	.st0{clip-path:url(#SVGID_2_);}
	.st1{fill:#FFFFFF;}
</style>
<g>
	<defs>
		<rect id="SVGID_1_" y="0" width="20" height="20"/>
	</defs>
	<clipPath id="SVGID_2_">
		<use xlink:href="#SVGID_1_"  style="overflow:visible;"/>
	</clipPath>
	<g class="st0">
		<path class="st1" d="M5.3,8l1.6,1.6l2.8-2.8L8,5.3c0.4-1.4,0-3-1-4.1c-1.1-1.1-2.7-1.5-4.2-1C2.6,0.3,2.5,0.4,2.4,0.6
			C2.4,0.8,2.4,1,2.5,1.1l1.6,2.1L3.2,4.1L1.1,2.5C1,2.4,0.8,2.4,0.6,2.4C0.4,2.5,0.3,2.6,0.2,2.8c-0.5,1.5-0.1,3.1,1,4.2
			C2.3,8.1,3.8,8.5,5.3,8z"/>
		<path class="st1" d="M14.7,12l-1.6-1.6l-2.8,2.8l1.6,1.6c-0.4,1.4,0,3,1,4.1c0.8,0.8,1.8,1.2,2.9,1.2c0.4,0,0.9-0.1,1.3-0.2
			c0.2-0.1,0.3-0.2,0.4-0.4c0.1-0.2,0-0.4-0.1-0.5l-1.6-2.1l0.9-0.9l2.1,1.6c0.1,0.1,0.3,0.2,0.5,0.1c0.2-0.1,0.3-0.2,0.4-0.4
			c0.5-1.5,0.1-3.1-1-4.2C17.7,11.9,16.2,11.5,14.7,12z"/>
		<path class="st1" d="M5.4,12.7c-0.2-0.2-0.6-0.2-0.8,0l-4,4c-0.8,0.8-0.8,2,0,2.8c0.8,0.8,2,0.8,2.8,0l4-4c0.2-0.2,0.2-0.6,0-0.8
			L5.4,12.7z"/>
		<path class="st1" d="M15.5,9.5c0.3,0.3,0.6,0.4,1,0.4s0.7-0.1,1-0.4l2.2-2.2c0.5-0.5,0.5-1.4,0-1.9l-5-5c-0.5-0.5-1.4-0.5-1.9,0
			l-2.2,2.2C10,3.1,10,4,10.5,4.5L15.5,9.5z"/>
		<path class="st1" d="M11.2,6.9l-4.9,4.9h0l1.9,1.9l4.9-4.9L11.2,6.9z"/>
	</g>
</g>
</svg>
