<svg width="11" height="17" viewBox="0 0 11 17" fill="none" xmlns="http://www.w3.org/2000/svg">
<path d="M2.84375 14.3438L1.25 15.9375M8.42188 1.59375H7.625C7.625 1.45285 7.56903 1.31773 7.4694 1.2181C7.36977 1.11847 7.23465 1.0625 7.09375 1.0625H3.90625C3.76535 1.0625 3.63023 1.11847 3.5306 1.2181C3.43097 1.31773 3.375 1.45285 3.375 1.59375H2.57812C2.08542 1.59515 1.61329 1.7915 1.2649 2.1399C0.9165 2.48829 0.720152 2.96042 0.71875 3.45312V11.6543C0.71875 12.8264 5.5 13.8125 5.5 13.8125C5.5 13.8125 10.2812 12.8264 10.2812 11.6543V3.45312C10.2812 2.95999 10.0854 2.48705 9.73665 2.13835C9.38795 1.78965 8.91501 1.59375 8.42188 1.59375V1.59375ZM5.5 11.6875C5.18479 11.6875 4.87665 11.594 4.61456 11.4189C4.35247 11.2438 4.14819 10.9949 4.02757 10.7037C3.90694 10.4124 3.87538 10.092 3.93687 9.78282C3.99837 9.47367 4.15016 9.18969 4.37305 8.9668C4.59594 8.74391 4.87992 8.59212 5.18907 8.53062C5.49823 8.46913 5.81868 8.50069 6.1099 8.62132C6.40112 8.74194 6.65003 8.94622 6.82516 9.20831C7.00028 9.4704 7.09375 9.77854 7.09375 10.0938C7.09375 10.5164 6.92584 10.9218 6.62695 11.2207C6.32807 11.5196 5.92269 11.6875 5.5 11.6875ZM8.6875 6.375C8.6875 6.5159 8.63153 6.65102 8.5319 6.75065C8.43227 6.85028 8.29715 6.90625 8.15625 6.90625H2.84375C2.70285 6.90625 2.56773 6.85028 2.4681 6.75065C2.36847 6.65102 2.3125 6.5159 2.3125 6.375V4.25C2.3125 4.1091 2.36847 3.97398 2.4681 3.87435C2.56773 3.77472 2.70285 3.71875 2.84375 3.71875H8.15625C8.29715 3.71875 8.43227 3.77472 8.5319 3.87435C8.63153 3.97398 8.6875 4.1091 8.6875 4.25V6.375ZM1.78125 15.4062H9.21875H1.78125ZM8.15625 14.3438L9.75 15.9375L8.15625 14.3438Z" stroke="black" stroke-linecap="round" stroke-linejoin="round"/>
</svg>
