<?xml version="1.0" encoding="utf-8"?>
<!-- Generator: Adobe Illustrator 25.0.0, SVG Export Plug-In . SVG Version: 6.00 Build 0)  -->
<svg version="1.1" id="Layer_1" xmlns="http://www.w3.org/2000/svg" xmlns:xlink="http://www.w3.org/1999/xlink" x="0px" y="0px"
	 viewBox="0 0 23 20" style="enable-background:new 0 0 23 20;" xml:space="preserve">
<style type="text/css">
	.st0{clip-path:url(#SVGID_2_);}
	.st1{fill:#333333;}
</style>
<g>
	<defs>
		<rect id="SVGID_1_" y="0" width="22.7" height="20"/>
	</defs>
	<clipPath id="SVGID_2_">
		<use xlink:href="#SVGID_1_"  style="overflow:visible;"/>
	</clipPath>
	<g class="st0">
		<path class="st1" d="M3.3,12.3v-2C4,10.2,4.5,9.8,4.9,9.3v2.6c0.7-0.2,1.5-0.2,2.3-0.2c2.3,0,4.6,0.7,6.5,2.2
			c0.9-0.2,1.9-0.3,2.9-0.3V7.2l-6.1-3L5.3,7C5.2,5.1,4.7,2.7,3.8,1.1L3.2,0h-1l-0.6,1C0.5,3,0,5.8,0,7.7C0,9,0.9,10,2,10.3v2.6
			C2.4,12.7,2.9,12.5,3.3,12.3z M9.5,9.7H8.1V8.4h1.3V9.7z M13.2,9.7h-1.3V8.4h1.3V9.7z"/>
		<path class="st1" d="M20.2,13.9v-2.1c0.9-0.3,1.5-1.1,1.5-2.1c0-1.5-0.4-3.7-1.2-5.1L20,3.8h-0.9l-0.5,0.9
			c-0.8,1.5-1.2,3.7-1.2,5.1c0,1,0.6,1.8,1.5,2.1v1.8C19.4,13.7,19.8,13.8,20.2,13.9z"/>
		<path class="st1" d="M22.7,16.4l-0.2-0.1c-1.7-1-3.7-1.5-5.8-1.5c-0.6,0-1.2,0-1.8,0.1c1.1,1.1,1.8,2.4,2.3,4c0.2,0.5,0.3,1,0.3,1
			h5.2V16.4z"/>
		<path class="st1" d="M12.7,14.8C11.1,13.6,9.2,13,7.1,13c-2.7,0-5.4,1.1-7.1,3.3v3.6c0.4-1.2,1.2-2.4,2.3-3.2
			c1.4-1.1,3.1-1.7,4.9-1.7c1.8,0,3.5,0.6,4.9,1.7c1.1,0.9,1.9,2,2.3,3.3h1.9l-0.2-0.7C15.4,17.5,14.3,15.9,12.7,14.8z"/>
		<path class="st1" d="M7.1,16.3c-1.5,0-2.9,0.5-4,1.4c-0.8,0.6-1.3,1.4-1.7,2.3h11.4c-0.4-0.9-1-1.7-1.7-2.3
			C10,16.8,8.6,16.3,7.1,16.3z"/>
	</g>
</g>
</svg>
