<svg width="23" height="20" viewBox="0 0 23 20" fill="none" xmlns="http://www.w3.org/2000/svg">
<g clip-path="url(#clip0)">
<path d="M3.34119 12.3234V10.3373C3.96611 10.1774 4.50314 9.79656 4.86527 9.28382V11.8805C5.60442 11.7239 6.3665 11.6429 7.13991 11.6429C9.45704 11.6429 11.7699 12.3781 13.624 13.7948C14.548 13.5861 15.5108 13.4745 16.4915 13.4649V7.21386L10.4195 4.2197L5.33186 6.97846C5.22323 5.11019 4.72788 2.7409 3.76889 1.06262L3.17951 0.03125H2.17549L1.58611 1.06258C0.490443 2.98006 0 5.79952 0 7.74315C0 8.9905 0.857389 10.0412 2.01376 10.3373V12.9232C2.44089 12.6935 2.88447 12.4933 3.34119 12.3234ZM9.4542 9.69935H8.12677V8.37191H9.4542V9.69935ZM13.23 9.69935H11.9026V8.37191H13.23V9.69935Z" fill="white"/>
<path d="M20.2271 13.9419V11.886C21.1123 11.6041 21.7554 10.7744 21.7554 9.79697C21.7554 8.30073 21.3767 6.12816 20.5306 4.64754L20.0373 3.78418H19.0895L18.5962 4.64754C17.7501 6.12821 17.3713 8.30073 17.3713 9.79697C17.3713 10.7744 18.0144 11.6041 18.8997 11.886V13.65C19.351 13.725 19.7942 13.8223 20.2271 13.9419Z" fill="white"/>
<path d="M22.6549 16.4296L22.4184 16.2901C20.7549 15.3094 18.7532 14.791 16.6296 14.791C16.0352 14.791 15.4484 14.8325 14.8748 14.9136C15.9632 16.0623 16.6593 17.3553 17.198 18.9391C17.3712 19.4482 17.4945 19.9679 17.4945 19.9679H22.6549V16.4296Z" fill="white"/>
<path d="M12.702 14.7633C11.0969 13.5906 9.17363 12.9707 7.13996 12.9707C4.42066 12.9707 1.73673 14.0819 0 16.2344V19.873C0.43969 18.6342 1.21739 17.5206 2.25628 16.6634C3.61088 15.5456 5.33527 14.93 7.11168 14.93C8.88814 14.93 10.6125 15.5456 11.9671 16.6634C13.0327 17.5426 13.8233 18.6916 14.2565 19.9686H16.113L15.9224 19.3074C15.4066 17.5175 14.2629 15.9037 12.702 14.7633Z" fill="white"/>
<path d="M7.11145 16.2568C5.64256 16.2568 4.21827 16.7646 3.10088 17.6867C2.34698 18.3087 1.76101 19.094 1.38672 19.968H12.8362C12.4619 19.094 11.8759 18.3087 11.122 17.6867C10.0046 16.7646 8.5803 16.2568 7.11145 16.2568Z" fill="white"/>
</g>
<defs>
<clipPath id="clip0">
<rect width="22.6549" height="20" fill="white"/>
</clipPath>
</defs>
</svg>
