<svg xmlns:xlink="http://www.w3.org/1999/xlink" xmlns="http://www.w3.org/2000/svg" class="i_like" width="24"  height="24" ><defs><svg viewBox="0 0 24 24" id="svg-favorite" xmlns="http://www.w3.org/2000/svg"><path fill-rule="evenodd" d="M12 20.182a.848.848 0 00.354-.093c.132-.062.26-.134.382-.215 1.624-1.055 3.034-2.165 4.23-3.33 1.196-1.163 2.121-2.358 2.777-3.585.656-1.226.984-2.466.984-3.72 0-.795-.127-1.523-.381-2.184a5.334 5.334 0 00-1.053-1.719 4.705 4.705 0 00-1.568-1.122 4.717 4.717 0 00-1.927-.396c-.858 0-1.61.22-2.253.661A4.81 4.81 0 0012 6.239a4.851 4.851 0 00-1.55-1.755c-.646-.444-1.396-.666-2.248-.666-.693 0-1.338.132-1.936.396a4.705 4.705 0 00-1.568 1.122A5.254 5.254 0 003.65 7.055c-.252.66-.377 1.389-.377 2.184 0 1.254.326 2.494.98 3.72.652 1.227 1.578 2.422 2.776 3.586 1.199 1.164 2.608 2.274 4.226 3.33.123.08.251.152.386.214s.255.093.359.093z"></path></svg></defs>
    <use xlink:href="#svg-favorite" fill="#D8D8DA">
        <svg viewBox="0 0 24 24" id="svg-favorite" xmlns="http://www.w3.org/2000/svg"><path fill-rule="evenodd" d="M12 20.182a.848.848 0 00.354-.093c.132-.062.26-.134.382-.215 1.624-1.055 3.034-2.165 4.23-3.33 1.196-1.163 2.121-2.358 2.777-3.585.656-1.226.984-2.466.984-3.72 0-.795-.127-1.523-.381-2.184a5.334 5.334 0 00-1.053-1.719 4.705 4.705 0 00-1.568-1.122 4.717 4.717 0 00-1.927-.396c-.858 0-1.61.22-2.253.661A4.81 4.81 0 0012 6.239a4.851 4.851 0 00-1.55-1.755c-.646-.444-1.396-.666-2.248-.666-.693 0-1.338.132-1.936.396a4.705 4.705 0 00-1.568 1.122A5.254 5.254 0 003.65 7.055c-.252.66-.377 1.389-.377 2.184 0 1.254.326 2.494.98 3.72.652 1.227 1.578 2.422 2.776 3.586 1.199 1.164 2.608 2.274 4.226 3.33.123.08.251.152.386.214s.255.093.359.093z"></path></svg>
    </use>
</svg>