<svg width="232" height="248" viewBox="0 0 232 248" fill="none" xmlns="http://www.w3.org/2000/svg">
<rect x="61" y="94" width="5" height="5" transform="rotate(45 61 94)" fill="#73BEBE"/>
<rect width="122" height="25" transform="translate(0 73)" fill="#73BEBE"/>
<path d="M16.242 79.136H14.128C14.184 79.528 14.212 79.976 14.212 80.536V83.196C14.212 85.38 14.03 86.43 13.064 87.48C12.224 88.39 11.09 88.922 9.704 89.244L11.16 90.784C12.182 90.462 13.638 89.776 14.562 88.768C15.598 87.62 16.186 86.318 16.186 83.308V80.536C16.186 79.976 16.214 79.528 16.242 79.136ZM9.746 79.248H7.73C7.772 79.57 7.786 80.06 7.786 80.326V85.044C7.786 85.464 7.73 86.01 7.716 86.276H9.746C9.718 85.954 9.704 85.408 9.704 85.058V80.326C9.704 79.878 9.718 79.57 9.746 79.248ZM30.676 79.752L28.492 79.192C28.114 81.194 27.19 83.616 25.846 85.24C24.6 86.752 22.71 88.138 20.526 88.88L22.122 90.518C24.278 89.65 26.238 87.942 27.428 86.458C28.562 85.044 29.472 82.93 30.06 81.32C30.228 80.872 30.424 80.256 30.676 79.752ZM42.926 80.298L41.708 80.802C42.226 81.516 42.576 82.202 42.982 83.084L44.242 82.538C43.934 81.894 43.318 80.872 42.926 80.298ZM44.802 79.528L43.598 80.074C44.116 80.774 44.494 81.418 44.942 82.3L46.16 81.712C45.838 81.082 45.208 80.088 44.802 79.528ZM33.49 86.01L35.17 87.746C35.422 87.382 35.758 86.892 36.08 86.444C36.64 85.688 37.634 84.302 38.18 83.602C38.586 83.098 38.88 83.07 39.328 83.518C39.832 84.036 41.078 85.394 41.89 86.36C42.716 87.326 43.906 88.768 44.844 89.93L46.384 88.278C45.306 87.13 43.878 85.576 42.94 84.582C42.1 83.672 41.022 82.552 40.084 81.67C38.992 80.648 38.166 80.802 37.34 81.782C36.374 82.93 35.282 84.302 34.652 84.946C34.218 85.366 33.91 85.674 33.49 86.01ZM50.332 85.52C49.534 87.158 48.526 88.922 47.826 89.986L49.282 91.022C50.066 89.65 50.892 88.04 51.592 86.556L50.332 85.52ZM50.906 83.308C50.346 82.832 49.184 82.286 48.316 81.978L47.434 83.224C48.316 83.602 49.422 84.218 49.954 84.694L50.906 83.308ZM57.668 84.526V85.1H54.238V84.484H53.062C54.07 84.218 55.022 83.896 55.89 83.49C56.884 83.966 57.976 84.274 59.124 84.526H57.668ZM54.154 87.452C54.21 87.116 54.224 86.78 54.238 86.486H57.668V87.452H54.154ZM57.192 80.844C56.856 81.222 56.45 81.558 55.974 81.852C55.484 81.586 55.022 81.25 54.574 80.844H57.192ZM60.37 80.844V79.402H56.8V78.156H55.078V79.402H51.564V79.5C50.976 79.052 49.94 78.52 49.142 78.212L48.232 79.444C49.114 79.822 50.206 80.466 50.71 80.956L51.564 79.738V80.844H52.656C53.188 81.558 53.776 82.118 54.406 82.594C53.384 82.958 52.208 83.21 50.99 83.378C51.242 83.7 51.634 84.4 51.774 84.778C52.068 84.722 52.362 84.652 52.642 84.582V86.108C52.642 87.298 52.46 89.244 50.892 90.476C51.298 90.658 51.928 91.106 52.222 91.358C53.09 90.658 53.58 89.748 53.874 88.824H57.668V91.19H59.306V84.568L59.81 84.666C59.964 84.148 60.342 83.546 60.706 83.168C59.558 83.014 58.494 82.818 57.5 82.51C58.116 82.034 58.648 81.488 59.068 80.844H60.37ZM63.996 79.402L64.066 81.208C64.43 81.152 64.92 81.11 65.2 81.096C65.844 81.054 67.048 81.012 67.608 80.984C67.286 81.642 66.88 82.594 66.488 83.518C63.674 83.644 61.7 85.296 61.7 87.466C61.7 88.88 62.624 89.734 63.856 89.734C64.808 89.734 65.48 89.342 66.04 88.502C66.53 87.732 67.118 86.332 67.622 85.142C68.826 85.31 69.946 85.73 70.94 86.276C70.478 87.55 69.498 88.88 67.384 89.79L68.868 91.008C70.744 90.028 71.808 88.796 72.424 87.214C72.858 87.536 73.264 87.858 73.628 88.194L74.44 86.248C74.034 85.968 73.53 85.646 72.942 85.31C73.082 84.526 73.152 83.658 73.208 82.72L71.374 82.51C71.416 82.93 71.416 83.49 71.374 84.036C71.36 84.19 71.346 84.344 71.332 84.512C70.422 84.12 69.386 83.784 68.294 83.616C68.798 82.426 69.33 81.208 69.694 80.606C69.806 80.41 69.974 80.228 70.17 80.018L69.05 79.15C68.812 79.248 68.448 79.332 68.098 79.346C67.44 79.402 65.956 79.472 65.158 79.472C64.85 79.472 64.374 79.444 63.996 79.402ZM63.338 87.2C63.338 86.318 64.22 85.366 65.788 85.128C65.396 86.01 65.018 86.892 64.654 87.41C64.402 87.76 64.206 87.9 63.926 87.9C63.604 87.9 63.338 87.662 63.338 87.2ZM82.714 85.408H86.97V83.98H82.714V79.724H81.286V83.98H77.03V85.408H81.286V89.664H82.714V85.408ZM96.854 85.212V82.202H100.018V85.212H96.854ZM91.94 85.212V82.202H95.09V85.212H91.94ZM96.854 80.564V78.142H95.09V80.564H90.26V87.62H91.94V86.85H95.09V91.218H96.854V86.85H100.018V87.55H101.768V80.564H96.854ZM113.136 88.978H106.808V86.234H113.136V88.978ZM116.37 82.146V80.522H110.91V78.142H109.09V80.522H103.644V82.146H109.09V84.652H105.058V91.218H106.808V90.56H113.136V91.162H114.956V84.652H110.91V82.146H116.37Z" fill="white"/>
<path d="M83.8112 116.009L26.6509 116.286L27.111 209.835L84.2713 209.558L83.8112 116.009Z" fill="white"/>
<path d="M82.6523 115.901C82.6523 116.336 82.6523 116.751 82.6523 117.186C83.0138 117.186 83.3562 117.186 83.7176 117.186C83.3562 116.751 82.9947 116.336 82.6523 115.901Z" fill="#5C5B5B"/>
<path d="M83.1088 209.45C83.5273 209.091 83.9648 208.751 84.3832 208.392C83.9267 208.392 83.4702 208.392 83.0137 208.392C83.0327 208.694 83.0517 208.997 83.1088 209.28C83.1088 209.337 83.1088 209.393 83.1088 209.45Z" fill="#5C5B5B"/>
<path d="M26.5383 117.451C26.9758 117.451 27.3943 117.451 27.8318 117.451C27.8318 117.148 27.8318 116.846 27.8127 116.563C27.8127 116.506 27.8127 116.449 27.8127 116.392C27.8127 115.561 27.0899 115.126 26.4432 115.164C25.2258 115.447 25.1307 117.451 26.5383 117.451Z" fill="#5C5B5B"/>
<path d="M28.2881 209.923C28.2881 209.488 28.2881 209.072 28.2881 208.638C27.9267 208.638 27.5843 208.638 27.2229 208.638C27.5653 209.091 27.9267 209.507 28.2881 209.923Z" fill="#5C5B5B"/>
<path d="M83.9267 114.843C77.4973 114.881 71.049 114.9 64.6196 114.937C54.3669 114.994 44.0952 115.032 33.8425 115.089C31.4838 115.107 29.1251 115.107 26.7664 115.126C26.6522 115.126 26.5571 115.145 26.462 115.164C27.1088 115.126 27.8316 115.561 27.8316 116.393C27.8316 116.449 27.8316 116.506 27.8316 116.563C27.8316 116.865 27.8316 117.167 27.8506 117.451C33.8615 117.413 39.8724 117.394 45.8642 117.356C56.1169 117.3 66.3696 117.262 76.6414 117.205C78.6386 117.186 80.655 117.186 82.6522 117.167C82.6522 116.733 82.6522 116.317 82.6522 115.882C83.0136 116.298 83.356 116.733 83.7175 117.148C83.356 117.148 83.0136 117.148 82.6522 117.148C82.6713 119.813 82.6713 122.478 82.6903 125.162C82.7283 132.589 82.7664 140.035 82.8044 147.462C82.8424 156.496 82.8995 165.529 82.9376 174.582C82.9756 182.368 83.0136 190.136 83.0517 197.922C83.0707 200.492 83.0707 203.044 83.0897 205.614C83.0897 206.483 82.9756 207.466 83.0136 208.373C83.4702 208.373 83.9267 208.373 84.3832 208.373C83.9647 208.732 83.5272 209.072 83.1088 209.431C83.1088 209.375 83.1088 209.318 83.1088 209.261C83.0517 208.978 83.0327 208.675 83.0136 208.373C77.0408 208.411 71.049 208.43 65.0762 208.468C54.8234 208.524 44.5517 208.562 34.299 208.619C32.3017 208.638 30.2854 208.638 28.2881 208.657C28.2881 209.091 28.2881 209.507 28.2881 209.942C27.9267 209.526 27.5843 209.091 27.2229 208.675C27.5843 208.675 27.9267 208.675 28.2881 208.675C28.2691 206.011 28.2691 203.346 28.2501 200.662C28.212 193.235 28.174 185.789 28.1359 178.362C28.0979 169.328 28.0408 160.294 28.0028 151.261C27.9647 143.475 27.9267 135.707 27.8887 127.921C27.8696 124.443 27.8887 120.947 27.8506 117.47C27.4131 117.47 26.9946 117.47 26.5571 117.47C25.1495 117.47 25.2446 115.466 26.462 115.183C25.9294 115.183 25.4729 115.504 25.4729 116.185C25.4919 119.284 25.5109 122.365 25.5109 125.464C25.549 132.891 25.587 140.337 25.6251 147.765C25.6631 156.798 25.7202 165.832 25.7582 174.884C25.7963 182.671 25.8343 190.438 25.8724 198.224C25.8914 202.004 25.8533 205.784 25.9294 209.564C25.9294 209.62 25.9294 209.677 25.9294 209.734C25.9294 210.32 26.3099 211 26.9946 211C33.424 210.962 39.8724 210.943 46.3017 210.906C56.5544 210.849 66.8261 210.811 77.0789 210.754C79.4376 210.735 81.7963 210.735 84.155 210.717C84.7446 210.717 85.4294 210.339 85.4294 209.658C85.4104 206.559 85.3914 203.478 85.3914 200.379C85.3533 192.952 85.3153 185.506 85.2772 178.078C85.2392 169.045 85.1821 160.011 85.1441 150.958C85.106 143.172 85.068 135.405 85.03 127.618C85.0109 123.839 85.049 120.059 84.9729 116.279C84.9729 116.222 84.9729 116.166 84.9729 116.109C84.9919 115.523 84.6115 114.843 83.9267 114.843Z" fill="#5C5B5B"/>
<path d="M41.2543 123.235L33.7598 123.272L33.8109 133.666L41.3054 133.63L41.2543 123.235Z" fill="#BE9C59"/>
<path d="M41.2543 123.235L33.7598 123.272L33.8109 133.666L41.3054 133.63L41.2543 123.235Z" fill="#E0C184" fill-opacity="0.5"/>
<path d="M40.1006 123.14C40.1006 123.575 40.1006 123.99 40.1006 124.425C40.462 124.425 40.8044 124.425 41.1658 124.425C40.8044 123.99 40.443 123.556 40.1006 123.14Z" fill="#5C5B5B"/>
<path d="M33.6521 124.444C34.0896 124.444 34.5081 124.444 34.9456 124.444C34.9456 124.085 34.9456 123.745 34.9456 123.385C34.5081 123.726 34.0896 124.085 33.6521 124.444Z" fill="#5C5B5B"/>
<path d="M41.4322 132.476C40.9947 132.476 40.5762 132.476 40.1387 132.476C40.1387 132.835 40.1387 133.175 40.1387 133.534C40.5762 133.175 40.9947 132.835 41.4322 132.476Z" fill="#5C5B5B"/>
<path d="M41.375 122.081C38.8831 122.1 36.3723 122.1 33.8804 122.119C33.2907 122.119 32.606 122.497 32.606 123.177C32.625 126.636 32.644 130.113 32.663 133.572C32.663 133.685 32.682 133.78 32.7011 133.874C32.663 133.232 33.1005 132.514 33.9375 132.514C34.2989 132.514 34.6413 132.514 35.0027 132.514C34.9837 129.83 34.9837 127.127 34.9647 124.444C34.5272 124.444 34.1087 124.444 33.6712 124.444C34.0897 124.085 34.5272 123.744 34.9456 123.385C34.9456 123.744 34.9456 124.085 34.9456 124.444C36.6576 124.444 38.3886 124.425 40.1005 124.425C40.1005 123.99 40.1005 123.574 40.1005 123.14C40.4619 123.555 40.8043 123.99 41.1657 124.406C40.8043 124.406 40.4619 124.406 40.1005 124.406C40.1196 127.09 40.1196 129.792 40.1386 132.476C40.5761 132.476 40.9946 132.476 41.4321 132.476C41.0136 132.835 40.5761 133.175 40.1576 133.534C40.1576 133.175 40.1576 132.835 40.1576 132.476C38.4456 132.476 36.7147 132.495 35.0027 132.495C35.0027 132.929 35.0027 133.345 35.0027 133.78C35.0027 135.178 32.9864 135.084 32.7011 133.874C32.7201 134.385 33.0625 134.838 33.7282 134.838C36.2201 134.819 38.731 134.819 41.2228 134.8C41.8125 134.8 42.4973 134.422 42.4973 133.742C42.4782 130.283 42.4592 126.806 42.4402 123.348C42.4402 122.762 42.0598 122.062 41.375 122.081Z" fill="#5C5B5B"/>
<path d="M34.9836 133.78C34.9836 133.345 34.9836 132.929 34.9836 132.495C34.6222 132.495 34.2798 132.495 33.9184 132.495C33.0814 132.495 32.6439 133.213 32.682 133.855C32.9673 135.084 35.0026 135.178 34.9836 133.78Z" fill="#5C5B5B"/>
<path d="M80.3767 112.004L24.1675 112.277L24.1921 117.285L80.4013 117.012L80.3767 112.004Z" fill="white"/>
<path d="M79.2092 111.894C79.2092 112.329 79.2092 112.745 79.2092 113.18C79.5706 113.18 79.913 113.18 80.2745 113.18C79.9321 112.745 79.5706 112.329 79.2092 111.894Z" fill="#5C5B5B"/>
<path d="M80.5218 115.844C80.0843 115.844 79.6658 115.844 79.2283 115.844C79.2283 116.203 79.2283 116.544 79.2283 116.903C79.6658 116.544 80.0843 116.203 80.5218 115.844Z" fill="#5C5B5B"/>
<path d="M24.0652 113.444C24.5027 113.444 24.9212 113.444 25.3587 113.444C25.3587 113.085 25.3587 112.745 25.3587 112.386C25.3587 111.554 24.6359 111.12 23.9891 111.158C22.7527 111.441 22.6576 113.444 24.0652 113.444Z" fill="#5C5B5B"/>
<path d="M25.3777 117.394C25.3777 116.959 25.3777 116.544 25.3777 116.109C25.0163 116.109 24.6739 116.109 24.3125 116.109C24.6549 116.544 25.0163 116.959 25.3777 117.394Z" fill="#5C5B5B"/>
<path d="M80.5027 110.836C74.1494 110.874 67.7962 110.893 61.4429 110.931C51.3995 110.987 41.356 111.025 31.2935 111.082C28.9538 111.082 26.6141 111.101 24.2745 111.12C24.1603 111.12 24.0652 111.139 23.9701 111.157C24.6168 111.12 25.3397 111.554 25.3397 112.386C25.3397 112.745 25.3397 113.085 25.3397 113.444C31.2745 113.406 37.1902 113.388 43.125 113.35C53.1685 113.293 63.212 113.255 73.2744 113.199C75.2527 113.18 77.231 113.18 79.2092 113.161C79.2092 112.726 79.2092 112.31 79.2092 111.876C79.5706 112.291 79.913 112.726 80.2745 113.142C79.913 113.142 79.5706 113.142 79.2092 113.142C79.2092 114.03 79.2092 114.918 79.2283 115.807C79.6658 115.807 80.0842 115.807 80.5217 115.807C80.1033 116.166 79.6658 116.506 79.2473 116.865C79.2473 116.506 79.2473 116.166 79.2473 115.807C73.3125 115.844 67.3967 115.863 61.462 115.901C51.4185 115.958 41.375 115.996 31.3125 116.052C29.3342 116.071 27.356 116.071 25.3777 116.09C25.3777 116.525 25.3777 116.941 25.3777 117.375C25.0163 116.959 24.6739 116.525 24.3125 116.109C24.6739 116.109 25.0163 116.109 25.3777 116.109C25.3777 115.221 25.3777 114.332 25.3587 113.444C24.9212 113.444 24.5027 113.444 24.0652 113.444C22.6576 113.444 22.7527 111.441 23.9701 111.157C23.4565 111.176 23 111.498 23 112.178C23 113.841 23.019 115.504 23.019 117.186C23.019 117.772 23.3995 118.452 24.0842 118.452C30.4375 118.415 36.7908 118.396 43.144 118.358C53.1875 118.301 63.231 118.263 73.2935 118.207C75.6331 118.188 77.9538 118.188 80.2935 118.169C80.8831 118.169 81.5679 117.791 81.5679 117.111C81.5679 115.447 81.5489 113.784 81.5489 112.102C81.5679 111.517 81.1875 110.836 80.5027 110.836Z" fill="#5C5B5B"/>
<path d="M56.529 123.16L49.0344 123.196L49.0855 133.59L56.5801 133.554L56.529 123.16Z" fill="#BE9C59"/>
<path d="M56.529 123.16L49.0344 123.196L49.0855 133.59L56.5801 133.554L56.529 123.16Z" fill="#E0C184" fill-opacity="0.5"/>
<path d="M55.356 123.064C55.356 123.499 55.356 123.915 55.356 124.349C55.7174 124.349 56.0598 124.349 56.4212 124.349C56.0788 123.915 55.7174 123.48 55.356 123.064Z" fill="#5C5B5B"/>
<path d="M48.9265 124.368C49.364 124.368 49.7825 124.368 50.22 124.368C50.22 124.009 50.22 123.669 50.22 123.31C49.7825 123.669 49.364 124.009 48.9265 124.368Z" fill="#5C5B5B"/>
<path d="M56.6873 132.4C56.2498 132.4 55.8313 132.4 55.3938 132.4C55.3938 132.759 55.3938 133.099 55.3938 133.458C55.8503 133.099 56.2688 132.759 56.6873 132.4Z" fill="#5C5B5B"/>
<path d="M56.6494 122.006C54.1575 122.025 51.6467 122.025 49.1548 122.044C48.5652 122.044 47.8804 122.422 47.8804 123.102C47.8994 126.561 47.9184 130.038 47.9374 133.496C47.9374 133.61 47.9565 133.704 47.9755 133.799C47.9374 133.156 48.3749 132.438 49.2119 132.438C49.5733 132.438 49.9157 132.438 50.2771 132.438C50.2581 129.754 50.2581 127.052 50.2391 124.368C49.8016 124.368 49.3831 124.368 48.9456 124.368C49.3641 124.009 49.8016 123.669 50.22 123.31C50.22 123.669 50.22 124.009 50.22 124.368C51.932 124.368 53.663 124.349 55.3749 124.349C55.3749 123.915 55.3749 123.499 55.3749 123.064C55.7363 123.48 56.0787 123.915 56.4402 124.33C56.0787 124.33 55.7363 124.33 55.3749 124.33C55.394 127.014 55.394 129.717 55.413 132.4C55.8505 132.4 56.269 132.4 56.7065 132.4C56.288 132.759 55.8505 133.1 55.432 133.459C55.432 133.1 55.432 132.759 55.432 132.4C53.72 132.4 51.9891 132.419 50.2771 132.419C50.2771 132.854 50.2771 133.27 50.2771 133.704C50.2771 135.103 48.2608 135.008 47.9755 133.799C47.9945 134.309 48.3369 134.763 49.0027 134.763C51.4945 134.744 54.0054 134.744 56.4972 134.725C57.0869 134.725 57.7717 134.347 57.7717 133.667C57.7527 130.208 57.7336 126.731 57.7146 123.272C57.7146 122.686 57.3342 121.987 56.6494 122.006Z" fill="#5C5B5B"/>
<path d="M50.258 133.704C50.258 133.269 50.258 132.854 50.258 132.419C49.8966 132.419 49.5542 132.419 49.1928 132.419C48.3558 132.419 47.9183 133.137 47.9564 133.78C48.2417 135.008 50.277 135.103 50.258 133.704Z" fill="#5C5B5B"/>
<path d="M71.8034 123.083L64.3088 123.12L64.36 133.514L71.8545 133.478L71.8034 123.083Z" fill="#BE9C59"/>
<path d="M71.8034 123.083L64.3088 123.12L64.36 133.514L71.8545 133.478L71.8034 123.083Z" fill="#E0C184" fill-opacity="0.5"/>
<path d="M70.6304 122.988C70.6304 123.423 70.6304 123.839 70.6304 124.273C70.9918 124.273 71.3342 124.273 71.6956 124.273C71.3532 123.839 70.9918 123.404 70.6304 122.988Z" fill="#5C5B5B"/>
<path d="M64.2009 124.292C64.6384 124.292 65.0569 124.292 65.4944 124.292C65.4944 123.933 65.4944 123.593 65.4944 123.234C65.0569 123.593 64.6384 123.933 64.2009 124.292Z" fill="#5C5B5B"/>
<path d="M71.9617 132.324C71.5242 132.324 71.1057 132.324 70.6682 132.324C70.6682 132.683 70.6682 133.024 70.6682 133.383C71.1247 133.042 71.5432 132.683 71.9617 132.324Z" fill="#5C5B5B"/>
<path d="M71.9238 121.93C69.432 121.949 66.9211 121.949 64.4292 121.968C63.8396 121.968 63.1548 122.346 63.1548 123.026C63.1738 126.485 63.1928 129.962 63.2118 133.421C63.2118 133.534 63.2309 133.628 63.2499 133.723C63.2119 133.08 63.6493 132.362 64.4863 132.362C64.8477 132.362 65.1901 132.362 65.5515 132.362C65.5325 129.679 65.5325 126.976 65.5135 124.292C65.076 124.292 64.6575 124.292 64.22 124.292C64.6385 123.933 65.076 123.593 65.4945 123.234C65.4945 123.593 65.4945 123.933 65.4945 124.292C67.2064 124.292 68.9374 124.274 70.6493 124.274C70.6493 123.839 70.6493 123.423 70.6493 122.988C71.0107 123.404 71.3531 123.839 71.7146 124.255C71.3531 124.255 71.0107 124.255 70.6493 124.255C70.6684 126.938 70.6684 129.641 70.6874 132.324C71.1249 132.324 71.5434 132.324 71.9809 132.324C71.5624 132.683 71.1249 133.024 70.7064 133.383C70.7064 133.024 70.7064 132.683 70.7064 132.324C68.9944 132.324 67.2635 132.343 65.5515 132.343C65.5515 132.778 65.5515 133.194 65.5515 133.628C65.5515 135.027 63.5352 134.932 63.2499 133.723C63.2689 134.233 63.6113 134.687 64.2771 134.687C66.7689 134.668 69.2798 134.668 71.7716 134.649C72.3613 134.649 73.0461 134.271 73.0461 133.591C73.0271 130.132 73.008 126.655 72.989 123.196C72.989 122.61 72.6086 121.93 71.9238 121.93Z" fill="#5C5B5B"/>
<path d="M65.5324 133.628C65.5324 133.194 65.5324 132.778 65.5324 132.343C65.171 132.343 64.8286 132.343 64.4672 132.343C63.6303 132.343 63.1928 133.061 63.2308 133.704C63.5161 134.951 65.5324 135.027 65.5324 133.628Z" fill="#5C5B5B"/>
<path d="M80.9782 209.564L98.8586 209.469L98.4021 119.265L98.3831 115.296L98.364 112.197L98.345 108.172L80.4646 108.247L80.9782 209.564Z" fill="white"/>
<path d="M80.3693 109.419C80.8068 109.419 81.2253 109.419 81.6628 109.419C81.6628 109.136 81.6628 108.833 81.6438 108.55C81.6438 108.493 81.6438 108.436 81.6438 108.361C81.6438 107.529 80.921 107.095 80.2742 107.132C79.0568 107.416 78.9617 109.419 80.3693 109.419Z" fill="#5C5B5B"/>
<path d="M97.1846 108.058C97.1846 108.493 97.1846 108.909 97.1846 109.343C97.546 109.343 97.8884 109.343 98.2498 109.343C97.8884 108.909 97.527 108.493 97.1846 108.058Z" fill="#5C5B5B"/>
<path d="M97.6791 209.375C98.0976 209.016 98.5351 208.675 98.9535 208.316C98.497 208.316 98.0405 208.316 97.584 208.316C97.603 208.6 97.622 208.902 97.6791 209.167C97.6791 209.242 97.6791 209.299 97.6791 209.375Z" fill="#5C5B5B"/>
<path d="M82.1385 209.677C82.1385 209.242 82.1385 208.827 82.1385 208.392C81.777 208.392 81.4347 208.392 81.0732 208.392C81.4347 208.827 81.7961 209.242 82.1385 209.677Z" fill="#5C5B5B"/>
<path d="M98.4591 107C92.5053 107.038 86.5324 107.057 80.5786 107.094C80.4645 107.094 80.3694 107.113 80.2743 107.132C80.921 107.094 81.6438 107.529 81.6438 108.361C81.6438 108.417 81.6438 108.474 81.6438 108.55C81.6438 108.833 81.6438 109.136 81.6629 109.419C86.8368 109.4 92.0107 109.362 97.1846 109.343C97.1846 108.909 97.1846 108.493 97.1846 108.058C97.546 108.474 97.8884 108.909 98.2498 109.325C97.8884 109.325 97.546 109.325 97.1846 109.325C97.2036 113.369 97.2226 117.394 97.2417 121.439C97.2797 127.713 97.2987 134.006 97.3368 140.281C97.3748 149.787 97.4319 159.293 97.4699 168.799C97.508 177.719 97.565 186.64 97.6031 195.56C97.6221 198.621 97.6411 201.702 97.6411 204.764C97.6411 205.879 97.508 207.126 97.565 208.298C98.0216 208.298 98.4781 208.298 98.9346 208.298C98.5161 208.657 98.0786 208.997 97.6601 209.356C97.6601 209.299 97.6792 209.224 97.6601 209.148C97.6031 208.865 97.5841 208.581 97.565 208.298C92.4101 208.317 87.2743 208.354 82.1194 208.373C82.1194 208.808 82.1194 209.224 82.1194 209.658C81.758 209.243 81.4156 208.808 81.0542 208.392C81.4156 208.392 81.758 208.392 82.1194 208.392C82.1004 205.463 82.0813 202.515 82.0813 199.585C82.0433 191.516 82.0052 183.427 81.9672 175.357C81.9101 165.624 81.8721 155.891 81.815 146.177C81.777 137.729 81.7389 129.282 81.6819 120.853C81.6629 117.054 81.6819 113.237 81.6248 109.438C81.1873 109.438 80.7688 109.438 80.3313 109.438C78.9237 109.438 79.0188 107.435 80.2362 107.151C79.7226 107.17 79.2661 107.51 79.2661 108.172C79.2851 111.536 79.3042 114.9 79.3232 118.264C79.3612 126.333 79.3993 134.422 79.4373 142.492C79.4944 152.225 79.5324 161.958 79.5895 171.672C79.6275 180.12 79.6656 188.567 79.7226 196.996C79.7417 201.097 79.7036 205.198 79.7797 209.28C79.7797 209.337 79.7797 209.394 79.7797 209.469C79.7797 210.055 80.1601 210.736 80.8449 210.736C86.7987 210.698 92.7716 210.679 98.7254 210.641C99.315 210.641 99.9998 210.263 99.9998 209.583C99.9808 205.879 99.9618 202.174 99.9428 198.47C99.9047 189.89 99.8667 181.31 99.8096 172.73C99.7716 163.092 99.7145 153.453 99.6765 143.796C99.6384 136.898 99.6004 130 99.5813 123.102C99.5623 119.057 99.5433 115.013 99.5243 110.969C99.5243 110.062 99.5243 109.173 99.5053 108.266C99.5243 107.68 99.1438 107 98.4591 107Z" fill="#5C5B5B"/>
<path d="M91.3824 122.071L87.1025 122.092L87.1435 130.426L91.4234 130.406L91.3824 122.071Z" fill="#BE9C59"/>
<path d="M91.3824 122.071L87.1025 122.092L87.1435 130.426L91.4234 130.406L91.3824 122.071Z" fill="#E0C184" fill-opacity="0.5"/>
<path d="M90.2039 121.968C90.2039 122.403 90.2039 122.818 90.2039 123.253C90.5653 123.253 90.9077 123.253 91.2691 123.253C90.9267 122.818 90.5653 122.403 90.2039 121.968Z" fill="#5C5B5B"/>
<path d="M86.989 123.272C87.4265 123.272 87.845 123.272 88.2825 123.272C88.2825 122.913 88.2825 122.573 88.2825 122.214C87.845 122.554 87.4075 122.913 86.989 123.272Z" fill="#5C5B5B"/>
<path d="M88.3015 130.548C88.3015 130.113 88.3015 129.698 88.3015 129.263C87.9401 129.263 87.5977 129.263 87.2363 129.263C86.3993 129.263 85.9618 129.981 85.9998 130.624C86.3042 131.852 88.3205 131.947 88.3015 130.548Z" fill="#5C5B5B"/>
<path d="M91.5352 129.244C91.0977 129.244 90.6792 129.244 90.2417 129.244C90.2417 129.603 90.2417 129.943 90.2417 130.302C90.6792 129.962 91.0977 129.603 91.5352 129.244Z" fill="#5C5B5B"/>
<path d="M91.4782 120.91C90.0516 120.91 88.6249 120.929 87.1983 120.929C86.6086 120.929 85.9238 121.307 85.9238 121.987C85.9428 124.765 85.9429 127.543 85.9619 130.321C85.9619 130.435 85.9809 130.529 85.9999 130.624C85.9619 129.981 86.3994 129.263 87.2363 129.263C87.5977 129.263 87.9401 129.263 88.3016 129.263C88.2825 127.26 88.2825 125.256 88.2635 123.253C87.826 123.253 87.4075 123.253 86.97 123.253C87.3885 122.894 87.826 122.554 88.2445 122.195C88.2445 122.554 88.2445 122.894 88.2445 123.253C88.8912 123.253 89.538 123.253 90.1847 123.253C90.1847 122.819 90.1847 122.403 90.1847 121.968C90.5461 122.384 90.8885 122.819 91.2499 123.234C90.8885 123.234 90.5461 123.234 90.1847 123.234C90.2037 125.238 90.2037 127.241 90.2228 129.244C90.6603 129.244 91.0787 129.244 91.5162 129.244C91.0978 129.603 90.6603 129.943 90.2418 130.302C90.2418 129.943 90.2418 129.603 90.2418 129.244C89.595 129.244 88.9483 129.244 88.3016 129.244C88.3016 129.679 88.3016 130.095 88.3016 130.529C88.3016 131.928 86.2852 131.833 85.9999 130.624C86.0189 131.134 86.3613 131.588 87.0271 131.588C88.4537 131.588 89.8804 131.569 91.307 131.569C91.8967 131.569 92.5815 131.191 92.5815 130.51C92.5624 127.732 92.5624 124.954 92.5434 122.176C92.5624 121.609 92.163 120.91 91.4782 120.91Z" fill="#5C5B5B"/>
<path d="M91.4967 148.473L87.2168 148.494L87.2578 156.828L91.5377 156.808L91.4967 148.473Z" fill="#BE9C59"/>
<path d="M91.4967 148.473L87.2168 148.494L87.2578 156.828L91.5377 156.808L91.4967 148.473Z" fill="#E0C184" fill-opacity="0.5"/>
<path d="M90.3372 148.369C90.3372 148.804 90.3372 149.22 90.3372 149.655C90.6986 149.655 91.041 149.655 91.4024 149.655C91.06 149.22 90.6986 148.785 90.3372 148.369Z" fill="#5C5B5B"/>
<path d="M87.1223 149.655C87.5598 149.655 87.9783 149.655 88.4158 149.655C88.4158 149.296 88.4158 148.955 88.4158 148.596C87.9783 148.955 87.5408 149.314 87.1223 149.655Z" fill="#5C5B5B"/>
<path d="M88.4348 156.931C88.4348 156.496 88.4348 156.08 88.4348 155.646C88.0734 155.646 87.731 155.646 87.3696 155.646C86.5326 155.646 86.0951 156.364 86.1331 157.007C86.4185 158.235 88.4538 158.329 88.4348 156.931Z" fill="#5C5B5B"/>
<path d="M91.6115 147.311C90.1848 147.311 88.7582 147.33 87.3316 147.33C86.7419 147.33 86.0571 147.708 86.0571 148.389C86.0762 151.167 86.0762 153.945 86.0952 156.723C86.0952 156.836 86.1142 156.931 86.1332 157.025C86.0952 156.383 86.5327 155.665 87.3696 155.665C87.731 155.665 88.0734 155.665 88.4348 155.665C88.4158 153.661 88.4158 151.658 88.3968 149.655C87.9593 149.655 87.5408 149.655 87.1033 149.655C87.5218 149.296 87.9593 148.956 88.3778 148.596C88.3778 148.956 88.3778 149.296 88.3778 149.655C89.0245 149.655 89.6713 149.655 90.318 149.655C90.318 149.22 90.318 148.804 90.318 148.37C90.6794 148.785 91.0218 149.22 91.3832 149.636C91.0218 149.636 90.6794 149.636 90.318 149.636C90.337 151.639 90.337 153.642 90.356 155.646C90.7935 155.646 91.212 155.646 91.6495 155.646C91.231 156.005 90.7935 156.345 90.3751 156.704C90.3751 156.345 90.3751 156.005 90.3751 155.646C89.7283 155.646 89.0816 155.646 88.4348 155.646C88.4348 156.08 88.4348 156.496 88.4348 156.931C88.4348 158.329 86.4185 158.235 86.1332 157.025C86.1522 157.536 86.4946 157.989 87.1604 157.989C88.587 157.989 90.0136 157.97 91.4403 157.97C92.0299 157.97 92.7147 157.592 92.7147 156.912C92.6957 154.134 92.6957 151.356 92.6767 148.578C92.6767 147.992 92.2963 147.311 91.6115 147.311Z" fill="#5C5B5B"/>
<path d="M91.6497 155.646C91.2122 155.646 90.7937 155.646 90.3562 155.646C90.3562 156.005 90.3562 156.345 90.3562 156.704C90.8127 156.345 91.2312 155.986 91.6497 155.646Z" fill="#5C5B5B"/>
<path d="M91.6297 174.875L87.3499 174.896L87.3908 183.23L91.6707 183.209L91.6297 174.875Z" fill="#BE9C59"/>
<path d="M91.6297 174.875L87.3499 174.896L87.3908 183.23L91.6707 183.209L91.6297 174.875Z" fill="#E0C184" fill-opacity="0.5"/>
<path d="M90.47 174.752C90.47 175.187 90.47 175.602 90.47 176.037C90.8314 176.037 91.1738 176.037 91.5352 176.037C91.1738 175.602 90.8314 175.187 90.47 174.752Z" fill="#5C5B5B"/>
<path d="M87.2554 176.056C87.6929 176.056 88.1114 176.056 88.5489 176.056C88.5489 175.697 88.5489 175.357 88.5489 174.998C88.1114 175.338 87.6738 175.697 87.2554 176.056Z" fill="#5C5B5B"/>
<path d="M91.7825 182.028C91.345 182.028 90.9265 182.028 90.489 182.028C90.489 182.388 90.489 182.728 90.489 183.087C90.9265 182.747 91.364 182.388 91.7825 182.028Z" fill="#5C5B5B"/>
<path d="M91.7445 173.694C90.3179 173.694 88.8913 173.713 87.4646 173.713C86.875 173.713 86.1902 174.091 86.1902 174.771C86.2092 177.549 86.2092 180.328 86.2282 183.106C86.2282 183.219 86.2472 183.314 86.2663 183.408C86.2282 182.765 86.6657 182.047 87.5027 182.047C87.8641 182.047 88.2065 182.047 88.5679 182.047C88.5489 180.044 88.5489 178.041 88.5299 176.037C88.0924 176.037 87.6739 176.037 87.2364 176.037C87.6549 175.678 88.0924 175.338 88.5108 174.979C88.5108 175.338 88.5108 175.678 88.5108 176.037C89.1576 176.037 89.8043 176.037 90.4511 176.037C90.4511 175.603 90.4511 175.187 90.4511 174.752C90.8125 175.168 91.1549 175.603 91.5163 176.019C91.1549 176.019 90.8125 176.019 90.4511 176.019C90.4701 178.022 90.4701 180.025 90.4891 182.028C90.9266 182.028 91.3451 182.028 91.7826 182.028C91.3641 182.388 90.9266 182.728 90.5081 183.087C90.5081 182.728 90.5081 182.388 90.5081 182.028C89.8614 182.028 89.2146 182.028 88.5679 182.028C88.5679 182.463 88.5679 182.879 88.5679 183.314C88.5679 184.712 86.5516 184.618 86.2663 183.408C86.2853 183.918 86.6277 184.372 87.2934 184.372C88.7201 184.372 90.1467 184.353 91.5733 184.353C92.163 184.353 92.8478 183.975 92.8478 183.295C92.8288 180.517 92.8288 177.738 92.8098 174.96C92.8098 174.393 92.4293 173.694 91.7445 173.694Z" fill="#5C5B5B"/>
<path d="M88.5678 183.332C88.5678 182.898 88.5678 182.482 88.5678 182.047C88.2064 182.047 87.864 182.047 87.5026 182.047C86.6657 182.047 86.2282 182.765 86.2662 183.408C86.5515 184.636 88.5678 184.731 88.5678 183.332Z" fill="#5C5B5B"/>
<path d="M46.3588 204.991L54.9757 193.67L46.3018 193.708L46.3588 204.991Z" fill="white"/>
<path d="M46.1875 194.88C46.625 194.88 47.0435 194.88 47.481 194.88C47.481 194.521 47.481 194.18 47.481 193.821C47.0435 194.162 46.625 194.521 46.1875 194.88Z" fill="#5C5B5B"/>
<path d="M55.0897 192.498C52.1984 192.517 49.3071 192.517 46.4158 192.536C45.8261 192.536 45.1414 192.914 45.1414 193.595C45.1604 197.355 45.1794 201.116 45.1984 204.877C45.1984 206.37 47.5571 206.597 47.5381 205.085C47.5191 201.683 47.5001 198.263 47.481 194.861C47.0435 194.861 46.6251 194.861 46.1876 194.861C46.606 194.502 47.0435 194.162 47.462 193.802C47.462 194.162 47.462 194.502 47.462 194.861C49.9348 194.842 52.3886 194.842 54.8615 194.823C56.3832 194.823 56.6115 192.498 55.0897 192.498Z" fill="#5C5B5B"/>
<path d="M55.0326 204.972L63.7256 205.028L63.6685 193.632L54.9756 193.67L55.0326 204.972Z" fill="white"/>
<path d="M62.489 193.519C62.489 193.953 62.489 194.369 62.489 194.804C62.8504 194.804 63.1928 194.804 63.5542 194.804C63.2118 194.369 62.8504 193.934 62.489 193.519Z" fill="#5C5B5B"/>
<path d="M54.8804 194.823C55.3179 194.823 55.7363 194.823 56.1739 194.823C56.1739 194.464 56.1739 194.123 56.1739 193.764C55.7363 194.123 55.2989 194.483 54.8804 194.823Z" fill="#5C5B5B"/>
<path d="M63.7636 192.46C60.8723 192.479 57.9809 192.479 55.0896 192.498C54.5 192.498 53.8152 192.876 53.8152 193.556C53.8342 197.317 53.8532 201.097 53.8723 204.858C53.8723 206.351 56.2309 206.578 56.2119 205.066C56.1929 201.645 56.1739 198.243 56.1549 194.823C55.7174 194.823 55.2989 194.823 54.8614 194.823C55.2799 194.464 55.7174 194.123 56.1358 193.764C56.1358 194.123 56.1358 194.464 56.1358 194.823C58.2473 194.804 60.3587 194.804 62.4701 194.785C62.4701 194.35 62.4701 193.934 62.4701 193.5C62.8315 193.916 63.1739 194.35 63.5353 194.766C63.1739 194.766 62.8315 194.766 62.4701 194.766C62.4891 198.149 62.5081 201.513 62.5271 204.896C62.5271 206.389 64.8858 206.616 64.8668 205.104C64.8478 201.305 64.8288 197.506 64.8098 193.708C64.8288 193.141 64.4483 192.46 63.7636 192.46Z" fill="#5C5B5B"/>
<path d="M80.4895 133.228L24.2803 133.501L24.3072 138.982L80.5164 138.709L80.4895 133.228Z" fill="white"/>
<path d="M80.5977 132.06C74.2444 132.098 67.8912 132.117 61.5379 132.154C51.4944 132.211 41.451 132.249 31.3885 132.306C29.0488 132.324 26.7281 132.324 24.3885 132.343C24.2743 132.343 24.1792 132.362 24.0841 132.381C24.7309 132.343 25.4537 132.778 25.4537 133.61C25.4537 133.969 25.4537 134.309 25.4537 134.668C31.3885 134.63 37.3042 134.611 43.239 134.573C53.2825 134.517 63.326 134.479 73.3885 134.422C75.3667 134.403 77.345 134.403 79.3233 134.384C79.3233 133.95 79.3233 133.534 79.3233 133.099C79.6847 133.515 80.0271 133.95 80.3885 134.366C80.0271 134.366 79.6847 134.366 79.3233 134.366C79.3233 135.424 79.3423 136.463 79.3423 137.522C79.7798 137.522 80.1982 137.522 80.6357 137.522C80.2173 137.881 79.7798 138.221 79.3613 138.58C79.3613 138.221 79.3613 137.881 79.3613 137.522C73.4265 137.559 67.5108 137.578 61.576 137.616C51.5325 137.673 41.489 137.711 31.4265 137.767C29.4483 137.786 27.47 137.786 25.4917 137.805C25.4917 138.24 25.4917 138.656 25.4917 139.09C25.1303 138.674 24.7879 138.24 24.4265 137.824C24.7879 137.824 25.1303 137.824 25.4917 137.824C25.4917 136.766 25.4727 135.726 25.4727 134.668C25.0352 134.668 24.6167 134.668 24.1792 134.668C22.7716 134.668 22.8667 132.665 24.0841 132.381C23.5705 132.4 23.114 132.74 23.114 133.402C23.114 135.235 23.133 137.068 23.133 138.882C23.133 139.468 23.5135 140.149 24.1983 140.149C30.5515 140.111 36.9048 140.092 43.258 140.054C53.3015 139.997 63.345 139.96 73.4075 139.903C75.7472 139.884 78.0678 139.884 80.4075 139.865C80.9972 139.865 81.6819 139.487 81.6819 138.807C81.6819 136.974 81.6629 135.14 81.6629 133.326C81.6629 132.759 81.2825 132.06 80.5977 132.06Z" fill="#5C5B5B"/>
<path d="M79.3235 133.137C79.3235 133.572 79.3235 133.988 79.3235 134.422C79.6849 134.422 80.0273 134.422 80.3887 134.422C80.0273 133.969 79.6849 133.553 79.3235 133.137Z" fill="#5C5B5B"/>
<path d="M80.6358 137.56C80.1983 137.56 79.7798 137.56 79.3423 137.56C79.3423 137.919 79.3423 138.259 79.3423 138.618C79.7798 138.259 80.1983 137.919 80.6358 137.56Z" fill="#5C5B5B"/>
<path d="M24.1793 134.668C24.6168 134.668 25.0352 134.668 25.4727 134.668C25.4727 134.309 25.4727 133.969 25.4727 133.61C25.4727 132.778 24.7499 132.343 24.1032 132.381C22.8477 132.665 22.7717 134.687 24.1793 134.668Z" fill="#5C5B5B"/>
<path d="M25.4727 139.109C25.4727 138.675 25.4727 138.259 25.4727 137.824C25.1113 137.824 24.7689 137.824 24.4075 137.824C24.7689 138.259 25.1303 138.675 25.4727 139.109Z" fill="#5C5B5B"/>
<path d="M41.3683 146.405L33.8738 146.441L33.925 156.836L41.4195 156.799L41.3683 146.405Z" fill="#BE9C59"/>
<path d="M41.3683 146.405L33.8738 146.441L33.925 156.836L41.4195 156.799L41.3683 146.405Z" fill="#E0C184" fill-opacity="0.5"/>
<path d="M40.2144 146.29C40.2144 146.725 40.2144 147.141 40.2144 147.576C40.5758 147.576 40.9182 147.576 41.2796 147.576C40.9182 147.141 40.5567 146.725 40.2144 146.29Z" fill="#5C5B5B"/>
<path d="M33.7661 147.614C34.2036 147.614 34.6221 147.614 35.0596 147.614C35.0596 147.255 35.0596 146.914 35.0596 146.555C34.6221 146.895 34.2036 147.255 33.7661 147.614Z" fill="#5C5B5B"/>
<path d="M41.489 145.232C38.9971 145.251 36.4863 145.251 33.9944 145.27C33.4048 145.27 32.72 145.648 32.72 146.328C32.739 149.787 32.758 153.264 32.777 156.723C32.777 156.836 32.7961 156.931 32.8151 157.025C32.777 156.382 33.2145 155.664 34.0515 155.664C34.4129 155.664 34.7553 155.664 35.1167 155.664C35.0977 152.981 35.0977 150.278 35.0787 147.595C34.6412 147.595 34.2227 147.595 33.7852 147.595C34.2037 147.235 34.6412 146.895 35.0596 146.536C35.0596 146.895 35.0596 147.235 35.0596 147.595C36.7716 147.595 38.5026 147.576 40.2145 147.576C40.2145 147.141 40.2145 146.725 40.2145 146.291C40.5759 146.706 40.9183 147.141 41.2798 147.557C40.9183 147.557 40.5759 147.557 40.2145 147.557C40.2336 150.24 40.2336 152.943 40.2526 155.627C40.6901 155.627 41.1086 155.627 41.5461 155.627C41.1276 155.986 40.6901 156.326 40.2716 156.685C40.2716 156.326 40.2716 155.986 40.2716 155.627C38.5596 155.627 36.8287 155.645 35.1167 155.645C35.1167 156.08 35.1167 156.496 35.1167 156.931C35.1167 158.329 33.1004 158.235 32.8151 157.025C32.8341 157.535 33.1765 157.989 33.8423 157.989C36.3341 157.97 38.845 157.97 41.3368 157.951C41.9265 157.951 42.6113 157.573 42.6113 156.893C42.5923 153.434 42.5732 149.957 42.5542 146.498C42.5542 145.931 42.1738 145.232 41.489 145.232Z" fill="#5C5B5B"/>
<path d="M41.5459 155.645C41.1084 155.645 40.6899 155.645 40.2524 155.645C40.2524 156.004 40.2524 156.344 40.2524 156.703C40.6899 156.344 41.1084 155.985 41.5459 155.645Z" fill="#5C5B5B"/>
<path d="M35.0976 156.949C35.0976 156.515 35.0976 156.099 35.0976 155.664C34.7362 155.664 34.3938 155.664 34.0324 155.664C33.1954 155.664 32.7579 156.383 32.796 157.025C33.0813 158.254 35.1166 158.348 35.0976 156.949Z" fill="#5C5B5B"/>
<path d="M56.6432 146.33L49.1487 146.366L49.1999 156.761L56.6944 156.724L56.6432 146.33Z" fill="#BE9C59"/>
<path d="M56.6432 146.33L49.1487 146.366L49.1999 156.761L56.6944 156.724L56.6432 146.33Z" fill="#E0C184" fill-opacity="0.5"/>
<path d="M55.4702 146.234C55.4702 146.669 55.4702 147.084 55.4702 147.519C55.8316 147.519 56.174 147.519 56.5354 147.519C56.193 147.065 55.8316 146.65 55.4702 146.234Z" fill="#5C5B5B"/>
<path d="M49.041 147.538C49.4785 147.538 49.897 147.538 50.3345 147.538C50.3345 147.179 50.3345 146.839 50.3345 146.48C49.897 146.82 49.4785 147.179 49.041 147.538Z" fill="#5C5B5B"/>
<path d="M56.7637 145.156C54.2718 145.175 51.7609 145.175 49.2691 145.194C48.6794 145.194 47.9946 145.572 47.9946 146.253C48.0137 149.711 48.0327 153.188 48.0517 156.647C48.0517 156.76 48.0707 156.855 48.0897 156.949C48.0517 156.307 48.4892 155.589 49.3262 155.589C49.6876 155.589 50.03 155.589 50.3914 155.589C50.3723 152.905 50.3723 150.202 50.3533 147.519C49.9158 147.519 49.4973 147.519 49.0598 147.519C49.4783 147.16 49.9158 146.819 50.3343 146.46C50.3343 146.819 50.3343 147.16 50.3343 147.519C52.0463 147.519 53.7772 147.5 55.4892 147.5C55.4892 147.065 55.4892 146.649 55.4892 146.215C55.8506 146.63 56.193 147.065 56.5544 147.481C56.193 147.481 55.8506 147.481 55.4892 147.481C55.5082 150.165 55.5082 152.867 55.5272 155.551C55.9647 155.551 56.3832 155.551 56.8207 155.551C56.4022 155.91 55.9647 156.25 55.5463 156.609C55.5463 156.25 55.5463 155.91 55.5463 155.551C53.8343 155.551 52.1033 155.57 50.3914 155.57C50.3914 156.004 50.3914 156.42 50.3914 156.855C50.3914 158.253 48.3751 158.159 48.0897 156.949C48.1088 157.46 48.4512 157.913 49.1169 157.913C51.6088 157.894 54.1196 157.894 56.6115 157.875C57.2012 157.875 57.8859 157.497 57.8859 156.817C57.8669 153.358 57.8479 149.881 57.8289 146.423C57.8289 145.856 57.4484 145.156 56.7637 145.156Z" fill="#5C5B5B"/>
<path d="M50.3723 156.874C50.3723 156.439 50.3723 156.023 50.3723 155.589C50.0109 155.589 49.6685 155.589 49.3071 155.589C48.4701 155.589 48.0326 156.307 48.0706 156.949C48.356 158.178 50.3913 158.272 50.3723 156.874Z" fill="#5C5B5B"/>
<path d="M56.8018 155.57C56.3643 155.57 55.9458 155.57 55.5083 155.57C55.5083 155.929 55.5083 156.269 55.5083 156.628C55.9648 156.269 56.3833 155.929 56.8018 155.57Z" fill="#5C5B5B"/>
<path d="M71.9179 146.254L64.4233 146.29L64.4745 156.685L71.969 156.648L71.9179 146.254Z" fill="#BE9C59"/>
<path d="M71.9179 146.254L64.4233 146.29L64.4745 156.685L71.969 156.648L71.9179 146.254Z" fill="#E0C184" fill-opacity="0.5"/>
<path d="M70.7446 146.158C70.7446 146.593 70.7446 147.009 70.7446 147.443C71.106 147.443 71.4484 147.443 71.8098 147.443C71.4675 146.99 71.106 146.574 70.7446 146.158Z" fill="#5C5B5B"/>
<path d="M72.0381 145.081C69.5462 145.1 67.0354 145.1 64.5435 145.119C63.9538 145.119 63.269 145.497 63.269 146.177C63.2881 149.636 63.3071 153.113 63.3261 156.571C63.3261 156.685 63.3451 156.779 63.3642 156.874C63.3261 156.231 63.7636 155.513 64.6006 155.513C64.962 155.513 65.3044 155.513 65.6658 155.513C65.6468 152.829 65.6468 150.127 65.6277 147.443C65.1902 147.443 64.7718 147.443 64.3343 147.443C64.7527 147.084 65.1902 146.744 65.6087 146.385C65.6087 146.744 65.6087 147.084 65.6087 147.443C67.3207 147.443 69.0517 147.424 70.7636 147.424C70.7636 146.99 70.7636 146.574 70.7636 146.139C71.125 146.555 71.4674 146.99 71.8288 147.405C71.4674 147.405 71.125 147.405 70.7636 147.405C70.7826 150.089 70.7826 152.792 70.8017 155.475C71.2392 155.475 71.6576 155.475 72.0951 155.475C71.6767 155.834 71.2392 156.175 70.8207 156.534C70.8207 156.175 70.8207 155.834 70.8207 155.475C69.1087 155.475 67.3777 155.494 65.6658 155.494C65.6658 155.929 65.6658 156.345 65.6658 156.779C65.6658 158.178 63.6495 158.083 63.3642 156.874C63.3832 157.384 63.7256 157.838 64.3913 157.838C66.8832 157.819 69.3941 157.819 71.8859 157.8C72.4756 157.8 73.1604 157.422 73.1604 156.742C73.1413 153.283 73.1223 149.806 73.1033 146.347C73.1033 145.78 72.7229 145.081 72.0381 145.081Z" fill="#5C5B5B"/>
<path d="M64.3152 147.462C64.7527 147.462 65.1712 147.462 65.6087 147.462C65.6087 147.103 65.6087 146.763 65.6087 146.404C65.1712 146.744 64.7527 147.103 64.3152 147.462Z" fill="#5C5B5B"/>
<path d="M72.0759 155.494C71.6384 155.494 71.22 155.494 70.7825 155.494C70.7825 155.853 70.7825 156.193 70.7825 156.552C71.22 156.193 71.6575 155.853 72.0759 155.494Z" fill="#5C5B5B"/>
<path d="M65.6467 156.798C65.6467 156.363 65.6467 155.948 65.6467 155.513C65.2853 155.513 64.9429 155.513 64.5815 155.513C63.7445 155.513 63.307 156.231 63.3451 156.874C63.6304 158.102 65.6467 158.197 65.6467 156.798Z" fill="#5C5B5B"/>
<path d="M80.6038 156.398L24.3945 156.671L24.4215 162.152L80.6307 161.879L80.6038 156.398Z" fill="white"/>
<path d="M80.7119 155.23C74.3587 155.268 68.0054 155.287 61.6522 155.324C51.6087 155.381 41.5652 155.419 31.5027 155.476C29.1631 155.495 26.8424 155.495 24.5027 155.513C24.3886 155.513 24.2935 155.532 24.1984 155.551C24.8451 155.513 25.5679 155.948 25.5679 156.78C25.5679 157.139 25.5679 157.479 25.5679 157.838C31.5027 157.8 37.4185 157.781 43.3533 157.744C53.3967 157.687 63.4402 157.649 73.5027 157.592C75.481 157.573 77.4592 157.573 79.4375 157.555C79.4375 157.12 79.4375 156.704 79.4375 156.269C79.7989 156.685 80.1413 157.12 80.5027 157.536C80.1413 157.536 79.7989 157.536 79.4375 157.536C79.4375 158.594 79.4565 159.633 79.4565 160.692C79.894 160.692 80.3125 160.692 80.75 160.692C80.3315 161.051 79.894 161.391 79.4755 161.75C79.4755 161.391 79.4755 161.051 79.4755 160.692C73.5408 160.73 67.625 160.748 61.6902 160.786C51.6467 160.843 41.6033 160.881 31.5408 160.937C29.5625 160.956 27.5842 160.956 25.606 160.975C25.606 161.41 25.606 161.826 25.606 162.26C25.2446 161.845 24.9022 161.41 24.5408 160.994C24.9022 160.994 25.2446 160.994 25.606 160.994C25.606 159.936 25.587 158.896 25.587 157.838C25.1495 157.838 24.731 157.838 24.2935 157.838C22.8859 157.838 22.981 155.835 24.1984 155.551C23.6848 155.57 23.2283 155.91 23.2283 156.572C23.2283 158.405 23.2473 160.238 23.2473 162.052C23.2473 162.638 23.6277 163.319 24.3125 163.319C30.6658 163.281 37.019 163.262 43.3723 163.224C53.4158 163.167 63.4592 163.13 73.5217 163.073C75.8614 163.054 78.1821 163.054 80.5217 163.035C81.1114 163.035 81.7962 162.657 81.7962 161.977C81.7962 160.144 81.7772 158.31 81.7772 156.496C81.7772 155.929 81.3967 155.23 80.7119 155.23Z" fill="#5C5B5B"/>
<path d="M79.4375 156.288C79.4375 156.723 79.4375 157.139 79.4375 157.573C79.7989 157.573 80.1413 157.573 80.5027 157.573C80.1413 157.139 79.7989 156.723 79.4375 156.288Z" fill="#5C5B5B"/>
<path d="M80.75 160.73C80.3125 160.73 79.894 160.73 79.4565 160.73C79.4565 161.089 79.4565 161.429 79.4565 161.788C79.894 161.429 80.3125 161.07 80.75 160.73Z" fill="#5C5B5B"/>
<path d="M24.2935 157.838C24.731 157.838 25.1495 157.838 25.587 157.838C25.587 157.479 25.587 157.139 25.587 156.78C25.587 155.948 24.8642 155.513 24.2174 155.551C22.962 155.835 22.8859 157.838 24.2935 157.838Z" fill="#5C5B5B"/>
<path d="M25.5869 162.261C25.5869 161.826 25.5869 161.41 25.5869 160.975C25.2255 160.975 24.8831 160.975 24.5217 160.975C24.8831 161.429 25.2446 161.845 25.5869 162.261Z" fill="#5C5B5B"/>
<path d="M41.4829 169.576L33.9883 169.612L34.0394 180.007L41.534 179.97L41.4829 169.576Z" fill="#BE9C59"/>
<path d="M41.4829 169.576L33.9883 169.612L34.0394 180.007L41.534 179.97L41.4829 169.576Z" fill="#E0C184" fill-opacity="0.5"/>
<path d="M40.3289 169.461C40.3289 169.895 40.3289 170.311 40.3289 170.746C40.6903 170.746 41.0327 170.746 41.3941 170.746C41.0327 170.311 40.6712 169.895 40.3289 169.461Z" fill="#5C5B5B"/>
<path d="M33.8804 170.765C34.3179 170.765 34.7364 170.765 35.1739 170.765C35.1739 170.405 35.1739 170.065 35.1739 169.706C34.7364 170.065 34.3179 170.424 33.8804 170.765Z" fill="#5C5B5B"/>
<path d="M41.6411 178.797C41.2036 178.797 40.7852 178.797 40.3477 178.797C40.3477 179.156 40.3477 179.496 40.3477 179.855C40.8042 179.515 41.2227 179.156 41.6411 178.797Z" fill="#5C5B5B"/>
<path d="M41.6032 168.402C39.1114 168.421 36.6005 168.421 34.1087 168.44C33.519 168.44 32.8342 168.818 32.8342 169.498C32.8533 172.957 32.8723 176.434 32.8913 179.893C32.8913 180.006 32.9103 180.101 32.9293 180.195C32.8913 179.553 33.3288 178.834 34.1657 178.834C34.5272 178.834 34.8696 178.834 35.231 178.834C35.2119 176.151 35.2119 173.448 35.1929 170.765C34.7554 170.765 34.3369 170.765 33.8994 170.765C34.3179 170.406 34.7554 170.065 35.1739 169.706C35.1739 170.065 35.1739 170.406 35.1739 170.765C36.8859 170.765 38.6168 170.746 40.3288 170.746C40.3288 170.311 40.3288 169.895 40.3288 169.461C40.6902 169.876 41.0326 170.311 41.394 170.727C41.0326 170.727 40.6902 170.727 40.3288 170.727C40.3478 173.41 40.3478 176.113 40.3668 178.797C40.8043 178.797 41.2228 178.797 41.6603 178.797C41.2418 179.156 40.8043 179.496 40.3859 179.855C40.3859 179.496 40.3859 179.156 40.3859 178.797C38.6739 178.797 36.9429 178.816 35.231 178.816C35.231 179.25 35.231 179.666 35.231 180.101C35.231 181.499 33.2147 181.405 32.9293 180.195C32.9484 180.705 33.2907 181.159 33.9565 181.159C36.4484 181.14 38.9592 181.14 41.4511 181.121C42.0407 181.121 42.7255 180.743 42.7255 180.063C42.7065 176.604 42.6875 173.127 42.6685 169.669C42.6685 169.083 42.288 168.402 41.6032 168.402Z" fill="#5C5B5B"/>
<path d="M35.2119 180.12C35.2119 179.685 35.2119 179.269 35.2119 178.834C34.8505 178.834 34.5081 178.834 34.1467 178.834C33.3097 178.834 32.8722 179.553 32.9102 180.195C33.1956 181.424 35.2309 181.518 35.2119 180.12Z" fill="#5C5B5B"/>
<path d="M56.7577 169.5L49.2632 169.536L49.3143 179.931L56.8088 179.894L56.7577 169.5Z" fill="#BE9C59"/>
<path d="M56.7577 169.5L49.2632 169.536L49.3143 179.931L56.8088 179.894L56.7577 169.5Z" fill="#E0C184" fill-opacity="0.5"/>
<path d="M49.155 170.689C49.5925 170.689 50.011 170.689 50.4485 170.689C50.4485 170.33 50.4485 169.99 50.4485 169.631C50.011 169.99 49.5925 170.349 49.155 170.689Z" fill="#5C5B5B"/>
<path d="M55.5845 169.385C55.5845 169.82 55.5845 170.235 55.5845 170.67C55.9459 170.67 56.2883 170.67 56.6497 170.67C56.3073 170.235 55.9459 169.82 55.5845 169.385Z" fill="#5C5B5B"/>
<path d="M50.4865 180.044C50.4865 179.609 50.4865 179.194 50.4865 178.759C50.1251 178.759 49.7827 178.759 49.4213 178.759C48.5844 178.759 48.1469 179.477 48.1849 180.12C48.4702 181.348 50.5056 181.442 50.4865 180.044Z" fill="#5C5B5B"/>
<path d="M56.9158 178.74C56.4783 178.74 56.0598 178.74 55.6223 178.74C55.6223 179.099 55.6223 179.439 55.6223 179.798C56.0788 179.439 56.4973 179.08 56.9158 178.74Z" fill="#5C5B5B"/>
<path d="M56.8779 168.326C54.3861 168.345 51.8752 168.345 49.3833 168.364C48.7937 168.364 48.1089 168.742 48.1089 169.423C48.1279 172.881 48.1469 176.358 48.166 179.817C48.166 179.93 48.185 180.025 48.204 180.119C48.166 179.477 48.6035 178.759 49.4404 178.759C49.8018 178.759 50.1442 178.759 50.5056 178.759C50.4866 176.075 50.4866 173.372 50.4676 170.689C50.0301 170.689 49.6116 170.689 49.1741 170.689C49.5926 170.33 50.0301 169.99 50.4486 169.63C50.4486 169.99 50.4486 170.33 50.4486 170.689C52.1605 170.689 53.8915 170.67 55.6034 170.67C55.6034 170.235 55.6034 169.819 55.6034 169.385C55.9649 169.801 56.3073 170.235 56.6687 170.651C56.3073 170.651 55.9649 170.651 55.6034 170.651C55.6225 173.335 55.6225 176.037 55.6415 178.721C56.079 178.721 56.4975 178.721 56.935 178.721C56.5165 179.08 56.079 179.42 55.6605 179.779C55.6605 179.42 55.6605 179.08 55.6605 178.721C53.9486 178.721 52.2176 178.74 50.5056 178.74C50.5056 179.174 50.5056 179.59 50.5056 180.025C50.5056 181.423 48.4893 181.329 48.204 180.119C48.223 180.63 48.5654 181.083 49.2312 181.083C51.723 181.064 54.2339 181.064 56.7257 181.045C57.3154 181.045 58.0002 180.667 58.0002 179.987C57.9812 176.529 57.9621 173.051 57.9431 169.593C57.9431 169.007 57.5627 168.326 56.8779 168.326Z" fill="#5C5B5B"/>
<path d="M72.0319 169.424L64.5374 169.461L64.5884 179.855L72.083 179.819L72.0319 169.424Z" fill="#BE9C59"/>
<path d="M72.0319 169.424L64.5374 169.461L64.5884 179.855L72.083 179.819L72.0319 169.424Z" fill="#E0C184" fill-opacity="0.5"/>
<path d="M70.8586 169.309C70.8586 169.744 70.8586 170.16 70.8586 170.594C71.2201 170.594 71.5625 170.594 71.9239 170.594C71.5815 170.16 71.2201 169.744 70.8586 169.309Z" fill="#5C5B5B"/>
<path d="M64.4292 170.632C64.8667 170.632 65.2852 170.632 65.7227 170.632C65.7227 170.273 65.7227 169.933 65.7227 169.574C65.2852 169.914 64.8667 170.273 64.4292 170.632Z" fill="#5C5B5B"/>
<path d="M72.1521 168.251C69.6602 168.27 67.1494 168.27 64.6575 168.289C64.0678 168.289 63.3831 168.667 63.3831 169.347C63.4021 172.806 63.4211 176.283 63.4401 179.742C63.4401 179.855 63.4591 179.949 63.4782 180.044C63.4401 179.401 63.8776 178.683 64.7146 178.683C65.076 178.683 65.4184 178.683 65.7798 178.683C65.7608 176 65.7608 173.297 65.7418 170.613C65.3043 170.613 64.8858 170.613 64.4483 170.613C64.8668 170.254 65.3043 169.914 65.7227 169.555C65.7227 169.914 65.7227 170.254 65.7227 170.613C67.4347 170.613 69.1657 170.594 70.8776 170.594C70.8776 170.16 70.8776 169.744 70.8776 169.309C71.239 169.725 71.5814 170.16 71.9428 170.576C71.5814 170.576 71.239 170.576 70.8776 170.576C70.8966 173.259 70.8966 175.962 70.9157 178.645C71.3532 178.645 71.7717 178.645 72.2092 178.645C71.7907 179.004 71.3532 179.345 70.9347 179.704C70.9347 179.345 70.9347 179.004 70.9347 178.645C69.2227 178.645 67.4918 178.664 65.7798 178.664C65.7798 179.099 65.7798 179.515 65.7798 179.949C65.7798 181.348 63.7635 181.253 63.4782 180.044C63.4972 180.554 63.8396 181.008 64.5053 181.008C66.9972 180.989 69.5081 180.989 71.9999 180.97C72.5896 180.97 73.2744 180.592 73.2744 179.912C73.2553 176.453 73.2363 172.976 73.2173 169.517C73.2173 168.95 72.8369 168.251 72.1521 168.251Z" fill="#5C5B5B"/>
<path d="M65.7607 179.968C65.7607 179.533 65.7607 179.118 65.7607 178.683C65.3993 178.683 65.0569 178.683 64.6955 178.683C63.8585 178.683 63.421 179.401 63.4591 180.044C63.7444 181.272 65.7607 181.367 65.7607 179.968Z" fill="#5C5B5B"/>
<path d="M72.19 178.664C71.7525 178.664 71.334 178.664 70.8965 178.664C70.8965 179.023 70.8965 179.363 70.8965 179.722C71.334 179.363 71.7715 179.004 72.19 178.664Z" fill="#5C5B5B"/>
<path d="M80.7178 179.568L24.5085 179.841L24.5355 185.321L80.7447 185.048L80.7178 179.568Z" fill="white"/>
<path d="M80.8447 183.88C80.4072 183.88 79.9888 183.88 79.5513 183.88C79.5513 184.239 79.5513 184.579 79.5513 184.938C80.0078 184.598 80.4263 184.239 80.8447 183.88Z" fill="#5C5B5B"/>
<path d="M79.5513 179.458C79.5513 179.892 79.5513 180.308 79.5513 180.743C79.9127 180.743 80.2551 180.743 80.6165 180.743C80.2551 180.308 79.9127 179.892 79.5513 179.458Z" fill="#5C5B5B"/>
<path d="M25.701 185.43C25.701 184.995 25.701 184.579 25.701 184.145C25.3395 184.145 24.9972 184.145 24.6357 184.145C24.9972 184.579 25.3586 185.014 25.701 185.43Z" fill="#5C5B5B"/>
<path d="M24.4073 181.007C24.8448 181.007 25.2633 181.007 25.7008 181.007C25.7008 180.648 25.7008 180.308 25.7008 179.949C25.7008 179.117 24.9779 178.683 24.3312 178.72C23.0758 179.004 22.9997 181.007 24.4073 181.007Z" fill="#5C5B5B"/>
<path d="M80.826 178.4C74.4727 178.437 68.1195 178.456 61.7662 178.494C51.7227 178.551 41.6792 178.589 31.6167 178.645C29.2771 178.664 26.9564 178.664 24.6167 178.683C24.5026 178.683 24.4075 178.702 24.3124 178.721C24.9591 178.683 25.682 179.118 25.682 179.949C25.682 180.308 25.682 180.649 25.682 181.008C31.6167 180.97 37.5325 180.951 43.4673 180.913C53.5108 180.857 63.5542 180.819 73.6167 180.762C75.595 180.743 77.5733 180.743 79.5515 180.724C79.5515 180.29 79.5515 179.874 79.5515 179.439C79.9129 179.855 80.2553 180.29 80.6167 180.705C80.2553 180.705 79.9129 180.705 79.5515 180.705C79.5515 181.764 79.5705 182.803 79.5705 183.861C80.008 183.861 80.4265 183.861 80.864 183.861C80.4455 184.221 80.008 184.561 79.5896 184.92C79.5896 184.561 79.5896 184.221 79.5896 183.861C73.6548 183.899 67.739 183.918 61.8042 183.956C51.7608 184.013 41.7173 184.05 31.6548 184.107C29.6765 184.126 27.6983 184.126 25.72 184.145C25.72 184.58 25.72 184.995 25.72 185.43C25.3586 185.014 25.0162 184.58 24.6548 184.164C25.0162 184.164 25.3586 184.164 25.72 184.164C25.72 183.105 25.701 182.066 25.701 181.008C25.2635 181.008 24.845 181.008 24.4075 181.008C22.9999 181.008 23.095 179.004 24.3124 178.721C23.7988 178.74 23.3423 179.08 23.3423 179.741C23.3423 181.575 23.3613 183.408 23.3613 185.222C23.3613 185.808 23.7417 186.488 24.4265 186.488C30.7798 186.451 37.133 186.432 43.4863 186.394C53.5298 186.337 63.5733 186.299 73.6358 186.243C75.9754 186.224 78.2961 186.224 80.6358 186.205C81.2254 186.205 81.9102 185.827 81.9102 185.147C81.9102 183.313 81.8912 181.48 81.8912 179.666C81.8912 179.08 81.5108 178.4 80.826 178.4Z" fill="#5C5B5B"/>
<path d="M108.917 127.178C108.4 127.373 108.139 127.95 108.334 128.467C108.529 128.984 109.106 129.245 109.622 129.05L108.917 127.178ZM147.614 114.412C147.842 113.909 147.618 113.317 147.115 113.089L138.915 109.379C138.412 109.152 137.819 109.375 137.592 109.878C137.364 110.382 137.587 110.974 138.091 111.202L145.38 114.499L142.082 121.788C141.855 122.291 142.078 122.883 142.581 123.111C143.084 123.339 143.677 123.115 143.904 122.612L147.614 114.412ZM109.622 129.05L147.056 114.936L146.35 113.064L108.917 127.178L109.622 129.05Z" fill="#424242"/>
<path d="M108.281 154.931C107.763 154.737 107.187 155 106.994 155.517C106.8 156.035 107.063 156.611 107.58 156.804L108.281 154.931ZM149.639 172.217C150.142 171.988 150.364 171.395 150.135 170.892L146.402 162.703C146.173 162.2 145.58 161.978 145.078 162.207C144.575 162.436 144.353 163.029 144.582 163.532L147.9 170.812L140.62 174.129C140.118 174.358 139.896 174.951 140.125 175.454C140.354 175.956 140.947 176.178 141.45 175.949L149.639 172.217ZM107.58 156.804L148.874 172.244L149.575 170.37L108.281 154.931L107.58 156.804Z" fill="#424242"/>
<rect x="196" y="72" width="5" height="5" transform="rotate(45 196 72)" fill="#73BEBE"/>
<rect width="63" height="25" transform="translate(164 51)" fill="#73BEBE"/>
<path d="M180.629 57.738C180.629 57.29 180.993 56.926 181.441 56.926C181.875 56.926 182.239 57.29 182.239 57.738C182.239 58.172 181.875 58.536 181.441 58.536C180.993 58.536 180.629 58.172 180.629 57.738ZM179.761 57.738C179.761 57.836 179.775 57.92 179.789 58.004C179.495 58.046 179.187 58.06 178.991 58.06H172.509C172.047 58.06 171.249 58.004 170.843 57.948V59.922C171.193 59.894 171.865 59.866 172.509 59.866H179.019C178.837 61.07 178.305 62.652 177.381 63.814C176.247 65.242 174.665 66.46 171.893 67.104L173.419 68.784C175.911 67.972 177.787 66.586 179.047 64.906C180.223 63.352 180.825 61.182 181.147 59.81C181.189 59.684 181.217 59.544 181.259 59.39C181.315 59.404 181.385 59.404 181.441 59.404C182.351 59.404 183.107 58.648 183.107 57.738C183.107 56.814 182.351 56.058 181.441 56.058C180.517 56.058 179.761 56.814 179.761 57.738ZM186.495 57.262V59.068C186.901 59.04 187.503 59.026 187.951 59.026H193.313C193.817 59.026 194.475 59.04 194.853 59.068V57.262C194.461 57.318 193.775 57.332 193.341 57.332H187.951C187.475 57.332 186.887 57.318 186.495 57.262ZM196.029 61.322L194.783 60.552C194.587 60.636 194.209 60.692 193.761 60.692H186.831C186.397 60.692 185.795 60.65 185.207 60.608V62.428C185.795 62.372 186.495 62.358 186.831 62.358H193.593C193.341 63.142 192.907 64.01 192.151 64.78C191.087 65.872 189.407 66.796 187.307 67.23L188.693 68.812C190.485 68.308 192.277 67.356 193.691 65.788C194.741 64.626 195.343 63.268 195.763 61.91C195.819 61.756 195.931 61.504 196.029 61.322ZM200.747 57.36L199.431 58.76C200.453 59.474 202.203 61 202.931 61.784L204.359 60.328C203.547 59.474 201.727 58.018 200.747 57.36ZM198.997 66.684L200.173 68.532C202.147 68.196 203.953 67.412 205.367 66.558C207.621 65.2 209.483 63.268 210.547 61.378L209.455 59.404C208.573 61.294 206.753 63.436 204.359 64.85C203.001 65.662 201.181 66.376 198.997 66.684ZM218.906 68H221.142L217.717 58.1357H215.29L211.865 68H213.937L214.695 65.6484H218.161L218.906 68ZM216.377 60.1865H216.5L217.724 64.0557H215.14L216.377 60.1865Z" fill="white"/>
<rect x="170" y="87" width="36" height="34" fill="#BE9C59"/>
<rect x="170" y="87" width="36" height="34" fill="#E0C184" fill-opacity="0.5"/>
<path d="M204.5 114L197.5 118V137H225V129H231V111L217.5 102.5L204.5 110.5V114Z" fill="white" stroke="#424242"/>
<path d="M231.027 109.102L218.373 101.51C217.765 101.143 216.913 101.143 216.305 101.51L203.652 109.102C202.192 109.959 202.8 111.918 202.678 113.388L197.568 116.449C196.96 116.816 196.595 117.429 196.595 118.163V136.041C196.595 137.143 197.447 138 198.542 138H223.848C224.943 138 225.795 137.143 225.795 136.041V130.653H229.932C231.027 130.653 231.878 129.796 231.878 128.694V110.816C232 110.082 231.635 109.469 231.027 109.102ZM208.883 135.551V125.755H213.75V135.551H208.883ZM223.483 135.551H216.183V124.531C216.183 123.796 215.697 123.306 214.967 123.306H207.667C206.937 123.306 206.45 123.796 206.45 124.531V135.551H199.15V118.408L211.317 111.061L223.483 118.408V135.551ZM229.567 128.204H225.917V118.163C225.917 117.429 225.552 116.816 224.943 116.449L212.29 108.857C211.682 108.49 210.952 108.49 210.222 108.857L205.233 111.918V111.061L217.4 103.714L229.567 111.061V128.204Z" fill="#424242"/>
<path d="M161.433 129.429H194.283C195.013 129.429 195.5 128.939 195.5 128.204C195.5 127.469 195.013 126.98 194.283 126.98H161.433V80.449H219.833V100.286C219.833 101.02 220.32 101.51 221.05 101.51C221.78 101.51 222.267 101.02 222.267 100.286V80.449C222.267 79.102 221.172 78 219.833 78H161.433C160.095 78 159 79.102 159 80.449V126.98C159 128.327 160.095 129.429 161.433 129.429Z" fill="#424242"/>
<path d="M185.767 87.7959C185.767 87.0612 185.28 86.5714 184.55 86.5714H172.383C171.045 86.5714 169.95 87.6735 169.95 89.0204V95.1428C169.95 95.8775 170.437 96.3673 171.167 96.3673C171.897 96.3673 172.383 95.8775 172.383 95.1428V89.0204H184.55C185.28 89.0204 185.767 88.5306 185.767 87.7959Z" fill="#424242"/>
<path d="M169.95 118.408C169.95 119.755 171.045 120.857 172.383 120.857H184.55C185.28 120.857 185.767 120.367 185.767 119.633C185.767 118.898 185.28 118.408 184.55 118.408H172.383V102.49C172.383 101.755 171.897 101.265 171.167 101.265C170.437 101.265 169.95 101.755 169.95 102.49V118.408Z" fill="#424242"/>
<path d="M191.85 118.408C190.268 118.408 190.268 120.857 191.85 120.857H194.283C195.013 120.857 195.5 120.367 195.5 119.633C195.5 118.898 195.013 118.408 194.283 118.408H191.85Z" fill="#424242"/>
<path d="M205.233 104.939C205.963 104.939 206.45 104.449 206.45 103.714V89.0204C206.45 87.6735 205.355 86.5714 204.017 86.5714H193.067C192.337 86.5714 191.85 87.0612 191.85 87.7959C191.85 88.5306 192.337 89.0204 193.067 89.0204H204.017V103.714C204.017 104.449 204.503 104.939 205.233 104.939Z" fill="#424242"/>
<path d="M199.15 95.1428C199.15 93.7959 198.055 92.6938 196.717 92.6938H178.467C176.885 92.6938 176.885 95.1428 178.467 95.1428H196.717V101.265C196.717 102 197.203 102.49 197.933 102.49C198.663 102.49 199.15 102 199.15 101.265V95.1428Z" fill="#424242"/>
<path d="M199.15 112.286V108.612C199.15 107.878 198.663 107.388 197.933 107.388C197.203 107.388 196.717 107.878 196.717 108.612V112.286H189.417C187.835 112.286 187.835 114.735 189.417 114.735H196.717C198.055 114.735 199.15 113.633 199.15 112.286Z" fill="#424242"/>
<path d="M178.467 100.041C177.737 100.041 177.25 100.531 177.25 101.265V112.286C177.25 113.633 178.345 114.735 179.683 114.735H183.333C184.915 114.735 184.915 112.286 183.333 112.286H179.683V101.265C179.683 100.531 179.197 100.041 178.467 100.041Z" fill="#424242"/>
<path d="M193.067 107.388V100.041C193.067 99.3061 192.58 98.8163 191.85 98.8163H184.55C183.82 98.8163 183.333 99.3061 183.333 100.041V107.388C183.333 108.122 183.82 108.612 184.55 108.612H191.85C192.58 108.612 193.067 108.122 193.067 107.388ZM190.633 106.163H185.767V101.265H190.633V106.163Z" fill="#424242"/>
<path d="M202.8 123.306C202.07 123.306 201.583 123.796 201.583 124.531V128.204C201.583 128.939 202.07 129.429 202.8 129.429C203.53 129.429 204.017 128.939 204.017 128.204V124.531C204.017 123.796 203.53 123.306 202.8 123.306Z" fill="#424242"/>
<path d="M219.833 123.306C219.103 123.306 218.617 123.796 218.617 124.531V128.204C218.617 128.939 219.103 129.429 219.833 129.429C220.563 129.429 221.05 128.939 221.05 128.204V124.531C221.05 123.796 220.563 123.306 219.833 123.306Z" fill="#424242"/>
<rect x="196" y="182" width="5" height="5" transform="rotate(45 196 182)" fill="#73BEBE"/>
<rect width="62" height="25" transform="translate(164 161)" fill="#73BEBE"/>
<path d="M180.402 167.738C180.402 167.29 180.766 166.926 181.214 166.926C181.648 166.926 182.012 167.29 182.012 167.738C182.012 168.172 181.648 168.536 181.214 168.536C180.766 168.536 180.402 168.172 180.402 167.738ZM179.534 167.738C179.534 167.836 179.548 167.92 179.562 168.004C179.268 168.046 178.96 168.06 178.764 168.06H172.282C171.82 168.06 171.022 168.004 170.616 167.948V169.922C170.966 169.894 171.638 169.866 172.282 169.866H178.792C178.61 171.07 178.078 172.652 177.154 173.814C176.02 175.242 174.438 176.46 171.666 177.104L173.192 178.784C175.684 177.972 177.56 176.586 178.82 174.906C179.996 173.352 180.598 171.182 180.92 169.81C180.962 169.684 180.99 169.544 181.032 169.39C181.088 169.404 181.158 169.404 181.214 169.404C182.124 169.404 182.88 168.648 182.88 167.738C182.88 166.814 182.124 166.058 181.214 166.058C180.29 166.058 179.534 166.814 179.534 167.738ZM186.268 167.262V169.068C186.674 169.04 187.276 169.026 187.724 169.026H193.086C193.59 169.026 194.248 169.04 194.626 169.068V167.262C194.234 167.318 193.548 167.332 193.114 167.332H187.724C187.248 167.332 186.66 167.318 186.268 167.262ZM195.802 171.322L194.556 170.552C194.36 170.636 193.982 170.692 193.534 170.692H186.604C186.17 170.692 185.568 170.65 184.98 170.608V172.428C185.568 172.372 186.268 172.358 186.604 172.358H193.366C193.114 173.142 192.68 174.01 191.924 174.78C190.86 175.872 189.18 176.796 187.08 177.23L188.466 178.812C190.258 178.308 192.05 177.356 193.464 175.788C194.514 174.626 195.116 173.268 195.536 171.91C195.592 171.756 195.704 171.504 195.802 171.322ZM200.52 167.36L199.204 168.76C200.226 169.474 201.976 171 202.704 171.784L204.132 170.328C203.32 169.474 201.5 168.018 200.52 167.36ZM198.77 176.684L199.946 178.532C201.92 178.196 203.726 177.412 205.14 176.558C207.394 175.2 209.256 173.268 210.32 171.378L209.228 169.404C208.346 171.294 206.526 173.436 204.132 174.85C202.774 175.662 200.954 176.376 198.77 176.684ZM216.772 178C218.878 178 220.184 176.906 220.184 175.177C220.184 173.905 219.233 172.921 217.928 172.825V172.702C218.939 172.552 219.712 171.643 219.712 170.597C219.712 169.072 218.57 168.136 216.656 168.136H212.343V178H216.772ZM214.407 169.715H216.13C217.114 169.715 217.682 170.187 217.682 170.973C217.682 171.766 217.073 172.224 215.959 172.224H214.407V169.715ZM214.407 176.421V173.618H216.198C217.415 173.618 218.078 174.097 218.078 174.999C218.078 175.922 217.436 176.421 216.246 176.421H214.407Z" fill="white"/>
<rect x="170" y="197" width="36" height="34" fill="#BE9C59"/>
<rect x="170" y="197" width="36" height="34" fill="#E0C184" fill-opacity="0.5"/>
<path d="M204.5 224L197.5 228V247H225V239H231V221L217.5 212.5L204.5 220.5V224Z" fill="white" stroke="#424242"/>
<path d="M231.027 219.102L218.373 211.51C217.765 211.143 216.913 211.143 216.305 211.51L203.652 219.102C202.192 219.959 202.8 221.918 202.678 223.388L197.568 226.449C196.96 226.816 196.595 227.429 196.595 228.163V246.041C196.595 247.143 197.447 248 198.542 248H223.848C224.943 248 225.795 247.143 225.795 246.041V240.653H229.932C231.027 240.653 231.878 239.796 231.878 238.694V220.816C232 220.082 231.635 219.469 231.027 219.102ZM208.883 245.551V235.755H213.75V245.551H208.883ZM223.483 245.551H216.183V234.531C216.183 233.796 215.697 233.306 214.967 233.306H207.667C206.937 233.306 206.45 233.796 206.45 234.531V245.551H199.15V228.408L211.317 221.061L223.483 228.408V245.551ZM229.567 238.204H225.917V228.163C225.917 227.429 225.552 226.816 224.943 226.449L212.29 218.857C211.682 218.49 210.952 218.49 210.222 218.857L205.233 221.918V221.061L217.4 213.714L229.567 221.061V238.204Z" fill="#424242"/>
<path d="M161.433 239.429H194.283C195.013 239.429 195.5 238.939 195.5 238.204C195.5 237.469 195.013 236.98 194.283 236.98H161.433V190.449H219.833V210.286C219.833 211.02 220.32 211.51 221.05 211.51C221.78 211.51 222.267 211.02 222.267 210.286V190.449C222.267 189.102 221.172 188 219.833 188H161.433C160.095 188 159 189.102 159 190.449V236.98C159 238.327 160.095 239.429 161.433 239.429Z" fill="#424242"/>
<path d="M185.767 197.796C185.767 197.061 185.28 196.571 184.55 196.571H172.383C171.045 196.571 169.95 197.673 169.95 199.02V205.143C169.95 205.878 170.437 206.367 171.167 206.367C171.897 206.367 172.383 205.878 172.383 205.143V199.02H184.55C185.28 199.02 185.767 198.531 185.767 197.796Z" fill="#424242"/>
<path d="M169.95 228.408C169.95 229.755 171.045 230.857 172.383 230.857H184.55C185.28 230.857 185.767 230.367 185.767 229.633C185.767 228.898 185.28 228.408 184.55 228.408H172.383V212.49C172.383 211.755 171.897 211.265 171.167 211.265C170.437 211.265 169.95 211.755 169.95 212.49V228.408Z" fill="#424242"/>
<path d="M191.85 228.408C190.268 228.408 190.268 230.857 191.85 230.857H194.283C195.013 230.857 195.5 230.367 195.5 229.633C195.5 228.898 195.013 228.408 194.283 228.408H191.85Z" fill="#424242"/>
<path d="M205.233 214.939C205.963 214.939 206.45 214.449 206.45 213.714V199.02C206.45 197.673 205.355 196.571 204.017 196.571H193.067C192.337 196.571 191.85 197.061 191.85 197.796C191.85 198.531 192.337 199.02 193.067 199.02H204.017V213.714C204.017 214.449 204.503 214.939 205.233 214.939Z" fill="#424242"/>
<path d="M199.15 205.143C199.15 203.796 198.055 202.694 196.717 202.694H178.467C176.885 202.694 176.885 205.143 178.467 205.143H196.717V211.265C196.717 212 197.203 212.49 197.933 212.49C198.663 212.49 199.15 212 199.15 211.265V205.143Z" fill="#424242"/>
<path d="M199.15 222.286V218.612C199.15 217.878 198.663 217.388 197.933 217.388C197.203 217.388 196.717 217.878 196.717 218.612V222.286H189.417C187.835 222.286 187.835 224.735 189.417 224.735H196.717C198.055 224.735 199.15 223.633 199.15 222.286Z" fill="#424242"/>
<path d="M178.467 210.041C177.737 210.041 177.25 210.531 177.25 211.265V222.286C177.25 223.633 178.345 224.735 179.683 224.735H183.333C184.915 224.735 184.915 222.286 183.333 222.286H179.683V211.265C179.683 210.531 179.197 210.041 178.467 210.041Z" fill="#424242"/>
<path d="M193.067 217.388V210.041C193.067 209.306 192.58 208.816 191.85 208.816H184.55C183.82 208.816 183.333 209.306 183.333 210.041V217.388C183.333 218.122 183.82 218.612 184.55 218.612H191.85C192.58 218.612 193.067 218.122 193.067 217.388ZM190.633 216.163H185.767V211.265H190.633V216.163Z" fill="#424242"/>
<path d="M202.8 233.306C202.07 233.306 201.583 233.796 201.583 234.531V238.204C201.583 238.939 202.07 239.429 202.8 239.429C203.53 239.429 204.017 238.939 204.017 238.204V234.531C204.017 233.796 203.53 233.306 202.8 233.306Z" fill="#424242"/>
<path d="M219.833 233.306C219.103 233.306 218.617 233.796 218.617 234.531V238.204C218.617 238.939 219.103 239.429 219.833 239.429C220.563 239.429 221.05 238.939 221.05 238.204V234.531C221.05 233.796 220.563 233.306 219.833 233.306Z" fill="#424242"/>
<rect x="2" width="228" height="29" rx="14.5" fill="#BE9C59"/>
<rect x="2" width="228" height="29" rx="14.5" fill="#E0C184" fill-opacity="0.5"/>
<path d="M24.848 7.584H22.432C22.496 8.032 22.528 8.544 22.528 9.184V12.224C22.528 14.72 22.32 15.92 21.216 17.12C20.256 18.16 18.96 18.768 17.376 19.136L19.04 20.896C20.208 20.528 21.872 19.744 22.928 18.592C24.112 17.28 24.784 15.792 24.784 12.352V9.184C24.784 8.544 24.816 8.032 24.848 7.584ZM17.424 7.712H15.12C15.168 8.08 15.184 8.64 15.184 8.944V14.336C15.184 14.816 15.12 15.44 15.104 15.744H17.424C17.392 15.376 17.376 14.752 17.376 14.352V8.944C17.376 8.432 17.392 8.08 17.424 7.712ZM41.344 8.288L38.848 7.648C38.416 9.936 37.36 12.704 35.824 14.56C34.4 16.288 32.24 17.872 29.744 18.72L31.568 20.592C34.032 19.6 36.272 17.648 37.632 15.952C38.928 14.336 39.968 11.92 40.64 10.08C40.832 9.568 41.056 8.864 41.344 8.288ZM55.344 8.912L53.952 9.488C54.544 10.304 54.944 11.088 55.408 12.096L56.848 11.472C56.496 10.736 55.792 9.568 55.344 8.912ZM57.488 8.032L56.112 8.656C56.704 9.456 57.136 10.192 57.648 11.2L59.04 10.528C58.672 9.808 57.952 8.672 57.488 8.032ZM44.56 15.44L46.48 17.424C46.768 17.008 47.152 16.448 47.52 15.936C48.16 15.072 49.296 13.488 49.92 12.688C50.384 12.112 50.72 12.08 51.232 12.592C51.808 13.184 53.232 14.736 54.16 15.84C55.104 16.944 56.464 18.592 57.536 19.92L59.296 18.032C58.064 16.72 56.432 14.944 55.36 13.808C54.4 12.768 53.168 11.488 52.096 10.48C50.848 9.312 49.904 9.488 48.96 10.608C47.856 11.92 46.608 13.488 45.888 14.224C45.392 14.704 45.04 15.056 44.56 15.44ZM73.68 12.672V11.056H62.32V12.672H73.68ZM73.68 14.816H62.32V16.432H73.68V14.816ZM81.744 16.4C81.232 16.576 80.704 16.736 80.176 16.896V13.696H81.616V11.952H80.176V9.136H81.888V7.36H76.608V9.136H78.368V11.952H76.752V13.696H78.368V17.456C77.632 17.664 76.976 17.84 76.416 17.984L76.848 19.92C78.384 19.424 80.304 18.816 82.064 18.192L81.744 16.4ZM84.208 11.568H85.856V12.944H84.208V11.568ZM84.208 8.736H85.856V10.08H84.208V8.736ZM89.04 10.08H87.456V8.736H89.04V10.08ZM89.04 12.944H87.456V11.568H89.04V12.944ZM87.632 19.168V17.648H91.024V15.936H87.632V14.56H90.848V7.12H82.496V14.56H85.696V15.936H82.384V17.648H85.696V19.168H81.28V20.896H91.568V19.168H87.632ZM101.856 13.408H104.8V14.368H101.856V13.408ZM101.856 11.088H104.8V12.016H101.856V11.088ZM101.856 8.752H104.8V9.68H101.856V8.752ZM98.496 16.48C99.216 17.152 100.16 18.128 100.608 18.704L101.984 17.552C101.6 17.104 100.912 16.432 100.288 15.856H106.624V7.248H100.128V15.712L99.808 15.424L98.496 16.48ZM95.44 16.048H97.248V12.704C97.824 13.232 98.416 13.808 98.784 14.208L99.776 12.688C99.408 12.384 97.888 11.296 97.248 10.928V10.336H99.504V8.72H97.248V6.464H95.44V8.72H92.816V10.336H95.136C94.512 11.728 93.472 13.12 92.416 13.904C92.8 14.208 93.36 14.8 93.632 15.216C94.288 14.64 94.896 13.84 95.44 12.896V16.048ZM94.272 20.512C94.832 19.584 95.296 18.16 95.616 17.024L93.92 16.352C93.648 17.488 93.104 18.8 92.528 19.648L94.272 20.512ZM99.104 19.392C98.24 19.392 98.08 19.328 98.08 18.848V16.688H96.192V18.88C96.192 20.544 96.752 21.072 98.928 21.072H101.808C103.568 21.072 104.096 20.512 104.336 18.224C103.808 18.128 103.008 17.856 102.624 17.552C102.528 19.168 102.416 19.392 101.664 19.392H99.104ZM103.888 16.912C104.512 17.984 105.392 19.392 105.776 20.24L107.552 19.328C107.12 18.496 106.192 17.136 105.552 16.144L103.888 16.912ZM122.832 14.368C122.832 10.88 120.336 8.128 116.368 8.128C112.224 8.128 109.024 11.28 109.024 14.976C109.024 17.68 110.496 19.632 112.272 19.632C114.016 19.632 115.392 17.648 116.352 14.416C116.816 12.912 117.088 11.44 117.312 10.08C119.472 10.448 120.672 12.096 120.672 14.304C120.672 16.64 119.072 18.112 117.024 18.592C116.592 18.688 116.144 18.784 115.536 18.848L116.736 20.752C120.768 20.128 122.832 17.744 122.832 14.368ZM111.072 14.768C111.072 13.008 112.496 10.672 115.136 10.128C114.96 11.456 114.656 12.816 114.288 14C113.632 16.16 113.008 17.168 112.336 17.168C111.712 17.168 111.072 16.384 111.072 14.768ZM128.096 6.48C127.232 8.752 125.76 11.024 124.24 12.464C124.56 12.912 125.056 13.952 125.232 14.4C125.68 13.952 126.128 13.456 126.56 12.896V21.344H128.368V10.144C128.944 9.136 129.44 8.08 129.856 7.056L128.096 6.48ZM135.392 19.088V15.904H138.848V14.112H135.392V11.328H139.28V9.536H135.616L136.32 8.736C135.52 8.032 133.888 7.04 132.704 6.416L131.44 7.776C132.288 8.256 133.328 8.928 134.112 9.536H129.568V11.328H133.456V14.112H130.08V15.904H133.456V19.088H129.2V20.88H139.52V19.088H135.392ZM144.544 18.192C144.544 17.648 145.168 17.2 146.304 17.2C146.752 17.2 147.184 17.248 147.616 17.312C147.632 17.6 147.632 17.824 147.632 18C147.632 18.928 147.072 19.168 146.224 19.168C145.12 19.168 144.544 18.8 144.544 18.192ZM149.552 7.056H147.392C147.456 7.36 147.488 7.856 147.488 8.16C147.488 8.352 147.488 8.608 147.488 8.912C147.28 8.912 147.072 8.912 146.864 8.912C145.888 8.912 144.064 8.752 142.912 8.56L142.96 10.384C144.016 10.528 145.872 10.672 146.88 10.672C147.072 10.672 147.264 10.672 147.472 10.672C147.456 11.216 147.456 11.792 147.456 12.32C147.2 12.32 146.944 12.32 146.688 12.32C145.84 12.32 143.872 12.208 142.832 12.016L142.848 13.904C143.904 14.032 145.728 14.112 146.656 14.112C146.944 14.112 147.216 14.112 147.488 14.112C147.504 14.592 147.52 15.104 147.552 15.6C147.232 15.568 146.896 15.552 146.56 15.552C144.096 15.552 142.608 16.688 142.608 18.304C142.608 20 143.952 20.976 146.512 20.976C148.624 20.976 149.664 19.92 149.664 18.56C149.664 18.384 149.664 18.192 149.648 17.968C150.928 18.544 152.016 19.392 152.88 20.192L154.032 18.4C153.104 17.632 151.568 16.56 149.552 15.984C149.504 15.344 149.472 14.688 149.44 14.08C150.976 14.032 152.224 13.92 153.664 13.76L153.68 11.872C152.384 12.048 151.024 12.176 149.408 12.256C149.408 11.76 149.408 11.168 149.408 10.608C150.96 10.528 152.416 10.384 153.472 10.256L153.488 8.416C152.08 8.656 150.752 8.784 149.44 8.848C149.44 8.592 149.44 8.352 149.456 8.192C149.472 7.776 149.504 7.376 149.552 7.056ZM160.16 8.56L157.696 8.528C157.792 9.024 157.824 9.712 157.824 10.16C157.824 11.136 157.84 13.008 158 14.48C158.448 18.768 159.968 20.352 161.728 20.352C163.008 20.352 164.016 19.376 165.072 16.592L163.472 14.64C163.168 15.92 162.528 17.792 161.776 17.792C160.768 17.792 160.288 16.208 160.064 13.904C159.968 12.752 159.952 11.552 159.968 10.512C159.968 10.064 160.048 9.136 160.16 8.56ZM168.16 8.928L166.128 9.584C167.872 11.568 168.72 15.456 168.976 18.032L171.072 17.216C170.896 14.768 169.68 10.768 168.16 8.928ZM179.776 7.168L177.664 6.992C177.632 7.568 177.52 8.192 177.344 8.832C177.088 8.832 176.816 8.832 176.576 8.832C175.76 8.832 174.576 8.768 173.76 8.64V10.512C174.64 10.576 175.808 10.608 176.464 10.608C176.528 10.608 176.592 10.608 176.672 10.608C175.952 12.048 174.816 13.472 173.136 15.024L174.848 16.304C175.392 15.6 175.856 15.024 176.336 14.544C176.944 13.952 177.936 13.44 178.832 13.44C179.28 13.44 179.712 13.584 179.952 13.984C178.128 14.928 176.208 16.208 176.208 18.256C176.208 20.32 178.064 20.928 180.576 20.928C182.08 20.928 184.048 20.8 185.104 20.656L185.168 18.592C183.76 18.864 181.984 19.04 180.624 19.04C179.056 19.04 178.304 18.8 178.304 17.92C178.304 17.12 178.944 16.496 180.144 15.808C180.128 16.512 180.112 17.28 180.064 17.76H181.984C181.968 17.024 181.936 15.84 181.92 14.944C182.896 14.496 183.808 14.144 184.528 13.856C185.072 13.648 185.92 13.328 186.432 13.184L185.632 11.328C185.04 11.632 184.48 11.888 183.856 12.16C183.2 12.448 182.528 12.72 181.696 13.104C181.344 12.288 180.544 11.872 179.568 11.872C179.04 11.872 178.176 12 177.76 12.192C178.08 11.728 178.4 11.152 178.672 10.56C180.4 10.512 182.368 10.384 183.888 10.16L183.904 8.304C182.496 8.544 180.896 8.688 179.376 8.768C179.584 8.096 179.696 7.568 179.776 7.168ZM191.056 10.784V9.52H200.848V10.784H196.864V9.872H194.96V10.784H191.056ZM203.04 17.472V15.824H196.72C196.8 15.488 196.832 15.152 196.848 14.816H201.216V13.28H196.864V12.32H201.536V11.264H202.816V7.856H196.96V6.464H195.008V7.856H189.168V11.264H190.592V12.32H194.96V13.28H190.848V14.816H194.944C194.912 15.152 194.864 15.488 194.784 15.824H189.04V17.472H193.856C192.976 18.416 191.44 19.248 188.752 19.856C189.168 20.256 189.712 20.976 189.936 21.392C193.2 20.512 194.976 19.248 195.92 17.824C197.184 19.808 199.088 20.944 202.128 21.424C202.368 20.912 202.864 20.16 203.248 19.76C200.72 19.488 198.928 18.752 197.792 17.472H203.04ZM210.368 15.776C209.744 15.952 209.088 16.128 208.464 16.304V13.568H210.128V11.824H208.464V9.04H210.304V7.28H204.704V9.04H206.624V11.824H204.848V13.568H206.624V16.784C205.76 17.008 204.976 17.216 204.32 17.36L204.816 19.152C206.464 18.672 208.608 18.048 210.624 17.456L210.368 15.776ZM212.704 13.472H216.88V14.464H212.704V13.472ZM212.704 11.04H216.88V12.032H212.704V11.04ZM212.704 8.608H216.88V9.6H212.704V8.608ZM217.072 19.68C216.8 19.68 216.768 19.616 216.768 19.152V16.016H218.736V7.056H210.928V16.016H212.096C211.888 17.888 211.376 19.2 208.48 19.92C208.864 20.288 209.344 21.024 209.536 21.488C212.944 20.48 213.68 18.624 213.968 16.016H214.944V19.152C214.944 20.768 215.264 21.312 216.736 21.312H217.936C219.12 21.312 219.536 20.72 219.696 18.528C219.216 18.416 218.48 18.112 218.112 17.824C218.08 19.424 218 19.68 217.728 19.68H217.072Z" fill="white"/>
</svg>
