<svg width="430" height="224" viewBox="0 0 430 224" fill="none" xmlns="http://www.w3.org/2000/svg">
<path d="M146.84 199.033H144.608C144.704 199.537 144.752 200.137 144.824 201.049C144.848 201.601 144.872 202.417 144.896 203.377H136.16C135.416 203.377 134.648 203.305 133.952 203.233V205.273C134.696 205.225 135.392 205.201 136.208 205.201H144.104C142.208 208.081 137.936 212.065 133.064 214.441L134.456 216.001C138.752 213.721 142.952 209.833 144.944 207.001C144.992 210.217 145.016 213.793 145.016 215.713C145.016 216.361 144.824 216.673 144.128 216.673C143.24 216.673 141.896 216.577 140.744 216.385L140.912 218.353C142.088 218.449 143.504 218.497 144.752 218.497C146.192 218.497 146.936 217.825 146.936 216.577C146.912 213.577 146.84 208.801 146.768 205.201H150.584C151.16 205.201 152 205.225 152.552 205.249V203.233C152.072 203.281 151.136 203.377 150.512 203.377H146.744C146.72 202.417 146.696 201.601 146.696 201.049C146.696 200.377 146.744 199.705 146.84 199.033Z" fill="white"/>
<path d="M157.448 207.433V209.785C158.192 209.713 159.464 209.665 160.784 209.665H173.96C175.04 209.665 176.048 209.761 176.528 209.785V207.433C176 207.481 175.136 207.553 173.936 207.553H160.784C159.44 207.553 158.168 207.481 157.448 207.433Z" fill="white"/>
<path d="M197.36 198.481L196.088 199.033C196.736 199.921 197.528 201.337 198.008 202.297L197.6 202.057C197.216 202.201 196.664 202.273 196.016 202.273H189.536C189.704 201.985 189.872 201.697 190.016 201.433C190.256 200.977 190.688 200.161 191.096 199.537L188.912 198.841C188.768 199.465 188.384 200.305 188.144 200.737C187.04 202.921 184.568 206.545 180.44 209.113L182.048 210.337C184.736 208.489 186.872 206.137 188.408 204.001H196.52C196.04 205.969 194.816 208.537 193.256 210.649C191.576 209.473 189.776 208.297 188.192 207.385L186.896 208.729C188.432 209.689 190.28 210.937 191.984 212.185C189.848 214.513 186.752 216.721 182.696 217.945L184.424 219.457C188.48 217.921 191.432 215.737 193.568 213.361C194.576 214.129 195.464 214.873 196.184 215.521L197.6 213.865C196.832 213.241 195.896 212.521 194.864 211.777C196.664 209.329 197.984 206.497 198.632 204.289C198.752 203.905 198.992 203.353 199.184 203.017L198.056 202.345L199.328 201.769C198.824 200.785 197.96 199.345 197.36 198.481ZM200 197.521L198.728 198.049C199.4 198.961 200.192 200.305 200.72 201.361L202.016 200.785C201.56 199.897 200.624 198.385 200 197.521Z" fill="white"/>
<path d="M205.448 207.433V209.785C206.192 209.713 207.464 209.665 208.784 209.665H221.96C223.04 209.665 224.048 209.761 224.528 209.785V207.433C224 207.481 223.136 207.553 221.936 207.553H208.784C207.44 207.553 206.168 207.481 205.448 207.433Z" fill="white"/>
<path d="M245.624 199.609H243.368C243.44 200.209 243.488 200.881 243.488 201.697V205.489C243.488 210.025 243.2 211.969 241.496 213.961C240.008 215.641 237.968 216.601 235.76 217.153L237.32 218.809C239.072 218.209 241.472 217.177 243.032 215.305C244.76 213.241 245.552 211.345 245.552 205.585V201.697C245.552 200.881 245.576 200.209 245.624 199.609ZM234.488 199.801H232.304C232.352 200.257 232.4 201.097 232.4 201.529V209.521C232.4 210.241 232.328 211.009 232.28 211.369H234.488C234.44 210.937 234.392 210.145 234.392 209.545V201.529C234.392 200.953 234.44 200.257 234.488 199.801Z" fill="white"/>
<path d="M270.248 200.569L267.968 199.945C267.272 203.401 265.664 207.337 263.432 210.121C261.248 212.833 257.936 215.233 254.36 216.481L256.04 218.233C259.472 216.817 262.904 214.153 265.088 211.393C267.104 208.801 268.544 205.273 269.48 202.657C269.672 202.057 269.96 201.193 270.248 200.569Z" fill="white"/>
<path d="M291.584 201.553L290.216 202.129C291.008 203.233 291.848 204.721 292.448 205.993L293.864 205.345C293.288 204.217 292.184 202.417 291.584 201.553ZM294.656 200.329L293.312 200.953C294.128 202.033 294.992 203.473 295.616 204.745L297.008 204.073C296.432 202.945 295.304 201.169 294.656 200.329ZM276.272 211.513L278.072 213.337C278.432 212.833 278.96 212.089 279.44 211.489C280.544 210.145 282.536 207.529 283.688 206.113C284.504 205.129 284.96 205.033 285.896 205.945C286.904 206.929 289.136 209.305 290.528 210.889C292.064 212.641 294.176 215.089 295.88 217.153L297.536 215.401C295.688 213.433 293.288 210.817 291.68 209.113C290.264 207.601 288.224 205.465 286.76 204.073C285.128 202.537 284 202.801 282.704 204.313C281.192 206.089 279.104 208.753 277.976 209.905C277.328 210.553 276.896 210.985 276.272 211.513Z" fill="white"/>
<g clip-path="url(#clip0)">
<path d="M42.6952 138.129C47.6071 143.041 50 148.835 50 155.762C50 162.689 47.6071 168.608 42.6952 173.52C37.7834 178.432 31.9899 180.825 25.063 180.825C18.136 180.825 12.2166 178.432 7.30479 173.52C2.39295 168.608 0 162.689 0 155.762C0 148.835 2.39295 143.041 7.30479 138.129C12.2166 133.218 18.136 130.825 25.063 130.825C31.864 130.825 37.7834 133.218 42.6952 138.129ZM25.063 138.004C20.1511 138.004 15.869 139.767 12.4685 143.167C9.06801 146.568 7.30479 150.85 7.30479 155.762C7.30479 160.674 9.06801 164.956 12.4685 168.356C15.869 171.757 20.1511 173.646 25.063 173.646C29.9748 173.646 34.131 171.883 37.6574 168.356C41.1839 164.83 42.9471 160.674 42.9471 155.762C42.9471 150.85 41.1839 146.694 37.6574 143.167C34.131 139.767 29.9748 138.004 25.063 138.004Z" fill="white"/>
<path d="M62.8463 153.747V179.313H55.6675V142.16H62.8463V143.671C65.743 141.782 69.1436 140.774 72.7959 140.774V147.953C69.6473 147.953 67.0025 149.087 64.7355 151.228C63.9798 152.109 63.3501 152.865 62.8463 153.747Z" fill="white"/>
<path d="M105.667 177.298C102.393 179.691 98.4885 180.825 94.2064 180.825C88.6648 180.825 84.0049 178.935 80.1006 175.031C76.1963 171.127 74.3071 166.467 74.3071 160.925C74.3071 155.384 76.1963 150.724 80.1006 146.82C84.0049 142.915 88.6648 141.026 94.2064 141.026C98.4885 141.026 102.267 142.16 105.667 144.553V132.21H112.846V179.313H105.667V177.298ZM105.667 166.719V154.88C105.038 153.746 104.282 152.739 103.274 151.731C100.755 149.212 97.7328 147.953 94.2064 147.953C90.6799 147.953 87.6572 149.212 85.1384 151.731C82.6195 154.25 81.36 157.273 81.36 160.799C81.36 164.326 82.6195 167.349 85.1384 169.867C87.6572 172.386 90.6799 173.646 94.2064 173.646C97.7328 173.646 100.755 172.386 103.274 169.867C104.282 168.986 105.164 167.852 105.667 166.719Z" fill="white"/>
<path d="M154.912 149.339L149.748 154.502L132.242 172.009C134.131 173.016 136.146 173.646 138.413 173.646C142.317 173.646 145.718 172.009 148.488 168.734L154.03 173.142C149.874 178.306 144.584 180.825 138.287 180.825C132.745 180.825 128.085 178.936 124.181 175.031C120.277 171.127 118.388 166.467 118.388 160.926C118.388 155.384 120.277 150.724 124.181 146.82C128.085 142.916 132.745 141.026 138.287 141.026C143.829 141.026 148.488 142.916 152.393 146.82C153.526 147.575 154.282 148.457 154.912 149.339ZM144.71 149.591C142.821 148.583 140.806 147.953 138.539 147.953C135.012 147.953 131.99 149.213 129.471 151.732C126.952 154.251 125.692 157.273 125.692 160.8C125.692 163.067 126.196 165.208 127.33 166.971L144.71 149.591Z" fill="white"/>
<path d="M168.514 153.747V179.313H161.335V142.16H168.514V143.671C171.411 141.782 174.811 140.774 178.463 140.774V147.953C175.315 147.953 172.67 149.087 170.403 151.228C169.647 152.109 169.018 152.865 168.514 153.747Z" fill="white"/>
<path d="M217.884 167.726C216.877 167.852 215.995 167.978 214.862 167.978H204.156V179.439H196.978V132.21H214.862C219.774 132.21 223.93 133.973 227.456 137.374C230.983 140.774 232.746 145.056 232.746 149.968C232.746 154.88 230.983 159.162 227.582 162.563C226.575 163.57 225.567 164.326 224.559 165.081L231.738 179.313H223.804L217.884 167.726ZM204.156 160.799H214.862C217.758 160.799 220.277 159.792 222.418 157.651C224.559 155.51 225.567 152.991 225.567 150.094C225.567 147.197 224.559 144.678 222.418 142.537C220.277 140.396 217.758 139.389 214.862 139.389H204.156V160.799Z" fill="white"/>
<path d="M273.552 149.339L268.388 154.502L250.882 172.009C252.771 173.016 254.786 173.646 257.053 173.646C260.957 173.646 264.358 172.009 267.129 168.734L272.67 173.142C268.514 178.306 263.224 180.825 256.927 180.825C251.386 180.825 246.726 178.936 242.821 175.031C238.917 171.127 237.028 166.467 237.028 160.926C237.028 155.384 238.917 150.724 242.821 146.82C246.726 142.916 251.386 141.026 256.927 141.026C262.469 141.026 267.129 142.916 271.033 146.82C272.04 147.575 272.796 148.457 273.552 149.339ZM263.224 149.591C261.335 148.583 259.32 147.953 257.053 147.953C253.527 147.953 250.504 149.213 247.985 151.732C245.466 154.251 244.207 157.273 244.207 160.8C244.207 163.067 244.71 165.208 245.844 166.971L263.224 149.591Z" fill="white"/>
<path d="M287.027 153.747V179.313H279.849V142.16H287.027V143.671C289.924 141.782 293.325 140.774 296.977 140.774C302.141 140.774 306.549 142.538 310.075 146.19C313.728 149.842 315.491 154.125 315.491 159.288V179.313H308.312V159.414C308.312 156.266 307.179 153.621 304.912 151.354C302.645 149.087 300 147.953 296.851 147.953C293.703 147.953 291.058 149.087 288.791 151.228C288.161 152.109 287.531 152.865 287.027 153.747Z" fill="white"/>
<path d="M354.03 146.694C357.934 150.598 359.823 155.258 359.823 160.8C359.823 166.341 357.934 171.001 354.03 174.905C350.126 178.81 345.466 180.699 339.924 180.699C334.383 180.699 329.723 178.81 325.818 174.905C321.914 171.001 320.025 166.341 320.025 160.8C320.025 155.258 321.914 150.598 325.818 146.694C329.723 142.79 334.383 140.9 339.924 140.9C345.466 140.9 350.126 142.79 354.03 146.694ZM339.924 147.953C336.398 147.953 333.375 149.213 330.856 151.732C328.337 154.251 327.078 157.273 327.078 160.8C327.078 164.326 328.337 167.349 330.856 169.868C333.375 172.387 336.398 173.646 339.924 173.646C343.451 173.646 346.473 172.387 348.992 169.868C351.511 167.349 352.77 164.326 352.77 160.8C352.77 157.273 351.511 154.251 348.992 151.732C346.473 149.213 343.451 147.953 339.924 147.953Z" fill="white"/>
<path d="M367.758 142.286L376.448 166.593L385.013 142.286H392.695L379.219 179.439H373.552L360.076 142.286H367.758Z" fill="white"/>
<path d="M429.093 149.339L423.93 154.502L406.423 172.009C408.312 173.016 410.328 173.646 412.595 173.646C416.499 173.646 419.899 172.009 422.67 168.734L428.212 173.142C424.055 178.306 418.766 180.825 412.469 180.825C406.927 180.825 402.267 178.936 398.363 175.031C394.458 171.127 392.569 166.467 392.569 160.926C392.569 155.384 394.458 150.724 398.363 146.82C402.267 142.916 406.927 141.026 412.469 141.026C418.01 141.026 422.67 142.916 426.574 146.82C427.708 147.575 428.464 148.457 429.093 149.339ZM418.892 149.591C417.003 148.583 414.987 147.953 412.72 147.953C409.194 147.953 406.171 149.213 403.652 151.732C401.134 154.251 399.874 157.273 399.874 160.8C399.874 163.067 400.378 165.208 401.511 166.971L418.892 149.591Z" fill="white"/>
</g>
<path d="M242.125 92.7248C242.125 98.4248 242.225 104.225 242.025 109.925C242.025 111.225 241.425 113.125 240.525 113.725C239.625 114.225 237.625 113.725 236.525 113.025C229.925 109.125 223.525 105.025 217.025 100.925C215.625 100.025 214.425 99.1248 214.825 97.2248C215.225 95.4248 216.725 95.2248 218.325 95.0248C221.825 94.4248 224.125 91.6248 223.925 88.2248C223.725 84.8248 221.125 82.2248 217.525 82.1248C214.825 82.0248 212.025 82.2248 209.325 82.0248C207.325 81.9248 206.725 82.6248 206.725 84.6248C206.825 93.0248 206.725 101.425 206.725 109.825C206.725 113.725 206.025 114.425 202.025 114.425C198.725 114.425 195.425 114.425 192.025 114.425C189.025 114.425 188.025 113.425 188.025 110.325C188.025 98.5248 187.925 86.7248 188.125 74.9248C188.125 73.6248 189.125 71.8248 190.225 71.0248C197.725 65.8248 205.325 60.8248 212.925 55.6248C214.525 54.5248 215.925 54.5248 217.525 55.6248C225.025 60.7248 232.525 65.8248 240.025 70.8248C241.625 71.9248 242.225 73.3248 242.225 75.2248C242.125 81.0248 242.125 86.9248 242.125 92.7248ZM236.025 106.125C236.225 105.425 236.325 105.125 236.325 104.825C236.325 95.4248 236.425 86.0248 236.225 76.7248C236.225 75.8248 235.425 74.7248 234.625 74.2248C228.725 70.1248 222.625 66.1248 216.725 62.0248C215.525 61.2248 214.625 61.1248 213.425 62.0248C207.525 66.1248 201.425 70.0248 195.525 74.2248C194.625 74.8248 193.825 76.3248 193.825 77.4248C193.725 87.0248 193.825 96.7248 193.725 106.325C193.725 108.225 194.325 109.125 196.225 108.925C196.925 108.825 197.525 108.825 198.225 108.925C200.525 109.225 201.225 108.225 201.225 105.925C201.125 97.4248 201.125 88.8248 201.225 80.3248C201.225 77.3248 201.925 76.6248 204.925 76.6248C209.125 76.6248 213.425 76.5248 217.625 76.6248C222.725 76.7248 226.425 79.2248 228.525 83.9248C230.525 88.3248 229.425 93.6248 226.025 97.1248C225.525 97.7248 224.925 98.3248 224.325 99.0248C228.325 101.325 232.025 103.625 236.025 106.125Z" fill="white"/>
<path d="M54.9 49.8001L48 35.4001L54 32.5001L53.8 30.7001L55.5 29.9001L55.7 31.7001L63.1 28.1001L70 42.4001L54.9 49.8001ZM62.2 30.3001L50.2 36.1001L51.6 39.1001L63.6 33.3001L62.2 30.3001ZM64.3 34.6001L52.3 40.4001L53.7 43.4001L65.7 37.6001L64.3 34.6001ZM66.3 38.9001L54.3 44.7001L55.7 47.7001L67.8 41.9001L66.3 38.9001Z" fill="white" stroke="white" stroke-width="0.25" stroke-miterlimit="10"/>
<path d="M84.2999 37.4999L81.1999 38.5999L80.5999 36.9999L83.5999 35.8999C84.3999 35.5999 84.7999 34.6999 84.4999 33.8999L82.5999 28.5999L75.9999 30.9999C76.8999 35.0999 75.8999 39.5999 72.4999 41.7999L71.8999 40.1999C74.3999 38.1999 74.9999 34.9999 74.2999 31.5999L70.0999 33.0999L69.4999 31.5999C69.1999 31.8999 68.7999 32.1999 68.4999 32.4999L67.8999 30.7999C69.7999 29.0999 71.0999 26.3999 70.7999 23.4999L72.5999 22.8999C72.9999 26.0999 71.6999 29.4999 69.5999 31.6999L83.6999 26.5999L86.1999 33.4999C86.7999 35.0999 85.9999 36.8999 84.2999 37.4999ZM75.9999 21.4999L77.7999 20.8999C79.4999 23.2999 82.1999 24.5999 84.6999 24.6999L85.2999 26.3999C81.8999 26.4999 78.0999 24.5999 75.9999 21.4999Z" fill="white" stroke="white" stroke-width="0.25" stroke-miterlimit="10"/>
<path d="M92.7001 19.1C90.2001 19.8 88.7001 20.1 87.6001 20.1L87.1001 18.4C88.2001 18.4 89.8001 18.1 92.2001 17.5C93.6001 17.1 99.9001 15.4 101.3 15L101.8 16.6C100.3 17 93.9001 18.8 92.7001 19.1ZM97.1001 33L92.8001 34.2L92.3001 32.5L96.6001 31.3C103.2 29.4 104.4 27.1 103.7 24.7C103.3 23.2 101.6 21.7 98.2001 22.6C94.9001 23.5 92.8001 25.2 91.3001 28.6L89.6001 29.1L88.3001 21.2L90.0001 20.7L90.9001 26.4C92.2001 23.7 94.6001 21.9 97.8001 21C102.2 19.8 104.8 21.5 105.5 24.2C106.5 27.6 105 30.8 97.1001 33Z" fill="white" stroke="white" stroke-width="0.25" stroke-miterlimit="10"/>
<path d="M117.3 27.9002C112.5 28.9002 110.1 27.5002 109.1 23.0002L106.9 13.1002L108.7 12.7002L110.8 22.3002C111.6 26.0002 113.5 26.8002 117 26.1002C121.2 25.2002 123 21.6002 121.8 15.9002L123.7 15.5002C125.1 22.3002 122.8 26.7002 117.3 27.9002Z" fill="white" stroke="white" stroke-width="0.25" stroke-miterlimit="10"/>
<path d="M133.2 24.8001C129.2 25.5001 128.2 20.0001 127.7 17.0001C127.7 16.9001 127.7 16.8001 127.7 16.7001C127.3 14.0001 127 11.3001 126.9 9.1001L128.7 8.9001C128.8 11.2001 129 13.8001 129.5 16.4001C129.6 17.2001 129.8 17.9001 129.9 18.7001C130.6 22.0001 131.6 23.1001 133.1 22.9001C134.9 22.6001 136.9 20.0001 137.6 18.5001L138 21.1001C137 22.6001 135.1 24.5001 133.2 24.8001ZM143.4 20.4001C142.2 14.7001 140.3 10.6001 138.2 8.9001L140.2 8.6001C142.2 10.3001 144 14.3001 145.3 20.1001L143.4 20.4001Z" fill="white" stroke="white" stroke-width="0.25" stroke-miterlimit="10"/>
<path d="M146.7 13.8001L146.5 12.2001L148.4 12.0001C148.2 10.8001 147.8 8.9001 147.3 7.7001L146.6 7.8001L146.4 6.2001L150 5.8001L149.8 4.7001L151.5 4.5001L151.6 5.6001L155.2 5.2001L155.4 6.8001L154.6 6.9001V11.3001L156.5 11.1001L156.7 12.7001L146.7 13.8001ZM148.3 22.6001L147.4 15.4001L156.3 14.3001L157.2 21.5001L148.3 22.6001ZM148.9 7.5001C149.3 8.7001 149.8 10.5001 150 11.8001L153.1 11.4001V7.0001L148.9 7.5001ZM154.8 16.0001L149.2 16.7001L149.7 20.9001L155.3 20.2001L154.8 16.0001ZM162.2 19.8001L160.9 20.0001L160.7 18.2001L161.9 18.1001C162.9 18.0001 163.5 17.2001 163.3 15.5001C163 13.3001 162.5 12.4001 160.7 11.3001C161.8 9.7001 162 8.6001 161.6 5.4001L158.3 5.8001L160.2 21.6001L158.5 21.8001L156.4 4.4001L162.9 3.6001L163.1 5.2001C163.5 8.4001 163.2 9.7001 162.5 10.8001C163.8 11.7001 164.5 12.9001 164.8 15.5001C165.3 18.4001 164.3 19.5001 162.2 19.8001Z" fill="white" stroke="white" stroke-width="0.25" stroke-miterlimit="10"/>
<path d="M169 7.3999L169.3 11.0999C169.6 14.4999 169.1 18.5999 167.3 20.5999L167.1 17.6999C167.8 16.4999 167.9 13.6999 167.7 11.0999L167.1 2.9999L183.5 1.8999L183.8 6.2999L169 7.3999ZM181.9 3.2999L168.7 4.2999L168.8 6.0999L182 5.0999L181.9 3.2999ZM169.9 20.1999L169.8 18.8999L176.8 18.3999L176.7 16.5999L170.2 17.0999L170.1 15.7999L176.6 15.2999L176.5 13.4999C175.8 13.5999 175 13.5999 174 13.6999L170.7 13.9999L170.6 12.5999C171.2 12.5999 171.7 12.4999 172.1 12.4999L173 10.0999L170.4 10.2999L170.3 8.9999L183.7 7.9999L183.8 9.2999L182.1 9.3999L184.2 12.8999L182.5 12.9999L182 12.0999C180.8 12.5999 179.8 12.9999 178.2 13.1999L178.3 15.0999L184.3 14.5999L184.4 15.8999L178.4 16.3999L178.5 18.1999L185 17.6999L185.1 18.9999L169.9 20.1999ZM180.4 9.4999L174.7 9.8999L173.8 12.2999C178.1 11.9999 179.6 11.7999 181.2 10.9999L180.4 9.4999Z" fill="white" stroke="white" stroke-width="0.25" stroke-miterlimit="10"/>
<path d="M190.2 8H190.6L191 19L189.3 19.1L189 10.1C188.4 10.9 187.6 11.6 186.6 12.1L186.5 9.9C188.5 8.7 189.8 5.4 189.6 1.2L191.4 1.1C191.5 3.6 191.1 6 190.2 8ZM199.1 4.4L199.2 7.8L203.7 7.6L203.8 9.2L199.3 9.4L199.4 12.8L203.9 12.6L204 14.2L199.5 14.4L199.7 18.6L197.9 18.7L197.4 4.4L195.6 4.5C195.3 6.6 194.8 8.7 194.3 9.7L192.5 9.8C193.4 8 194.2 3.7 194.1 1.1L195.8 1C195.8 1.6 195.8 2.2 195.7 2.9L204.1 2.6L204.2 4.2L199.1 4.4Z" fill="white" stroke="white" stroke-width="0.25" stroke-miterlimit="10"/>
<path d="M212.8 18.0002H211V16.2002H212.9C218.5 16.2002 221.2 14.0002 221.1 9.60019C221.1 5.20019 219.1 3.1002 215.9 3.2002C212.2 3.2002 210.3 5.9002 209.7 8.3002V12.2002H208L207.9 1.2002H209.6V5.2002C210.4 3.6002 212.4 1.4002 215.8 1.4002C219.7 1.4002 222.9 3.70019 222.9 9.60019C223.1 15.1002 219.5 17.9002 212.8 18.0002Z" fill="white" stroke="white" stroke-width="0.25" stroke-miterlimit="10"/>
<path d="M234.2 18.1999C229.7 17.9999 226.8 16.5999 226.9 12.5999C227 10.5999 228.2 8.5999 231.1 7.2999L230.4 1.3999L232.3 1.4999L232.9 6.6999C233.3 6.5999 233.7 6.4999 234.1 6.3999C237.3 5.6999 240.6 5.3999 243.7 5.2999L243.6 7.1999C240.7 7.1999 237.1 7.5999 234.4 8.1999C230.5 9.0999 228.9 10.6999 228.8 12.7999C228.7 15.6999 231 16.4999 234.4 16.6999L243.3 16.9999L243.2 18.6999L234.2 18.1999Z" fill="white" stroke="white" stroke-width="0.25" stroke-miterlimit="10"/>
<path d="M263 16.1998L262.7 20.2998L246.8 19.0998L247.1 14.9998C246.8 14.9998 246.5 14.9998 246.1 14.9998L246.2 13.4998C248 13.5998 249.5 13.2998 250.7 12.5998L246.3 12.2998L246.4 11.0998L252.2 11.4998C252.5 11.1998 252.8 10.7998 253 10.3998L247.1 9.99981L247.5 4.7998L250.9 5.0998L251 4.0998L247 3.7998L247.1 2.4998L251.1 2.7998L251.2 1.7998L252.9 1.8998L252.8 2.8998L259.3 3.3998L259.4 2.3998L261.1 2.4998L261 3.4998L265 3.7998L264.8 5.0998L260.8 4.7998L260.7 5.7998L264.1 6.0998L263.7 11.2998L254.7 10.5998C254.5 10.9998 254.3 11.3998 254 11.6998L264.2 12.4998L264.1 13.6998L259.7 13.3998C260.7 14.3998 262.2 14.7998 264 14.9998L263.9 16.3998C263.7 16.2998 263.3 16.2998 263 16.1998ZM261.2 17.9998L248.6 17.0998L248.5 18.2998L261.1 19.2998L261.2 17.9998ZM261.4 15.7998L248.8 14.8998L248.7 16.0998L261.3 16.9998L261.4 15.7998ZM262.3 8.9998L249 7.9998L248.8 9.1998L262.1 10.1998L262.3 8.9998ZM262.4 6.8998L249.1 5.8998L249 6.9998L262.3 7.9998L262.4 6.8998ZM257.9 13.1998L253 12.7998C252.5 13.2998 251.8 13.6998 251.2 13.9998L259.4 14.5998C258.8 14.2998 258.3 13.7998 257.9 13.1998ZM259.2 4.5998L252.7 4.0998L252.6 5.0998L259.1 5.5998L259.2 4.5998Z" fill="white" stroke="white" stroke-width="0.25" stroke-miterlimit="10"/>
<path d="M272.7 21.0998L268.2 20.5998L268.4 18.8998L272.9 19.3998C279.8 20.1998 281.7 18.4998 282 15.9998C282.2 14.3998 281.2 12.3998 277.7 11.9998C274.3 11.5998 271.7 12.2998 269 14.8998L267.3 14.6998L269.1 6.8998L270.9 7.0998L269.5 12.6998C271.7 10.6998 274.7 9.8998 278 10.2998C282.6 10.7998 284.2 13.4998 283.9 16.1998C283.3 19.7998 280.8 22.0998 272.7 21.0998ZM273.8 6.5998C271.2 6.2998 269.7 5.9998 268.7 5.4998L268.9 3.7998C269.9 4.2998 271.5 4.5998 273.9 4.8998C275.3 5.0998 281.9 5.8998 283.3 5.9998L283.1 7.6998C281.7 7.4998 275.1 6.7998 273.8 6.5998Z" fill="white" stroke="white" stroke-width="0.25" stroke-miterlimit="10"/>
<path d="M293.3 24C288.5 23.2 286.7 21 287.5 16.5L289.1 6.5L290.9 6.8L289.3 16.5C288.7 20.2 290.1 21.7 293.7 22.3C297.9 23 300.9 20.4 301.9 14.6L303.8 14.9C302.6 21.7 298.8 24.9 293.3 24Z" fill="white" stroke="white" stroke-width="0.25" stroke-miterlimit="10"/>
<path d="M320.2 20.5998C320.2 20.8998 320.2 21.0998 320.1 21.3998L319.4 24.6998L317.7 24.2998L318.3 21.2998C318.4 20.9998 318.4 20.7998 318.4 20.4998C313.6 20.5998 310.9 21.5998 310.6 23.2998C310.3 24.5998 311 25.3998 313.4 25.8998L321.4 27.5998L321 29.1998L312.9 27.4998C309.2 26.6998 308.2 25.0998 308.7 22.9998C309.2 20.4998 312.3 18.9998 318.1 18.7998C317.7 17.8998 316.8 17.1998 315.6 16.8998C312.8 16.2998 310.8 16.9998 309.7 17.9998C309.1 18.4998 307.3 19.9998 306.1 20.8998L306.6 18.4998C308.2 17.2998 310.1 15.2998 311.5 12.8998L308.4 12.1998L308.7 10.5998L312.2 11.3998C312.4 10.9998 312.5 10.6998 312.6 10.2998L314.4 10.6998C314.2 11.0998 314.1 11.4998 314 11.7998L324.2 13.9998L323.9 15.5998L313.3 13.2998C312.7 14.3998 312 15.1998 311.5 15.9998C312.8 15.4998 314.5 15.3998 316.3 15.7998C318.2 16.1998 319.6 17.2998 320.1 18.7998C321.2 18.7998 322.4 18.8998 323.6 18.8998L323.2 20.5998C322.1 20.6998 321.1 20.5998 320.2 20.5998Z" fill="white" stroke="white" stroke-width="0.25" stroke-miterlimit="10"/>
<path d="M334.1 28.4999L332.8 33.0999L331.2 32.6999L332.5 28.0999C330.4 29.8999 327.1 30.9999 323.4 30.3999L323.8 28.7999C326.9 29.2999 329.3 28.4999 331.1 27.1999L324.8 25.3999L325.2 23.8999L333 26.0999L333.3 24.9999L330.2 24.0999L332.5 15.7999L334.9 16.4999L335.9 15.4999L337.6 15.9999L336.6 16.9999L340.3 17.9999L338 26.2999L334.9 25.3999L334.6 26.4999L342.4 28.6999L342 30.1999L335.7 28.3999C336.6 30.3999 338.2 32.3999 341.1 33.5999L340.7 35.1999C337.3 33.7999 335 31.1999 334.1 28.4999ZM325.5 22.7999L326 21.0999C327.4 21.1999 329.4 20.3999 330.7 19.4999L330.2 21.3999C329.1 22.1999 327.3 22.7999 325.5 22.7999ZM327.5 15.5999L328 13.8999L331.3 17.3999L330.8 19.0999L327.5 15.5999ZM337.5 22.3999L332.8 21.0999L332.2 23.2999L336.9 24.5999L337.5 22.3999ZM338.4 18.9999L333.7 17.6999L333.1 19.8999L337.8 21.1999L338.4 18.9999ZM339.5 23.9999L340 22.2999L343.2 25.8999L342.7 27.5999L339.5 23.9999ZM340.2 21.5999L340.7 19.8999L345.3 18.5999L344.8 20.2999L340.2 21.5999Z" fill="white" stroke="white" stroke-width="0.25" stroke-miterlimit="10"/>
<path d="M350.3 38.1C345.7 36.4 344.4 33.9 346 29.6L349.4 20L351.2 20.6L347.9 29.9C346.6 33.4 347.8 35.1 351.1 36.4C355.1 37.9 358.5 35.8 360.6 30.3L362.4 30.9C359.8 37.5 355.5 40 350.3 38.1Z" fill="white" stroke="white" stroke-width="0.25" stroke-miterlimit="10"/>
<path d="M371.2 46.9002L368.1 45.4002C365.7 44.2002 365.1 43.0002 365.6 42.0002C365.2 42.1002 364.7 42.0002 364.3 41.8002C363 41.2002 362.1 39.7002 363.4 36.9002C364.7 34.2002 366.9 33.0002 368.9 33.9002C369.5 34.2002 369.7 34.6002 369.9 35.0002L371.5 31.7002L367.5 29.8002L368.2 28.2002L372.2 30.1002L372.8 28.9002L374.4 29.7002L373.8 30.9002L378.5 33.1002L377.8 34.7002L373.1 32.5002L370.5 37.9002C369.8 39.4002 369 40.2002 368.1 41.1002C367.9 41.3002 367.8 41.5002 367.7 41.6002C367.4 42.3002 367.7 43.2002 369.7 44.1002L371.9 45.2002C374.6 46.5002 375.5 46.3002 376.7 43.7002L378.6 39.8002L380.2 40.6002L378.2 44.8002C376.6 48.3002 374.8 48.6002 371.2 46.9002ZM368.7 37.4002C369.1 36.6002 369 35.7002 368.2 35.3002C367.1 34.8002 365.7 35.7002 364.8 37.6002C364.1 39.0002 364.5 39.8002 365.3 40.2002C366.1 40.6002 367.6 39.7002 368.5 37.9002L368.7 37.4002ZM379.4 38.3002C380.5 36.0002 381 34.2002 381.1 33.2002L382.7 33.9002C382.6 34.9002 382.2 36.6002 381 39.0002L379.4 38.3002Z" fill="white" stroke="white" stroke-width="0.25" stroke-miterlimit="10"/>
<defs>
<clipPath id="clip0">
<rect width="430" height="50" fill="white" transform="translate(0 130.825)"/>
</clipPath>
</defs>
</svg>
