<?xml version="1.0" encoding="utf-8"?>
<!-- Generator: Adobe Illustrator 25.3.1, SVG Export Plug-In . SVG Version: 6.00 Build 0)  -->
<svg version="1.1" id="Layer_1" xmlns="http://www.w3.org/2000/svg" xmlns:xlink="http://www.w3.org/1999/xlink" x="0px" y="0px"
	 viewBox="0 0 392.9 68.5" style="enable-background:new 0 0 392.9 68.5;" xml:space="preserve">
<style type="text/css">
	.st0{fill:#FFFFFF;}
</style>
<g>
	<rect x="27.9" y="54" class="st0" width="12.3" height="5.2"/>
	<g id="新文字">
		<g>
			<path class="st0" d="M38.5,56c-0.2,0-0.3,0.1-0.4,0.2c-0.1,0.1-0.2,0.2-0.2,0.4c0,0.3,0.2,0.6,0.6,0.6c0.3,0,0.6-0.3,0.6-0.6
				c0-0.1-0.1-0.3-0.2-0.4C38.8,56.1,38.6,56,38.5,56z"/>
			<path class="st0" d="M33.2,56.1c-0.2,0-0.3,0.2-0.3,0.3c-0.3,0.2-0.4,0.5-0.3,0.7c0,0.3,0.1,0.6,0.2,0.9c0.1,0.2,0.3,0.3,0.5,0.3
				s0.4-0.1,0.5-0.3c0.1-0.3,0.2-0.6,0.2-0.8c0-0.3-0.1-0.6-0.2-0.8C33.7,56.1,33.5,56,33.2,56.1z"/>
			<path class="st0" d="M36,56.1c-0.2,0-0.4,0.1-0.5,0.3c-0.2,0.2-0.3,0.5-0.2,0.7c0,0.3,0.1,0.6,0.2,0.9c0.1,0.2,0.3,0.3,0.5,0.3
				s0.4-0.1,0.5-0.3c0.1-0.3,0.2-0.6,0.2-0.8c0-0.3-0.1-0.6-0.2-0.8C36.4,56.2,36.2,56.1,36,56.1z"/>
			<path class="st0" d="M46.4,47.9c0.2-0.6,0-1.2-0.3-1.7l-2.4-4.1H18.5c-2,0.1-3.9-0.8-4.9-2.5c-0.9-1.8-0.7-3.9,0.4-5.5L29.6,6.9
				C14.5,9.6,4.4,24,7.1,39.2c0.6,3.3,1.7,6.4,3.4,9.3h34.2C45.3,48.6,45.9,48.3,46.4,47.9z"/>
			<path class="st0" d="M30.2,38.3h8.7c0.6,0.1,1.2-0.1,1.7-0.6c0.2-0.6,0-1.2-0.3-1.7l-0.4-0.7L36,28.5c-0.4-0.7-0.9-1.2-1.3-1.2
				c-0.4,0-0.9,0.4-1.3,1.2L29.1,36c-0.4,0.5-0.5,1.1-0.4,1.7C28.9,38.2,29.6,38.4,30.2,38.3z"/>
			<path class="st0" d="M44,8.1c-3-1.1-6.2-1.7-9.5-1.7h-0.3L17.1,36c-0.4,0.5-0.5,1.1-0.4,1.7c0.2,0.3,0.9,0.6,1.7,0.6h4.7l2.4-4.2
				l10.2-17.6c0.9-1.8,2.6-2.9,4.6-3c2,0.1,3.7,1.2,4.6,3l15.8,27.3C66,29.3,58.5,13.3,44,8.1z"/>
			<path class="st0" d="M40.5,17.1c-0.4,0-0.9,0.5-1.3,1.2l-2.4,4.1l6.7,11.7l5.8,10.2c1.1,1.6,1.2,3.7,0.3,5.5
				c-1,1.6-2.9,2.5-4.9,2.4H13.2c2.2,2.6,4.8,4.8,7.7,6.4c13.4,7.5,30.4,2.8,37.9-10.6L41.7,18.4C41.3,17.7,40.9,17.1,40.5,17.1z
				 M31.6,57.1c-0.1,0.1-0.1,0.2-0.2,0.3s-0.2,0.3-0.3,0.4l-0.7,0.5h1.2v0.4h-2.1l1.1-1.3l0.3-0.3c0.1-0.1,0.1-0.2,0.2-0.2
				c0.1-0.1,0.1-0.2,0.1-0.3s-0.1-0.3-0.1-0.4C31,56.1,30.9,56,30.7,56c-0.3,0-0.5,0.2-0.5,0.6h-0.5c0.1-0.7,0.4-1,1-1
				c0.3,0,0.5,0.1,0.7,0.3s0.3,0.4,0.3,0.7C31.7,56.8,31.7,56.9,31.6,57.1z M34.3,57.1c0,0.4-0.1,0.9-0.3,1.2s-0.4,0.4-0.8,0.4
				c-0.3,0-0.6-0.2-0.8-0.4c-0.2-0.3-0.3-0.7-0.3-1.2c0-0.4,0.1-0.8,0.4-1.2c0.2-0.2,0.4-0.4,0.7-0.4s0.6,0.1,0.8,0.4
				C34.2,56.2,34.4,56.7,34.3,57.1z M37,57.1c0,0.4-0.1,0.9-0.3,1.2c-0.3,0.4-0.8,0.5-1.2,0.3c-0.1-0.1-0.2-0.2-0.3-0.3
				c-0.3-0.3-0.4-0.7-0.4-1.2c0-0.4,0.1-0.8,0.3-1.2c0.2-0.3,0.4-0.4,0.8-0.4c0.3,0,0.6,0.2,0.8,0.4C36.9,56.2,37.1,56.7,37,57.1z
				 M39.2,57.3l-1,1.5l-0.3-0.3l0.8-1h-0.2c-0.2,0-0.5-0.1-0.7-0.3s-0.3-0.4-0.3-0.7c0-0.6,0.4-1,1-1c0.3,0,0.5,0.1,0.7,0.3
				s0.3,0.4,0.3,0.7S39.4,57.1,39.2,57.3z"/>
			<path class="st0" d="M34.5,0.9c-18.4,0-33.4,15-33.4,33.4s15,33.4,33.4,33.4s33.4-15,33.4-33.4S52.9,0.9,34.5,0.9z M34.5,65.5
				c-17.2,0-31.2-14-31.2-31.2s14-31.2,31.2-31.2s31.2,14,31.2,31.2S51.7,65.5,34.5,65.5z"/>
		</g>
		<path class="st0" d="M191.3,49.5h2.8l-10.5-29.4h-2.9l-6.5,18.2h-4.1V41h3.1l-3,8.5h2.9l3-8.5h12.1L191.3,49.5z M177.1,38.2
			l5.1-14.2l5.1,14.2H177.1z"/>
		<polygon class="st0" points="88.2,20 85.4,20 85.4,49.5 108.8,49.5 108.8,46.8 88.2,46.8 		"/>
		<path class="st0" d="M122.6,49.5c-5.2,0-9.4-4.2-9.4-9.4v-2.7c0-5.2,4.2-9.4,9.4-9.4s9.4,4.2,9.4,9.4v2.7
			C132,45.3,127.8,49.5,122.6,49.5z M122.6,30.8c-3.7,0-6.6,3-6.6,6.6v2.7c0,3.7,3,6.6,6.6,6.6s6.6-3,6.6-6.6l0,0v-2.7
			C129.3,33.8,126.3,30.8,122.6,30.8z"/>
		<path class="st0" d="M148.3,28.1c-5.2,0-9.4,4.2-9.4,9.4v2.7c0,5.2,4.2,9.4,9.4,9.4h6.6v0.9c0,1.8-1.4,3.2-3.2,3.2h-11.1v2.7h11.1
			c3.3,0,5.9-2.6,5.9-5.9V28.1H148.3z M148.3,46.8c-3.7,0-6.6-3-6.6-6.6v-2.7c0-3.7,3-6.6,6.6-6.6h6.6v15.9H148.3z"/>
		<rect x="273.1" y="28.1" class="st0" width="2.7" height="21.4"/>
		<rect x="273.1" y="20" class="st0" width="2.7" height="3.9"/>
		<path class="st0" d="M248.4,30.8h10.1c1.8,0,3.2,1.4,3.2,3.2v15.5h2.7V34c0-3.3-2.6-5.9-5.9-5.9h-10.1V20h-2.7v29.4h2.7
			L248.4,30.8z"/>
		<path class="st0" d="M385.5,49.5h-11v-2.7h11c2,0,3.6-1.6,3.6-3.6s-1.6-3.6-3.6-3.6h-6.8c-3.1-0.1-5.6-2.8-5.5-5.9
			c0.1-3,2.5-5.3,5.5-5.5h11.8v2.7h-11.8c-1.7,0-3,1.3-3,3s1.3,3,3,3h6.8c3.5,0,6.4,2.8,6.4,6.3C391.8,46.7,389,49.5,385.5,49.5
			L385.5,49.5z"/>
		<path class="st0" d="M321.4,49.5h-11.3c-3.3,0-5.9-2.6-5.9-5.9v-9.1c0-3.5,2.8-6.3,6.4-6.4h6c3.5,0,6.3,2.8,6.3,6.4
			c0,3.5-2.8,6.3-6.3,6.3H307v2.8c0,1.8,1.4,3.2,3.2,3.2l0,0h11.3v2.7H321.4z M306.9,38.1h9.6c2,0,3.6-1.6,3.6-3.6s-1.6-3.6-3.6-3.6
			h-6c-2,0-3.6,1.6-3.6,3.6V38.1z"/>
		<path class="st0" d="M295.8,49.5h-2.2c-3.3,0-5.9-2.6-5.9-5.9V21.2h2.7v22.3c0,1.8,1.4,3.2,3.2,3.2h2.2L295.8,49.5L295.8,49.5z"/>
		<rect x="284" y="28.1" class="st0" width="11.9" height="2.7"/>
		<path class="st0" d="M365.9,49.5h-2.2c-3.3,0-5.9-2.6-5.9-5.9V21.2h2.7v22.3c0,1.8,1.4,3.2,3.2,3.2h2.2L365.9,49.5L365.9,49.5z"/>
		<rect x="354.1" y="28.1" class="st0" width="11.9" height="2.7"/>
		<path class="st0" d="M204.3,49.5h-2.7V34c0-3.3,2.6-5.9,5.9-5.9h6.9v2.7h-6.9c-1.8,0-3.2,1.4-3.2,3.2V49.5z"/>
		<path class="st0" d="M229.2,49.5c-5.2,0-9.4-4.2-9.4-9.4v-2.7c0-5.2,4.2-9.4,9.4-9.4h8v2.7h-8c-3.7,0-6.6,3-6.6,6.6V40
			c0,3.7,3,6.6,6.6,6.6h8v2.7h-8V49.5z"/>
		<path class="st0" d="M338.8,49.5c-5.2,0-9.4-4.2-9.4-9.4v-2.7c0-5.2,4.2-9.4,9.4-9.4h8v2.7h-8c-3.7,0-6.7,3-6.7,6.6l0,0V40
			c0,3.7,3,6.6,6.6,6.6h8v2.7h-7.9V49.5z"/>
	</g>
	<g>
		<path d="M27.8,58.8v-0.6l0.5-0.5c0.8-0.8,1.3-1.2,1.3-1.7c0-0.3-0.2-0.6-0.6-0.6c-0.3,0-0.6,0.2-0.8,0.3l-0.3-0.7
			c0.3-0.2,0.7-0.4,1.3-0.4c0.9,0,1.4,0.5,1.4,1.2c0,0.7-0.5,1.2-1,1.7L29.1,58v0h1.5v0.7H27.8z"/>
		<path d="M34,56.8c0,1.2-0.5,2-1.5,2c-1,0-1.4-0.9-1.5-2c0-1.1,0.5-2,1.5-2C33.6,54.8,34,55.8,34,56.8z M32,56.9
			c0,0.9,0.2,1.3,0.6,1.3c0.4,0,0.5-0.4,0.5-1.3c0-0.9-0.2-1.3-0.5-1.3C32.2,55.5,32,56,32,56.9z"/>
		<path d="M37.3,56.8c0,1.2-0.5,2-1.5,2c-1,0-1.4-0.9-1.5-2c0-1.1,0.5-2,1.5-2C36.9,54.8,37.3,55.8,37.3,56.8z M35.3,56.9
			c0,0.9,0.2,1.3,0.6,1.3c0.4,0,0.5-0.4,0.5-1.3c0-0.9-0.2-1.3-0.5-1.3C35.5,55.5,35.3,56,35.3,56.9z"/>
		<path d="M38,58.1c0.1,0,0.2,0,0.4,0c0.3,0,0.6-0.1,0.8-0.2c0.3-0.2,0.4-0.4,0.5-0.7l0,0c-0.2,0.2-0.4,0.3-0.8,0.3
			c-0.7,0-1.2-0.5-1.2-1.2c0-0.8,0.6-1.4,1.5-1.4c1,0,1.5,0.8,1.5,1.7c0,0.8-0.3,1.4-0.7,1.8c-0.4,0.3-0.9,0.5-1.5,0.5
			c-0.2,0-0.3,0-0.4,0V58.1z M38.6,56.2c0,0.3,0.2,0.6,0.6,0.6c0.2,0,0.4-0.1,0.5-0.3c0-0.1,0-0.1,0-0.2c0-0.4-0.2-0.8-0.6-0.8
			C38.8,55.5,38.6,55.8,38.6,56.2z"/>
	</g>
</g>
</svg>
