<?xml version="1.0" encoding="utf-8"?>
<!-- Generator: Adobe Illustrator 25.1.0, SVG Export Plug-In . SVG Version: 6.00 Build 0)  -->
<svg version="1.1" id="Layer_1" xmlns="http://www.w3.org/2000/svg" xmlns:xlink="http://www.w3.org/1999/xlink" x="0px" y="0px"
	 viewBox="0 0 505.2 71.4" style="enable-background:new 0 0 505.2 71.4;" xml:space="preserve">
<style type="text/css">
	.st0{fill:#020202;}
</style>
<path class="st0" d="M117.9,18c4.9,4.9,7.3,10.7,7.3,17.6s-2.4,12.8-7.3,17.8c-4.9,4.9-10.7,7.3-17.6,7.3s-12.8-2.4-17.8-7.3
	c-4.9-4.9-7.3-10.8-7.3-17.8c0-6.9,2.4-12.7,7.3-17.6c4.9-4.9,10.8-7.3,17.8-7.3C107,10.6,113,13,117.9,18z M100.2,17.8
	c-4.9,0-9.2,1.8-12.6,5.2s-5.2,7.7-5.2,12.6s1.8,9.2,5.2,12.6c3.4,3.4,7.7,5.3,12.6,5.3s9.1-1.8,12.6-5.3s5.3-7.7,5.3-12.6
	s-1.8-9.1-5.3-12.6C109.3,19.6,105.1,17.8,100.2,17.8z"/>
<path class="st0" d="M138,33.6v25.6h-7.2V22h7.2v1.5c2.9-1.9,6.3-2.9,9.9-2.9v7.2c-3.1,0-5.8,1.1-8.1,3.3
	C139.2,31.9,138.5,32.7,138,33.6z"/>
<path class="st0" d="M180.8,57.1c-3.3,2.4-7.2,3.5-11.5,3.5c-5.5,0-10.2-1.9-14.1-5.8c-3.9-3.9-5.8-8.6-5.8-14.1s1.9-10.2,5.8-14.1
	c3.9-3.9,8.6-5.8,14.1-5.8c4.3,0,8.1,1.1,11.5,3.5V12h7.2v47.1h-7.2V57.1z M180.8,46.5V34.7c-0.6-1.1-1.4-2.1-2.4-3.1
	c-2.5-2.5-5.5-3.8-9.1-3.8c-3.5,0-6.5,1.3-9.1,3.8c-2.5,2.5-3.8,5.5-3.8,9.1c0,3.5,1.3,6.5,3.8,9.1c2.5,2.5,5.5,3.8,9.1,3.8
	c3.5,0,6.5-1.3,9.1-3.8C179.5,48.8,180.3,47.7,180.8,46.5z"/>
<path class="st0" d="M230.1,29.2l-5.2,5.2l-17.5,17.5c1.9,1,3.9,1.6,6.2,1.6c3.9,0,7.3-1.6,10.1-4.9l5.5,4.4
	c-4.2,5.2-9.4,7.7-15.7,7.7c-5.5,0-10.2-1.9-14.1-5.8c-3.9-3.9-5.8-8.6-5.8-14.1s1.9-10.2,5.8-14.1c3.9-3.9,8.6-5.8,14.1-5.8
	s10.2,1.9,14.1,5.8C228.7,27.4,229.5,28.3,230.1,29.2z M219.9,29.4c-1.9-1-3.9-1.6-6.2-1.6c-3.5,0-6.5,1.3-9.1,3.8
	c-2.5,2.5-3.8,5.5-3.8,9.1c0,2.3,0.5,4.4,1.6,6.2L219.9,29.4z"/>
<path class="st0" d="M243.7,33.6v25.6h-7.2V22h7.2v1.5c2.9-1.9,6.3-2.9,9.9-2.9v7.2c-3.1,0-5.8,1.1-8.1,3.3
	C244.8,31.9,244.2,32.7,243.7,33.6z"/>
<path class="st0" d="M293.1,47.6c-1,0.1-1.9,0.3-3,0.3h-10.7v11.5h-7.2V12h17.9c4.9,0,9.1,1.8,12.6,5.2s5.3,7.7,5.3,12.6
	s-1.8,9.2-5.2,12.6c-1,1-2,1.8-3,2.5l7.2,14.2h-7.9L293.1,47.6z M279.3,40.6H290c2.9,0,5.4-1,7.6-3.1c2.1-2.1,3.1-4.7,3.1-7.6
	s-1-5.4-3.1-7.6c-2.1-2.1-4.7-3.1-7.6-3.1h-10.7V40.6z"/>
<path class="st0" d="M348.7,29.2l-5.2,5.2L326,51.9c1.9,1,3.9,1.6,6.2,1.6c3.9,0,7.3-1.6,10.1-4.9l5.5,4.4
	c-4.2,5.2-9.4,7.7-15.7,7.7c-5.5,0-10.2-1.9-14.1-5.8s-5.8-8.6-5.8-14.1s1.9-10.2,5.8-14.1s8.6-5.8,14.1-5.8s10.2,1.9,14.1,5.8
	C347.2,27.4,348,28.3,348.7,29.2z M338.4,29.4c-1.9-1-3.9-1.6-6.2-1.6c-3.5,0-6.6,1.3-9.1,3.8s-3.8,5.5-3.8,9.1
	c0,2.3,0.5,4.4,1.6,6.2L338.4,29.4z"/>
<path class="st0" d="M362.2,33.6v25.6H355V22h7.2v1.5c2.9-1.9,6.3-2.9,9.9-2.9c5.2,0,9.6,1.8,13.1,5.4c3.7,3.7,5.4,7.9,5.4,13.1v20
	h-7.2V39.2c0-3.1-1.1-5.8-3.4-8.1s-4.9-3.4-8.1-3.4c-3.1,0-5.8,1.1-8.1,3.3C363.3,31.9,362.7,32.7,362.2,33.6z"/>
<path class="st0" d="M429.2,26.5c3.9,3.9,5.8,8.6,5.8,14.1s-1.9,10.2-5.8,14.1s-8.6,5.8-14.1,5.8s-10.2-1.9-14.1-5.8
	s-5.8-8.6-5.8-14.1s1.9-10.2,5.8-14.1s8.6-5.8,14.1-5.8S425.3,22.6,429.2,26.5z M415.1,27.8c-3.5,0-6.5,1.3-9.1,3.8
	c-2.5,2.5-3.8,5.5-3.8,9.1c0,3.5,1.3,6.5,3.8,9.1c2.5,2.5,5.5,3.8,9.1,3.8c3.5,0,6.5-1.3,9.1-3.8c2.5-2.5,3.8-5.5,3.8-9.1
	c0-3.5-1.3-6.5-3.8-9.1C421.6,29,418.6,27.8,415.1,27.8z"/>
<path class="st0" d="M442.9,22.1l8.7,24.3l8.6-24.3h7.7l-13.5,37.2h-5.7l-13.5-37.2C435.2,22.1,442.9,22.1,442.9,22.1z"/>
<path class="st0" d="M504.3,29.2l-5.2,5.2l-17.5,17.5c1.9,1,3.9,1.6,6.2,1.6c3.9,0,7.3-1.6,10.1-4.9l5.5,4.4
	c-4.2,5.2-9.4,7.7-15.7,7.7c-5.5,0-10.2-1.9-14.1-5.8s-5.8-8.6-5.8-14.1s1.9-10.2,5.8-14.1s8.6-5.8,14.1-5.8s10.2,1.9,14.1,5.8
	C502.9,27.4,503.6,28.3,504.3,29.2z M494.1,29.4c-1.9-1-3.9-1.6-6.2-1.6c-3.5,0-6.5,1.3-9.1,3.8c-2.5,2.5-3.8,5.5-3.8,9.1
	c0,2.3,0.5,4.4,1.6,6.2L494.1,29.4z"/>
<path class="st0" d="M64.8,45.4c0,6.8,0.1,13.8-0.1,20.6c0,1.6-0.7,3.8-1.8,4.6c-1.1,0.6-3.5,0-4.8-0.8c-7.9-4.7-15.6-9.6-23.4-14.5
	c-1.7-1.1-3.1-2.2-2.6-4.4c0.5-2.2,2.3-2.4,4.2-2.6c4.2-0.7,6.9-4.1,6.7-8.1s-3.4-7.2-7.7-7.3c-3.2-0.1-6.6,0.1-9.8-0.1
	c-2.4-0.1-3.1,0.7-3.1,3.1c0.1,10.1,0,20.1,0,30.2c0,4.7-0.8,5.5-5.6,5.5c-4,0-7.9,0-12,0c-3.6,0-4.8-1.2-4.8-4.9
	c0-14.1-0.1-28.3,0.1-42.4c0-1.6,1.2-3.7,2.5-4.7c9-6.2,18.1-12.2,27.2-18.5c1.9-1.3,3.6-1.3,5.5,0c9,6.1,18,12.2,27,18.2
	c1.9,1.3,2.6,3,2.6,5.3C64.8,31.4,64.8,38.5,64.8,45.4z M57.5,61.5c0.2-0.8,0.4-1.2,0.4-1.6c0-11.3,0.1-22.5-0.1-33.7
	c0-1.1-1-2.4-1.9-3c-7.1-4.9-14.4-9.7-21.4-14.6c-1.4-1-2.5-1.1-4,0C23.4,13.6,16.1,18.2,9,23.3c-1.1,0.7-2,2.5-2,3.8
	C6.9,38.6,7,50.2,6.9,61.7c0,2.3,0.7,3.4,3,3.1c0.8-0.1,1.6-0.1,2.4,0c2.8,0.4,3.6-0.8,3.6-3.6c-0.1-10.2-0.1-20.5,0-30.7
	c0-3.6,0.8-4.4,4.4-4.4c5,0,10.2-0.1,15.2,0c6.1,0.1,10.5,3.1,13.1,8.7c2.4,5.3,1.1,11.6-3,15.8c-0.6,0.7-1.3,1.4-2,2.3
	C48.3,55.7,52.7,58.5,57.5,61.5z"/>
</svg>
