<svg width="861" height="205" viewBox="0 0 861 205" fill="none" xmlns="http://www.w3.org/2000/svg">
<path d="M71.6723 121.151C66.5859 126.237 60.1122 129.011 52.7137 129.011C45.7776 129.011 38.8415 126.237 33.755 121.151C28.6686 116.064 25.8942 109.59 25.8942 102.192C25.8942 95.2558 28.6686 88.3197 33.755 83.2332C38.8415 78.1468 45.3152 75.3723 52.7137 75.3723C59.6498 75.3723 66.5859 78.1468 71.6723 83.2332L81.3829 92.9437L145.657 28.6693C132.71 21.2708 117.913 16.6467 101.729 16.6467C54.5633 16.6467 16.1836 55.0264 16.1836 102.192C16.1836 149.357 54.5633 187.737 101.729 187.737C117.913 187.737 132.71 183.575 145.657 175.714L81.3829 111.44L71.6723 121.151Z" fill="#1F91B3"/>
<path d="M128.55 121.15C126.238 123.462 123.463 125.312 120.689 126.699L116.527 128.549L156.757 168.778C163.693 162.767 169.704 155.831 174.791 148.432L138.26 111.902L128.55 121.15Z" fill="#1F91B3"/>
<path d="M180.8 135.947C184.961 125.774 187.736 114.214 187.736 102.192C187.736 90.1691 185.424 79.0714 180.8 68.436L147.044 102.192L180.8 135.947Z" fill="#1F91B3"/>
<path d="M120.689 78.1466C123.926 79.5338 126.238 81.3834 128.55 83.6955L138.26 93.406L174.791 56.8759C169.704 49.015 163.693 42.0789 156.757 36.53L116.527 76.7594L120.689 78.1466Z" fill="#1F91B3"/>
<path d="M109.59 88.782C105.891 88.782 102.654 90.1692 99.8793 92.9436C94.7928 98.0301 94.7928 106.816 99.8793 112.365C102.654 115.139 105.891 116.526 109.59 116.526C113.289 116.526 116.526 115.139 119.3 112.365L129.011 102.654L119.3 92.9436C116.988 90.1692 113.289 88.782 109.59 88.782Z" fill="#1F91B3"/>
<path d="M52.7149 88.782C49.0156 88.782 45.7787 90.1692 43.0043 92.9436C37.9178 98.0301 37.9178 106.816 43.0043 112.365C45.7787 115.139 49.0156 116.526 52.7149 116.526C56.4141 116.526 59.6509 115.139 62.4253 112.365L72.1359 102.654L62.4253 92.9436C60.1133 90.1692 56.4141 88.782 52.7149 88.782Z" fill="#1F91B3"/>
<path d="M102.192 204.384C45.7782 204.384 0 158.605 0 102.192C0 45.7782 45.7782 0 102.192 0C158.605 0 204.384 45.7782 204.384 102.192C204.384 158.605 158.605 204.384 102.192 204.384ZM102.192 6.47368C49.4775 6.47368 6.47373 49.4775 6.47373 102.192C6.47373 154.906 49.4775 197.91 102.192 197.91C154.906 197.91 197.91 154.906 197.91 102.192C197.91 49.4775 154.906 6.47368 102.192 6.47368Z" fill="#1F91B3"/>
<path d="M260.335 43.9285H280.681V138.259H326.922V156.756H259.873V43.9285H260.335Z" fill="#595757"/>
<path d="M356.054 152.132C350.043 148.432 344.956 143.346 341.719 136.872C338.482 130.398 336.633 123.462 336.633 116.064C336.633 108.665 338.482 101.267 341.719 94.7931C344.956 88.3195 349.58 83.233 356.054 79.5337C362.065 75.8345 369.464 73.9849 378.249 73.9849C386.573 73.9849 393.971 75.8345 400.445 79.5337C406.456 83.233 411.543 88.3195 414.779 94.7931C418.016 101.267 419.866 108.203 419.866 116.064C419.866 123.462 418.016 130.861 414.779 136.872C411.543 143.346 406.919 148.432 400.445 152.132C394.434 155.831 387.035 157.68 378.249 157.68C369.464 157.68 362.065 155.831 356.054 152.132ZM393.509 134.56C397.208 129.936 399.058 123.925 399.058 116.064C399.058 108.203 397.208 102.192 393.509 97.5676C389.809 92.9435 384.723 90.6315 378.249 90.6315C371.776 90.6315 366.689 92.9435 362.99 97.5676C359.291 102.192 357.441 108.203 357.441 116.064C357.441 123.462 359.291 129.936 362.99 134.56C366.689 139.184 371.776 141.496 378.249 141.496C384.723 141.496 389.809 139.184 393.509 134.56Z" fill="#595757"/>
<path d="M441.136 190.511C434.2 186.35 430.963 180.801 430.963 173.865C430.963 166.004 435.124 159.992 443.91 154.906C439.286 152.132 436.974 148.432 436.974 143.346C436.974 141.034 437.899 138.722 439.286 136.872C440.673 135.022 442.523 133.173 445.298 132.248C441.136 129.474 438.361 125.774 436.049 121.15C433.737 116.526 432.812 111.902 432.812 106.353C432.812 100.342 434.2 95.2556 436.512 90.1691C439.286 85.0826 442.985 81.3834 447.61 78.6089C452.696 75.8345 458.245 74.4473 465.181 74.4473C472.117 74.4473 478.128 76.2969 483.677 79.5337C485.527 78.6089 487.839 77.6841 491.076 77.2217C494.313 76.2969 497.549 76.2969 500.786 76.2969H505.873L504.485 88.7818H497.087C495.237 88.7818 493.85 88.7818 492.463 88.7818C495.7 93.8683 497.087 99.4172 497.087 106.353C497.087 112.365 495.7 117.451 493.388 122.538C491.076 127.624 486.914 131.323 482.29 134.098C477.204 136.872 471.655 138.259 464.718 138.259C462.406 138.259 459.632 137.797 456.395 137.334C455.008 137.797 454.546 138.722 454.546 140.109C454.546 141.496 455.47 142.421 456.858 143.346C458.707 144.271 461.482 144.733 465.181 145.195L479.053 147.045C497.549 149.357 506.797 157.218 506.797 170.165C506.797 178.489 503.561 184.962 496.624 189.586C489.688 194.21 479.978 196.985 467.955 196.985C457.32 196.522 448.072 194.673 441.136 190.511ZM489.688 171.553C489.688 168.778 488.301 166.466 485.989 165.079C483.677 163.692 479.516 162.304 474.429 161.842L456.858 159.068C450.846 161.38 447.61 165.079 447.61 170.165C447.61 173.865 449.459 177.101 453.158 178.951C456.858 180.801 462.406 181.725 468.88 181.725C482.752 181.725 489.688 178.026 489.688 171.553ZM476.279 118.838C478.591 115.601 479.978 111.44 479.978 106.353C479.978 100.804 478.591 96.6428 476.279 93.8683C473.967 90.6315 470.267 89.2443 465.643 89.2443C461.019 89.2443 457.32 90.6315 455.008 93.8683C452.696 97.1052 451.309 101.267 451.309 106.353C451.309 111.902 452.696 116.064 455.008 118.838C457.32 122.075 461.019 123.462 465.643 123.462C469.805 123.462 473.504 122.075 476.279 118.838Z" fill="#595757"/>
<path d="M525.757 43.9285H546.103V156.293H525.757V43.9285ZM547.952 96.6428L589.569 43.4661H613.614L571.535 96.6428L613.614 156.293H589.569L547.952 96.6428Z" fill="#595757"/>
<path d="M630.724 75.8345H649.22L649.682 81.3834C656.618 76.7593 663.555 74.4473 671.415 74.4473C681.588 74.4473 688.987 77.6841 694.073 84.6202C699.16 91.0939 701.934 100.342 701.934 111.44V156.293H682.051V113.289C682.051 105.891 680.664 100.342 678.352 96.6428C676.04 92.9435 671.878 91.0939 666.329 91.0939C660.318 91.0939 655.231 93.4059 651.07 98.03V156.293H631.186V75.8345H630.724Z" fill="#595757"/>
<path d="M738.463 152.132C732.452 148.432 727.365 143.346 724.128 136.872C720.892 130.398 719.042 123.462 719.042 116.064C719.042 108.665 720.892 101.267 724.128 94.7931C727.365 88.3195 731.989 83.233 738.463 79.5337C744.474 75.8345 751.873 73.9849 760.659 73.9849C768.982 73.9849 776.38 75.8345 782.854 79.5337C788.865 83.233 793.952 88.3195 797.189 94.7931C800.425 101.267 802.275 108.203 802.275 116.064C802.275 123.462 800.425 130.861 797.189 136.872C793.952 143.346 789.328 148.432 782.854 152.132C776.843 155.831 769.444 157.68 760.659 157.68C751.873 157.68 744.474 155.831 738.463 152.132ZM775.918 134.56C779.617 129.936 781.467 123.925 781.467 116.064C781.467 108.203 779.617 102.192 775.918 97.5676C772.219 92.9435 767.132 90.6315 760.659 90.6315C754.185 90.6315 749.098 92.9435 745.399 97.5676C741.7 102.192 739.85 108.203 739.85 116.064C739.85 123.462 741.7 129.936 745.399 134.56C749.098 139.184 754.185 141.496 760.659 141.496C767.132 141.496 772.219 139.184 775.918 134.56Z" fill="#595757"/>
<path d="M828.632 151.669C824.932 147.507 823.083 142.421 823.083 136.872V92.481H811.522L813.372 76.2968H823.083V58.263L842.966 55.9509V75.8344H860.538V92.0186H842.966V128.549C842.966 132.71 843.428 135.947 843.891 137.334C844.353 139.184 845.278 140.109 847.128 140.571C848.515 141.034 851.289 141.496 855.451 141.496H861L859.15 157.68H844.816C837.88 157.68 832.331 155.831 828.632 151.669Z" fill="#595757"/>
</svg>
