<?xml version="1.0" encoding="utf-8"?>
<!-- Generator: Adobe Illustrator 25.1.0, SVG Export Plug-In . SVG Version: 6.00 Build 0)  -->
<svg version="1.1" id="Layer_1" xmlns="http://www.w3.org/2000/svg" xmlns:xlink="http://www.w3.org/1999/xlink" x="0px" y="0px"
	 viewBox="0 0 169 40" style="enable-background:new 0 0 169 40;" xml:space="preserve">
<style type="text/css">
	.st0{fill:#0095B6;}
</style>
<g>
	<path class="st0" d="M14,23.6c-1,1-2.3,1.5-3.7,1.5s-2.7-0.5-3.7-1.5s-1.5-2.3-1.5-3.7c0-1.4,0.5-2.7,1.5-3.7s2.3-1.5,3.7-1.5
		s2.7,0.5,3.7,1.5l1.9,1.9L28.5,5.5c-2.5-1.4-5.4-2.4-8.6-2.4c-9.2,0-16.7,7.5-16.7,16.7s7.5,16.7,16.7,16.7c3.2,0,6.1-0.8,8.6-2.4
		L15.9,21.7L14,23.6z"/>
	<path class="st0" d="M25.2,23.6c-0.5,0.5-1,0.8-1.5,1.1l-0.8,0.4l7.9,7.9c1.4-1.2,2.5-2.5,3.5-4l-7.1-7.1L25.2,23.6z"/>
	<path class="st0" d="M35.4,26.5c0.8-2,1.4-4.3,1.4-6.6c0-2.4-0.5-4.5-1.4-6.6l-6.6,6.6L35.4,26.5z"/>
	<path class="st0" d="M23.6,15.2c0.6,0.3,1.1,0.6,1.5,1.1l1.9,1.9l7.1-7.1c-1-1.5-2.2-2.9-3.5-4L22.7,15L23.6,15.2z"/>
	<path class="st0" d="M21.4,17.3c-0.7,0-1.4,0.3-1.9,0.8c-1,1-1,2.7,0,3.8c0.5,0.5,1.2,0.8,1.9,0.8c0.7,0,1.4-0.3,1.9-0.8l1.9-1.9
		l-1.9-1.9C22.9,17.6,22.2,17.3,21.4,17.3z"/>
	<path class="st0" d="M10.3,17.3c-0.7,0-1.4,0.3-1.9,0.8c-1,1-1,2.7,0,3.8c0.5,0.5,1.2,0.8,1.9,0.8s1.4-0.3,1.9-0.8l1.9-1.9
		l-1.9-1.9C11.8,17.6,11,17.3,10.3,17.3z"/>
	<path class="st0" d="M20,40C9,40,0,31,0,20S9,0,20,0s20,9,20,20S31,40,20,40z M20,1.2C9.7,1.2,1.3,9.6,1.3,19.9S9.7,38.6,20,38.6
		s18.7-8.4,18.7-18.7S30.3,1.2,20,1.2z"/>
	<path class="st0" d="M51,8.5h4V27h9v3.6H50.9L51,8.5L51,8.5z"/>
	<path class="st0" d="M69.7,29.7c-1.2-0.7-2.2-1.7-2.8-3c-0.6-1.3-1-2.6-1-4.1c0-1.4,0.4-2.9,1-4.2s1.5-2.3,2.8-3
		c1.2-0.7,2.6-1.1,4.3-1.1c1.6,0,3.1,0.4,4.3,1.1c1.2,0.7,2.2,1.7,2.8,3c0.6,1.3,1,2.6,1,4.2c0,1.4-0.4,2.9-1,4.1
		c-0.6,1.3-1.5,2.3-2.8,3c-1.2,0.7-2.6,1.1-4.3,1.1C72.3,30.8,70.9,30.4,69.7,29.7z M77,26.2c0.7-0.9,1.1-2.1,1.1-3.6
		S77.7,19.9,77,19s-1.7-1.4-3-1.4s-2.3,0.5-3,1.4s-1.1,2.1-1.1,3.6c0,1.4,0.4,2.7,1.1,3.6s1.7,1.4,3,1.4S76.3,27.1,77,26.2z"/>
	<path class="st0" d="M86.3,37.2c-1.4-0.8-2-1.9-2-3.3c0-1.5,0.8-2.7,2.5-3.7C86,29.7,85.5,29,85.5,28c0-0.5,0.2-0.9,0.5-1.3
		s0.6-0.7,1.2-0.9c-0.8-0.5-1.4-1.3-1.8-2.2c-0.5-0.9-0.6-1.8-0.6-2.9c0-1.2,0.3-2.2,0.7-3.2c0.5-1,1.3-1.7,2.2-2.3
		c1-0.5,2.1-0.8,3.4-0.8c1.4,0,2.5,0.4,3.6,1c0.4-0.2,0.8-0.4,1.4-0.5c0.6-0.2,1.3-0.2,1.9-0.2h1l-0.3,2.4h-1.4c-0.4,0-0.6,0-0.9,0
		c0.6,1,0.9,2.1,0.9,3.4c0,1.2-0.3,2.2-0.7,3.2c-0.5,1-1.3,1.7-2.2,2.3c-1,0.5-2.1,0.8-3.4,0.8c-0.5,0-1-0.1-1.6-0.2
		C89,26.9,89,27.1,89,27.3c0,0.3,0.2,0.5,0.5,0.6c0.4,0.2,0.9,0.3,1.6,0.4l2.7,0.4c3.6,0.5,5.4,2,5.4,4.5c0,1.6-0.6,2.9-2,3.8
		c-1.4,0.9-3.3,1.4-5.6,1.4C89.5,38.5,87.7,38,86.3,37.2z M95.8,33.5c0-0.5-0.3-1-0.7-1.3c-0.5-0.3-1.3-0.5-2.3-0.6L89.4,31
		c-1.2,0.5-1.8,1.2-1.8,2.2c0,0.7,0.4,1.4,1.1,1.7c0.7,0.4,1.8,0.5,3.1,0.5C94.5,35.5,95.8,34.8,95.8,33.5z M93.2,23.2
		c0.5-0.6,0.7-1.4,0.7-2.4c0-1.1-0.3-1.9-0.7-2.4c-0.5-0.6-1.2-0.9-2.1-0.9s-1.6,0.3-2.1,0.9s-0.7,1.4-0.7,2.4
		c0,1.1,0.3,1.9,0.7,2.4c0.5,0.6,1.2,0.9,2.1,0.9C91.9,24.1,92.7,23.8,93.2,23.2z"/>
	<path class="st0" d="M102.9,8.5h4v22h-4V8.5z M107.2,18.8l8.1-10.4h4.7l-8.2,10.4l8.2,11.7h-4.7L107.2,18.8z"/>
	<path class="st0" d="M123.4,14.8h3.6l0.1,1.1c1.4-0.9,2.7-1.4,4.3-1.4c2,0,3.4,0.6,4.4,2c1,1.3,1.5,3.1,1.5,5.2v8.8h-3.9v-8.4
		c0-1.4-0.3-2.5-0.7-3.3c-0.5-0.7-1.3-1.1-2.4-1.1c-1.2,0-2.2,0.5-3,1.4v11.4h-3.9V14.8L123.4,14.8z"/>
	<path class="st0" d="M144.5,29.7c-1.2-0.7-2.2-1.7-2.8-3s-1-2.6-1-4.1c0-1.4,0.4-2.9,1-4.2s1.5-2.3,2.8-3c1.2-0.7,2.6-1.1,4.3-1.1
		c1.6,0,3.1,0.4,4.3,1.1s2.2,1.7,2.8,3s1,2.6,1,4.2c0,1.4-0.4,2.9-1,4.1c-0.6,1.3-1.5,2.3-2.8,3c-1.2,0.7-2.6,1.1-4.3,1.1
		C147.1,30.8,145.7,30.4,144.5,29.7z M151.9,26.2c0.7-0.9,1.1-2.1,1.1-3.6s-0.4-2.7-1.1-3.6c-0.7-0.9-1.7-1.4-3-1.4s-2.3,0.5-3,1.4
		s-1.1,2.1-1.1,3.6c0,1.4,0.4,2.7,1.1,3.6c0.7,0.9,1.7,1.4,3,1.4S151.1,27.1,151.9,26.2z"/>
	<path class="st0" d="M162.2,29.6c-0.7-0.8-1.1-1.8-1.1-2.9V18h-2.3l0.4-3.2h1.9v-3.4L165,11v3.9h3.4V18H165v7.1
		c0,0.8,0.1,1.4,0.2,1.7c0.1,0.4,0.3,0.5,0.6,0.6c0.4,0.1,0.8,0.2,1.6,0.2h1.1l-0.4,3.2h-2.8C164,30.8,162.9,30.4,162.2,29.6z"/>
</g>
</svg>
