<svg width="430" height="127" viewBox="0 0 430 127" fill="none" xmlns="http://www.w3.org/2000/svg">
<g clip-path="url(#clip0)">
<path d="M42.6952 84.1295C47.6071 89.0413 50 94.8348 50 101.762C50 108.689 47.6071 114.608 42.6952 119.52C37.7834 124.432 31.9899 126.825 25.063 126.825C18.136 126.825 12.2166 124.432 7.30479 119.52C2.39295 114.608 0 108.689 0 101.762C0 94.8348 2.39295 89.0413 7.30479 84.1295C12.2166 79.2177 18.136 76.8247 25.063 76.8247C31.864 76.8247 37.7834 79.2177 42.6952 84.1295ZM25.063 84.0035C20.1511 84.0035 15.869 85.7668 12.4685 89.1673C9.06801 92.5678 7.30479 96.8499 7.30479 101.762C7.30479 106.674 9.06801 110.956 12.4685 114.356C15.869 117.757 20.1511 119.646 25.063 119.646C29.9748 119.646 34.131 117.883 37.6574 114.356C41.1839 110.83 42.9471 106.674 42.9471 101.762C42.9471 96.8499 41.1839 92.6937 37.6574 89.1673C34.131 85.7668 29.9748 84.0035 25.063 84.0035Z" fill="white"/>
<path d="M62.8468 99.7467V125.313H55.668V88.1598H62.8468V89.6711C65.7435 87.782 69.144 86.7744 72.7964 86.7744V93.9533C69.6478 93.9533 67.003 95.0868 64.736 97.2278C63.9803 98.1094 63.3506 98.8651 62.8468 99.7467Z" fill="white"/>
<path d="M105.668 123.298C102.393 125.691 98.489 126.825 94.2069 126.825C88.6653 126.825 84.0053 124.935 80.1011 121.031C76.1968 117.127 74.3076 112.467 74.3076 106.925C74.3076 101.384 76.1968 96.7238 80.1011 92.8195C84.0053 88.9153 88.6653 87.0261 94.2069 87.0261C98.489 87.0261 102.267 88.1596 105.668 90.5525V78.21H112.847V125.313H105.668V123.298ZM105.668 112.719V100.88C105.038 99.7465 104.282 98.7389 103.275 97.7314C100.756 95.2125 97.7333 93.953 94.2069 93.953C90.6804 93.953 87.6577 95.2125 85.1388 97.7314C82.62 100.25 81.3605 103.273 81.3605 106.799C81.3605 110.326 82.62 113.349 85.1388 115.867C87.6577 118.386 90.6804 119.646 94.2069 119.646C97.7333 119.646 100.756 118.386 103.275 115.867C104.282 114.986 105.164 113.852 105.668 112.719Z" fill="white"/>
<path d="M154.912 95.3387L149.748 100.502L132.242 118.009C134.131 119.016 136.146 119.646 138.413 119.646C142.317 119.646 145.718 118.009 148.488 114.734L154.03 119.142C149.874 124.306 144.584 126.825 138.287 126.825C132.745 126.825 128.085 124.936 124.181 121.031C120.277 117.127 118.388 112.467 118.388 106.926C118.388 101.384 120.277 96.7241 124.181 92.8198C128.085 88.9155 132.745 87.0264 138.287 87.0264C143.829 87.0264 148.488 88.9155 152.393 92.8198C153.526 93.5755 154.282 94.4571 154.912 95.3387ZM144.71 95.5906C142.821 94.583 140.806 93.9533 138.539 93.9533C135.012 93.9533 131.99 95.2128 129.471 97.7317C126.952 100.251 125.692 103.273 125.692 106.8C125.692 109.067 126.196 111.208 127.33 112.971L144.71 95.5906Z" fill="white"/>
<path d="M168.514 99.7467V125.313H161.335V88.1598H168.514V89.6711C171.411 87.782 174.811 86.7744 178.463 86.7744V93.9533C175.315 93.9533 172.67 95.0868 170.403 97.2278C169.647 98.1094 169.018 98.8651 168.514 99.7467Z" fill="white"/>
<path d="M217.884 113.726C216.877 113.852 215.995 113.978 214.862 113.978H204.156V125.439H196.978V78.21H214.862C219.774 78.21 223.93 79.9732 227.456 83.3737C230.983 86.7742 232.746 91.0563 232.746 95.9681C232.746 100.88 230.983 105.162 227.582 108.563C226.575 109.57 225.567 110.326 224.559 111.081L231.738 125.313H223.804L217.884 113.726ZM204.156 106.799H214.862C217.758 106.799 220.277 105.792 222.418 103.651C224.559 101.51 225.567 98.9908 225.567 96.0941C225.567 93.1974 224.559 90.6785 222.418 88.5374C220.277 86.3964 217.758 85.3888 214.862 85.3888H204.156V106.799Z" fill="white"/>
<path d="M273.551 95.3387L268.388 100.502L250.881 118.009C252.77 119.016 254.786 119.646 257.053 119.646C260.957 119.646 264.357 118.009 267.128 114.734L272.67 119.142C268.514 124.306 263.224 126.825 256.927 126.825C251.385 126.825 246.725 124.936 242.821 121.031C238.917 117.127 237.027 112.467 237.027 106.926C237.027 101.384 238.917 96.7241 242.821 92.8198C246.725 88.9155 251.385 87.0264 256.927 87.0264C262.468 87.0264 267.128 88.9155 271.032 92.8198C272.04 93.5755 272.796 94.4571 273.551 95.3387ZM263.224 95.5906C261.335 94.583 259.32 93.9533 257.053 93.9533C253.526 93.9533 250.503 95.2128 247.985 97.7317C245.466 100.251 244.206 103.273 244.206 106.8C244.206 109.067 244.71 111.208 245.843 112.971L263.224 95.5906Z" fill="white"/>
<path d="M287.027 99.7467V125.313H279.849V88.1598H287.027V89.6711C289.924 87.782 293.325 86.7744 296.977 86.7744C302.141 86.7744 306.549 88.5376 310.075 92.19C313.728 95.8424 315.491 100.125 315.491 105.288V125.313H308.312V105.414C308.312 102.266 307.179 99.6208 304.912 97.3538C302.645 95.0868 300 93.9533 296.851 93.9533C293.703 93.9533 291.058 95.0868 288.791 97.2278C288.161 98.1094 287.531 98.8651 287.027 99.7467Z" fill="white"/>
<path d="M354.03 92.6938C357.935 96.5981 359.824 101.258 359.824 106.8C359.824 112.341 357.935 117.001 354.03 120.905C350.126 124.81 345.466 126.699 339.925 126.699C334.383 126.699 329.723 124.81 325.819 120.905C321.915 117.001 320.025 112.341 320.025 106.8C320.025 101.258 321.915 96.5981 325.819 92.6938C329.723 88.7896 334.383 86.9004 339.925 86.9004C345.466 86.9004 350.126 88.7896 354.03 92.6938ZM339.925 93.9533C336.398 93.9533 333.376 95.2127 330.857 97.7316C328.338 100.251 327.078 103.273 327.078 106.8C327.078 110.326 328.338 113.349 330.857 115.868C333.376 118.387 336.398 119.646 339.925 119.646C343.451 119.646 346.474 118.387 348.993 115.868C351.512 113.349 352.771 110.326 352.771 106.8C352.771 103.273 351.512 100.251 348.993 97.7316C346.474 95.2127 343.451 93.9533 339.925 93.9533Z" fill="white"/>
<path d="M367.758 88.2856L376.448 112.593L385.012 88.2856H392.695L379.219 125.439H373.551L360.075 88.2856H367.758Z" fill="white"/>
<path d="M429.093 95.3387L423.93 100.502L406.423 118.009C408.312 119.016 410.328 119.646 412.595 119.646C416.499 119.646 419.899 118.009 422.67 114.734L428.212 119.142C424.055 124.306 418.766 126.825 412.469 126.825C406.927 126.825 402.267 124.936 398.363 121.031C394.458 117.127 392.569 112.467 392.569 106.926C392.569 101.384 394.458 96.7241 398.363 92.8198C402.267 88.9155 406.927 87.0264 412.469 87.0264C418.01 87.0264 422.67 88.9155 426.574 92.8198C427.708 93.5755 428.464 94.4571 429.093 95.3387ZM418.892 95.5906C417.003 94.583 414.987 93.9533 412.72 93.9533C409.194 93.9533 406.171 95.2128 403.652 97.7317C401.134 100.251 399.874 103.273 399.874 106.8C399.874 109.067 400.378 111.208 401.511 112.971L418.892 95.5906Z" fill="white"/>
</g>
<path d="M242.125 38.7248C242.125 44.4248 242.225 50.2248 242.025 55.9248C242.025 57.2248 241.425 59.1248 240.525 59.7248C239.625 60.2248 237.625 59.7248 236.525 59.0248C229.925 55.1248 223.525 51.0248 217.025 46.9248C215.625 46.0248 214.425 45.1248 214.825 43.2248C215.225 41.4248 216.725 41.2248 218.325 41.0248C221.825 40.4248 224.125 37.6248 223.925 34.2248C223.725 30.8248 221.125 28.2248 217.525 28.1248C214.825 28.0248 212.025 28.2248 209.325 28.0248C207.325 27.9248 206.725 28.6248 206.725 30.6248C206.825 39.0248 206.725 47.4248 206.725 55.8248C206.725 59.7248 206.025 60.4248 202.025 60.4248C198.725 60.4248 195.425 60.4248 192.025 60.4248C189.025 60.4248 188.025 59.4248 188.025 56.3248C188.025 44.5248 187.925 32.7248 188.125 20.9248C188.125 19.6248 189.125 17.8248 190.225 17.0248C197.725 11.8248 205.325 6.8248 212.925 1.6248C214.525 0.524805 215.925 0.524805 217.525 1.6248C225.025 6.7248 232.525 11.8248 240.025 16.8248C241.625 17.9248 242.225 19.3248 242.225 21.2248C242.125 27.0248 242.125 32.9248 242.125 38.7248ZM236.025 52.1248C236.225 51.4248 236.325 51.1248 236.325 50.8248C236.325 41.4248 236.425 32.0248 236.225 22.7248C236.225 21.8248 235.425 20.7248 234.625 20.2248C228.725 16.1248 222.625 12.1248 216.725 8.0248C215.525 7.2248 214.625 7.1248 213.425 8.0248C207.525 12.1248 201.425 16.0248 195.525 20.2248C194.625 20.8248 193.825 22.3248 193.825 23.4248C193.725 33.0248 193.825 42.7248 193.725 52.3248C193.725 54.2248 194.325 55.1248 196.225 54.9248C196.925 54.8248 197.525 54.8248 198.225 54.9248C200.525 55.2248 201.225 54.2248 201.225 51.9248C201.125 43.4248 201.125 34.8248 201.225 26.3248C201.225 23.3248 201.925 22.6248 204.925 22.6248C209.125 22.6248 213.425 22.5248 217.625 22.6248C222.725 22.7248 226.425 25.2248 228.525 29.9248C230.525 34.3248 229.425 39.6248 226.025 43.1248C225.525 43.7248 224.925 44.3248 224.325 45.0248C228.325 47.3248 232.025 49.6248 236.025 52.1248Z" fill="white"/>
<defs>
<clipPath id="clip0">
<rect width="430" height="50" fill="white" transform="translate(0 76.8247)"/>
</clipPath>
</defs>
</svg>
