<svg width="224" height="30" viewBox="0 0 224 30" fill="none" xmlns="http://www.w3.org/2000/svg">
<g clip-path="url(#clip0)">
<path d="M52.2395 7.56312C54.4106 9.62194 55.474 12.0589 55.474 14.9581C55.474 17.8572 54.4106 20.3362 52.2395 22.4371C50.0684 24.4959 47.4985 25.5043 44.4412 25.5043C41.384 25.5043 38.7698 24.4959 36.5543 22.4371C34.3832 20.3782 33.3198 17.8992 33.3198 14.9581C33.3198 12.0589 34.3832 9.62194 36.5543 7.56312C38.7255 5.50429 41.3396 4.49589 44.4412 4.49589C47.4099 4.45387 50.0684 5.46228 52.2395 7.56312ZM44.3969 7.47908C42.2258 7.47908 40.3206 8.23538 38.8141 9.66396C37.3076 11.0925 36.51 12.8992 36.51 14.9581C36.51 17.0169 37.3076 18.8236 38.8141 20.2522C40.3206 21.6808 42.2258 22.4791 44.3969 22.4791C46.568 22.4791 48.429 21.7228 49.9798 20.2522C51.5306 18.7816 52.3281 17.0169 52.3281 14.9581C52.3281 12.8992 51.5306 11.1345 49.9798 9.66396C48.429 8.23538 46.568 7.47908 44.3969 7.47908Z" fill="black"/>
<path d="M61.1458 14.1179V24.8742H57.9556V9.244H61.1458V9.87425C62.4307 9.07593 63.9372 8.65576 65.5323 8.65576V11.681C64.1587 11.681 62.9624 12.1432 61.9433 13.0675C61.6775 13.4037 61.3673 13.7398 61.1458 14.1179Z" fill="black"/>
<path d="M80.1101 23.9916C78.6479 25 76.9199 25.4622 75.0146 25.4622C72.5777 25.4622 70.4952 24.6638 68.7672 23.0252C67.0391 21.3865 66.1973 19.4117 66.1973 17.1008C66.1973 14.7899 67.0391 12.8151 68.7672 11.1764C70.4952 9.53779 72.5777 8.73947 75.0146 8.73947C76.9199 8.73947 78.6036 9.20166 80.1101 10.2101V5.04199H83.3003V24.8319H80.1101V23.9916ZM80.1101 19.5378V14.5798C79.8443 14.1176 79.4898 13.6975 79.0467 13.2773C77.939 12.2269 76.6098 11.6806 75.0146 11.6806C73.4639 11.6806 72.1346 12.2269 70.9826 13.2773C69.8749 14.3277 69.2989 15.5882 69.2989 17.1008C69.2989 18.5714 69.8749 19.8319 70.9826 20.9243C72.0903 21.9748 73.4195 22.521 75.0146 22.521C76.5654 22.521 77.8947 21.9748 79.0467 20.9243C79.5341 20.5042 79.8886 20.042 80.1101 19.5378Z" fill="black"/>
<path d="M101.954 12.2686L99.6498 14.4535L91.8958 21.8065C92.7377 22.2266 93.6238 22.4787 94.6429 22.4787C96.371 22.4787 97.8774 21.8065 99.1181 20.4199L101.555 22.2686C99.6941 24.4535 97.3901 25.5039 94.5986 25.5039C92.1617 25.5039 90.0792 24.7056 88.3511 23.067C86.6231 21.4283 85.7812 19.4535 85.7812 17.1426C85.7812 14.8317 86.6231 12.8569 88.3511 11.2182C90.0792 9.57957 92.1617 8.78125 94.5986 8.78125C97.0356 8.78125 99.1181 9.57957 100.846 11.2182C101.334 11.5123 101.688 11.8905 101.954 12.2686ZM97.4344 12.3527C96.5925 11.9325 95.7063 11.6804 94.6872 11.6804C93.1364 11.6804 91.8072 12.2266 90.6552 13.277C89.5475 14.3275 88.9715 15.588 88.9715 17.1006C88.9715 18.067 89.193 18.9493 89.6804 19.7056L97.4344 12.3527Z" fill="black"/>
<path d="M107.979 14.1179V24.8742H104.789V9.244H107.979V9.87425C109.264 9.07593 110.77 8.65576 112.365 8.65576V11.681C110.992 11.681 109.795 12.1432 108.776 13.0675C108.466 13.4037 108.2 13.7398 107.979 14.1179Z" fill="black"/>
<path d="M129.869 20C129.426 20.042 129.027 20.126 128.54 20.126H123.799V24.958H120.608V5.04199H128.54C130.711 5.04199 132.572 5.7983 134.122 7.22687C135.673 8.65544 136.471 10.4622 136.471 12.521C136.471 14.5798 135.673 16.3865 134.167 17.8151C133.724 18.2353 133.281 18.5714 132.838 18.8655L136.028 24.8319H132.527L129.869 20ZM123.754 17.0588H128.495C129.78 17.0588 130.888 16.6386 131.863 15.7563C132.793 14.8739 133.236 13.7815 133.236 12.563C133.236 11.3445 132.793 10.2941 131.863 9.36972C130.932 8.48737 129.78 8.0672 128.495 8.0672H123.754V17.0588Z" fill="black"/>
<path d="M154.503 12.2686L152.199 14.4535L144.445 21.8065C145.286 22.2266 146.173 22.4787 147.192 22.4787C148.92 22.4787 150.426 21.8065 151.667 20.4199L154.104 22.2686C152.243 24.4535 149.939 25.5039 147.147 25.5039C144.71 25.5039 142.628 24.7056 140.9 23.067C139.172 21.4283 138.33 19.4535 138.33 17.1426C138.33 14.8317 139.172 12.8569 140.9 11.2182C142.628 9.57957 144.71 8.78125 147.147 8.78125C149.584 8.78125 151.667 9.57957 153.395 11.2182C153.838 11.5123 154.192 11.8905 154.503 12.2686ZM149.939 12.3527C149.097 11.9325 148.211 11.6804 147.192 11.6804C145.641 11.6804 144.267 12.2266 143.16 13.277C142.052 14.3275 141.476 15.588 141.476 17.1006C141.476 18.067 141.698 18.9493 142.185 19.7056L149.939 12.3527Z" fill="black"/>
<path d="M160.485 14.1179V24.8742H157.295V9.244H160.485V9.87425C161.77 9.07593 163.277 8.65576 164.872 8.65576C167.176 8.65576 169.125 9.41206 170.676 10.9247C172.315 12.4793 173.069 14.244 173.069 16.4289V24.8322H169.879V16.4709C169.879 15.1684 169.391 14.0339 168.372 13.0675C167.353 12.1011 166.201 11.639 164.783 11.639C163.409 11.639 162.213 12.1011 161.194 13.0255C160.973 13.4037 160.707 13.7398 160.485 14.1179Z" fill="black"/>
<path d="M190.172 11.1342C191.9 12.7729 192.742 14.7477 192.742 17.0586C192.742 19.3695 191.9 21.3443 190.172 22.983C188.444 24.6216 186.361 25.42 183.924 25.42C181.487 25.42 179.405 24.6216 177.677 22.983C175.949 21.3443 175.107 19.3695 175.107 17.0586C175.107 14.7477 175.949 12.7729 177.677 11.1342C179.405 9.49558 181.487 8.69727 183.924 8.69727C186.361 8.69727 188.444 9.49558 190.172 11.1342ZM183.924 11.6805C182.374 11.6805 181.044 12.2267 179.892 13.2771C178.785 14.3275 178.209 15.588 178.209 17.1006C178.209 18.5712 178.785 19.8317 179.892 20.9242C181 21.9746 182.329 22.5208 183.924 22.5208C185.475 22.5208 186.804 21.9746 187.956 20.9242C189.064 19.8737 189.64 18.6132 189.64 17.1006C189.64 15.63 189.064 14.3695 187.956 13.2771C186.804 12.1847 185.475 11.6805 183.924 11.6805Z" fill="black"/>
<path d="M196.241 9.28564L200.096 19.4957L203.907 9.28564H207.318L201.337 24.9159H198.811L192.83 9.28564C192.83 9.28564 196.241 9.28564 196.241 9.28564Z" fill="black"/>
<path d="M223.447 12.2686L221.143 14.4535L213.389 21.8065C214.231 22.2266 215.117 22.4787 216.137 22.4787C217.865 22.4787 219.371 21.8065 220.612 20.4199L223.049 22.2686C221.188 24.4535 218.884 25.5039 216.092 25.5039C213.655 25.5039 211.573 24.7056 209.845 23.067C208.117 21.4283 207.275 19.4535 207.275 17.1426C207.275 14.8317 208.117 12.8569 209.845 11.2182C211.573 9.57957 213.655 8.78125 216.092 8.78125C218.529 8.78125 220.612 9.57957 222.34 11.2182C222.827 11.5123 223.137 11.8905 223.447 12.2686ZM218.928 12.3527C218.086 11.9325 217.2 11.6804 216.181 11.6804C214.63 11.6804 213.301 12.2266 212.149 13.277C211.041 14.3275 210.465 15.588 210.465 17.1006C210.465 18.067 210.687 18.9493 211.174 19.7056L218.928 12.3527Z" fill="black"/>
<path d="M28.7102 19.0754C28.7102 21.9325 28.7545 24.8737 28.6659 27.7308C28.6659 28.4031 28.3558 29.3275 27.8684 29.6636C27.381 29.9157 26.3176 29.6636 25.7416 29.3275C22.2412 27.3527 18.8295 25.2938 15.3734 23.235C14.6202 22.7728 13.9998 22.3106 14.2214 21.3863C14.4429 20.4619 15.2405 20.3779 16.0823 20.2938C17.9433 19.9997 19.1396 18.5712 19.051 16.8905C18.9624 15.2098 17.5445 13.8653 15.6393 13.8233C14.2214 13.7812 12.7149 13.8653 11.297 13.7812C10.2336 13.7392 9.92347 14.0754 9.92347 15.0838C9.96777 19.3275 9.92347 23.5291 9.92347 27.7728C9.92347 29.7476 9.569 30.0838 7.44219 30.0838C5.66986 30.0838 3.94183 30.0838 2.12519 30.0838C0.530083 30.0838 -0.00161821 29.5796 -0.00161821 28.0249C-0.00161821 22.1006 -0.0459266 16.1342 0.0426902 10.2098C0.0426902 9.53754 0.574391 8.65519 1.1504 8.23502C5.13816 5.62998 9.17022 3.10897 13.2023 0.46191C14.0441 -0.0843085 14.7974 -0.0843085 15.6393 0.46191C19.627 3.02494 23.6148 5.58796 27.6025 8.10897C28.4444 8.65519 28.7545 9.36947 28.7545 10.3359C28.7102 13.193 28.7102 16.1762 28.7102 19.0754ZM25.4757 25.8401C25.5643 25.5039 25.653 25.3359 25.653 25.1678C25.653 20.4199 25.6973 15.714 25.6086 11.0081C25.6086 10.5459 25.1656 9.99972 24.7668 9.74762C21.6209 7.6888 18.3864 5.67199 15.2848 3.61317C14.6645 3.193 14.1771 3.15099 13.5124 3.61317C10.3666 5.71401 7.13204 7.64678 3.98614 9.78964C3.49875 10.0838 3.09997 10.8401 3.09997 11.3863C3.05566 16.2182 3.09997 21.0922 3.05566 25.9241C3.05566 26.8905 3.36582 27.3527 4.38491 27.2266C4.73938 27.1846 5.09385 27.1846 5.44832 27.2266C6.68895 27.3947 7.04342 26.8905 7.04342 25.714C6.99911 21.4283 6.99911 17.1006 7.04342 12.8149C7.04342 11.3022 7.39789 10.9661 8.99299 10.9661C11.2084 10.9661 13.5124 10.9241 15.7279 10.9661C18.4307 11.0081 20.3803 12.2686 21.5323 14.6216C22.5957 16.8485 22.0197 19.4955 20.203 21.2602C19.9372 21.5543 19.627 21.8485 19.3169 22.2266C21.3993 23.4031 23.3489 24.5796 25.4757 25.8401Z" fill="black"/>
</g>
<defs>
<clipPath id="clip0">
<rect width="223.846" height="30" fill="white"/>
</clipPath>
</defs>
</svg>
