<svg width="160" height="25" viewBox="0 0 160 25" fill="none" xmlns="http://www.w3.org/2000/svg">
<path d="M51.2499 12.6972C51.2499 9.47353 53.6184 7.1709 56.9078 7.1709C60.1973 7.1709 62.5657 9.53932 62.5657 12.6972C62.5657 15.9209 60.1973 18.2235 56.9078 18.2235C53.6184 18.2235 51.2499 15.8551 51.2499 12.6972ZM60.921 12.6972C60.921 10.3946 59.2763 8.68407 56.9078 8.68407C54.5394 8.68407 52.8947 10.3946 52.8947 12.6972C52.8947 14.9998 54.5394 16.7104 56.9078 16.7104C59.2763 16.7104 60.921 14.9998 60.921 12.6972Z" fill="black"/>
<path d="M63.9474 13.2893C63.9474 10.9209 65.329 9.80249 67.4342 9.80249C69.4737 9.80249 70.8553 10.9209 70.8553 13.3551V13.4209H69.3421V13.3551C69.3421 11.842 68.5527 11.2499 67.4342 11.2499C66.25 11.2499 65.5263 11.842 65.5263 13.3551V18.092H63.9474V13.2893V13.2893Z" fill="black"/>
<path d="M71.5789 13.9473C71.5789 11.2499 73.5526 9.73674 75.6579 9.73674C76.9737 9.73674 78.0921 10.3288 78.6842 11.3815V6.44727H80.2631V13.9473C80.2631 16.5789 78.4868 18.2236 75.9868 18.2236C73.3552 18.2236 71.5789 16.4473 71.5789 13.9473ZM78.6842 14.0131C78.6842 12.3683 77.5658 11.1841 75.921 11.1841C74.2763 11.1841 73.1579 12.3683 73.1579 14.0131C73.1579 15.6578 74.2763 16.842 75.921 16.842C77.5658 16.7762 78.6842 15.592 78.6842 14.0131Z" fill="black"/>
<path d="M81.4473 14.013C81.4473 11.5788 83.2236 9.80249 85.7894 9.80249C88.3552 9.80249 90.0657 11.5788 90.0657 14.013V14.6051H83.0921C83.2894 16.0525 84.4078 16.842 85.7894 16.842C86.8421 16.842 87.5657 16.513 88.0263 15.7893H89.7368C89.1447 17.3025 87.6315 18.2236 85.7894 18.2236C83.2894 18.2236 81.4473 16.4472 81.4473 14.013ZM88.4868 13.1578C88.1578 11.842 87.1052 11.1841 85.7894 11.1841C84.4736 11.1841 83.421 11.9078 83.1579 13.1578H88.4868Z" fill="black"/>
<path d="M91.3815 13.2893C91.3815 10.9209 92.7631 9.80249 94.8684 9.80249C96.9078 9.80249 98.2894 10.9209 98.2894 13.3551V13.4209H96.7763V13.3551C96.7763 11.842 95.9868 11.2499 94.8684 11.2499C93.6842 11.2499 92.9605 11.842 92.9605 13.3551V18.092H91.3815V13.2893V13.2893Z" fill="black"/>
<path d="M103.947 7.36841H108.553C111.184 7.36841 112.303 8.81576 112.303 10.7894C112.303 12.3684 111.579 13.6184 109.868 14.0789L112.697 18.0263H110.724L108.158 14.2105H105.592V18.0263H103.947V7.36841ZM108.553 12.6316C110.131 12.6316 110.592 11.8421 110.592 10.7237C110.592 9.60523 110.066 8.81576 108.553 8.81576H105.592V12.5658H108.553V12.6316Z" fill="black"/>
<path d="M113.487 14.013C113.487 11.5788 115.263 9.80249 117.829 9.80249C120.395 9.80249 122.105 11.5788 122.105 14.013V14.6051H115.131C115.329 16.0525 116.447 16.842 117.829 16.842C118.881 16.842 119.605 16.513 120.066 15.7893H121.776C121.184 17.3025 119.671 18.2236 117.829 18.2236C115.263 18.2236 113.487 16.4472 113.487 14.013ZM120.526 13.1578C120.197 11.842 119.145 11.1841 117.829 11.1841C116.513 11.1841 115.46 11.9078 115.197 13.1578H120.526Z" fill="black"/>
<path d="M123.421 13.8158C123.421 11.1184 125 9.73682 127.368 9.73682C129.737 9.73682 131.316 11.1184 131.316 13.8158V18.0263H129.737V13.8158C129.737 12.1052 128.75 11.1842 127.303 11.1842C125.855 11.1842 124.868 12.1052 124.868 13.8158V18.0263H123.289V13.8158H123.421Z" fill="black"/>
<path d="M132.632 14.013C132.632 11.5788 134.408 9.80249 136.974 9.80249C139.539 9.80249 141.316 11.5788 141.316 14.013C141.316 16.4472 139.539 18.2236 136.974 18.2236C134.408 18.2236 132.632 16.4472 132.632 14.013ZM139.737 14.013C139.737 12.3683 138.618 11.1841 136.974 11.1841C135.329 11.1841 134.21 12.3683 134.21 14.013C134.21 15.6577 135.329 16.842 136.974 16.842C138.618 16.7762 139.737 15.592 139.737 14.013Z" fill="black"/>
<path d="M141.71 9.93408H143.421L146.053 16.5788L148.684 9.93408H150.329L146.974 17.9604H145.132L141.71 9.93408Z" fill="black"/>
<path d="M150.658 14.013C150.658 11.5788 152.434 9.80249 155 9.80249C157.566 9.80249 159.276 11.5788 159.276 14.013V14.6051H152.303C152.5 16.0525 153.618 16.842 155 16.842C156.053 16.842 156.776 16.513 157.237 15.7893H158.947C158.355 17.3025 156.842 18.2236 155 18.2236C152.434 18.2236 150.658 16.4472 150.658 14.013ZM157.697 13.1578C157.368 11.842 156.316 11.1841 155 11.1841C153.684 11.1841 152.632 11.9078 152.368 13.1578H157.697Z" fill="black"/>
<path d="M34.2105 15.6579C36.0526 15.0658 37.4342 13.9474 38.2895 12.3684C38.8816 11.25 39.2105 9.86843 39.2105 8.35527C39.2105 3.8158 36.579 0.526308 30.5263 0.526308H20.5921H20.5263V12.3684C20.5263 16.9737 17.3026 20.3947 12.6316 20.3947C7.89474 20.3947 4.73684 16.9737 4.73684 12.3684C4.73684 7.76315 7.89474 4.34211 12.6316 4.34211C13.8816 4.34211 15 4.53948 15.9868 5V0.394741C14.9342 0.131583 13.8158 0 12.6316 0C5.19737 0 0 5.19738 0 12.3026C0 19.4079 5.19737 24.6053 12.6316 24.6053C15.7237 24.6053 18.4868 23.6842 20.5921 22.0395C23.4868 19.8684 25.1974 16.3816 25.1974 12.3026V4.73685H30.5921C33.5526 4.73685 34.4737 6.25 34.4737 8.22368C34.4737 10.1974 33.4868 11.7763 30.5921 11.7763H26.7763L34.5395 24.079H40.0658L34.2105 15.6579Z" fill="black"/>
</svg>
