<?xml version="1.0" encoding="utf-8"?>
<!-- Generator: Adobe Illustrator 25.0.1, SVG Export Plug-In . SVG Version: 6.00 Build 0)  -->
<svg version="1.1" id="Layer_1" xmlns="http://www.w3.org/2000/svg" xmlns:xlink="http://www.w3.org/1999/xlink" x="0px" y="0px"
	 viewBox="0 0 217 40" style="enable-background:new 0 0 217 40;" xml:space="preserve">
<style type="text/css">
	.st0{fill:#333333;}
</style>
<g>
	<path class="st0" d="M66.8,19.6c0,0,0.4,0,0.5,0.1c0.1,0.2,0.1,0.5,0.1,0.8c0,0-0.1,0.8-0.1,0.9c0,0.4-0.1,0.8-0.2,1.1
		c-0.1,0.4-0.2,0.7-0.4,1c-0.2,0.3-0.5,0.5-0.9,0.6c-0.4,0.1-0.8,0.3-1.2,0.4c-0.5,0.1-0.8,0.1-1.4,0.1c-0.6,0.1-1.2,0.1-1.7,0.1
		c-0.9,0-2.3,0-2.4,0s-3.7-0.1-4-0.1c-0.7-0.1-1.3-0.3-1.9-0.6c-0.3-0.2-0.5-0.4-0.7-0.6c-0.2-0.3-0.3-0.6-0.4-0.9
		c-0.1-0.6,0-2.4-0.1-2.9c-0.1-0.5,0.1-5.3,0.1-5.3v-3.9l0.1-4.6l0.1-5.2c0-0.1,0-0.2,0-0.3C52.3,0.1,52.3,0,52.7,0
		c0.4,0,1.8,0,2.1,0c0.5,0,1,0.2,1.4,0.4c0.4,0.2,0.8,0.5,1.1,0.9c0.4,0.4,0.6,0.9,0.6,1.5c0,0.8,0,4.9,0,5.1c0,0.2,0,0.5,0,0.7
		c0,0.2,0,6.7,0,6.7s0,1.9,0,2.1c0,0.2,0,1.2-0.1,1.4c0,0.3,0.1,0.5,0.2,0.7c0.1,0.1,0.2,0.2,0.6,0.2c0.3,0,3.2,0,3.2,0l4.4,0
		L66.8,19.6z"/>
	<path class="st0" d="M85.4,15.5c0-1-0.1-2-0.4-2.9c-0.2-0.7-0.5-1.5-0.8-2.2c-0.3-0.7-0.6-1.3-1.1-1.8c-0.7-0.8-1.7-1.5-2.7-1.8
		c-2.1-0.8-4.5-0.8-6.6,0.1c-0.6,0.3-1.2,0.7-1.7,1.2c-0.7,0.7-1.3,1.5-1.9,2.4c-1.5,2.1-1.9,5.5-1.1,7.9c0.5,1.9,1.4,3.6,2.8,4.9
		c2.1,1.9,6.1,2.1,8.8,1.5c1.6-0.4,2.6-2.1,3.3-3.4C84.9,19.5,85.4,17.5,85.4,15.5z M80,15.7c0,1-0.1,1.9-0.3,2.9
		c-0.2,0.8-0.8,2.3-2.6,2.3c-1.8,0-2.4-2.1-2.4-2.3c0-0.2-0.2-3.3-0.2-3.7c-0.1-1.7,0.5-4.4,2.7-4.4c0.5-0.1,1.1,0.1,1.5,0.4
		c0.4,0.3,0.8,0.8,0.9,1.3C79.8,13.3,80,14.5,80,15.7z"/>
	<path class="st0" d="M103.7,14.9c0-0.5-0.1-1.7-0.2-2.2C102.7,7.9,96.2,5,92.1,7c-1.7,0.8-3,2.8-3.8,4.4c-0.4,1-0.6,2-0.6,3
		c-0.2,2.4,0.1,4.8,0.9,7c0.6,1,1.4,1.9,2.3,2.5c1.8,1.3,4.5,1.2,6.4,0.2c0.3-0.2,0.6-0.5,0.8-0.8v0.2c0,0.3-0.1,0.5-0.1,0.8
		c-0.1,0.3-0.3,1.4-0.4,1.7c-0.2,0.5-0.5,0.9-0.8,1.2c-0.5,0.3-1,0.6-1.6,0.8c-0.7,0.2-1.4,0.2-2.1,0.1c-0.4,0-0.9-0.1-1.3-0.2
		c-0.5-0.1-1-0.3-1.4-0.5c-0.1,0-0.2,0-0.3,0c-0.1,0-0.2,0-0.3,0.1c-0.1,0.2-0.3,0.4-0.4,0.7c-0.2,0.5-0.4,1.1-0.6,1.7
		c-0.1,0.4-0.1,0.9-0.1,1.4c0,0.1,0,0.2,0.4,0.3c1.4,0.3,2.7,0.5,4.1,0.7c3.3,0,6.5,0.3,8.5-2.8c0.1-0.2,0.8-1.6,1-2
		c0.2-0.4,0.6-2.3,0.7-2.7c0.1-0.4,0.2-3.3,0.2-3.4C103.6,21.1,103.7,15.4,103.7,14.9z M98.2,13.9c0,0.8,0,3.5,0,3.6
		c0,0.4,0,0.9-0.1,1.3c-0.1,0.5-0.4,0.9-0.8,1.2c-0.4,0.3-0.9,0.4-1.3,0.4c-0.5,0-1-0.1-1.4-0.4c-0.4-0.3-0.7-0.7-0.9-1.2
		c-0.2-0.8-0.3-1.6-0.4-2.4c0-0.4,0.1-2.7,0.1-3.1c0-0.7,0.2-1.4,0.5-2c0.2-0.3,0.5-0.6,0.8-0.8c0.3-0.2,0.7-0.3,1.1-0.3
		c0.5,0,0.9,0.2,1.3,0.5c0.4,0.3,0.7,0.6,1,1C98.2,12.4,98.3,13.2,98.2,13.9z"/>
	<path class="st0" d="M144.2,12.3c0-0.6-0.2-1.1-0.4-1.6c-0.4-0.8-0.9-1.6-1.6-2.3c-0.6-0.5-1.2-1-1.9-1.4c-0.3-0.2-1.1-0.5-1.7-0.6
		c-0.7-0.2-1.4-0.3-2.2-0.3c0,0-0.6,0-0.9,0c-0.7,0.1-1.5,0.3-2.2,0.6c-0.6,0.3-1.2,0.7-1.8,1.2c-2.4,2-2.9,5.4-2.8,8.3
		c0,0.8,0.3,2.3,0.5,3.2c0.5,2.7,3.1,5.3,5.9,5.5c2.1,0.2,4.2-0.1,6.2-0.6c0.4-0.1,1.7-0.8,1.8-0.8c0.2-0.1,0.4-0.5,0.4-0.7
		c0-0.4,0-0.7-0.1-1c-0.1-0.4-0.3-0.9-0.5-1.3c-0.1-0.2-0.3-0.4-0.6-0.5c-0.1,0-0.3,0-0.4,0.1c0,0-0.5,0.2-0.8,0.4
		c-0.7,0.2-1.3,0.3-2,0.3c-0.4,0-1.3,0-1.5,0.1c-0.6,0-1.1-0.1-1.7-0.3c-0.6-0.2-1.5-1.6-1.6-1.9c-0.1-0.4-0.2-0.8-0.1-1.1
		c0.1-0.3,0.5-0.4,0.5-0.4c0,0,3.3,0.1,3.3,0.1c0.1,0,2,0,2.7,0c0.7,0,1.4,0,1.9,0c0.3,0,0.6,0,0.9-0.1c0.2-0.1,0.4-0.3,0.5-0.5
		c0.1-0.4,0.1-0.7,0.1-1.1C144.4,14.4,144.4,13.4,144.2,12.3z M139.2,13.3c0,0.3-0.4,0.4-0.8,0.3c-1.2-0.1-2.3-0.1-3.5-0.1
		c-0.2,0-0.4,0-0.5,0c-0.1,0-0.1-0.5,0-1c0.2-0.7,0.7-1.4,1.2-2c0.2-0.2,0.5-0.4,0.9-0.5l0.6-0.1c0.2,0,0.4,0,0.6,0.1
		c0.2,0.1,0.4,0.2,0.5,0.3c0.4,0.4,0.8,1,1,1.5C139.2,12.3,139.2,12.8,139.2,13.3z"/>
	<path class="st0" d="M147.6,24.6c0,0-0.2-3.6-0.2-4.1s0.2-4.9,0.2-5.3c0-0.4,0.2-3.9,0.2-4.3c0-0.4-0.1-1.8-0.1-2.3
		c-0.1-0.5-0.3-0.9-0.5-1.3c0,0,0-0.1,0-0.1c0,0,0-0.1,0-0.1c0,0,0-0.1,0.1-0.1c0,0,0.1,0,0.1,0c0.7-0.2,1.4-0.4,2.1-0.4
		c0.5,0,1,0.1,1.5,0.3c0.5,0.2,0.9,0.4,1.3,0.8c0.2,0.2,0.4,0.4,0.6,0.6c0.1,0.1,0.3-0.1,0.4-0.1c0.5-0.4,1.1-0.8,1.7-1.1
		c0.6-0.3,1.2-0.5,1.9-0.6c0.7-0.1,1.5,0,2.2,0.1c0.7,0.2,1.4,0.6,2,1c0.6,0.5,1,1,1.3,1.7c0.3,0.6,0.5,1.3,0.5,2c0,0.6,0,2,0.1,2.2
		c0,0.2,0.2,6,0.2,6s-0.1,2.9-0.1,3c-0.1,0.4-0.2,0.8-0.4,1.2c-0.1,0.2-0.2,0.4-0.4,0.6c-0.4,0.1-0.7,0.2-1.1,0.2
		c-0.5,0-1.5,0.1-1.9,0.1c-0.4,0-0.8-0.1-1.2-0.4c-1.5-1.4-1-4.3-1-6.2c0-0.5,0-5.2-0.1-5.5c-0.2-0.5-0.6-0.8-1.1-1.1
		c-0.4-0.2-0.9-0.2-1.4,0c-0.5,0.3-1,0.7-1.4,1.1c-0.3,0.4-0.4,0.9-0.4,1.4c0,0.5,0.1,1.2,0.1,2c0,0.8,0.1,7,0.1,7s0,0.9,0,0.9
		c0,0.2-0.1,0.3-0.3,0.4c-0.2,0.2-0.5,0.3-0.8,0.3c-0.4,0-1.5,0.1-2,0.1c-0.5,0-1.3,0-1.5,0L147.6,24.6z"/>
	<path class="st0" d="M182,15.1c0-1-0.1-2.1-0.4-3.1c-0.4-1.2-1-2.3-1.8-3.2c-0.8-0.9-1.8-1.7-3-2.2c-2-0.9-4.6-0.5-6.6,0.2
		c-1,0.4-1.8,1-2.5,1.7c-0.6,0.8-1.1,1.6-1.6,2.5c-0.2,0.7-0.4,1.5-0.4,2.2c0,0.4,0,2.9,0,3.4c0,0.5,0.3,1.7,0.3,2.3
		c0.3,0.9,0.7,1.8,1.1,2.6c0.5,0.8,1.2,1.5,1.9,2c0.8,0.6,1.7,1,2.7,1.3c0.6,0.1,1.3,0.2,1.9,0.1c0.7,0,1.4-0.1,2.1-0.3
		c1.6-0.5,3-1.4,4-2.7c0.6-0.8,1.1-1.7,1.5-2.6c0.3-0.6,0.4-1.2,0.4-1.9C181.9,17,182,16.5,182,15.1z M176.3,18
		c0,0.8-0.3,1.5-0.8,2.1c-0.4,0.4-0.8,0.9-1.5,0.9c-0.3,0-0.7-0.1-1-0.3c-0.3-0.2-0.6-0.4-0.8-0.6c-0.4-0.8-0.8-1.7-0.9-2.7
		c-0.1-0.7,0-3.7,0-4c0.1-0.7,0.4-1.3,0.7-1.9c0.3-0.4,0.7-0.8,1.2-1.1c0.2-0.1,0.5-0.1,0.8-0.2c0.2,0,0.4,0,0.6,0
		c0.2,0,0.3,0.1,0.5,0.2c0.4,0.2,0.7,0.6,0.9,1c0.3,0.9,0.5,1.8,0.6,2.7C176.5,15.2,176.3,17.3,176.3,18z"/>
	<path class="st0" d="M182.7,6.8c0.2-0.1,0.4-0.2,0.5-0.2c0.4,0,0.8-0.1,1.3,0c1.1,0.1,3-0.5,3.7,0.6c0.4,0.6,0.7,1.3,0.9,2
		c0.1,0.2,0.7,2.5,0.7,2.5l1.6,6.6l0.3,1.5l0.2,0l0.6-3.5l1.3-5.3l1.2-4.2c0.2-0.2,0.4-0.3,0.7-0.3c0.4,0,4.6-0.2,4.4,0.6
		c0,0.1-0.4,1.5-0.6,2.2c-0.2,0.7-1.7,5.1-1.7,5.1l-1.9,6.9c0,0-0.7,2.3-0.7,2.4c-0.1,0.2-0.3,0.5-0.5,0.6c-0.8,0.1-1.6,0.2-2.4,0.3
		c-0.4,0-1.4-0.1-2-0.1c-0.7,0-1.4-0.2-2-0.6c-0.6-0.5-1.1-2-1.2-2.2s-2.3-8.5-2.3-8.5l-1.9-6C182.8,7.3,182.5,6.9,182.7,6.8z"/>
	<path class="st0" d="M206.8,17.2c0.3,0,0.9,0,1.2,0c0.3,0,4.2,0.2,4.6,0.2c0.4,0,1.7,0,2.1-0.1c0.4-0.1,0.8-0.2,1.2-0.4
		c0.4-0.2,0.4-0.8,0.5-1.2c0.1-0.4,0-2.8-0.1-3.4c-0.1-0.8-0.4-1.6-0.7-2.3c-0.5-0.9-1.1-1.7-1.9-2.4c-1.3-0.9-2.8-1.4-4.4-1.6
		c-1.6-0.1-3.2,0.2-4.6,0.9c-3.8,2-4.1,6.9-3.8,10.7c0.1,1.2,0.4,2.3,1,3.4c0.6,1,1.4,1.9,2.3,2.6c2.1,1.5,4.6,1.4,7,1.1
		c0.8-0.2,1.6-0.4,2.4-0.8c0.7-0.3,1.3-0.6,1.9-0.9c1.1-0.6-0.1-2.8-0.9-3.2c-0.3-0.1-0.7,0-1.3,0.2c-0.8,0.2-1.7,0.4-2.5,0.6
		c-1.9,0.2-4.3-0.7-4.6-2.9C206.4,17.4,206.5,17.3,206.8,17.2z M206.5,13.1c0.1-0.3,0.4-1.5,0.5-1.9c0.2-0.4,0.5-0.8,0.9-1.1
		c0.3-0.2,0.6-0.3,0.9-0.4c0.4,0,0.7,0.1,1,0.2c0.4,0.2,0.8,0.6,1.1,1c0.2,0.4,0.3,0.4,0.4,0.9c0,0.4,0,0.9,0,1.3c0,0,0,0.1,0,0.1
		c0,0,0,0.1-0.1,0.1c0,0-0.1,0.1-0.1,0.1c0,0-0.1,0-0.1,0c-0.2,0-1.9,0.1-2.3,0.1s-1.9,0.1-1.9,0.1
		C206.6,13.6,206.4,13.3,206.5,13.1z"/>
	<path class="st0" d="M126.9,7.9c0,0.7-0.2,1.4-0.5,2.1c-0.2,0.7-0.5,1.3-0.9,1.9c-0.3,0.5-0.7,1-1.2,1.4c-0.6,0.4-1.2,0.6-1.8,1
		c1.3,0.7,2.2,1.9,2.7,3.3L126,20c0.4,1,0.9,1.9,1.7,2.7c0.3,0.4,0.6,0.5,0.1,0.8c-0.5,0.3-1.2,0.8-1.2,0.8
		c-0.3,0.1-0.6,0.2-0.9,0.3c-0.5,0.1-1,0.2-1.4,0.2c-0.8,0-1.6-0.3-2.2-0.9c-0.5-0.7-0.9-1.5-1.1-2.3l-1.3-3.7
		c-0.2-0.6-0.5-1.2-1-1.6c-0.6-0.4-1.3-0.6-2-0.6c-0.5,0-1.5-0.3-1.5,0.4v1.9l-0.2,2.2l0.2,3.9v0.5c-0.5,0.1-1.1,0.1-1.6,0.1
		c-0.4,0-0.8,0.2-1.2,0.2c-0.9,0.1-1.9,0-2.8-0.2c0,0,0-0.5,0-0.6v-5.3l0.1-12l-0.2-6.2l0.3-0.2c2.1-0.1,2.8,0.1,4.2,0.1
		c1.4,0,3.8-0.2,4.6-0.2c1.1,0,2.2,0.1,3.2,0.4c0.9,0.2,1.8,0.6,2.6,1.2c0.8,0.7,1.4,1.6,1.8,2.7C126.7,5.4,126.9,6.6,126.9,7.9z
		 M115.2,4.3c-0.3,0.4-0.1,1.4-0.1,1.8v5.1c0.1,0,0.2,0,0.4,0c1.4,0,3.1,0.1,4.2-0.5c0.4-0.2,0.8-0.6,1-1c0.3-0.6,0.4-1.3,0.4-2
		c0-0.5,0-1-0.2-1.4s-0.4-0.9-0.7-1.2c-1.2-1.2-3.1-0.8-4.6-0.9c-0.1,0-0.1,0-0.2,0C115.3,4.2,115.2,4.3,115.2,4.3z"/>
	<path class="st0" d="M21.9,33.8c0.2-0.2,0.5-0.3,0.8-0.3c0.3,0,0.6,0.1,0.8,0.3l5.3,5.2c0.2,0.2,0.5,0.3,0.8,0.3
		c0.3,0,0.6-0.1,0.8-0.3l1.2-1.2c0.2-0.2,0.3-0.5,0.3-0.8c0-0.3-0.1-0.6-0.3-0.8L26.2,31c-0.2-0.2-0.3-0.5-0.3-0.8
		c0-0.3,0.1-0.6,0.3-0.8l2.5-2.5c0.2-0.2,0.5-0.3,0.8-0.3c0.3,0,0.6,0.1,0.8,0.3l5.3,5.3c0.2,0.2,0.5,0.3,0.8,0.3
		c0.3,0,0.6-0.1,0.8-0.3l1.2-1.2c0.2-0.2,0.3-0.5,0.3-0.8c0-0.3-0.1-0.6-0.3-0.8l-12-12.1c-0.2-0.2-0.3-0.5-0.3-0.8
		c0-0.3,0.1-0.6,0.3-0.8l2.5-2.5c0.2-0.2,0.5-0.3,0.8-0.3c0.3,0,0.6,0.1,0.8,0.3l12.1,12.1c0.2,0.2,0.5,0.3,0.8,0.3
		c0.3,0,0.6-0.1,0.8-0.3l1.2-1.2c0.2-0.2,0.3-0.5,0.3-0.8c0-0.3-0.1-0.6-0.3-0.8L23.5,1c-0.2-0.2-0.5-0.3-0.8-0.3
		c-0.3,0-0.6,0.1-0.8,0.3L0.3,22.7C0.1,22.9,0,23.2,0,23.4c0,0.3,0.1,0.6,0.3,0.8l1.2,1.2c0.2,0.2,0.5,0.3,0.8,0.3s0.6-0.1,0.8-0.3
		L21.9,6.5c0.2-0.2,0.5-0.3,0.8-0.3c0.3,0,0.6,0.1,0.8,0.3L26,9c0.2,0.2,0.3,0.5,0.3,0.8c0,0.3-0.1,0.6-0.3,0.8L7.1,29.5
		c-0.2,0.2-0.3,0.5-0.3,0.8c0,0.3,0.1,0.6,0.3,0.8l1.2,1.2c0.2,0.2,0.5,0.3,0.8,0.3c0.3,0,0.6-0.1,0.8-0.3l12.1-12.1
		c0.2-0.2,0.5-0.3,0.8-0.3c0.3,0,0.6,0.1,0.8,0.3l2.5,2.5c0.2,0.2,0.3,0.5,0.3,0.8c0,0.3-0.1,0.6-0.3,0.8L14,36.3
		c-0.2,0.2-0.3,0.5-0.3,0.8c0,0.3,0.1,0.6,0.3,0.8l1.2,1.2c0.2,0.2,0.5,0.3,0.8,0.3c0.3,0,0.6-0.1,0.8-0.3L21.9,33.8z"/>
	<path class="st0" d="M126.8,30.9c0.1,0,0.1,0,0.2,0.1c0.1,0,0.1,0.1,0.1,0.2c0.2,0.3,0.2,0.6,0.3,0.9c0,0.3,0,0.6-0.1,0.9
		c-0.2,0.5-0.4,0.9-0.6,1.4c-0.8,1.9-2.1,3.6-3.8,4.8c-0.5,0.4-1,0.7-1.6,0.9c-0.1,0-0.1,0-0.2,0c-0.1,0-0.1,0-0.2-0.1
		c-0.3-0.3-0.6-0.6-0.9-0.8c0,0,0,0-0.1-0.1c0,0,0-0.1,0-0.1c0,0,0-0.1,0-0.1c0,0,0,0,0.1-0.1c0.8-0.3,1.5-0.8,2.2-1.3
		c0.7-0.6,1.3-1.2,1.8-1.9c0.7-0.9,1.2-1.8,1.5-2.9c0,0,0-0.1,0-0.1c0,0,0,0,0-0.1c0,0,0,0-0.1,0c0,0,0,0-0.1,0
		c-0.2,0-0.9-0.1-1.3-0.1c-0.6,0-1,0.1-1.4,0.1c-0.1,0-0.2,0-0.3,0.1c-0.1,0-0.2,0.1-0.2,0.2c-0.5,0.7-1.1,1.4-1.7,2
		c-0.2,0.2-0.5,0.3-0.8,0.4c-0.3,0-0.6-0.1-0.8-0.3c-0.1-0.1-0.1-0.1-0.2-0.2c0,0,0,0-0.1-0.1c0,0,0-0.1,0-0.1c0,0,0-0.1,0-0.1
		c0,0,0-0.1,0.1-0.1c0.5-0.4,1.1-0.9,1.5-1.4c0.5-0.5,0.9-1.1,1.2-1.8c0.1-0.1,0.2-0.2,0.3-0.3c0.1-0.1,0.3-0.1,0.4-0.1h1.7
		L126.8,30.9z"/>
	<path class="st0" d="M133,31.6c0,0.8-0.1,1.6-0.1,2.4c0,0.5,0.1,1,0.1,1.4c0,0.1,0,0.1-0.1,0.2c0,0-0.1,0.1-0.2,0.1h-0.7
		c-0.2,0-0.4-0.1-0.5-0.2c-0.1-0.1-0.2-0.3-0.2-0.5c0-0.4,0.1-0.8,0.1-1.1v-0.9v-1.3v-1.3c0,0,0-0.1,0-0.1c0,0,0-0.1,0.1-0.1
		c0,0,0.1,0,0.1-0.1c0,0,0.1,0,0.1,0c0.4,0.1,0.7,0.3,1,0.6C132.9,30.9,133,31.2,133,31.6z M136.8,30
		C136.8,29.9,136.8,29.9,136.8,30c0-0.1,0.1-0.2,0.1-0.2c0,0,0.1,0,0.1,0c0,0,0.1,0,0.1,0c0.4,0.1,0.8,0.3,1,0.6
		c0.3,0.3,0.4,0.7,0.4,1.1c0.1,0.8,0.1,1.7,0,2.5c-0.1,1.3-0.5,2.6-1.2,3.6c-0.6,0.7-1.2,1.3-2,1.7c-0.3,0.2-0.7,0.4-1.2,0.5
		c-0.3,0-0.5-0.4-0.6-0.6c0-0.1-0.1-0.2-0.1-0.3c0-0.1,0-0.2,0-0.3c0-0.1,0.1-0.2,0.1-0.2c0.1-0.1,0.1-0.1,0.2-0.2
		c0.7-0.3,1.3-0.6,1.8-1.1c0.5-0.5,0.8-1.2,1-1.9c0.2-0.7,0.2-1.4,0.3-2c0-0.6-0.1-1.3-0.1-2L136.8,30z"/>
	<path class="st0" d="M148.1,30.8c-0.6,2.2-1.6,4.1-3.1,5.8c-0.9,1-1.9,1.8-3.1,2.4c-0.2,0.1-0.3,0.2-0.5,0.3c0,0-0.1,0.1-0.2,0.1
		c-0.1,0-0.4-0.4-0.5-0.4c-0.1-0.1-0.1-0.2-0.2-0.3c0-0.1,0-0.2,0-0.3c0-0.1,0.1-0.2,0.1-0.3c0.1-0.1,0.1-0.2,0.2-0.2
		c1.5-0.7,2.8-1.8,3.7-3.2c0.5-0.8,0.9-1.7,1.2-2.6c0.2-0.7,0.4-1.4,0.4-2c0,0,0,0,0-0.1c0,0,0,0,0.1,0c0,0,0,0,0.1,0c0,0,0,0,0.1,0
		c0.5,0.2,0.9,0.4,1.3,0.7c0.1,0,0.1,0.1,0.1,0.1C148.1,30.6,148.1,30.7,148.1,30.8z"/>
	<path class="st0" d="M150.7,35.7c-0.1-0.1-0.1-0.2-0.2-0.3c0-0.1-0.1-0.2-0.1-0.3c0-0.1,0-0.2,0.1-0.3c0-0.1,0.1-0.2,0.2-0.3
		c1-0.9,1.8-1.9,2.7-2.9c0.2-0.2,0.4-0.4,0.6-0.5c0.2-0.1,0.5-0.2,0.7-0.2c0.3,0,0.5,0,0.8,0.1c0.2,0.1,0.4,0.3,0.6,0.5
		c0.9,0.9,1.5,2,2.3,2.9c0.8,0.9,1.6,1.7,2.5,2.5c0,0,0.1,0.1,0.1,0.1c0,0.1,0,0.1,0,0.2c-0.2,0.3-0.4,0.7-0.7,1c0,0-0.1,0-0.1,0.1
		c0,0-0.1,0-0.1,0c0,0-0.1,0-0.1,0c0,0-0.1,0-0.1-0.1c-0.6-0.6-1.1-1.2-1.6-1.8c-0.3-0.4-0.6-0.8-0.8-1.2c-0.4-0.5-0.8-1-1.2-1.4
		c-0.9-1.1-1.1-1.3-1.4-1.3c-0.5,0-0.8,0.4-1.1,0.8c-0.3,0.4-0.6,0.8-1,1.1c-0.5,0.6-1,1.3-1.4,1.7c0,0-0.1,0.1-0.2,0.1
		c-0.1,0-0.1,0-0.2-0.1L150.7,35.7z"/>
	<path class="st0" d="M115.8,32.7c0-0.9-0.3-1.8-1.2-1.8l-6.8,0.1c-0.2,0-0.4,0.1-0.5,0.2c-0.1,0.1-0.2,0.3-0.2,0.5
		c0,0.1,0,0.2,0,0.3c0.1,2.3,0.1,4.6,0,6.8c0,0,0,0.1,0,0.1c0,0,0,0.1,0.1,0.1s0.1,0,0.1,0.1c0,0,0.1,0,0.1,0h8.1
		c0.1,0,0.2,0,0.3-0.1c0.1-0.1,0.1-0.2,0.1-0.3l-0.1-2L115.8,32.7z M114.1,37.7c0,0-0.1,0-0.1,0c-0.9,0.1-1.7,0.1-2.6,0.1
		c-0.9,0-1.9,0-2.8-0.2c0-0.8,0.1-1.5,0.1-2.3c0-0.9-0.1-1.8-0.1-2.7c0-0.1,0-0.1,0.1-0.2c0.1-0.1,0.1-0.1,0.2-0.1h0.3
		c0.8,0,0.9-0.1,1.7-0.1h1.5c0.3,0,0.9,0.1,1.2,0.1c0.1,0,0.2,0,0.2,0c0.1,0,0.1,0.1,0.2,0.1s0.1,0.1,0.1,0.2c0,0.1,0.1,0.2,0.1,0.2
		c0,0.4,0,0.8,0,1.2c0,0.4,0,0.8,0,1.2c0,0.4,0,0.8,0,1.2v0.6C114.1,37.3,114.2,37.6,114.1,37.7z"/>
	<path class="st0" d="M159.5,30.7c0.2,0.2,0.4,0.4,0.5,0.6l-0.2,0.2c-0.1,0.1-0.1,0.1-0.2,0.2c-0.1,0-0.2,0.1-0.3,0.1
		c-0.1,0-0.2,0-0.3-0.1c-0.1,0-0.2-0.1-0.2-0.2c-0.2-0.3-0.5-0.5-0.8-0.7l0.1-0.1c0.1-0.1,0.2-0.2,0.3-0.2c0.1-0.1,0.2-0.1,0.4-0.1
		c0.1,0,0.3,0,0.4,0.1C159.3,30.5,159.4,30.6,159.5,30.7z"/>
	<path class="st0" d="M160.7,29.6c0.2,0.2,0.4,0.4,0.5,0.6c-0.1,0.1-0.1,0.1-0.2,0.2c-0.1,0.1-0.1,0.1-0.2,0.2
		c-0.1,0-0.2,0.1-0.3,0.1s-0.2,0-0.3-0.1c-0.1,0-0.2-0.1-0.2-0.2c-0.2-0.2-0.5-0.5-0.7-0.7l0.1-0.1c0.2-0.2,0.4-0.3,0.7-0.3
		C160.3,29.3,160.5,29.4,160.7,29.6z"/>
	<path class="st0" d="M127.1,29.2c0.2,0.2,0.4,0.4,0.6,0.6c-0.1,0.1-0.3,0.2-0.5,0.3c-0.1,0.1-0.2,0.1-0.3,0.1
		c-0.1,0-0.2-0.1-0.3-0.2c-0.2-0.3-0.5-0.5-0.8-0.8l0.2-0.2c0.2-0.1,0.4-0.2,0.6-0.2C126.7,28.9,126.9,29,127.1,29.2z"/>
	<path class="st0" d="M129,28.8c0.2,0.2,0.4,0.4,0.5,0.6l-0.5,0.4c-0.1,0.1-0.2,0.1-0.3,0.1c-0.1,0-0.2-0.1-0.3-0.2
		c-0.2-0.3-0.5-0.6-0.8-0.9l0.1-0.1c0.2-0.1,0.5-0.2,0.7-0.2C128.6,28.5,128.8,28.7,129,28.8z"/>
</g>
</svg>
