<svg width="217" height="40" viewBox="0 0 217 40" fill="none" xmlns="http://www.w3.org/2000/svg">
<path d="M66.7802 19.6476C66.7802 19.6476 67.1702 19.6476 67.2314 19.7929C67.311 20.0398 67.3497 20.2982 67.3461 20.5576C67.3461 20.5576 67.2467 21.3224 67.2467 21.4753C67.2228 21.8622 67.1639 22.2462 67.0708 22.6225C67.019 22.9828 66.8681 23.3217 66.6349 23.6013C66.412 23.8913 66.1089 24.1094 65.7631 24.2284C65.4113 24.2973 64.9983 24.519 64.5471 24.6032C64.0959 24.6873 63.7059 24.6796 63.1476 24.7408C62.5739 24.8054 61.9966 24.8335 61.4193 24.8249C60.5016 24.8249 59.125 24.8249 59.0103 24.8249C58.8956 24.8249 55.3548 24.6949 54.9877 24.6796C54.3252 24.565 53.6818 24.3591 53.0758 24.0678C52.7942 23.9123 52.5511 23.6954 52.3645 23.4334C52.1778 23.1713 52.0524 22.8706 51.9975 22.5536C51.921 21.9648 51.9975 20.1599 51.9363 19.6323C51.8751 19.1046 52.0281 14.3478 52.0281 14.3478V10.4093L52.1199 5.77491L52.2193 0.543991C52.1927 0.456752 52.1927 0.363565 52.2193 0.276327C52.2728 0.146319 52.3034 -0.0142799 52.6552 0.00101516C53.007 0.0163103 54.4906 0.00101516 54.7277 0.0469004C55.2135 0.0834881 55.6881 0.210582 56.1272 0.42163C56.5319 0.647908 56.8921 0.945914 57.1902 1.3011C57.5518 1.70996 57.7481 2.23892 57.7408 2.78472C57.7408 3.54948 57.7867 7.69445 57.7408 7.85504C57.7356 8.09046 57.7509 8.32588 57.7867 8.55862C57.7867 8.78804 57.8326 15.2349 57.8326 15.2349C57.8326 15.2349 57.8326 17.1009 57.8326 17.3151C57.8326 17.5292 57.7867 18.5387 57.7561 18.7604C57.759 19.0111 57.8137 19.2584 57.9167 19.487C57.9779 19.617 58.1538 19.6629 58.4979 19.6781C58.8421 19.6934 61.7252 19.6781 61.7252 19.6781L66.1072 19.724L66.7802 19.6476Z" fill="white"/>
<path d="M85.3788 15.5408C85.3592 14.5484 85.2309 13.561 84.9964 12.5965C84.7945 11.85 84.5389 11.119 84.2316 10.4093C83.9702 9.75449 83.5948 9.15119 83.1227 8.62744C82.3993 7.7861 81.4649 7.15259 80.4155 6.79203C78.2859 5.94824 75.9099 5.97571 73.8004 6.8685C73.195 7.19792 72.6347 7.60404 72.1332 8.07682C71.4228 8.8004 70.785 9.59188 70.229 10.4399C68.6995 12.4971 68.363 15.8926 69.1354 18.3245C69.6027 20.1836 70.5585 21.884 71.9038 23.2495C74.0145 25.192 78.0218 25.3526 80.6985 24.7026C82.335 24.3049 83.3139 22.6377 84.0404 21.2535C84.9433 19.486 85.4026 17.5254 85.3788 15.5408ZM79.972 15.6555C80.003 16.6235 79.9 17.5912 79.666 18.531C79.4596 19.2958 78.9013 20.8712 77.0582 20.8712C75.2152 20.8712 74.6951 18.8063 74.6646 18.5769C74.634 18.3475 74.504 15.3037 74.4887 14.8908C74.4275 13.1471 75.001 10.4628 77.2265 10.4628C77.7609 10.403 78.2989 10.5401 78.7395 10.8484C79.1801 11.1567 79.4932 11.6151 79.6202 12.1377C79.8356 13.2984 79.9532 14.4751 79.972 15.6555Z" fill="white"/>
<path d="M103.671 14.883C103.671 14.4012 103.572 13.2235 103.48 12.6653C102.715 7.87789 96.2456 5.01771 92.0853 6.98313C90.4258 7.74788 89.1104 9.78213 88.2616 11.3652C87.8962 12.3255 87.7046 13.3432 87.6956 14.3707C87.4668 16.7351 87.7699 19.1208 88.5828 21.3529C89.1581 22.3528 89.9403 23.2184 90.877 23.8919C92.6742 25.2149 95.412 25.0772 97.2933 24.083C97.5899 23.8549 97.8639 23.5988 98.1116 23.3183V23.5554C98.0835 23.8137 98.0349 24.0694 97.9663 24.3201C97.9051 24.626 97.7139 25.6737 97.6145 25.9949C97.4116 26.4491 97.1293 26.8635 96.7809 27.2185C96.2762 27.5382 95.7343 27.795 95.1673 27.9833C94.4775 28.1367 93.7686 28.1857 93.0642 28.1286C92.6231 28.1192 92.1844 28.0602 91.7565 27.9527C91.26 27.8166 90.7764 27.6375 90.3111 27.4174C90.2099 27.3858 90.1033 27.3757 89.998 27.3875C89.8926 27.3993 89.7909 27.433 89.6993 27.4862C89.5591 27.7032 89.4412 27.9338 89.3475 28.1745C89.1237 28.7202 88.9347 29.2796 88.7816 29.8493C88.7055 30.2963 88.6747 30.7498 88.6898 31.2029C88.7357 31.3253 88.7357 31.3941 89.1028 31.5394C90.4625 31.844 91.8388 32.0688 93.2248 32.2124C96.475 32.2124 99.7558 32.503 101.737 29.4134C101.867 29.2069 102.501 27.8227 102.7 27.4174C102.899 27.0121 103.312 25.1231 103.388 24.7331C103.465 24.3431 103.633 21.4446 103.633 21.2917C103.633 21.1387 103.687 15.3648 103.671 14.883ZM98.2187 13.8812C98.2187 14.7072 98.1728 17.3608 98.1728 17.4603C98.2078 17.91 98.1847 18.3624 98.1039 18.8062C97.987 19.2748 97.7129 19.6891 97.3274 19.9799C96.9419 20.2708 96.4682 20.4207 95.9856 20.4046C95.4844 20.4099 94.9941 20.2588 94.5828 19.9723C94.1716 19.6858 93.8599 19.2782 93.6913 18.8062C93.5319 18.0151 93.4144 17.2161 93.3395 16.4126C93.3395 16.0072 93.4466 13.7589 93.4313 13.3535C93.4785 12.6707 93.6495 12.0021 93.936 11.3805C94.1533 11.0608 94.4389 10.7934 94.7722 10.5976C95.1055 10.4019 95.4782 10.2827 95.8632 10.2486C96.3188 10.2676 96.7572 10.428 97.1174 10.7075C97.5025 10.9815 97.8343 11.3236 98.0963 11.717C98.2385 12.4291 98.2797 13.1576 98.2187 13.8812Z" fill="white"/>
<path d="M144.249 12.3442C144.202 11.7805 144.065 11.228 143.844 10.7076C143.441 9.85846 142.898 9.08296 142.238 8.41331C141.636 7.90459 140.997 7.44188 140.326 7.02911C139.997 6.86851 139.194 6.56261 138.667 6.38671C137.954 6.21505 137.227 6.11261 136.495 6.08081C136.495 6.08081 135.898 6.08081 135.577 6.08081C134.831 6.21797 134.099 6.42275 133.39 6.69261C132.743 7.00849 132.149 7.42397 131.631 7.92387C129.275 9.96576 128.694 13.2772 128.87 16.1832C128.916 16.948 129.191 18.4775 129.367 19.3799C129.902 22.0948 132.426 24.6338 135.225 24.8861C137.316 25.0379 139.417 24.8257 141.435 24.259C141.833 24.1596 143.102 23.4943 143.27 23.4407C143.439 23.3872 143.622 22.9895 143.637 22.7754C143.639 22.4235 143.59 22.0733 143.492 21.7353C143.368 21.3007 143.218 20.8741 143.041 20.4582C142.912 20.2221 142.707 20.0363 142.46 19.9305C142.332 19.9136 142.203 19.9405 142.093 20.007C142.093 20.007 141.626 20.2211 141.328 20.3664C140.663 20.5331 139.985 20.6406 139.301 20.6876C138.881 20.7335 138.032 20.7335 137.772 20.7488C137.199 20.7119 136.631 20.6092 136.082 20.4429C135.455 20.267 134.552 18.8063 134.445 18.531C134.314 18.1659 134.285 17.7719 134.361 17.3915C134.437 17.1009 134.843 17.0321 134.889 17.0168C134.935 17.0015 138.162 17.1009 138.223 17.0856C138.284 17.0703 140.265 17.0856 140.938 17.0856C141.611 17.0856 142.337 17.0856 142.873 17.0856C143.181 17.1145 143.492 17.086 143.79 17.0015C143.997 16.8959 144.169 16.7342 144.287 16.535C144.339 16.1727 144.367 15.8074 144.372 15.4414C144.394 14.4075 144.353 13.3731 144.249 12.3442ZM139.179 13.3383C139.133 13.6136 138.789 13.6901 138.376 13.6595C137.221 13.5754 136.082 13.5831 134.912 13.5142C134.731 13.5267 134.549 13.5267 134.369 13.5142C134.284 13.5142 134.269 13.0324 134.369 12.4665C134.616 11.7241 135.035 11.0506 135.592 10.5011C135.84 10.2619 136.141 10.0861 136.472 9.98871L137.053 9.87399C137.247 9.85165 137.443 9.87077 137.629 9.93011C137.815 9.98944 137.986 10.0876 138.131 10.2181C138.563 10.6537 138.899 11.1747 139.118 11.7476C139.199 12.2738 139.219 12.8075 139.179 13.3383Z" fill="white"/>
<path d="M147.591 24.6491C147.591 24.6491 147.354 21.0165 147.354 20.5653C147.354 20.1141 147.545 15.6709 147.576 15.3038C147.606 14.9367 147.79 11.4036 147.79 11.0059C147.79 10.6082 147.721 9.2546 147.675 8.71163C147.593 8.23163 147.413 7.77355 147.147 7.36566C147.126 7.33963 147.111 7.30846 147.105 7.27512C147.098 7.24177 147.101 7.20736 147.111 7.17517C147.122 7.14297 147.141 7.11405 147.166 7.09117C147.191 7.0683 147.221 7.05222 147.254 7.04446C147.918 6.81973 148.606 6.67343 149.304 6.60855C149.822 6.65163 150.334 6.74642 150.834 6.89151C151.324 7.0607 151.78 7.31719 152.18 7.64862C152.394 7.83198 152.589 8.037 152.761 8.26042C152.837 8.35984 153.082 8.19924 153.181 8.14571C153.729 7.74802 154.304 7.39021 154.902 7.07505C155.512 6.80549 156.147 6.59797 156.799 6.4556C157.543 6.39703 158.292 6.42011 159.032 6.52443C159.742 6.75842 160.407 7.11282 160.997 7.57214C161.562 8.02745 162.008 8.61255 162.297 9.27755C162.582 9.91402 162.758 10.594 162.817 11.2889C162.817 11.8854 162.863 13.3002 162.909 13.5219C162.955 13.7437 163.085 19.5558 163.085 19.5558C163.085 19.5558 163.008 22.4543 163.024 22.5307C162.955 22.9362 162.837 23.3317 162.672 23.7085C162.59 23.9339 162.443 24.1305 162.251 24.2744C161.893 24.4163 161.513 24.4964 161.127 24.5115C160.622 24.5115 159.598 24.5956 159.276 24.5726C158.852 24.5771 158.44 24.4308 158.114 24.1597C156.63 22.7296 157.158 19.8235 157.105 17.9652C157.105 17.4451 157.105 12.8107 157.005 12.4436C156.783 11.9743 156.408 11.5941 155.942 11.3653C155.503 11.2045 155.02 11.2045 154.581 11.3653C154.083 11.6847 153.62 12.0537 153.197 12.4666C152.946 12.8834 152.807 13.3572 152.791 13.8431C152.791 14.3326 152.853 15.0209 152.868 15.7933C152.883 16.5657 153.013 22.8061 153.013 22.8061C153.013 22.8061 153.013 23.6626 153.013 23.7391C152.964 23.9054 152.871 24.0557 152.745 24.175C152.533 24.3636 152.264 24.4766 151.981 24.4962C151.56 24.4962 150.451 24.565 149.985 24.5803C149.518 24.5956 148.708 24.5803 148.532 24.5803L147.591 24.6491Z" fill="white"/>
<path d="M182.006 15.0897C182.011 14.0587 181.888 13.031 181.639 12.0307C181.278 10.8421 180.669 9.74392 179.852 8.80903C179.034 7.87415 178.027 7.12403 176.897 6.60857C174.924 5.72145 172.309 6.11912 170.343 6.78446C169.392 7.1931 168.53 7.7827 167.804 8.52045C167.189 9.28545 166.66 10.1165 166.229 10.9983C165.986 11.7196 165.844 12.4711 165.808 13.2313C165.808 13.652 165.808 16.1298 165.808 16.6116C165.808 17.0934 166.068 18.2864 166.145 18.9058C166.426 19.8258 166.811 20.7109 167.292 21.5442C167.812 22.3357 168.47 23.0273 169.234 23.5861C170.065 24.1375 170.972 24.5651 171.926 24.8556C172.547 24.9613 173.177 25.01 173.807 25.0009C174.513 25.0155 175.217 24.9226 175.895 24.7256C177.46 24.2404 178.854 23.3169 179.91 22.0643C180.543 21.259 181.057 20.3681 181.44 19.4182C181.709 18.821 181.857 18.1764 181.876 17.5216C181.944 17.0092 182.044 16.5427 182.006 15.0897ZM176.262 18.0034C176.226 18.7744 175.944 19.5137 175.459 20.1141C175.023 20.4812 174.695 20.9936 173.968 20.9783C173.629 20.9513 173.299 20.8545 172.999 20.6939C172.699 20.5334 172.435 20.3125 172.224 20.0453C171.786 19.2061 171.474 18.3067 171.299 17.3763C171.23 16.7186 171.299 13.6596 171.299 13.369C171.425 12.6871 171.662 12.0307 172.003 11.4265C172.323 10.989 172.722 10.6155 173.18 10.3253C173.428 10.2419 173.685 10.1905 173.945 10.1723C174.129 10.1456 174.316 10.1556 174.496 10.2015C174.675 10.2474 174.844 10.3285 174.993 10.44C175.405 10.6552 175.734 11.0026 175.926 11.4265C176.273 12.2851 176.46 13.2001 176.476 14.1261C176.461 15.1585 176.301 17.3151 176.262 18.0034Z" fill="white"/>
<path d="M182.671 6.76151C182.837 6.66582 183.022 6.60835 183.214 6.59326C183.636 6.55394 184.06 6.53862 184.483 6.54738C185.546 6.63915 187.481 6.05028 188.185 7.17447C188.546 7.8177 188.858 8.48753 189.118 9.17813C189.171 9.39991 189.768 11.7018 189.768 11.7018L191.374 18.3322L191.649 19.8618L191.84 19.9076L192.483 16.3668L193.806 11.1053L195.006 6.9374C195.212 6.78552 195.442 6.6692 195.687 6.59326C196.085 6.59326 200.275 6.40972 200.107 7.15918C200.107 7.27389 199.725 8.68869 199.495 9.39226C199.266 10.0958 197.843 14.5314 197.843 14.5314L195.893 21.4142C195.893 21.4142 195.205 23.6702 195.174 23.8232C195.083 24.0731 194.921 24.291 194.708 24.4503C193.909 24.5972 193.102 24.6942 192.291 24.7409C191.871 24.7409 190.938 24.6338 190.28 24.6185C189.568 24.6274 188.873 24.4046 188.299 23.9838C187.688 23.502 187.19 22.0107 187.06 21.7966C186.93 21.5825 184.713 13.2696 184.713 13.2696L182.77 7.2586C182.77 7.2586 182.541 6.88387 182.671 6.76151Z" fill="white"/>
<path d="M206.837 17.231C207.128 17.231 207.755 17.231 208.007 17.231C208.26 17.231 212.244 17.4222 212.596 17.4069C212.948 17.3916 214.271 17.4069 214.714 17.3305C215.126 17.2781 215.522 17.14 215.877 16.9251C216.229 16.7187 216.282 16.1604 216.343 15.7168C216.404 15.2733 216.297 12.9331 216.244 12.3519C216.11 11.5617 215.879 10.7911 215.556 10.0576C215.077 9.14062 214.428 8.32308 213.644 7.64866C212.347 6.74324 210.83 6.20427 209.253 6.08853C207.675 5.97278 206.096 6.28454 204.681 6.99098C200.857 8.97169 200.628 13.9197 200.903 17.644C201.003 18.8223 201.353 19.9658 201.927 20.9993C202.502 22.0328 203.289 22.9327 204.237 23.6397C206.31 25.1692 208.826 25.0621 211.258 24.7409C212.087 24.5679 212.897 24.3117 213.674 23.9762C214.336 23.7244 214.976 23.4174 215.586 23.0585C216.695 22.5002 215.494 20.2442 214.722 19.8541C214.431 19.7088 214.057 19.8541 213.453 20.0606C212.634 20.3074 211.798 20.4915 210.952 20.6113C209.071 20.7719 206.639 19.9153 206.363 17.6822C206.356 17.4069 206.547 17.2616 206.837 17.231ZM206.478 13.0631C206.532 12.7878 206.853 11.5336 206.967 11.2124C207.163 10.7918 207.46 10.4265 207.832 10.1494C208.104 9.99052 208.397 9.87202 208.703 9.79762C209.065 9.79594 209.423 9.87429 209.751 10.0271C210.18 10.2737 210.549 10.6134 210.829 11.0212C211.021 11.3883 211.151 11.4113 211.212 11.8778C211.253 12.3153 211.253 12.7556 211.212 13.1931C211.211 13.2343 211.202 13.2749 211.185 13.3126C211.168 13.3502 211.144 13.3842 211.115 13.4126C211.085 13.441 211.05 13.4633 211.011 13.4781C210.973 13.4929 210.932 13.5001 210.891 13.499C210.699 13.499 208.971 13.5755 208.558 13.5602C208.145 13.5449 206.707 13.6137 206.639 13.6137C206.57 13.6137 206.402 13.3384 206.478 13.0631Z" fill="white"/>
<path d="M126.943 7.86271C126.905 8.57156 126.742 9.2681 126.461 9.9199C126.238 10.5882 125.921 11.2216 125.521 11.8012C125.214 12.3252 124.821 12.7932 124.358 13.1854C123.8 13.5831 123.127 13.8278 122.553 14.1949C123.829 14.8985 124.783 16.0688 125.215 17.4604L125.979 19.9917C126.332 20.9974 126.904 21.9118 127.654 22.6684C127.983 23.0431 128.205 23.1425 127.738 23.479C127.272 23.8155 126.584 24.2438 126.492 24.2896C126.199 24.42 125.894 24.5225 125.582 24.5955C125.111 24.7101 124.629 24.7691 124.144 24.7714C123.326 24.7497 122.546 24.4223 121.957 23.8537C121.408 23.1661 121.021 22.3636 120.825 21.5059L119.548 17.7816C119.351 17.1597 119.001 16.5971 118.531 16.145C117.964 15.7282 117.267 15.5275 116.565 15.5791C116.068 15.5791 115.036 15.3038 115.105 16.0073V17.8581L114.944 20.03L115.105 23.9761V24.4732C114.558 24.5239 114.009 24.5418 113.46 24.5267C113.078 24.5267 112.696 24.6873 112.267 24.6873C111.323 24.7725 110.371 24.6949 109.453 24.4579C109.453 24.4579 109.453 23.9149 109.453 23.8767V18.5922L109.598 6.56263L109.43 0.391061L109.683 0.146339C111.74 0.0928065 112.52 0.222815 113.927 0.199872C115.334 0.17693 117.751 0.0392737 118.561 0.0392737C119.639 0.0120546 120.714 0.161899 121.743 0.482831C122.683 0.681675 123.566 1.08941 124.328 1.67585C125.124 2.42061 125.755 3.32481 126.178 4.32955C126.66 5.44645 126.92 6.64651 126.943 7.86271ZM115.196 4.3219C114.898 4.69663 115.074 5.69846 115.074 6.11142V11.1894C115.196 11.2052 115.319 11.2052 115.441 11.1894C116.795 11.1894 118.5 11.3347 119.632 10.7C120.082 10.4682 120.448 10.102 120.68 9.65224C120.951 9.03409 121.074 8.36102 121.039 7.68682C121.073 7.20844 121.012 6.72806 120.858 6.27374C120.704 5.81942 120.462 5.40026 120.144 5.04077C118.936 3.86305 117.024 4.22248 115.556 4.15365C115.486 4.14612 115.416 4.15783 115.353 4.18749C115.289 4.21716 115.235 4.26365 115.196 4.3219Z" fill="white"/>
<path d="M21.9499 33.7649C22.1532 33.5632 22.4281 33.45 22.7146 33.45C23.0011 33.45 23.276 33.5632 23.4794 33.7649L28.7715 39.0035C28.9749 39.2053 29.2497 39.3185 29.5362 39.3185C29.8227 39.3185 30.0976 39.2053 30.301 39.0035L31.4787 37.8258C31.6804 37.6224 31.7936 37.3475 31.7936 37.061C31.7936 36.7746 31.6804 36.4997 31.4787 36.2963L26.2095 31.0195C26.0078 30.8161 25.8946 30.5412 25.8946 30.2547C25.8946 29.9682 26.0078 29.6934 26.2095 29.49L28.7562 26.9433C28.9615 26.7452 29.2356 26.6345 29.5209 26.6345C29.8062 26.6345 30.0804 26.7452 30.2857 26.9433L35.5548 32.2201C35.7601 32.4183 36.0343 32.529 36.3196 32.529C36.6049 32.529 36.8791 32.4183 37.0843 32.2201L38.2697 31.0348C38.4678 30.8295 38.5786 30.5553 38.5786 30.27C38.5786 29.9847 38.4678 29.7106 38.2697 29.5053L26.2248 17.3992C26.0231 17.1958 25.9099 16.9209 25.9099 16.6344C25.9099 16.348 26.0231 16.0731 26.2248 15.8697L28.7715 13.3231C28.9768 13.1249 29.2509 13.0142 29.5362 13.0142C29.8215 13.0142 30.0957 13.1249 30.301 13.3231L42.407 25.3985C42.6104 25.6003 42.8853 25.7135 43.1718 25.7135C43.4583 25.7135 43.7331 25.6003 43.9365 25.3985L45.1143 24.2208C45.316 24.0174 45.4292 23.7425 45.4292 23.4561C45.4292 23.1696 45.316 22.8947 45.1143 22.6913L23.4947 1.03346C23.2894 0.835332 23.0152 0.724609 22.7299 0.724609C22.4446 0.724609 22.1704 0.835332 21.9651 1.03346L0.314951 22.676C0.113203 22.8794 0 23.1543 0 23.4408C0 23.7272 0.113203 24.0021 0.314951 24.2055L1.52326 25.3985C1.72666 25.6003 2.00154 25.7135 2.28802 25.7135C2.5745 25.7135 2.84938 25.6003 3.05277 25.3985L21.9499 6.4938C22.1532 6.29206 22.4281 6.17885 22.7146 6.17885C23.0011 6.17885 23.276 6.29206 23.4794 6.4938L26.026 9.03279C26.2241 9.23808 26.3348 9.51224 26.3348 9.79754C26.3348 10.0828 26.2241 10.357 26.026 10.5623L7.12891 29.49C6.93079 29.6953 6.82006 29.9694 6.82006 30.2547C6.82006 30.54 6.93079 30.8142 7.12891 31.0195L8.31428 32.2048C8.51957 32.403 8.79374 32.5137 9.07904 32.5137C9.36434 32.5137 9.6385 32.403 9.84379 32.2048L21.9499 20.1294C22.1532 19.9276 22.4281 19.8144 22.7146 19.8144C23.0011 19.8144 23.276 19.9276 23.4794 20.1294L26.026 22.676C26.2277 22.8794 26.3409 23.1543 26.3409 23.4408C26.3409 23.7272 26.2277 24.0021 26.026 24.2055L13.9505 36.3116C13.7488 36.515 13.6356 36.7898 13.6356 37.0763C13.6356 37.3628 13.7488 37.6377 13.9505 37.8411L15.1282 39.0035C15.3335 39.2016 15.6077 39.3124 15.893 39.3124C16.1783 39.3124 16.4525 39.2016 16.6578 39.0035L21.9499 33.7649Z" fill="white"/>
<path d="M126.805 30.8665C126.881 30.8675 126.954 30.8896 127.018 30.9301C127.081 30.9706 127.132 31.028 127.165 31.0959C127.319 31.3595 127.412 31.6544 127.437 31.9588C127.462 32.2633 127.419 32.5694 127.31 32.8548C127.096 33.3902 126.897 33.7419 126.683 34.2084C125.865 36.1316 124.545 37.7987 122.859 39.034C122.36 39.3939 121.831 39.7086 121.276 39.9747C121.216 40.0002 121.149 40.0066 121.084 39.9929C121.02 39.9793 120.962 39.9462 120.917 39.8982C120.647 39.5977 120.347 39.326 120.022 39.0876C119.998 39.0733 119.978 39.0531 119.965 39.029C119.951 39.0049 119.944 38.9776 119.944 38.9499C119.944 38.9222 119.951 38.895 119.965 38.8708C119.978 38.8467 119.998 38.8265 120.022 38.8123C120.8 38.4758 121.534 38.047 122.209 37.5351C122.888 36.9639 123.494 36.3115 124.014 35.5927C124.683 34.7252 125.2 33.7503 125.543 32.7095C125.552 32.6852 125.555 32.6591 125.551 32.6335C125.547 32.608 125.538 32.5837 125.523 32.5626C125.508 32.5416 125.488 32.5245 125.465 32.5128C125.442 32.5011 125.416 32.4951 125.39 32.4954C125.146 32.4954 124.526 32.396 124.083 32.396C123.509 32.396 123.081 32.4954 122.706 32.4954C122.597 32.4957 122.49 32.5214 122.393 32.5706C122.296 32.6197 122.212 32.6909 122.148 32.7784C121.645 33.4972 121.079 34.1702 120.458 34.7897C120.243 35.0057 119.956 35.134 119.652 35.1496C119.348 35.1652 119.049 35.0668 118.814 34.8738C118.745 34.8126 118.668 34.7591 118.584 34.6979C118.559 34.6778 118.538 34.6523 118.524 34.6232C118.51 34.594 118.502 34.562 118.502 34.5296C118.502 34.4972 118.51 34.4653 118.524 34.4361C118.538 34.407 118.559 34.3814 118.584 34.3614C119.127 33.9462 119.638 33.4912 120.114 33.0001C120.582 32.4506 120.999 31.8592 121.36 31.2335C121.436 31.1134 121.541 31.0144 121.665 30.9462C121.79 30.8779 121.929 30.8426 122.071 30.8435H123.792L126.805 30.8665Z" fill="white"/>
<path d="M132.992 31.6313C132.992 32.3961 132.862 33.2144 132.908 34.0097C132.908 34.4839 132.969 34.9657 132.992 35.4475C132.992 35.5103 132.967 35.5706 132.923 35.6151C132.878 35.6596 132.818 35.6845 132.755 35.6845H132.074C131.878 35.6848 131.689 35.6095 131.547 35.4742C131.404 35.339 131.319 35.1541 131.31 34.958C131.31 34.5833 131.378 34.1933 131.363 33.8109V32.8626V31.5854V30.2395C131.363 30.2039 131.37 30.1686 131.385 30.1361C131.399 30.1036 131.421 30.0747 131.448 30.0514C131.475 30.0281 131.506 30.0109 131.541 30.0011C131.575 29.9914 131.611 29.9892 131.646 29.9948C132.025 30.0706 132.365 30.2749 132.611 30.5731C132.856 30.8714 132.991 31.2452 132.992 31.6313ZM136.816 29.9565C136.815 29.9229 136.822 29.8896 136.836 29.8589C136.85 29.8282 136.87 29.801 136.896 29.7791C136.921 29.7572 136.951 29.7412 136.984 29.7322C137.016 29.7232 137.05 29.7215 137.083 29.7271C137.479 29.8096 137.834 30.0257 138.089 30.3391C138.343 30.6524 138.483 31.0439 138.483 31.4478C138.54 32.2957 138.54 33.1465 138.483 33.9944C138.422 35.3004 137.992 36.5624 137.244 37.6347C136.682 38.318 135.994 38.8866 135.217 39.3095C134.871 39.5556 134.478 39.7298 134.063 39.8219C133.772 39.8219 133.611 39.4012 133.512 39.1795C133.469 39.0975 133.443 39.0076 133.436 38.9154C133.428 38.8231 133.44 38.7303 133.469 38.6425C133.498 38.5546 133.545 38.4736 133.606 38.4043C133.667 38.3349 133.742 38.2786 133.826 38.2388C134.488 37.9723 135.099 37.5918 135.63 37.1146C136.127 36.5686 136.47 35.9011 136.625 35.1798C136.778 34.5066 136.868 33.8203 136.892 33.1302C136.892 32.4802 136.785 31.7996 136.785 31.1342L136.816 29.9565Z" fill="white"/>
<path d="M148.058 30.7747C147.485 32.9253 146.44 34.9211 144.999 36.6175C144.123 37.573 143.088 38.3699 141.94 38.9729C141.772 39.0723 141.611 39.1641 141.443 39.2482C141.397 39.283 141.341 39.3018 141.283 39.3018C141.145 39.3018 140.923 38.95 140.824 38.8582C140.746 38.7752 140.687 38.6758 140.653 38.5673C140.618 38.4588 140.608 38.3439 140.623 38.231C140.639 38.1182 140.679 38.0101 140.742 37.9149C140.804 37.8196 140.887 37.7395 140.984 37.6805C142.475 36.9545 143.752 35.856 144.693 34.4914C145.201 33.673 145.616 32.801 145.932 31.8913C146.14 31.2233 146.284 30.537 146.361 29.8417C146.364 29.8186 146.373 29.7966 146.387 29.7774C146.401 29.7583 146.419 29.7426 146.439 29.7315C146.46 29.7204 146.483 29.7142 146.506 29.7135C146.53 29.7127 146.553 29.7173 146.575 29.727C147.032 29.933 147.474 30.1706 147.898 30.4383C147.957 30.4698 148.005 30.5195 148.033 30.58C148.062 30.6406 148.071 30.7089 148.058 30.7747Z" fill="white"/>
<path d="M150.689 35.7074C150.605 35.6236 150.539 35.5241 150.493 35.4145C150.448 35.3049 150.424 35.1875 150.424 35.0688C150.424 34.9502 150.448 34.8328 150.493 34.7232C150.539 34.6136 150.605 34.5141 150.689 34.4303C151.653 33.5202 152.471 32.4878 153.358 31.5089C153.51 31.297 153.709 31.1228 153.939 30.9998C154.169 30.8768 154.425 30.8082 154.685 30.7993C154.946 30.7905 155.205 30.8415 155.443 30.9487C155.681 31.0558 155.891 31.216 156.058 31.4171C156.929 32.3195 157.587 33.3749 158.405 34.3309C159.163 35.2321 159.991 36.071 160.883 36.8392C160.93 36.8767 160.962 36.9291 160.975 36.9876C160.987 37.0461 160.979 37.1072 160.952 37.1604C160.752 37.5025 160.527 37.8296 160.279 38.1393C160.257 38.1652 160.229 38.186 160.198 38.2002C160.167 38.2144 160.134 38.2218 160.099 38.2218C160.065 38.2218 160.032 38.2144 160.001 38.2002C159.97 38.186 159.942 38.1652 159.92 38.1393C159.346 37.5734 158.818 36.954 158.298 36.3345C157.995 35.9688 157.716 35.583 157.465 35.1797C157.079 34.6803 156.665 34.2029 156.226 33.7496C155.331 32.6331 155.163 32.4878 154.842 32.4878C154.391 32.4878 154.023 32.9008 153.748 33.2525C153.473 33.6043 153.098 34.0173 152.785 34.3997C152.272 35.0344 151.775 35.7227 151.393 36.0974C151.346 36.1432 151.282 36.1688 151.217 36.1688C151.151 36.1688 151.088 36.1432 151.041 36.0974L150.689 35.7074Z" fill="white"/>
<path d="M115.785 32.7324C115.785 31.7841 115.495 30.9658 114.546 30.9658L107.725 31.0194C107.536 31.0194 107.355 31.0943 107.222 31.2277C107.089 31.361 107.014 31.5419 107.014 31.7306C107.014 31.8376 107.014 31.9447 107.014 32.0518C107.067 34.346 107.075 36.6403 107.014 38.8887C107.014 38.9268 107.021 38.9646 107.036 38.9999C107.05 39.0351 107.072 39.0672 107.099 39.0942C107.126 39.1212 107.158 39.1426 107.193 39.1572C107.228 39.1718 107.266 39.1793 107.304 39.1793H115.411C115.51 39.1793 115.605 39.1398 115.676 39.0695C115.746 38.9993 115.785 38.9039 115.785 38.8046L115.686 36.8085L115.785 32.7324ZM114.072 37.6727C114.03 37.6841 113.985 37.6841 113.942 37.6727C113.078 37.7415 112.206 37.7951 111.335 37.7874C110.386 37.8148 109.438 37.743 108.505 37.5733C108.505 36.8085 108.604 36.0438 108.597 35.279C108.597 34.3843 108.528 33.4972 108.505 32.6024C108.505 32.5314 108.533 32.4633 108.583 32.4131C108.634 32.3629 108.702 32.3347 108.773 32.3347H109.109C109.874 32.3347 110.05 32.243 110.799 32.243H112.275C112.543 32.243 113.178 32.3271 113.438 32.3577C113.521 32.3556 113.604 32.3701 113.682 32.4001C113.759 32.4301 113.831 32.4752 113.891 32.5327C113.951 32.5902 114 32.6591 114.034 32.7354C114.067 32.8116 114.086 32.8938 114.088 32.9771C114.111 33.3745 114.111 33.7728 114.088 34.1701C114.088 34.5908 114.088 35.0037 114.088 35.4167C114.088 35.8297 114.088 36.1814 114.088 36.5715V37.145C114.08 37.2674 114.179 37.5962 114.072 37.6727Z" fill="white"/>
<path d="M159.537 30.6906C159.721 30.8847 159.895 31.089 160.057 31.3024L159.865 31.5089C159.801 31.5796 159.722 31.6361 159.635 31.6747C159.547 31.7134 159.453 31.7334 159.357 31.7334C159.261 31.7334 159.166 31.7134 159.079 31.6747C158.991 31.6361 158.913 31.5796 158.848 31.5089C158.613 31.251 158.358 31.0131 158.083 30.7976L158.168 30.7059C158.254 30.6106 158.359 30.5342 158.476 30.4814C158.593 30.4286 158.72 30.4007 158.849 30.3992C158.977 30.3978 159.105 30.4229 159.223 30.4731C159.341 30.5232 159.448 30.5972 159.537 30.6906Z" fill="white"/>
<path d="M160.692 29.5892C160.883 29.7881 161.074 29.9869 161.212 30.1475C161.141 30.2072 161.075 30.271 161.013 30.3387C160.947 30.4074 160.868 30.4621 160.781 30.4995C160.693 30.5368 160.599 30.5561 160.504 30.5561C160.409 30.5561 160.315 30.5368 160.228 30.4995C160.14 30.4621 160.061 30.4074 159.996 30.3387C159.774 30.1008 159.539 29.8761 159.292 29.6657L159.346 29.6122C159.522 29.4316 159.762 29.3279 160.014 29.3236C160.266 29.3193 160.509 29.4148 160.692 29.5892Z" fill="white"/>
<path d="M127.05 29.1764C127.249 29.3656 127.438 29.5647 127.616 29.7729C127.524 29.8341 127.325 29.9412 127.104 30.0941C127.003 30.1628 126.881 30.1929 126.76 30.1788C126.64 30.1648 126.528 30.1075 126.446 30.0177C126.212 29.7422 125.957 29.4865 125.681 29.2529L125.911 29.077C126.082 28.958 126.29 28.9027 126.498 28.9209C126.706 28.939 126.902 29.0294 127.05 29.1764Z" fill="white"/>
<path d="M129.007 28.84C129.206 29.0541 129.382 29.2606 129.489 29.3982L128.962 29.75C128.873 29.8102 128.764 29.8334 128.658 29.8149C128.553 29.7963 128.459 29.7374 128.396 29.6506C128.154 29.3278 127.882 29.0283 127.585 28.7558L127.661 28.7023C127.862 28.5529 128.112 28.4841 128.361 28.5096C128.61 28.5351 128.841 28.6529 129.007 28.84Z" fill="white"/>
</svg>
