<svg width="109" height="20" viewBox="0 0 109 20" fill="none" xmlns="http://www.w3.org/2000/svg">
<path d="M33.3901 9.82378C33.3901 9.82378 33.5851 9.82378 33.6157 9.89643C33.6555 10.0199 33.6749 10.1491 33.6731 10.2788C33.6731 10.2788 33.6234 10.6612 33.6234 10.7377C33.6114 10.9311 33.582 11.1231 33.5354 11.3112C33.5095 11.4914 33.434 11.6609 33.3175 11.8007C33.206 11.9456 33.0544 12.0547 32.8815 12.1142C32.7056 12.1486 32.4992 12.2595 32.2736 12.3016C32.048 12.3436 31.8529 12.3398 31.5738 12.3704C31.2869 12.4027 30.9983 12.4167 30.7096 12.4125C30.2508 12.4125 29.5625 12.4125 29.5051 12.4125C29.4478 12.4125 27.6774 12.3475 27.4938 12.3398C27.1626 12.2825 26.8409 12.1795 26.5379 12.0339C26.3971 11.9561 26.2755 11.8477 26.1822 11.7167C26.0889 11.5856 26.0262 11.4353 25.9988 11.2768C25.9605 10.9824 25.9988 10.08 25.9682 9.81613C25.9376 9.55229 26.014 7.1739 26.014 7.1739V5.20466L26.0599 2.88746L26.1096 0.271995C26.0963 0.228376 26.0963 0.181783 26.1096 0.138163C26.1364 0.0731593 26.1517 -0.00713996 26.3276 0.000507581C26.5035 0.00815513 27.2453 0.00050758 27.3638 0.0234502C27.6067 0.0417441 27.8441 0.105291 28.0636 0.210815C28.266 0.323954 28.4461 0.472957 28.5951 0.650549C28.7759 0.854982 28.8741 1.11946 28.8704 1.39236C28.8704 1.77474 28.8933 3.84722 28.8704 3.92752C28.8678 4.04523 28.8755 4.16294 28.8933 4.27931C28.8933 4.39402 28.9163 7.61746 28.9163 7.61746C28.9163 7.61746 28.9163 8.55046 28.9163 8.65753C28.9163 8.76459 28.8933 9.26933 28.8781 9.38022C28.8795 9.50555 28.9069 9.62921 28.9584 9.74348C28.9889 9.80848 29.0769 9.83143 29.249 9.83907C29.421 9.84672 30.8626 9.83907 30.8626 9.83907L33.0536 9.86202L33.3901 9.82378Z" fill="white"/>
<path d="M42.6894 7.77102C42.6796 7.27479 42.6155 6.78113 42.4982 6.29887C42.3972 5.9256 42.2694 5.56012 42.1158 5.20527C41.9851 4.87785 41.7974 4.57621 41.5614 4.31433C41.1997 3.89366 40.7324 3.5769 40.2078 3.39662C39.143 2.97473 37.955 2.98847 36.9002 3.43486C36.5975 3.59957 36.3173 3.80263 36.0666 4.03902C35.7114 4.40081 35.3925 4.79655 35.1145 5.22056C34.3497 6.24916 34.1815 7.94691 34.5677 9.16287C34.8013 10.0924 35.2792 10.9426 35.9519 11.6254C37.0073 12.5966 39.0109 12.6769 40.3492 12.3519C41.1675 12.1531 41.657 11.3195 42.0202 10.6274C42.4716 9.74362 42.7013 8.76332 42.6894 7.77102V7.77102ZM39.986 7.82838C40.0015 8.31238 39.95 8.79621 39.833 9.26611C39.7298 9.64849 39.4506 10.4362 38.5291 10.4362C37.6076 10.4362 37.3476 9.40377 37.3323 9.28906C37.317 9.17434 37.252 7.65248 37.2443 7.446C37.2137 6.57418 37.5005 5.23203 38.6132 5.23203C38.8805 5.20211 39.1494 5.27064 39.3697 5.4248C39.5901 5.57895 39.7466 5.80814 39.8101 6.06944C39.9178 6.6498 39.9766 7.23818 39.986 7.82838V7.82838Z" fill="white"/>
<path d="M51.8354 7.4414C51.8354 7.2005 51.7857 6.61164 51.7398 6.33251C51.3575 3.93882 48.1226 2.50873 46.0424 3.49144C45.2127 3.87382 44.555 4.89094 44.1305 5.68246C43.9479 6.16264 43.852 6.67148 43.8476 7.18521C43.7332 8.36743 43.8847 9.56027 44.2911 10.6763C44.5788 11.1763 44.9699 11.6091 45.4383 11.9458C46.3369 12.6073 47.7058 12.5385 48.6464 12.0414C48.7947 11.9273 48.9317 11.7993 49.0556 11.659V11.7776C49.0415 11.9067 49.0172 12.0346 48.9829 12.1599C48.9523 12.3129 48.8567 12.8367 48.807 12.9973C48.7056 13.2244 48.5644 13.4316 48.3902 13.6091C48.1379 13.769 47.8669 13.8974 47.5834 13.9915C47.2385 14.0682 46.884 14.0927 46.5319 14.0642C46.3113 14.0595 46.092 14.03 45.878 13.9762C45.6298 13.9082 45.388 13.8186 45.1553 13.7086C45.1047 13.6928 45.0514 13.6877 44.9987 13.6936C44.9461 13.6995 44.8952 13.7164 44.8494 13.743C44.7793 13.8515 44.7204 13.9668 44.6735 14.0871C44.5616 14.36 44.4671 14.6397 44.3906 14.9245C44.3525 15.148 44.3371 15.3748 44.3447 15.6013C44.3676 15.6625 44.3676 15.6969 44.5511 15.7696C45.231 15.9219 45.9192 16.0343 46.6122 16.1061C48.2373 16.1061 49.8777 16.2514 50.868 14.7066C50.933 14.6033 51.2504 13.9112 51.3498 13.7086C51.4492 13.5059 51.6557 12.5614 51.694 12.3664C51.7322 12.1714 51.8163 10.7222 51.8163 10.6457C51.8163 10.5692 51.8431 7.6823 51.8354 7.4414ZM49.1091 6.94048C49.1091 7.35345 49.0861 8.6803 49.0861 8.73001C49.1037 8.95488 49.0921 9.18108 49.0517 9.40299C48.9932 9.63727 48.8562 9.84441 48.6634 9.98985C48.4707 10.1353 48.2339 10.2102 47.9925 10.2022C47.742 10.2048 47.4968 10.1293 47.2912 9.98604C47.0855 9.8428 46.9297 9.63898 46.8454 9.40299C46.7657 9.00743 46.707 8.60793 46.6695 8.20615C46.6695 8.00349 46.7231 6.8793 46.7154 6.67664C46.739 6.33522 46.8245 6.00093 46.9678 5.69011C47.0764 5.53027 47.2192 5.39657 47.3859 5.29869C47.5525 5.20082 47.7388 5.14121 47.9314 5.12419C48.1592 5.13367 48.3783 5.21386 48.5585 5.35362C48.751 5.49063 48.9169 5.66169 49.0479 5.85836C49.119 6.2144 49.1396 6.57869 49.1091 6.94048V6.94048Z" fill="white"/>
<path d="M72.1246 6.17171C72.1012 5.88988 72.0327 5.61362 71.922 5.35342C71.7203 4.92886 71.4488 4.54111 71.119 4.20629C70.8181 3.95193 70.4986 3.72057 70.163 3.51419C69.9986 3.43389 69.5971 3.28094 69.3333 3.19299C68.9771 3.10716 68.6134 3.05594 68.2473 3.04004C68.2473 3.04004 67.9491 3.04004 67.7885 3.04004C67.4154 3.10862 67.0494 3.21101 66.6949 3.34594C66.3713 3.50388 66.0745 3.71162 65.8154 3.96157C64.6377 4.98252 64.3471 6.63821 64.435 8.09124C64.458 8.47362 64.5956 9.23837 64.6836 9.68958C64.9512 11.047 66.2131 12.3165 67.6126 12.4427C68.6579 12.5186 69.7084 12.4125 70.7175 12.1291C70.9163 12.0794 71.5511 11.7468 71.6352 11.72C71.7193 11.6932 71.8111 11.4944 71.8187 11.3873C71.8195 11.2114 71.7951 11.0363 71.7461 10.8673C71.6842 10.65 71.6088 10.4367 71.5205 10.2287C71.4559 10.1107 71.3535 10.0178 71.2299 9.96489C71.1661 9.95641 71.1014 9.9699 71.0463 10.0031C71.0463 10.0031 70.8131 10.1102 70.6639 10.1828C70.3316 10.2662 69.9925 10.3199 69.6506 10.3434C69.4403 10.3664 69.0159 10.3664 68.8859 10.374C68.5993 10.3556 68.3157 10.3042 68.0408 10.2211C67.7273 10.1331 67.2761 9.4028 67.2225 9.26514C67.157 9.08258 67.1424 8.8856 67.1805 8.6954C67.2187 8.5501 67.4214 8.51568 67.4443 8.50803C67.4673 8.50039 69.0809 8.5501 69.1115 8.54245C69.1421 8.5348 70.1324 8.54245 70.4689 8.54245C70.8054 8.54245 71.1687 8.54245 71.4363 8.54245C71.5906 8.55688 71.7462 8.54262 71.8952 8.50039C71.9983 8.44758 72.0845 8.36673 72.1437 8.26714C72.1695 8.08597 72.1836 7.90332 72.1858 7.72034C72.1969 7.20336 72.1765 6.68619 72.1246 6.17171V6.17171ZM69.5895 6.6688C69.5665 6.80646 69.3944 6.84469 69.188 6.8294C68.6106 6.78734 68.0408 6.79116 67.4558 6.75675C67.3654 6.76297 67.2747 6.76297 67.1843 6.75675C67.1422 6.75675 67.1346 6.51585 67.1843 6.23289C67.3079 5.86167 67.5176 5.52494 67.7961 5.25018C67.9199 5.13056 68.0707 5.04266 68.2358 4.99399L68.5265 4.93663C68.6234 4.92546 68.7216 4.93502 68.8145 4.96469C68.9075 4.99435 68.9931 5.04344 69.0656 5.1087C69.2815 5.3265 69.4495 5.58698 69.5589 5.87345C69.5994 6.13653 69.6097 6.40339 69.5895 6.6688V6.6688Z" fill="white"/>
<path d="M73.7957 12.3244C73.7957 12.3244 73.6772 10.5081 73.6772 10.2825C73.6772 10.0569 73.7728 7.83533 73.7881 7.65178C73.8034 7.46824 73.8952 5.70166 73.8952 5.50282C73.8952 5.30399 73.8607 4.62718 73.8378 4.35569C73.7968 4.11569 73.707 3.88665 73.574 3.68271C73.5631 3.66969 73.5557 3.65411 73.5525 3.63744C73.5494 3.62077 73.5505 3.60356 73.5559 3.58746C73.5613 3.57136 73.5707 3.5569 73.5832 3.54547C73.5957 3.53403 73.611 3.52599 73.6275 3.52211C73.9594 3.40974 74.3033 3.33659 74.6523 3.30415C74.9113 3.32569 75.1675 3.37309 75.417 3.44563C75.6623 3.53023 75.8903 3.65848 76.09 3.82419C76.1972 3.91587 76.2945 4.01838 76.3806 4.13009C76.4188 4.1798 76.5412 4.0995 76.5909 4.07273C76.8645 3.87389 77.152 3.69498 77.4513 3.5374C77.7562 3.40263 78.0739 3.29886 78.3996 3.22768C78.7719 3.19839 79.1463 3.20993 79.5161 3.26209C79.8713 3.37909 80.2037 3.55629 80.4988 3.78595C80.7811 4.0136 81.0041 4.30615 81.1489 4.63865C81.2914 4.95689 81.3793 5.29686 81.4089 5.6443C81.4089 5.94256 81.4318 6.64996 81.4548 6.76085C81.4777 6.87174 81.5427 9.7778 81.5427 9.7778C81.5427 9.7778 81.5045 11.227 81.5121 11.2653C81.4777 11.468 81.4186 11.6657 81.3362 11.8541C81.295 11.9668 81.2219 12.0651 81.1259 12.1371C80.9466 12.208 80.7565 12.2481 80.5638 12.2556C80.3115 12.2556 79.7991 12.2977 79.6385 12.2862C79.4264 12.2884 79.2204 12.2153 79.0573 12.0797C78.3154 11.3647 78.5793 9.91163 78.5525 8.98246C78.5525 8.72244 78.5525 6.40523 78.5028 6.22169C78.3918 5.98701 78.2044 5.79693 77.9713 5.68254C77.7516 5.60213 77.5104 5.60213 77.2907 5.68254C77.042 5.84223 76.8101 6.02671 76.5986 6.23316C76.4735 6.44157 76.4037 6.6785 76.3959 6.92144C76.3959 7.16617 76.4265 7.5103 76.4341 7.89651C76.4418 8.28271 76.5068 11.4029 76.5068 11.4029C76.5068 11.4029 76.5068 11.8312 76.5068 11.8694C76.4821 11.9526 76.436 12.0277 76.373 12.0874C76.2668 12.1817 76.1323 12.2382 75.9906 12.248C75.7803 12.248 75.2258 12.2824 74.9926 12.29C74.7593 12.2977 74.354 12.29 74.2661 12.29L73.7957 12.3244Z" fill="white"/>
<path d="M91.0031 7.54411C91.006 7.02862 90.9443 6.51478 90.8195 6.01461C90.6394 5.42034 90.3349 4.87123 89.9261 4.40378C89.5173 3.93634 89.0137 3.56128 88.4488 3.30355C87.4622 2.85999 86.1545 3.05883 85.1718 3.3915C84.6964 3.59582 84.2652 3.89062 83.9023 4.25949C83.5946 4.64199 83.3304 5.05751 83.1146 5.4984C82.9932 5.85905 82.9224 6.23482 82.9043 6.61494C82.9043 6.82524 82.9043 8.06415 82.9043 8.30504C82.9043 8.54594 83.0343 9.14245 83.0725 9.45218C83.2132 9.91218 83.4057 10.3547 83.6461 10.7714C83.9061 11.1671 84.2351 11.5129 84.6173 11.7923C85.0329 12.068 85.4863 12.2818 85.9633 12.4271C86.274 12.4799 86.5889 12.5042 86.904 12.4997C87.2569 12.507 87.6089 12.4606 87.9479 12.3621C88.7304 12.1195 89.4271 11.6577 89.9553 11.0314C90.2715 10.6288 90.529 10.1833 90.7201 9.70837C90.8546 9.40975 90.9287 9.08746 90.9381 8.76007C90.9725 8.50388 91.0222 8.27063 91.0031 7.54411ZM88.1314 9.00097C88.1131 9.38648 87.9725 9.75614 87.7299 10.0563C87.5119 10.2399 87.3475 10.4961 86.9843 10.4884C86.8147 10.4749 86.6497 10.4265 86.4996 10.3462C86.3496 10.2659 86.2178 10.1555 86.1124 10.0219C85.8933 9.60232 85.7374 9.15263 85.6498 8.68742C85.6154 8.35858 85.6498 6.82907 85.6498 6.68377C85.7125 6.3428 85.8314 6.0146 86.0016 5.71253C86.1617 5.49379 86.3614 5.30702 86.5904 5.1619C86.7141 5.1202 86.8426 5.0945 86.9728 5.08543C87.0646 5.07209 87.1582 5.07705 87.2481 5.10001C87.338 5.12298 87.4225 5.16351 87.4967 5.21926C87.703 5.32687 87.8672 5.50055 87.9632 5.71253C88.1368 6.14181 88.2301 6.59933 88.2385 7.06232C88.2308 7.57853 88.1505 8.65683 88.1314 9.00097Z" fill="white"/>
<path d="M91.3354 3.38026C91.4185 3.33242 91.5112 3.30369 91.6069 3.29614C91.8178 3.27648 92.0298 3.26882 92.2416 3.2732C92.7731 3.31908 93.7405 3.02465 94.0923 3.58675C94.273 3.90836 94.429 4.24327 94.5588 4.58858C94.5856 4.69947 94.8838 5.85042 94.8838 5.85042L95.6868 9.16563L95.8245 9.93039L95.9201 9.95333L96.2413 8.18292L96.9028 5.55217L97.5031 3.46821C97.6062 3.39227 97.7212 3.33411 97.8434 3.29614C98.0423 3.29614 100.138 3.20437 100.054 3.5791C100.054 3.63646 99.8624 4.34386 99.7477 4.69564C99.633 5.04743 98.9217 7.26522 98.9217 7.26522L97.9467 10.7066C97.9467 10.7066 97.6025 11.8346 97.5872 11.9111C97.5416 12.0361 97.4606 12.145 97.354 12.2247C96.9546 12.2981 96.5511 12.3466 96.1457 12.37C95.9354 12.37 95.4689 12.3164 95.14 12.3088C94.7842 12.3132 94.4366 12.2018 94.1497 11.9914C93.8438 11.7505 93.5952 11.0049 93.5302 10.8978C93.4652 10.7907 92.3563 6.6343 92.3563 6.6343L91.3851 3.62881C91.3851 3.62881 91.2704 3.44145 91.3354 3.38026Z" fill="white"/>
<path d="M103.418 8.61528C103.564 8.61528 103.877 8.61528 104.003 8.61528C104.129 8.61528 106.122 8.71087 106.298 8.70322C106.473 8.69557 107.135 8.70322 107.357 8.66498C107.562 8.63881 107.76 8.56977 107.938 8.46232C108.114 8.35908 108.141 8.07995 108.171 7.85817C108.202 7.63639 108.148 6.46632 108.121 6.17571C108.054 5.78062 107.939 5.39533 107.777 5.02858C107.538 4.57007 107.214 4.1613 106.821 3.82409C106.173 3.37138 105.415 3.10189 104.626 3.04402C103.837 2.98615 103.047 3.14203 102.34 3.49524C100.428 4.4856 100.313 6.95958 100.451 8.82176C100.501 9.41089 100.676 9.98268 100.963 10.4994C101.251 11.0162 101.644 11.4661 102.118 11.8196C103.154 12.5844 104.412 12.5308 105.628 12.3702C106.043 12.2837 106.448 12.1556 106.837 11.9878C107.168 11.8619 107.487 11.7084 107.793 11.529C108.347 11.2499 107.747 10.1218 107.361 9.92683C107.215 9.85418 107.028 9.92683 106.726 10.0301C106.317 10.1535 105.899 10.2455 105.475 10.3054C104.535 10.3857 103.319 9.95742 103.181 8.84088C103.177 8.70322 103.273 8.63057 103.418 8.61528ZM103.239 6.53132C103.265 6.39366 103.426 5.76656 103.483 5.60597C103.581 5.39566 103.729 5.21299 103.915 5.07446C104.051 4.99502 104.198 4.93576 104.351 4.89857C104.532 4.89773 104.711 4.9369 104.875 5.01328C105.09 5.13659 105.274 5.30646 105.414 5.51037C105.51 5.69391 105.575 5.70538 105.605 5.93863C105.626 6.15739 105.626 6.37757 105.605 6.59632C105.605 6.61691 105.6 6.6372 105.592 6.65603C105.584 6.67487 105.572 6.69187 105.557 6.70607C105.542 6.72028 105.524 6.7314 105.505 6.73882C105.486 6.74623 105.465 6.74978 105.445 6.74927C105.349 6.74927 104.485 6.78751 104.279 6.77986C104.072 6.77222 103.353 6.80663 103.319 6.80663C103.284 6.80663 103.2 6.66898 103.239 6.53132Z" fill="white"/>
<path d="M63.4713 3.93087C63.4525 4.28529 63.3709 4.63356 63.2304 4.95946C63.1187 5.29362 62.9604 5.61031 62.76 5.90011C62.6069 6.16209 62.4104 6.39613 62.1788 6.59221C61.8997 6.79105 61.5632 6.91341 61.2764 7.09695C61.9143 7.44875 62.3912 8.03392 62.6071 8.7297L62.9895 9.99537C63.1656 10.4982 63.4517 10.9554 63.8269 11.3337C63.9913 11.5211 64.1022 11.5708 63.8689 11.739C63.6357 11.9073 63.2916 12.1214 63.2457 12.1443C63.0991 12.2095 62.9468 12.2607 62.7906 12.2973C62.5553 12.3545 62.314 12.3841 62.0718 12.3852C61.6627 12.3744 61.2725 12.2107 60.9782 11.9264C60.7038 11.5825 60.5103 11.1813 60.4123 10.7525L59.7737 8.8903C59.6751 8.57937 59.5003 8.29805 59.2651 8.07201C58.9817 7.8636 58.6332 7.76326 58.2824 7.78906C58.0339 7.78906 57.5177 7.6514 57.5521 8.00319V8.92854L57.4718 10.0145L57.5521 11.9876V12.2361C57.2788 12.2615 57.0043 12.2704 56.73 12.2629C56.5388 12.2629 56.3476 12.3432 56.1335 12.3432C55.6613 12.3858 55.1853 12.347 54.7263 12.2285C54.7263 12.2285 54.7263 11.957 54.7263 11.9378V9.29562L54.799 3.28083L54.7148 0.195042L54.841 0.0726814C55.8696 0.045915 56.2596 0.110919 56.9632 0.0994478C57.6668 0.0879765 58.8751 0.0191486 59.2804 0.0191486C59.8192 0.00553904 60.3566 0.0804613 60.8711 0.240927C61.3412 0.340349 61.7829 0.544215 62.1635 0.837436C62.5618 1.20981 62.8771 1.66192 63.0889 2.16429C63.3298 2.72274 63.4597 3.32277 63.4713 3.93087ZM57.598 2.16046C57.4488 2.34783 57.5368 2.84874 57.5368 3.05522V5.59421C57.5977 5.60209 57.6594 5.60209 57.7203 5.59421C58.3971 5.59421 59.2498 5.66686 59.8157 5.34949C60.0406 5.23361 60.2237 5.05049 60.3396 4.82563C60.4753 4.51656 60.5369 4.18002 60.5193 3.84292C60.5364 3.60373 60.5056 3.36354 60.4288 3.13638C60.352 2.90922 60.2307 2.69964 60.0719 2.5199C59.4678 1.93104 58.5118 2.11075 57.7777 2.07634C57.7429 2.07257 57.7077 2.07843 57.6761 2.09326C57.6444 2.10809 57.6174 2.13134 57.598 2.16046V2.16046Z" fill="white"/>
<path d="M10.9749 16.8825C11.0766 16.7816 11.2141 16.725 11.3573 16.725C11.5005 16.725 11.638 16.7816 11.7397 16.8825L14.3857 19.5018C14.4874 19.6026 14.6249 19.6592 14.7681 19.6592C14.9114 19.6592 15.0488 19.6026 15.1505 19.5018L15.7393 18.9129C15.8402 18.8112 15.8968 18.6738 15.8968 18.5305C15.8968 18.3873 15.8402 18.2498 15.7393 18.1481L13.1048 15.5097C13.0039 15.408 12.9473 15.2706 12.9473 15.1274C12.9473 14.9841 13.0039 14.8467 13.1048 14.745L14.3781 13.4717C14.4807 13.3726 14.6178 13.3172 14.7605 13.3172C14.9031 13.3172 15.0402 13.3726 15.1428 13.4717L17.7774 16.1101C17.8801 16.2091 18.0171 16.2645 18.1598 16.2645C18.3024 16.2645 18.4395 16.2091 18.5422 16.1101L19.1349 15.5174C19.2339 15.4147 19.2893 15.2777 19.2893 15.135C19.2893 14.9924 19.2339 14.8553 19.1349 14.7526L13.1124 8.6996C13.0115 8.5979 12.9549 8.46047 12.9549 8.31722C12.9549 8.17398 13.0115 8.03654 13.1124 7.93485L14.3857 6.66153C14.4884 6.56247 14.6255 6.50711 14.7681 6.50711C14.9108 6.50711 15.0478 6.56247 15.1505 6.66153L21.2035 12.6993C21.3052 12.8001 21.4427 12.8567 21.5859 12.8567C21.7291 12.8567 21.8666 12.8001 21.9683 12.6993L22.5571 12.1104C22.658 12.0087 22.7146 11.8713 22.7146 11.728C22.7146 11.5848 22.658 11.4473 22.5571 11.3457L11.7473 0.516729C11.6447 0.417666 11.5076 0.362305 11.365 0.362305C11.2223 0.362305 11.0852 0.417666 10.9826 0.516729L0.157476 11.338C0.0566017 11.4397 0 11.5771 0 11.7204C0 11.8636 0.0566017 12.0011 0.157476 12.1028L0.761632 12.6993C0.863329 12.8001 1.00077 12.8567 1.14401 12.8567C1.28725 12.8567 1.42469 12.8001 1.52639 12.6993L10.9749 3.2469C11.0766 3.14603 11.2141 3.08943 11.3573 3.08943C11.5005 3.08943 11.638 3.14603 11.7397 3.2469L13.013 4.51639C13.1121 4.61904 13.1674 4.75612 13.1674 4.89877C13.1674 5.04142 13.1121 5.17851 13.013 5.28115L3.56446 14.745C3.46539 14.8476 3.41003 14.9847 3.41003 15.1274C3.41003 15.27 3.46539 15.4071 3.56446 15.5097L4.15714 16.1024C4.25979 16.2015 4.39687 16.2568 4.53952 16.2568C4.68217 16.2568 4.81925 16.2015 4.9219 16.1024L10.9749 10.0647C11.0766 9.96381 11.2141 9.90721 11.3573 9.90721C11.5005 9.90721 11.638 9.96381 11.7397 10.0647L13.013 11.338C13.1139 11.4397 13.1705 11.5771 13.1705 11.7204C13.1705 11.8636 13.1139 12.0011 13.013 12.1028L6.97526 18.1558C6.87439 18.2575 6.81779 18.3949 6.81779 18.5382C6.81779 18.6814 6.87439 18.8188 6.97526 18.9205L7.56412 19.5018C7.66677 19.6008 7.80385 19.6562 7.9465 19.6562C8.08915 19.6562 8.22623 19.6008 8.32888 19.5018L10.9749 16.8825Z" fill="white"/>
<path d="M63.4029 15.4334C63.4405 15.4339 63.4773 15.4449 63.509 15.4652C63.5408 15.4854 63.5663 15.5141 63.5826 15.5481C63.6597 15.6799 63.7063 15.8273 63.7188 15.9795C63.7314 16.1318 63.7097 16.2848 63.6552 16.4275C63.5482 16.6952 63.4488 16.8711 63.3417 17.1043C62.933 18.0659 62.2725 18.8995 61.4298 19.5171C61.1804 19.697 60.9155 19.8544 60.6383 19.9875C60.608 20.0002 60.5745 20.0034 60.5424 19.9966C60.5103 19.9897 60.481 19.9732 60.4586 19.9492C60.3239 19.799 60.174 19.6631 60.0112 19.5439C59.9993 19.5368 59.9895 19.5267 59.9826 19.5146C59.9758 19.5026 59.9722 19.4889 59.9722 19.4751C59.9722 19.4612 59.9758 19.4476 59.9826 19.4355C59.9895 19.4235 59.9993 19.4134 60.0112 19.4063C60.4 19.238 60.7672 19.0236 61.1048 18.7677C61.4442 18.4821 61.7472 18.1559 62.0072 17.7964C62.3419 17.3627 62.6005 16.8752 62.7719 16.3549C62.7763 16.3427 62.7776 16.3297 62.7758 16.3169C62.7739 16.3041 62.7691 16.2919 62.7616 16.2814C62.7541 16.2709 62.7442 16.2624 62.7326 16.2565C62.7211 16.2507 62.7084 16.2477 62.6955 16.2478C62.5731 16.2478 62.2634 16.1981 62.0416 16.1981C61.7548 16.1981 61.5407 16.2478 61.3533 16.2478C61.299 16.248 61.2454 16.2608 61.197 16.2854C61.1485 16.31 61.1064 16.3456 61.0742 16.3893C60.8226 16.7487 60.5399 17.0852 60.2291 17.3949C60.1219 17.503 59.9782 17.5671 59.8262 17.5749C59.6742 17.5827 59.5247 17.5335 59.407 17.437C59.3726 17.4064 59.3344 17.3797 59.2923 17.3491C59.2796 17.339 59.2693 17.3263 59.2622 17.3117C59.2551 17.2971 59.2515 17.2811 59.2515 17.2649C59.2515 17.2487 59.2551 17.2328 59.2622 17.2182C59.2693 17.2036 59.2796 17.1908 59.2923 17.1808C59.5638 16.9732 59.8194 16.7457 60.0571 16.5002C60.2914 16.2254 60.5 15.9297 60.6803 15.6169C60.7181 15.5568 60.7706 15.5073 60.8328 15.4732C60.8951 15.4391 60.965 15.4214 61.0359 15.4219H61.8963L63.4029 15.4334Z" fill="white"/>
<path d="M66.496 15.816C66.496 16.1984 66.431 16.6076 66.454 17.0052C66.454 17.2423 66.4845 17.4832 66.496 17.7241C66.496 17.7555 66.4835 17.7857 66.4613 17.8079C66.4391 17.8301 66.4089 17.8426 66.3775 17.8426H66.0372C65.939 17.8428 65.8445 17.8051 65.7733 17.7375C65.7021 17.6699 65.6597 17.5774 65.6548 17.4794C65.6548 17.292 65.6892 17.097 65.6815 16.9058V16.4317V15.7931V15.1201C65.6813 15.1023 65.685 15.0846 65.6923 15.0684C65.6996 15.0522 65.7104 15.0377 65.7239 15.0261C65.7373 15.0144 65.7532 15.0058 65.7703 15.0009C65.7874 14.996 65.8054 14.995 65.823 14.9977C66.0123 15.0357 66.1827 15.1378 66.3054 15.2869C66.428 15.436 66.4954 15.623 66.496 15.816ZM68.4079 14.9786C68.4077 14.9618 68.4111 14.9451 68.418 14.9298C68.425 14.9145 68.4352 14.9009 68.4479 14.8899C68.4607 14.879 68.4757 14.871 68.4919 14.8665C68.5081 14.862 68.5251 14.8611 68.5417 14.8639C68.7394 14.9052 68.9169 15.0132 69.0443 15.1699C69.1717 15.3266 69.2413 15.5223 69.2415 15.7243C69.2702 16.1482 69.2702 16.5736 69.2415 16.9976C69.2109 17.6506 68.9961 18.2816 68.622 18.8177C68.3412 19.1593 67.9972 19.4437 67.6087 19.6551C67.4353 19.7781 67.239 19.8653 67.0313 19.9113C66.886 19.9113 66.8057 19.701 66.756 19.5901C66.7346 19.5491 66.7216 19.5042 66.7179 19.458C66.7141 19.4119 66.7198 19.3655 66.7344 19.3216C66.749 19.2777 66.7724 19.2372 66.803 19.2025C66.8337 19.1678 66.871 19.1397 66.9128 19.1198C67.2441 18.9865 67.5495 18.7963 67.8152 18.5577C68.0633 18.2847 68.2348 17.9509 68.3123 17.5903C68.3892 17.2537 68.434 16.9105 68.4461 16.5655C68.4461 16.2405 68.3926 15.9002 68.3926 15.5675L68.4079 14.9786Z" fill="white"/>
<path d="M74.0292 15.3871C73.7425 16.4624 73.2201 17.4603 72.4997 18.3085C72.0615 18.7863 71.5441 19.1847 70.9702 19.4862C70.886 19.5359 70.8057 19.5818 70.7216 19.6239C70.6985 19.6412 70.6703 19.6506 70.6413 19.6506C70.5725 19.6506 70.4616 19.4747 70.4119 19.4289C70.3729 19.3874 70.3436 19.3377 70.3263 19.2834C70.3089 19.2292 70.3039 19.1717 70.3116 19.1153C70.3193 19.0588 70.3395 19.0048 70.3708 18.9572C70.402 18.9096 70.4435 18.8695 70.4922 18.84C71.2373 18.477 71.8761 17.9278 72.3467 17.2455C72.6004 16.8363 72.8082 16.4002 72.9662 15.9454C73.0701 15.6114 73.1418 15.2683 73.1803 14.9206C73.1822 14.909 73.1867 14.898 73.1935 14.8885C73.2004 14.8789 73.2093 14.8711 73.2197 14.8655C73.23 14.86 73.2415 14.8569 73.2532 14.8565C73.265 14.8561 73.2767 14.8584 73.2874 14.8633C73.5159 14.9662 73.7369 15.0851 73.9489 15.2189C73.9785 15.2346 74.0023 15.2595 74.0167 15.2898C74.0312 15.3201 74.0355 15.3542 74.0292 15.3871Z" fill="white"/>
<path d="M75.3443 17.8539C75.3023 17.812 75.269 17.7623 75.2463 17.7075C75.2236 17.6527 75.2119 17.594 75.2119 17.5347C75.2119 17.4754 75.2236 17.4166 75.2463 17.3618C75.269 17.3071 75.3023 17.2573 75.3443 17.2154C75.8261 16.7603 76.2352 16.2441 76.6788 15.7547C76.7549 15.6487 76.8543 15.5616 76.9694 15.5001C77.0844 15.4386 77.212 15.4043 77.3424 15.3999C77.4728 15.3955 77.6025 15.421 77.7214 15.4746C77.8404 15.5281 77.9455 15.6083 78.0286 15.7088C78.4645 16.16 78.7933 16.6877 79.2025 17.1657C79.5811 17.6163 79.9954 18.0357 80.4414 18.4199C80.4647 18.4386 80.4809 18.4648 80.4872 18.494C80.4934 18.5233 80.4894 18.5538 80.4758 18.5805C80.3755 18.7515 80.2631 18.915 80.1393 19.0699C80.1282 19.0828 80.1144 19.0932 80.0989 19.1003C80.0834 19.1075 80.0665 19.1111 80.0495 19.1111C80.0324 19.1111 80.0155 19.1075 80 19.1003C79.9845 19.0932 79.9707 19.0828 79.9596 19.0699C79.6728 18.7869 79.409 18.4772 79.149 18.1675C78.9972 17.9846 78.8579 17.7917 78.7322 17.5901C78.5392 17.3404 78.3324 17.1017 78.1127 16.8751C77.6653 16.3168 77.5812 16.2441 77.4206 16.2441C77.195 16.2441 77.0115 16.4506 76.8738 16.6265C76.7362 16.8024 76.5488 17.0089 76.392 17.2001C76.1358 17.5175 75.8873 17.8616 75.6961 18.049C75.6725 18.0719 75.641 18.0847 75.6081 18.0847C75.5753 18.0847 75.5438 18.0719 75.5202 18.049L75.3443 17.8539Z" fill="white"/>
<path d="M57.8927 16.3667C57.8927 15.8925 57.7474 15.4834 57.2732 15.4834L53.8624 15.5102C53.7681 15.5102 53.6777 15.5476 53.611 15.6143C53.5443 15.681 53.5068 15.7715 53.5068 15.8658C53.5068 15.9193 53.5068 15.9728 53.5068 16.0264C53.5336 17.1735 53.5374 18.3206 53.5068 19.4448C53.5068 19.4639 53.5106 19.4828 53.5179 19.5004C53.5252 19.5181 53.5359 19.5341 53.5494 19.5476C53.5629 19.5611 53.5789 19.5718 53.5965 19.5791C53.6142 19.5864 53.6331 19.5901 53.6521 19.5901H57.7053C57.755 19.5901 57.8027 19.5704 57.8378 19.5353C57.873 19.5001 57.8927 19.4525 57.8927 19.4028L57.843 18.4048L57.8927 16.3667ZM57.0362 18.8368C57.0149 18.8425 56.9925 18.8425 56.9712 18.8368C56.5391 18.8713 56.1032 18.898 55.6673 18.8942C55.1932 18.9079 54.7191 18.872 54.2525 18.7871C54.2525 18.4048 54.3022 18.0224 54.2984 17.64C54.2984 17.1926 54.2639 16.7491 54.2525 16.3017C54.2525 16.2662 54.2666 16.2321 54.2917 16.2071C54.3168 16.182 54.3508 16.1679 54.3863 16.1679H54.5545C54.9369 16.1679 55.0249 16.122 55.3996 16.122H56.1376C56.2714 16.122 56.5888 16.164 56.7188 16.1793C56.7605 16.1783 56.802 16.1855 56.8408 16.2005C56.8797 16.2155 56.9153 16.2381 56.9455 16.2668C56.9757 16.2956 56.9999 16.33 57.0168 16.3682C57.0336 16.4063 57.0428 16.4474 57.0438 16.489C57.0553 16.6877 57.0553 16.8869 57.0438 17.0856C57.0438 17.2959 57.0438 17.5024 57.0438 17.7088C57.0438 17.9153 57.0438 18.0912 57.0438 18.2862V18.573C57.04 18.6342 57.0897 18.7986 57.0362 18.8368Z" fill="white"/>
<path d="M79.7685 15.3449C79.8608 15.442 79.9476 15.5441 80.0285 15.6508L79.9329 15.7541C79.9007 15.7894 79.8614 15.8177 79.8176 15.837C79.7739 15.8563 79.7265 15.8663 79.6787 15.8663C79.6308 15.8663 79.5835 15.8563 79.5397 15.837C79.4959 15.8177 79.4566 15.7894 79.4244 15.7541C79.307 15.6251 79.1791 15.5062 79.042 15.3984L79.0841 15.3526C79.1272 15.3049 79.1797 15.2667 79.2383 15.2403C79.2969 15.214 79.3603 15.2 79.4246 15.1992C79.4889 15.1985 79.5526 15.2111 79.6118 15.2362C79.671 15.2612 79.7243 15.2983 79.7685 15.3449V15.3449Z" fill="white"/>
<path d="M80.3457 14.795C80.4413 14.8944 80.5369 14.9938 80.6058 15.0741C80.5707 15.104 80.5375 15.1359 80.5063 15.1697C80.4735 15.2041 80.434 15.2314 80.3903 15.2501C80.3466 15.2688 80.2996 15.2784 80.2521 15.2784C80.2045 15.2784 80.1575 15.2688 80.1138 15.2501C80.0701 15.2314 80.0306 15.2041 79.9978 15.1697C79.8872 15.0508 79.7697 14.9384 79.646 14.8332L79.6728 14.8065C79.7608 14.7162 79.8808 14.6643 80.0069 14.6622C80.1329 14.66 80.2547 14.7078 80.3457 14.795V14.795Z" fill="white"/>
<path d="M63.5253 14.5885C63.6246 14.683 63.719 14.7826 63.8082 14.8867C63.7624 14.9173 63.6629 14.9708 63.552 15.0473C63.5018 15.0816 63.4409 15.0967 63.3805 15.0896C63.32 15.0826 63.2642 15.054 63.2232 15.0091C63.1064 14.8714 62.9785 14.7435 62.8408 14.6267L62.9555 14.5387C63.0414 14.4792 63.1453 14.4516 63.2494 14.4607C63.3534 14.4698 63.451 14.515 63.5253 14.5885V14.5885Z" fill="white"/>
<path d="M64.5042 14.4197C64.6036 14.5268 64.6916 14.63 64.7451 14.6989L64.4813 14.8748C64.4369 14.9048 64.3825 14.9165 64.3297 14.9072C64.2769 14.8979 64.2298 14.8685 64.1983 14.8251C64.0774 14.6637 63.9417 14.5139 63.793 14.3777L63.8312 14.3509C63.9317 14.2762 64.0565 14.2418 64.1811 14.2546C64.3056 14.2673 64.4209 14.3262 64.5042 14.4197V14.4197Z" fill="white"/>
</svg>
