<?xml version="1.0" encoding="utf-8"?>
<!-- Generator: Adobe Illustrator 25.3.1, SVG Export Plug-In . SVG Version: 6.00 Build 0)  -->
<svg version="1.1" id="Layer_1" xmlns="http://www.w3.org/2000/svg" xmlns:xlink="http://www.w3.org/1999/xlink" x="0px" y="0px"
	 viewBox="0 0 274.6 66.8" style="enable-background:new 0 0 274.6 66.8;" xml:space="preserve">
<style type="text/css">
	.st0{fill:#FFFFFF;}
</style>
<g id="Layer_2_1_">
	<g id="新文字">
		<g>
			<path class="st0" d="M46.7,40l-3.9-3.9L20.7,58.2c3.3,1.7,6.8,2.7,10.5,3l15.5-15.5C48.3,44.1,48.3,41.6,46.7,40z"/>
			<path class="st0" d="M17.4,48.3c-3-3-3-8,0-11l3.9-3.9l-3.9-3.9c-3-3-3-8,0-11L30.2,5.7C14.9,7.4,3.9,21.2,5.7,36.5
				c0.9,7.9,5.2,15.1,11.7,19.7l4-4L17.4,48.3z"/>
			<path class="st0" d="M46.7,26.9c1.6-1.5,1.6-4.1,0.1-5.7c0,0,0,0-0.1-0.1l-3.9-3.9L36,24l6.8,6.8L46.7,26.9z"/>
			<path class="st0" d="M20.1,40c-1.6,1.5-1.6,4.1-0.1,5.7c0,0,0,0,0.1,0.1l3.9,3.9l6.8-6.8L24,36L20.1,40z"/>
			<path class="st0" d="M20,26.8C20.1,26.8,20.1,26.8,20,26.8l4,4L46.1,8.6c-3.3-1.7-6.8-2.7-10.5-3L20.1,21.1
				C18.5,22.6,18.5,25.2,20,26.8z"/>
			<rect x="28.6" y="28.6" transform="matrix(0.7071 -0.7071 0.7071 0.7071 -13.8347 33.4)" class="st0" width="9.6" height="9.6"/>
			<path class="st0" d="M53,32.2c-0.2,0-0.4,0.1-0.5,0.3c-0.1,0.3-0.2,0.6-0.2,0.8c0,0.3,0.1,0.6,0.2,0.9c0.1,0.2,0.3,0.3,0.5,0.3
				s0.4-0.1,0.5-0.3c0.2-0.5,0.2-1.2,0-1.7C53.4,32.3,53.2,32.2,53,32.2z"/>
			<path class="st0" d="M55.5,32.2c-0.1,0-0.3,0.2-0.3,0.3c-0.1,0.3-0.2,0.6-0.2,0.8c0,0.3,0.1,0.6,0.2,0.9c0.1,0.3,0.4,0.4,0.6,0.3
				c0.1,0,0.3-0.2,0.3-0.3c0.3-0.5,0.3-1.2,0-1.7C56,32.2,55.7,32.1,55.5,32.2z"/>
			<path class="st0" d="M57,9.7c-13.1-13-34.2-13.1-47.3,0C-3.4,22.8-3.4,43.9,9.7,57C22.8,70.1,44,70.1,57,57
				C70.1,43.9,70,22.8,57,9.7z M55.5,55.4c-12.2,12.2-31.9,12.2-44.1,0c-12.2-12.1-12.1-31.9,0-44.1c12.1-12.2,31.9-12.2,44.1,0
				S67.7,43.3,55.5,55.4z"/>
			<path class="st0" d="M58.3,32.1c-0.3,0.1-0.6,0.3-0.6,0.6c0,0.2,0.1,0.3,0.2,0.4c0.1,0.1,0.3,0.2,0.4,0.2c0.2,0,0.3-0.1,0.4-0.2
				c0.2-0.2,0.2-0.6,0-0.8C58.6,32.2,58.4,32.1,58.3,32.1z"/>
			<path class="st0" d="M57,57C57.1,56.9,57,57,57,57L57,57z"/>
			<path class="st0" d="M61.1,30.3c-0.7-6.3-3.5-12.2-8-16.6c-1.1-1.1-2.4-2.2-3.7-3.1l-4,4l3.9,3.9c3,3,3,8,0,11l-3.9,3.9l3.9,3.9
				c3,3,3,8,0,11L36.6,61.1C51.9,59.4,62.9,45.5,61.1,30.3z M51.4,34.5v0.4h-2.1l1.1-1.3l0.3-0.3c0.1-0.1,0.1-0.2,0.2-0.2
				C51,33,51,32.9,51,32.8s-0.1-0.3-0.2-0.4c-0.1-0.1-0.2-0.2-0.4-0.2c-0.3,0-0.5,0.2-0.5,0.6h-0.5c0.1-0.7,0.4-1,1-1
				c0.3,0,0.5,0.1,0.7,0.3c0.2,0.2,0.3,0.4,0.3,0.7c0,0.2-0.1,0.3-0.1,0.5c-0.1,0.1-0.1,0.2-0.2,0.3c-0.1,0.1-0.2,0.3-0.3,0.4
				l-0.6,0.5H51.4z M54.1,33.3c0,0.4-0.1,0.9-0.3,1.2c-0.3,0.4-0.8,0.5-1.2,0.3c-0.1-0.1-0.2-0.2-0.3-0.3c-0.3-0.3-0.5-0.7-0.4-1.2
				c0-0.4,0.1-0.8,0.3-1.2c0.2-0.3,0.4-0.4,0.8-0.4c0.3,0,0.6,0.2,0.8,0.4C54.1,32.4,54.2,32.9,54.1,33.3z M56.8,33.3
				c0,0.4-0.1,0.9-0.3,1.2S56,35,55.7,35s-0.6-0.2-0.8-0.4c-0.2-0.4-0.3-0.8-0.3-1.3c0-0.4,0.1-0.8,0.3-1.2c0.2-0.3,0.4-0.4,0.8-0.4
				c0.3,0,0.6,0.2,0.8,0.4C56.8,32.4,56.9,32.9,56.8,33.3z M58.8,33.5L57.9,35l-0.3-0.3l0.7-1h-0.2c-0.3,0-0.5-0.1-0.7-0.3
				c-0.2-0.2-0.3-0.4-0.3-0.7c0-0.3,0.1-0.5,0.3-0.7c0.2-0.2,0.5-0.3,0.7-0.3c0.3,0,0.5,0.1,0.7,0.3s0.3,0.4,0.3,0.7
				C59.1,33,59,33.3,58.8,33.5z"/>
		</g>
		<path class="st0" d="M174.2,23h15.1v-2.7h-15.1c-4.4,0-8,3.6-8,8c0,1.9,0.7,3.8,2,5.3c1.5,1.7,3.6,2.7,5.9,2.7h7.2
			c2.9,0,5.3,2.3,5.3,5.2s-2.4,5.3-5.4,5.3h-15v2.7h15c4.4,0,8-3.6,8.1-8c0-1.9-0.7-3.8-2-5.2c-1.5-1.7-3.6-2.6-5.9-2.7h-7.1h-0.1
			c-2.9,0-5.3-2.4-5.3-5.3S171.3,23,174.2,23z"/>
		<polygon class="st0" points="85.1,20.3 82.3,20.3 82.3,49.4 105.5,49.4 105.5,46.7 85.1,46.7 		"/>
		<path class="st0" d="M119.2,49.4c-5.1,0-9.3-4.2-9.3-9.3v-2.6c0-5.1,4.2-9.3,9.3-9.3c5.1,0,9.3,4.1,9.3,9.3v2.6
			C128.4,45.3,124.3,49.4,119.2,49.4z M119.2,31c-3.6,0-6.6,2.9-6.6,6.6v2.6c-0.1,3.6,2.7,6.7,6.3,6.8s6.7-2.7,6.8-6.3
			c0-0.2,0-0.3,0-0.5v-2.6C125.7,33.9,122.8,31,119.2,31L119.2,31z"/>
		<path class="st0" d="M207.4,49.4c-5.1,0-9.3-4.2-9.3-9.3V28.3h2.7v11.9c0,3.6,2.9,6.6,6.6,6.6s6.6-2.9,6.6-6.6l0,0V28.3h2.7v11.9
			C216.6,45.3,212.5,49.4,207.4,49.4z"/>
		<rect x="226.4" y="28.3" class="st0" width="2.7" height="21.2"/>
		<rect x="226.4" y="20.3" class="st0" width="2.7" height="3.9"/>
		<path class="st0" d="M144.6,28.3c-5.1,0-9.3,4.2-9.3,9.3v2.6c0,5.1,4.2,9.3,9.3,9.3h6.6v0.9c0,1.7-1.4,3.1-3.2,3.1l0,0h-10.9v2.7
			H148c3.2,0,5.8-2.6,5.8-5.8V28.3H144.6z M144.6,46.8c-3.6,0-6.6-2.9-6.6-6.6l0,0v-2.6c0-3.6,3-6.5,6.6-6.5h6.6v15.8h-6.6V46.8z"/>
		<path class="st0" d="M273,49.4h-11.2c-3.2,0-5.9-2.6-5.9-5.8l0,0v-9c0-3.5,2.8-6.3,6.3-6.3h6c3.5,0.1,6.2,3.1,6,6.5
			c-0.1,3.3-2.8,5.9-6,6h-9.6v2.7c0,1.7,1.4,3.1,3.1,3.1h11.2L273,49.4z M258.7,38.2h9.6c2-0.1,3.5-1.8,3.4-3.8
			c-0.1-1.8-1.6-3.3-3.4-3.4h-6c-2,0-3.6,1.6-3.6,3.6V38.2z"/>
		<path class="st0" d="M248.5,31v-2.7h-5.4v-6.8h-2.7v6.8h-3.7V31h3.7v12.6c0,3.2,2.6,5.8,5.8,5.8h2.2v-2.7h-2.2
			c-1.7,0-3.1-1.4-3.1-3.1V31H248.5z"/>
	</g>
</g>
</svg>
