<svg width="309" height="291" viewBox="0 0 309 291" fill="none" xmlns="http://www.w3.org/2000/svg">
<circle cx="116.5" cy="153.5" r="108.5" fill="white"/>
<path d="M75.854 104.212V101.202H79.018V104.212H75.854ZM70.94 104.212V101.202H74.09V104.212H70.94ZM75.854 99.564V97.142H74.09V99.564H69.26V106.62H70.94V105.85H74.09V110.218H75.854V105.85H79.018V106.55H80.768V99.564H75.854ZM92.136 107.978H85.808V105.234H92.136V107.978ZM95.37 101.146V99.522H89.91V97.142H88.09V99.522H82.644V101.146H88.09V103.652H84.058V110.218H85.808V109.56H92.136V110.162H93.956V103.652H89.91V101.146H95.37ZM109.342 100.18L107.942 99.032C107.648 99.13 107.172 99.186 106.64 99.186H98.87C98.394 99.186 97.624 99.116 97.26 99.06V101.02C97.554 100.992 98.31 100.922 98.87 100.922H106.276C105.618 102.07 104.302 103.694 102.72 104.954C101.838 104.184 100.914 103.428 100.354 103.008L98.87 104.198C99.71 104.8 101.138 106.06 101.95 106.886C102.86 107.81 104.036 109.126 104.624 109.91L106.262 108.608C105.716 107.95 104.89 107.04 104.092 106.242C106.066 104.646 107.858 102.406 108.866 100.768C108.978 100.586 109.146 100.404 109.342 100.18ZM113.374 98.36L112.058 99.76C113.08 100.474 114.83 102 115.558 102.784L116.986 101.328C116.174 100.474 114.354 99.018 113.374 98.36ZM111.624 107.684L112.8 109.532C114.774 109.196 116.58 108.412 117.994 107.558C120.248 106.2 122.11 104.268 123.174 102.378L122.082 100.404C121.2 102.294 119.38 104.436 116.986 105.85C115.628 106.662 113.808 107.376 111.624 107.684ZM128.326 97.912L127.304 99.452C128.228 99.97 129.684 100.922 130.468 101.468L131.518 99.914C130.79 99.41 129.25 98.416 128.326 97.912ZM125.722 107.852L126.772 109.7C128.018 109.476 130.02 108.776 131.448 107.964C133.744 106.648 135.718 104.87 137.02 102.938L135.942 101.034C134.822 103.036 132.876 104.954 130.496 106.284C128.97 107.124 127.29 107.586 125.722 107.852ZM126.17 101.104L125.148 102.658C126.086 103.148 127.542 104.1 128.34 104.646L129.362 103.078C128.648 102.574 127.108 101.608 126.17 101.104ZM140.982 101.09V102.784C141.318 102.756 142.2 102.728 142.718 102.728H147.338V104.422H142.872C142.34 104.422 141.71 104.408 141.346 104.38V106.032C141.668 106.018 142.34 106.004 142.872 106.004H147.338V107.866H142.046C141.542 107.866 141.066 107.838 140.828 107.81V109.532C141.066 109.518 141.64 109.49 142.032 109.49H147.338C147.338 109.7 147.338 109.924 147.324 110.05H149.088C149.088 109.798 149.074 109.322 149.074 109.098V102.07C149.074 101.776 149.074 101.314 149.088 101.132C148.864 101.146 148.346 101.16 148.01 101.16H142.718C142.2 101.16 141.346 101.132 140.982 101.09ZM155.374 98.36L154.058 99.76C155.08 100.474 156.83 102 157.558 102.784L158.986 101.328C158.174 100.474 156.354 99.018 155.374 98.36ZM153.624 107.684L154.8 109.532C156.774 109.196 158.58 108.412 159.994 107.558C162.248 106.2 164.11 104.268 165.174 102.378L164.082 100.404C163.2 102.294 161.38 104.436 158.986 105.85C157.628 106.662 155.808 107.376 153.624 107.684Z" fill="#424242"/>
<rect x="117" y="84" width="5" height="5" transform="rotate(45 117 84)" fill="#73BEBE"/>
<rect width="87" height="25" transform="translate(73 63)" fill="#73BEBE"/>
<path d="M79.1239 76.332C79.0119 77.508 78.7879 78.754 78.3819 79.58C78.7459 79.706 79.3619 80 79.6559 80.182C80.0619 79.286 80.3559 77.886 80.4959 76.57L79.1239 76.332ZM82.2459 76.64C82.5959 77.494 82.9599 78.628 83.0719 79.342L84.3879 78.88C84.2199 78.166 83.8559 77.074 83.4779 76.248L82.2459 76.64ZM86.6139 70.508C86.8799 69.864 87.1179 69.192 87.2999 68.506L85.5919 68.142C85.1439 69.906 84.3179 71.698 83.2819 72.804L83.1839 72.636L82.0079 73.154C82.1759 73.448 82.3439 73.784 82.4979 74.12L81.0839 74.176C81.9939 73.042 82.9739 71.614 83.7579 70.382L82.3439 69.794C82.0079 70.494 81.5599 71.306 81.0559 72.09C80.9159 71.908 80.7479 71.698 80.5659 71.502C81.0699 70.718 81.6439 69.64 82.1479 68.674L80.6779 68.156C80.4399 68.884 80.0479 69.822 79.6559 70.592C79.5439 70.494 79.4319 70.396 79.3199 70.298L78.5359 71.446C79.1239 72.006 79.8099 72.762 80.2159 73.364C80.0059 73.672 79.7819 73.966 79.5719 74.232L78.5359 74.274L78.6759 75.73L80.7479 75.59V81.232H82.2179V75.478L83.0159 75.422C83.0999 75.702 83.1699 75.954 83.2119 76.178L84.4719 75.59C84.3179 74.89 83.8699 73.854 83.3799 72.972C83.7999 73.224 84.4159 73.644 84.6959 73.896C85.1159 73.392 85.5079 72.776 85.8859 72.09H89.7499C89.5959 76.864 89.3859 78.908 88.9659 79.342C88.7979 79.524 88.6439 79.58 88.3779 79.58C87.9999 79.58 87.2019 79.58 86.3199 79.496C86.6279 79.972 86.8519 80.7 86.8799 81.176C87.6919 81.204 88.5599 81.218 89.0639 81.134C89.6519 81.05 90.0159 80.896 90.4079 80.364C90.9959 79.622 91.1919 77.41 91.3739 71.278C91.3879 71.068 91.3879 70.508 91.3879 70.508H86.6139ZM88.1959 76.906C87.9019 76.024 87.1039 74.736 86.3759 73.77L85.0459 74.442C85.7599 75.45 86.4879 76.794 86.7539 77.676L88.1959 76.906ZM93.0117 73.0889V73.123H94.9258V73.082C94.9258 72.1729 95.582 71.5439 96.5391 71.5439C97.4414 71.5439 98.084 72.1045 98.084 72.8975C98.084 73.54 97.7354 74.0527 96.3477 75.4062L93.1279 78.5576V80H100.244V78.2842H95.9238V78.1611L97.8105 76.3633C99.5195 74.7568 100.101 73.834 100.101 72.7607C100.101 71.0654 98.665 69.8828 96.6074 69.8828C94.4746 69.8828 93.0117 71.1816 93.0117 73.0889ZM102.575 80H104.735L108.857 71.8516V70.1289H101.803V71.8311H106.779V71.9541L102.575 80ZM110.204 82.6729L111.448 78.4004H109.5L108.871 82.6729H110.204ZM116.91 80.2529C119.351 80.2529 120.827 78.3184 120.827 75.0576C120.827 71.7832 119.33 69.8828 116.91 69.8828C114.483 69.8828 112.993 71.7832 112.993 75.0508C112.993 78.3252 114.47 80.2529 116.91 80.2529ZM116.91 78.5713C115.782 78.5713 115.085 77.3545 115.085 75.0508C115.085 72.7607 115.789 71.5713 116.91 71.5713C118.038 71.5713 118.735 72.7539 118.735 75.0508C118.735 77.3613 118.045 78.5713 116.91 78.5713ZM126.494 80.2529C128.935 80.2529 130.411 78.3184 130.411 75.0576C130.411 71.7832 128.914 69.8828 126.494 69.8828C124.067 69.8828 122.577 71.7832 122.577 75.0508C122.577 78.3252 124.054 80.2529 126.494 80.2529ZM126.494 78.5713C125.366 78.5713 124.669 77.3545 124.669 75.0508C124.669 72.7607 125.373 71.5713 126.494 71.5713C127.622 71.5713 128.319 72.7539 128.319 75.0508C128.319 77.3613 127.629 78.5713 126.494 78.5713ZM136.078 80.2529C138.519 80.2529 139.995 78.3184 139.995 75.0576C139.995 71.7832 138.498 69.8828 136.078 69.8828C133.651 69.8828 132.161 71.7832 132.161 75.0508C132.161 78.3252 133.638 80.2529 136.078 80.2529ZM136.078 78.5713C134.95 78.5713 134.253 77.3545 134.253 75.0508C134.253 72.7607 134.957 71.5713 136.078 71.5713C137.206 71.5713 137.903 72.7539 137.903 75.0508C137.903 77.3613 137.213 78.5713 136.078 78.5713ZM144.286 68.198C143.6 70.186 142.41 72.174 141.178 73.434C141.458 73.854 141.92 74.75 142.074 75.17C142.354 74.862 142.634 74.512 142.914 74.162V81.204H144.496V71.684C145.028 70.718 145.49 69.696 145.868 68.702L144.286 68.198ZM154.352 74.89H150.768V72.482H153.694V70.858H150.768V68.324H149.088V70.858H147.926C148.08 70.326 148.22 69.794 148.332 69.248L146.722 68.912C146.4 70.62 145.826 72.398 145.07 73.49C145.476 73.672 146.204 74.064 146.512 74.288C146.82 73.798 147.128 73.168 147.38 72.482H149.088V74.89H145.308V76.514H149.088V81.218H150.768V76.514H154.352V74.89Z" fill="white"/>
<circle cx="91" cy="203" r="53" fill="#BE9C59"/>
<circle cx="91" cy="203" r="53" fill="#E0C184" fill-opacity="0.5"/>
<path d="M74.242 188.136H72.128C72.184 188.528 72.212 188.976 72.212 189.536V192.196C72.212 194.38 72.03 195.43 71.064 196.48C70.224 197.39 69.09 197.922 67.704 198.244L69.16 199.784C70.182 199.462 71.638 198.776 72.562 197.768C73.598 196.62 74.186 195.318 74.186 192.308V189.536C74.186 188.976 74.214 188.528 74.242 188.136ZM67.746 188.248H65.73C65.772 188.57 65.786 189.06 65.786 189.326V194.044C65.786 194.464 65.73 195.01 65.716 195.276H67.746C67.718 194.954 67.704 194.408 67.704 194.058V189.326C67.704 188.878 67.718 188.57 67.746 188.248ZM88.676 188.752L86.492 188.192C86.114 190.194 85.19 192.616 83.846 194.24C82.6 195.752 80.71 197.138 78.526 197.88L80.122 199.518C82.278 198.65 84.238 196.942 85.428 195.458C86.562 194.044 87.472 191.93 88.06 190.32C88.228 189.872 88.424 189.256 88.676 188.752ZM100.926 189.298L99.708 189.802C100.226 190.516 100.576 191.202 100.982 192.084L102.242 191.538C101.934 190.894 101.318 189.872 100.926 189.298ZM102.802 188.528L101.598 189.074C102.116 189.774 102.494 190.418 102.942 191.3L104.16 190.712C103.838 190.082 103.208 189.088 102.802 188.528ZM91.49 195.01L93.17 196.746C93.422 196.382 93.758 195.892 94.08 195.444C94.64 194.688 95.634 193.302 96.18 192.602C96.586 192.098 96.88 192.07 97.328 192.518C97.832 193.036 99.078 194.394 99.89 195.36C100.716 196.326 101.906 197.768 102.844 198.93L104.384 197.278C103.306 196.13 101.878 194.576 100.94 193.582C100.1 192.672 99.022 191.552 98.084 190.67C96.992 189.648 96.166 189.802 95.34 190.782C94.374 191.93 93.282 193.302 92.652 193.946C92.218 194.366 91.91 194.674 91.49 195.01ZM108.332 194.52C107.534 196.158 106.526 197.922 105.826 198.986L107.282 200.022C108.066 198.65 108.892 197.04 109.592 195.556L108.332 194.52ZM108.906 192.308C108.346 191.832 107.184 191.286 106.316 190.978L105.434 192.224C106.316 192.602 107.422 193.218 107.954 193.694L108.906 192.308ZM115.668 193.526V194.1H112.238V193.484H111.062C112.07 193.218 113.022 192.896 113.89 192.49C114.884 192.966 115.976 193.274 117.124 193.526H115.668ZM112.154 196.452C112.21 196.116 112.224 195.78 112.238 195.486H115.668V196.452H112.154ZM115.192 189.844C114.856 190.222 114.45 190.558 113.974 190.852C113.484 190.586 113.022 190.25 112.574 189.844H115.192ZM118.37 189.844V188.402H114.8V187.156H113.078V188.402H109.564V188.5C108.976 188.052 107.94 187.52 107.142 187.212L106.232 188.444C107.114 188.822 108.206 189.466 108.71 189.956L109.564 188.738V189.844H110.656C111.188 190.558 111.776 191.118 112.406 191.594C111.384 191.958 110.208 192.21 108.99 192.378C109.242 192.7 109.634 193.4 109.774 193.778C110.068 193.722 110.362 193.652 110.642 193.582V195.108C110.642 196.298 110.46 198.244 108.892 199.476C109.298 199.658 109.928 200.106 110.222 200.358C111.09 199.658 111.58 198.748 111.874 197.824H115.668V200.19H117.306V193.568L117.81 193.666C117.964 193.148 118.342 192.546 118.706 192.168C117.558 192.014 116.494 191.818 115.5 191.51C116.116 191.034 116.648 190.488 117.068 189.844H118.37ZM69.342 207.18L67.942 206.032C67.648 206.13 67.172 206.186 66.64 206.186H58.87C58.394 206.186 57.624 206.116 57.26 206.06V208.02C57.554 207.992 58.31 207.922 58.87 207.922H66.276C65.618 209.07 64.302 210.694 62.72 211.954C61.838 211.184 60.914 210.428 60.354 210.008L58.87 211.198C59.71 211.8 61.138 213.06 61.95 213.886C62.86 214.81 64.036 216.126 64.624 216.91L66.262 215.608C65.716 214.95 64.89 214.04 64.092 213.242C66.066 211.646 67.858 209.406 68.866 207.768C68.978 207.586 69.146 207.404 69.342 207.18ZM73.374 205.36L72.058 206.76C73.08 207.474 74.83 209 75.558 209.784L76.986 208.328C76.174 207.474 74.354 206.018 73.374 205.36ZM71.624 214.684L72.8 216.532C74.774 216.196 76.58 215.412 77.994 214.558C80.248 213.2 82.11 211.268 83.174 209.378L82.082 207.404C81.2 209.294 79.38 211.436 76.986 212.85C75.628 213.662 73.808 214.376 71.624 214.684ZM88.326 204.912L87.304 206.452C88.228 206.97 89.684 207.922 90.468 208.468L91.518 206.914C90.79 206.41 89.25 205.416 88.326 204.912ZM85.722 214.852L86.772 216.7C88.018 216.476 90.02 215.776 91.448 214.964C93.744 213.648 95.718 211.87 97.02 209.938L95.942 208.034C94.822 210.036 92.876 211.954 90.496 213.284C88.97 214.124 87.29 214.586 85.722 214.852ZM86.17 208.104L85.148 209.658C86.086 210.148 87.542 211.1 88.34 211.646L89.362 210.078C88.648 209.574 87.108 208.608 86.17 208.104ZM100.982 208.09V209.784C101.318 209.756 102.2 209.728 102.718 209.728H107.338V211.422H102.872C102.34 211.422 101.71 211.408 101.346 211.38V213.032C101.668 213.018 102.34 213.004 102.872 213.004H107.338V214.866H102.046C101.542 214.866 101.066 214.838 100.828 214.81V216.532C101.066 216.518 101.64 216.49 102.032 216.49H107.338C107.338 216.7 107.338 216.924 107.324 217.05H109.088C109.088 216.798 109.074 216.322 109.074 216.098V209.07C109.074 208.776 109.074 208.314 109.088 208.132C108.864 208.146 108.346 208.16 108.01 208.16H102.718C102.2 208.16 101.346 208.132 100.982 208.09ZM115.374 205.36L114.058 206.76C115.08 207.474 116.83 209 117.558 209.784L118.986 208.328C118.174 207.474 116.354 206.018 115.374 205.36ZM113.624 214.684L114.8 216.532C116.774 216.196 118.58 215.412 119.994 214.558C122.248 213.2 124.11 211.268 125.174 209.378L124.082 207.404C123.2 209.294 121.38 211.436 118.986 212.85C117.628 213.662 115.808 214.376 113.624 214.684Z" fill="white"/>
<rect x="91" y="158" width="5" height="5" transform="rotate(45 91 158)" fill="#73BEBE"/>
<rect width="80" height="25" transform="translate(51 136)" fill="#73BEBE"/>
<path d="M57.0829 149.332C56.9709 150.508 56.7469 151.754 56.3409 152.58C56.7049 152.706 57.3209 153 57.6149 153.182C58.0209 152.286 58.3149 150.886 58.4549 149.57L57.0829 149.332ZM60.2049 149.64C60.5549 150.494 60.9189 151.628 61.0309 152.342L62.3469 151.88C62.1789 151.166 61.8149 150.074 61.4369 149.248L60.2049 149.64ZM64.5729 143.508C64.8389 142.864 65.0769 142.192 65.2589 141.506L63.5509 141.142C63.1029 142.906 62.2769 144.698 61.2409 145.804L61.1429 145.636L59.9669 146.154C60.1349 146.448 60.3029 146.784 60.4569 147.12L59.0429 147.176C59.9529 146.042 60.9329 144.614 61.7169 143.382L60.3029 142.794C59.9669 143.494 59.5189 144.306 59.0149 145.09C58.8749 144.908 58.7069 144.698 58.5249 144.502C59.0289 143.718 59.6029 142.64 60.1069 141.674L58.6369 141.156C58.3989 141.884 58.0069 142.822 57.6149 143.592C57.5029 143.494 57.3909 143.396 57.2789 143.298L56.4949 144.446C57.0829 145.006 57.7689 145.762 58.1749 146.364C57.9649 146.672 57.7409 146.966 57.5309 147.232L56.4949 147.274L56.6349 148.73L58.7069 148.59V154.232H60.1769V148.478L60.9749 148.422C61.0589 148.702 61.1289 148.954 61.1709 149.178L62.4309 148.59C62.2769 147.89 61.8289 146.854 61.3389 145.972C61.7589 146.224 62.3749 146.644 62.6549 146.896C63.0749 146.392 63.4669 145.776 63.8449 145.09H67.7089C67.5549 149.864 67.3449 151.908 66.9249 152.342C66.7569 152.524 66.6029 152.58 66.3369 152.58C65.9589 152.58 65.1609 152.58 64.2789 152.496C64.5869 152.972 64.8109 153.7 64.8389 154.176C65.6509 154.204 66.5189 154.218 67.0229 154.134C67.6109 154.05 67.9749 153.896 68.3669 153.364C68.9549 152.622 69.1509 150.41 69.3329 144.278C69.3469 144.068 69.3469 143.508 69.3469 143.508H64.5729ZM66.1549 149.906C65.8609 149.024 65.0629 147.736 64.3349 146.77L63.0049 147.442C63.7189 148.45 64.4469 149.794 64.7129 150.676L66.1549 149.906ZM74.6963 153.253C77.2666 153.253 78.8115 151.271 78.8115 147.989C78.8115 146.643 78.5312 145.508 77.9844 144.66C77.3008 143.505 76.1523 142.883 74.7305 142.883C72.5225 142.883 70.957 144.339 70.957 146.39C70.957 148.276 72.3311 149.657 74.2041 149.657C75.3525 149.657 76.2686 149.131 76.7197 148.201H76.7334C76.7334 148.201 76.7676 148.201 76.7812 148.201C76.8018 148.201 76.8428 148.201 76.8428 148.201C76.8838 150.252 76.0635 151.558 74.71 151.558C73.9375 151.558 73.3223 151.147 73.1309 150.498H71.0869C71.3672 152.139 72.8232 153.253 74.6963 153.253ZM74.7441 148.064C73.7119 148.064 72.96 147.333 72.96 146.321C72.96 145.337 73.7393 144.571 74.751 144.571C75.7627 144.571 76.5352 145.344 76.5352 146.342C76.5352 147.333 75.7764 148.064 74.7441 148.064ZM81.2451 155.673L82.4893 151.4H80.541L79.9121 155.673H81.2451ZM87.9512 153.253C90.3916 153.253 91.8682 151.318 91.8682 148.058C91.8682 144.783 90.3711 142.883 87.9512 142.883C85.5244 142.883 84.0342 144.783 84.0342 148.051C84.0342 151.325 85.5107 153.253 87.9512 153.253ZM87.9512 151.571C86.8232 151.571 86.126 150.354 86.126 148.051C86.126 145.761 86.8301 144.571 87.9512 144.571C89.0791 144.571 89.7764 145.754 89.7764 148.051C89.7764 150.361 89.0859 151.571 87.9512 151.571ZM97.5352 153.253C99.9756 153.253 101.452 151.318 101.452 148.058C101.452 144.783 99.9551 142.883 97.5352 142.883C95.1084 142.883 93.6182 144.783 93.6182 148.051C93.6182 151.325 95.0947 153.253 97.5352 153.253ZM97.5352 151.571C96.4072 151.571 95.71 150.354 95.71 148.051C95.71 145.761 96.4141 144.571 97.5352 144.571C98.6631 144.571 99.3604 145.754 99.3604 148.051C99.3604 150.361 98.6699 151.571 97.5352 151.571ZM107.119 153.253C109.56 153.253 111.036 151.318 111.036 148.058C111.036 144.783 109.539 142.883 107.119 142.883C104.692 142.883 103.202 144.783 103.202 148.051C103.202 151.325 104.679 153.253 107.119 153.253ZM107.119 151.571C105.991 151.571 105.294 150.354 105.294 148.051C105.294 145.761 105.998 144.571 107.119 144.571C108.247 144.571 108.944 145.754 108.944 148.051C108.944 150.361 108.254 151.571 107.119 151.571ZM115.327 141.198C114.641 143.186 113.451 145.174 112.219 146.434C112.499 146.854 112.961 147.75 113.115 148.17C113.395 147.862 113.675 147.512 113.955 147.162V154.204H115.537V144.684C116.069 143.718 116.531 142.696 116.909 141.702L115.327 141.198ZM125.393 147.89H121.809V145.482H124.735V143.858H121.809V141.324H120.129V143.858H118.967C119.121 143.326 119.261 142.794 119.373 142.248L117.763 141.912C117.441 143.62 116.867 145.398 116.111 146.49C116.517 146.672 117.245 147.064 117.553 147.288C117.861 146.798 118.169 146.168 118.421 145.482H120.129V147.89H116.349V149.514H120.129V154.218H121.809V149.514H125.393V147.89Z" fill="white"/>
<circle cx="273" cy="220" r="36" fill="#424242"/>
<path d="M263.914 214.886C263.802 215.362 263.578 216.006 263.396 216.426L264.32 216.622H261.576L262.276 216.426C262.22 216.006 262.038 215.362 261.8 214.886H263.914ZM263.732 220.472H266.042V219.072H263.732V217.994H266.168V216.622H264.754C264.95 216.202 265.174 215.642 265.426 215.04L264.614 214.886H266.056V213.528H263.732V212.254H262.122V213.528H259.77V214.886H261.338L260.484 215.082C260.68 215.558 260.848 216.16 260.904 216.622H259.616V217.994H262.122V219.072H259.658V220.472H261.786C261.142 221.522 260.176 222.572 259.266 223.174C259.616 223.44 260.092 223.986 260.344 224.35C260.946 223.86 261.576 223.16 262.122 222.376V225.19H263.732V222.208C264.138 222.6 264.53 223.02 264.754 223.3L265.72 222.11C265.398 221.858 264.236 220.934 263.732 220.584V220.472ZM272.524 216.748H268.156V214.788C269.626 214.48 271.222 214.046 272.454 213.5L271.124 212.282C270.27 212.744 268.884 213.192 267.554 213.514L266.588 213.248V218.092C266.588 220.024 266.42 222.404 264.81 224.112C265.188 224.308 265.79 224.882 266 225.246C267.848 223.328 268.142 220.374 268.156 218.288H269.584V225.134H271.194V218.288H272.524V216.748ZM276.08 214.424C276.332 214.858 276.584 215.348 276.682 215.698L278.026 215.306C277.942 215.068 277.774 214.746 277.592 214.424H279.552C279.37 214.592 279.188 214.746 279.006 214.886C279.398 215.054 280.126 215.432 280.462 215.684C280.84 215.348 281.218 214.914 281.568 214.424H282.338C282.66 214.844 282.968 215.348 283.108 215.684L284.522 215.278C284.41 215.04 284.214 214.732 283.99 214.424H286.44V213.122H282.38C282.506 212.884 282.618 212.646 282.716 212.408L281.134 212.03C280.84 212.8 280.364 213.556 279.804 214.158V213.122H276.682C276.808 212.898 276.92 212.674 277.018 212.45L275.464 212.03C275.044 213.066 274.26 214.102 273.42 214.774C273.798 214.97 274.456 215.418 274.764 215.684C275.128 215.348 275.506 214.914 275.856 214.424H276.08ZM283.22 216.86V218.274C282.842 217.91 282.296 217.504 281.848 217.182L281.148 217.784C281.162 217.588 281.176 217.406 281.176 217.21V216.86H283.22ZM286.342 221.956V220.654H280.798V219.814H280C280.616 219.338 280.938 218.75 281.078 218.148C281.596 218.568 282.156 219.086 282.436 219.45L283.234 218.736C283.262 219.268 283.36 219.492 283.542 219.688C283.78 219.926 284.158 220.024 284.508 220.024H285.194C285.432 220.024 285.74 219.982 285.936 219.884C286.146 219.772 286.3 219.59 286.398 219.338C286.482 219.114 286.538 218.54 286.58 218.008C286.244 217.882 285.754 217.658 285.502 217.434C285.488 217.882 285.474 218.246 285.446 218.4C285.418 218.568 285.376 218.652 285.334 218.68C285.292 218.722 285.236 218.722 285.166 218.722H284.942C284.886 218.722 284.844 218.708 284.816 218.652C284.774 218.61 284.788 218.47 284.788 218.232V215.768H279.664V217.168C279.664 217.672 279.566 218.176 279.076 218.624L279.034 217.938L277.298 218.19V216.986H279.048V215.838H274.022V216.986H275.786V218.4C275.002 218.512 274.288 218.61 273.7 218.68L273.882 219.996C275.016 219.814 276.444 219.604 277.9 219.38C278.222 219.618 278.74 220.136 278.922 220.416C279.02 220.374 279.104 220.346 279.188 220.304V220.654H273.686V221.956H277.97C276.794 222.684 275.058 223.258 273.42 223.524C273.756 223.86 274.204 224.49 274.442 224.882C276.15 224.476 277.914 223.678 279.188 222.656V225.176H280.798V222.684C282.086 223.706 283.836 224.476 285.53 224.84C285.768 224.434 286.244 223.776 286.594 223.426C284.9 223.188 283.108 222.656 281.904 221.956H286.342Z" fill="white"/>
<rect x="274" y="190" width="5" height="5" transform="rotate(45 274 190)" fill="#73BEBE"/>
<rect width="67" height="25" transform="translate(240 169)" fill="#73BEBE"/>
<path d="M246.234 182.332C246.122 183.508 245.898 184.754 245.492 185.58C245.856 185.706 246.472 186 246.766 186.182C247.172 185.286 247.466 183.886 247.606 182.57L246.234 182.332ZM249.356 182.64C249.706 183.494 250.07 184.628 250.182 185.342L251.498 184.88C251.33 184.166 250.966 183.074 250.588 182.248L249.356 182.64ZM253.724 176.508C253.99 175.864 254.228 175.192 254.41 174.506L252.702 174.142C252.254 175.906 251.428 177.698 250.392 178.804L250.294 178.636L249.118 179.154C249.286 179.448 249.454 179.784 249.608 180.12L248.194 180.176C249.104 179.042 250.084 177.614 250.868 176.382L249.454 175.794C249.118 176.494 248.67 177.306 248.166 178.09C248.026 177.908 247.858 177.698 247.676 177.502C248.18 176.718 248.754 175.64 249.258 174.674L247.788 174.156C247.55 174.884 247.158 175.822 246.766 176.592C246.654 176.494 246.542 176.396 246.43 176.298L245.646 177.446C246.234 178.006 246.92 178.762 247.326 179.364C247.116 179.672 246.892 179.966 246.682 180.232L245.646 180.274L245.786 181.73L247.858 181.59V187.232H249.328V181.478L250.126 181.422C250.21 181.702 250.28 181.954 250.322 182.178L251.582 181.59C251.428 180.89 250.98 179.854 250.49 178.972C250.91 179.224 251.526 179.644 251.806 179.896C252.226 179.392 252.618 178.776 252.996 178.09H256.86C256.706 182.864 256.496 184.908 256.076 185.342C255.908 185.524 255.754 185.58 255.488 185.58C255.11 185.58 254.312 185.58 253.43 185.496C253.738 185.972 253.962 186.7 253.99 187.176C254.802 187.204 255.67 187.218 256.174 187.134C256.762 187.05 257.126 186.896 257.518 186.364C258.106 185.622 258.302 183.41 258.484 177.278C258.498 177.068 258.498 176.508 258.498 176.508H253.724ZM255.306 182.906C255.012 182.024 254.214 180.736 253.486 179.77L252.156 180.442C252.87 181.45 253.598 182.794 253.864 183.676L255.306 182.906ZM264.846 186H266.814V184.277H268.106V182.562H266.814V176.136H263.923C262.193 178.74 260.908 180.777 260.02 182.452V184.277H264.846V186ZM261.872 182.514C263 180.47 263.882 179.089 264.784 177.742H264.894V182.623H261.872V182.514ZM273.603 186.253C275.865 186.253 277.376 184.824 277.376 182.732C277.376 180.798 276.05 179.424 274.177 179.424C273.199 179.424 272.502 179.786 272.085 180.388H271.962L272.181 177.852H276.781V176.136H270.581L270.089 181.857H271.935C272.276 181.304 272.857 180.969 273.623 180.969C274.669 180.969 275.407 181.693 275.407 182.78C275.407 183.854 274.676 184.564 273.616 184.564C272.68 184.564 271.955 184.018 271.839 183.197H269.932C269.993 184.961 271.456 186.253 273.603 186.253ZM282.968 186.253C285.408 186.253 286.885 184.318 286.885 181.058C286.885 177.783 285.388 175.883 282.968 175.883C280.541 175.883 279.051 177.783 279.051 181.051C279.051 184.325 280.527 186.253 282.968 186.253ZM282.968 184.571C281.84 184.571 281.143 183.354 281.143 181.051C281.143 178.761 281.847 177.571 282.968 177.571C284.096 177.571 284.793 178.754 284.793 181.051C284.793 183.361 284.103 184.571 282.968 184.571ZM291.176 174.198C290.49 176.186 289.3 178.174 288.068 179.434C288.348 179.854 288.81 180.75 288.964 181.17C289.244 180.862 289.524 180.512 289.804 180.162V187.204H291.386V177.684C291.918 176.718 292.38 175.696 292.758 174.702L291.176 174.198ZM301.242 180.89H297.658V178.482H300.584V176.858H297.658V174.324H295.978V176.858H294.816C294.97 176.326 295.11 175.794 295.222 175.248L293.612 174.912C293.29 176.62 292.716 178.398 291.96 179.49C292.366 179.672 293.094 180.064 293.402 180.288C293.71 179.798 294.018 179.168 294.27 178.482H295.978V180.89H292.198V182.514H295.978V187.218H297.658V182.514H301.242V180.89Z" fill="white"/>
<path d="M101.6 282.36H103.36V282.97H101.6V282.36ZM101.6 280.93H103.36V281.52H101.6V280.93ZM106.43 280.93V281.52H104.59V280.93H106.43ZM106.43 282.97H104.59V282.36H106.43V282.97ZM107.64 283.86V280.04H104.59V279.47H108.44V278.36H104.59V277.54H103.36V278.36H99.6V279.47H103.36V280.04H100.45V283.86H102.47C101.64 284.65 100.46 285.36 99.32 285.75C99.58 285.99 99.95 286.46 100.14 286.75C101.3 286.26 102.46 285.45 103.36 284.49V286.87H104.59V284.44C105.5 285.42 106.7 286.28 107.87 286.77C108.06 286.46 108.44 285.98 108.72 285.74C107.56 285.35 106.34 284.64 105.49 283.86H107.64ZM118.4 278.49H114.6V277.53H113.34V278.49H109.59V279.62H118.4V278.49ZM111 283.9C110.67 284.54 109.98 285.34 109.31 285.82C109.58 285.98 110.02 286.29 110.28 286.51C110.98 285.97 111.72 285.09 112.22 284.29L111 283.9ZM111.92 281.35H116.08V282.49H111.92V281.35ZM117.34 283.51V280.32H110.73V283.51H113.36V285.58C113.36 285.71 113.32 285.74 113.14 285.75C112.98 285.76 112.35 285.75 111.84 285.73C112 286.06 112.16 286.52 112.22 286.87C113.02 286.87 113.61 286.86 114.05 286.69C114.49 286.52 114.6 286.22 114.6 285.62V283.51H117.34ZM115.69 284.42C116.32 285.09 117.08 286.02 117.42 286.6L118.59 286.01C118.21 285.42 117.4 284.52 116.78 283.9L115.69 284.42ZM122.24 280.43V279.61H122.99C122.81 279.9 122.63 280.17 122.44 280.43H122.24ZM123.02 283.77H121.41V283.14H123.02V283.77ZM121.41 285.38V284.67H123.02V285.38H121.41ZM127.87 278.04L127.69 278.08H124.81V278.27L123.76 277.98C123.61 278.37 123.46 278.75 123.27 279.1V278.59H122.24V277.62H121.14V278.59H119.83V279.61H121.14V280.43H119.4V281.47H121.53C120.83 282.14 120.03 282.69 119.14 283.12C119.36 283.36 119.7 283.86 119.83 284.11C119.99 284.02 120.16 283.92 120.33 283.81V286.84H121.41V286.33H123.02V286.71H124.15V282.2H122.35C122.57 281.96 122.78 281.73 122.99 281.47H124.48V280.43H123.74C124.16 279.78 124.51 279.06 124.81 278.3V286.86H125.98V279.2H127.24C127 279.97 126.66 280.98 126.36 281.7C127.17 282.47 127.4 283.2 127.4 283.75C127.4 284.08 127.33 284.32 127.14 284.43C127.04 284.49 126.89 284.52 126.74 284.52C126.56 284.52 126.35 284.52 126.11 284.5C126.29 284.82 126.4 285.33 126.41 285.65C126.72 285.67 127.05 285.67 127.28 285.64C127.55 285.6 127.8 285.51 127.98 285.37C128.38 285.11 128.54 284.62 128.54 283.87C128.54 283.23 128.37 282.44 127.52 281.55C127.93 280.67 128.37 279.54 128.73 278.58L127.87 278.04ZM138.27 282.48C138.27 280.3 136.71 278.58 134.23 278.58C131.64 278.58 129.64 280.55 129.64 282.86C129.64 284.55 130.56 285.77 131.67 285.77C132.76 285.77 133.62 284.53 134.22 282.51C134.51 281.57 134.68 280.65 134.82 279.8C136.17 280.03 136.92 281.06 136.92 282.44C136.92 283.9 135.92 284.82 134.64 285.12C134.37 285.18 134.09 285.24 133.71 285.28L134.46 286.47C136.98 286.08 138.27 284.59 138.27 282.48ZM130.92 282.73C130.92 281.63 131.81 280.17 133.46 279.83C133.35 280.66 133.16 281.51 132.93 282.25C132.52 283.6 132.13 284.23 131.71 284.23C131.32 284.23 130.92 283.74 130.92 282.73ZM148.53 279.7L147.53 278.88C147.32 278.95 146.98 278.99 146.6 278.99H141.05C140.71 278.99 140.16 278.94 139.9 278.9V280.3C140.11 280.28 140.65 280.23 141.05 280.23H146.34C145.87 281.05 144.93 282.21 143.8 283.11C143.17 282.56 142.51 282.02 142.11 281.72L141.05 282.57C141.65 283 142.67 283.9 143.25 284.49C143.9 285.15 144.74 286.09 145.16 286.65L146.33 285.72C145.94 285.25 145.35 284.6 144.78 284.03C146.19 282.89 147.47 281.29 148.19 280.12C148.27 279.99 148.39 279.86 148.53 279.7ZM151.41 278.4L150.47 279.4C151.2 279.91 152.45 281 152.97 281.56L153.99 280.52C153.41 279.91 152.11 278.87 151.41 278.4ZM150.16 285.06L151 286.38C152.41 286.14 153.7 285.58 154.71 284.97C156.32 284 157.65 282.62 158.41 281.27L157.63 279.86C157 281.21 155.7 282.74 153.99 283.75C153.02 284.33 151.72 284.84 150.16 285.06ZM162.09 278.08L161.36 279.18C162.02 279.55 163.06 280.23 163.62 280.62L164.37 279.51C163.85 279.15 162.75 278.44 162.09 278.08ZM160.23 285.18L160.98 286.5C161.87 286.34 163.3 285.84 164.32 285.26C165.96 284.32 167.37 283.05 168.3 281.67L167.53 280.31C166.73 281.74 165.34 283.11 163.64 284.06C162.55 284.66 161.35 284.99 160.23 285.18ZM160.55 280.36L159.82 281.47C160.49 281.82 161.53 282.5 162.1 282.89L162.83 281.77C162.32 281.41 161.22 280.72 160.55 280.36ZM171.13 280.35V281.56C171.37 281.54 172 281.52 172.37 281.52H175.67V282.73H172.48C172.1 282.73 171.65 282.72 171.39 282.7V283.88C171.62 283.87 172.1 283.86 172.48 283.86H175.67V285.19H171.89C171.53 285.19 171.19 285.17 171.02 285.15V286.38C171.19 286.37 171.6 286.35 171.88 286.35H175.67C175.67 286.5 175.67 286.66 175.66 286.75H176.92C176.92 286.57 176.91 286.23 176.91 286.07V281.05C176.91 280.84 176.91 280.51 176.92 280.38C176.76 280.39 176.39 280.4 176.15 280.4H172.37C172 280.4 171.39 280.38 171.13 280.35ZM181.41 278.4L180.47 279.4C181.2 279.91 182.45 281 182.97 281.56L183.99 280.52C183.41 279.91 182.11 278.87 181.41 278.4ZM180.16 285.06L181 286.38C182.41 286.14 183.7 285.58 184.71 284.97C186.32 284 187.65 282.62 188.41 281.27L187.63 279.86C187 281.21 185.7 282.74 183.99 283.75C183.02 284.33 181.72 284.84 180.16 285.06ZM194.36 283.68V282.72C194.42 282.78 194.46 282.83 194.5 282.87C194.66 282.65 194.82 282.41 194.96 282.15C195.14 282.87 195.36 283.53 195.64 284.12C195.2 284.74 194.62 285.24 193.88 285.63C193.65 285.46 193.36 285.28 193.05 285.1C193.3 284.71 193.47 284.24 193.58 283.68H194.36ZM191.49 283.68H192.46C192.37 284.04 192.24 284.34 192.08 284.59C191.79 284.45 191.5 284.33 191.2 284.21L191.49 283.68ZM196.87 280.43C196.76 281.31 196.58 282.1 196.33 282.78C196.06 282.06 195.86 281.27 195.72 280.43H196.87ZM198.66 280.43V279.33H196C196.13 278.8 196.24 278.25 196.32 277.69L195.12 277.53C194.88 279.31 194.4 281.01 193.55 282.03C193.77 282.18 194.13 282.49 194.36 282.72H191.98L192.22 282.24L191.79 282.15H192.43V280.94C192.82 281.25 193.24 281.6 193.46 281.81L194.09 280.99C193.87 280.84 193.16 280.42 192.68 280.15H194.32V279.21H193.37C193.61 278.9 193.92 278.48 194.23 278.05L193.23 277.65C193.07 278.03 192.79 278.56 192.56 278.92L193.22 279.21H192.43V277.53H191.34V279.21H190.5L191.14 278.93C191.06 278.58 190.8 278.07 190.54 277.69L189.68 278.05C189.89 278.41 190.11 278.87 190.2 279.21H189.44V280.15H191C190.52 280.67 189.85 281.15 189.24 281.4C189.46 281.61 189.71 282 189.84 282.26C190.34 281.98 190.88 281.56 191.34 281.1V282.06L191.12 282.01C191.02 282.23 190.9 282.47 190.78 282.72H189.33V283.68H190.28C190.03 284.16 189.78 284.61 189.56 284.96L190.6 285.28L190.71 285.09C190.9 285.17 191.09 285.26 191.27 285.36C190.8 285.63 190.18 285.79 189.37 285.9C189.56 286.14 189.77 286.54 189.84 286.88C190.91 286.66 191.71 286.37 192.3 285.93C192.71 286.19 193.07 286.45 193.34 286.68L193.79 286.22C193.95 286.46 194.1 286.73 194.17 286.9C195.04 286.46 195.73 285.92 196.28 285.26C196.73 285.91 197.28 286.44 197.96 286.85C198.14 286.52 198.51 286.06 198.78 285.82C198.05 285.44 197.47 284.87 197.01 284.16C197.55 283.15 197.89 281.91 198.1 280.43H198.66ZM205.63 282.2C205.63 284.34 206.52 285.94 207.6 287L208.55 286.58C207.55 285.5 206.76 284.12 206.76 282.2C206.76 280.28 207.55 278.9 208.55 277.82L207.6 277.4C206.52 278.46 205.63 280.06 205.63 282.2ZM216.75 278.5C216.75 278.2 217 277.96 217.3 277.96C217.6 277.96 217.84 278.2 217.84 278.5C217.84 278.8 217.6 279.04 217.3 279.04C217 279.04 216.75 278.8 216.75 278.5ZM216.14 278.5C216.14 279.14 216.66 279.66 217.3 279.66C217.94 279.66 218.45 279.14 218.45 278.5C218.45 277.86 217.94 277.34 217.3 277.34C216.66 277.34 216.14 277.86 216.14 278.5ZM214.76 278.11H213.28C213.32 278.28 213.37 278.72 213.37 278.98V279.78H210.83C210.51 279.78 210.16 279.74 209.86 279.7V281.03C210.14 281 210.53 280.99 210.83 280.99H213.37V281C213.37 281.47 213.37 284.64 213.36 285.01C213.35 285.27 213.25 285.37 212.99 285.37C212.75 285.37 212.31 285.33 211.88 285.25L212 286.49C212.51 286.55 213.09 286.58 213.63 286.58C214.34 286.58 214.67 286.22 214.67 285.64V280.99H217.01C217.28 280.99 217.67 281 217.99 281.02V279.71C217.72 279.75 217.28 279.78 217 279.78H214.67V278.98C214.67 278.73 214.74 278.25 214.76 278.11ZM212.41 282.41L211.28 281.88C210.87 282.72 210.07 283.82 209.4 284.46L210.48 285.2C211.03 284.61 211.95 283.3 212.41 282.41ZM216.71 281.85L215.62 282.44C216.1 283.05 216.81 284.26 217.24 285.12L218.42 284.48C218.02 283.75 217.22 282.49 216.71 281.85ZM219.92 281.37V282.94C220.29 282.91 220.96 282.89 221.53 282.89H226.9C227.32 282.89 227.83 282.93 228.07 282.94V281.37C227.81 281.39 227.37 281.43 226.9 281.43H221.53C221.01 281.43 220.28 281.4 219.92 281.37ZM234.69 278.08L233.24 277.63C233.15 277.97 232.94 278.43 232.78 278.67C232.28 279.54 231.35 280.91 229.6 282L230.68 282.83C231.69 282.13 232.62 281.17 233.32 280.24H236.18C236.03 280.86 235.6 281.73 235.08 282.45C234.45 282.03 233.82 281.62 233.29 281.32L232.4 282.23C232.91 282.55 233.57 283 234.22 283.48C233.39 284.31 232.28 285.12 230.55 285.65L231.71 286.66C233.27 286.07 234.41 285.22 235.29 284.29C235.7 284.62 236.07 284.93 236.34 285.18L237.29 284.05C237 283.81 236.61 283.52 236.18 283.21C236.89 282.21 237.39 281.14 237.66 280.33C237.75 280.08 237.88 279.81 237.99 279.62L236.97 278.99C236.75 279.06 236.41 279.1 236.1 279.1H234.07C234.19 278.88 234.44 278.43 234.69 278.08ZM244.03 285.78L244.87 286.47C244.96 286.39 245.08 286.29 245.3 286.17C246.42 285.6 247.86 284.52 248.69 283.44L247.92 282.34C247.25 283.31 246.26 284.1 245.45 284.45V279.22C245.45 278.77 245.51 278.38 245.52 278.35H244.03C244.04 278.38 244.11 278.76 244.11 279.21V285.04C244.11 285.31 244.07 285.59 244.03 285.78ZM239.4 285.63L240.62 286.44C241.47 285.68 242.1 284.7 242.4 283.57C242.67 282.56 242.7 280.45 242.7 279.27C242.7 278.85 242.76 278.41 242.77 278.36H241.3C241.36 278.61 241.39 278.88 241.39 279.28C241.39 280.49 241.38 282.38 241.1 283.24C240.82 284.09 240.28 285.01 239.4 285.63ZM256.48 281.58V281.25H257.22C257.75 281.25 258.1 281.26 258.32 281.28V279.95C258.05 280 257.75 280.02 257.22 280.02H256.48V278.97C256.48 278.57 256.52 278.24 256.55 278.04H255.12C255.15 278.24 255.18 278.57 255.18 278.97V280.02H252.81V279.03C252.81 278.64 252.84 278.32 252.87 278.13H251.45C251.48 278.43 251.51 278.74 251.51 279.03V280.02H250.66C250.16 280.02 249.75 279.96 249.58 279.93V281.29C249.8 281.27 250.16 281.25 250.66 281.25H251.51V282.61C251.51 283.06 251.48 283.46 251.45 283.66H252.85C252.84 283.46 252.81 283.05 252.81 282.61V281.25H255.18V281.63C255.18 284.09 254.33 284.95 252.4 285.62L253.47 286.63C255.88 285.57 256.48 284.06 256.48 281.58ZM259.62 282.11L260.25 283.37C261.48 283.01 262.75 282.47 263.78 281.93V285.13C263.78 285.57 263.75 286.2 263.71 286.44H265.29C265.22 286.19 265.2 285.57 265.2 285.13V281.09C266.17 280.45 267.13 279.67 267.89 278.92L266.81 277.89C266.16 278.68 265.02 279.68 263.99 280.32C262.88 281 261.41 281.65 259.62 282.11ZM272.14 285.04C272.14 285.44 272.1 286.04 272.04 286.44H273.6C273.56 286.03 273.51 285.33 273.51 285.04V282.21C274.59 282.58 276.09 283.16 277.12 283.7L277.69 282.32C276.77 281.87 274.85 281.16 273.51 280.77V279.29C273.51 278.88 273.56 278.44 273.6 278.09H272.04C272.11 278.44 272.14 278.94 272.14 279.29V285.04ZM282.36 277.84H279.8V278.74H282.36V277.84ZM282.63 279.18H279.33V280.12H282.63V279.18ZM282.39 280.57H279.74V281.48H282.39V280.57ZM279.74 282.83H282.39V281.94H279.74V282.83ZM284.39 281.2V282.07H286.99V281.2H286.13V280.52H286.92V279.66H286.13V279.01H285.2V279.66H284.43V280.52H285.2V281.2H284.39ZM286.05 283.44V284.38H285.29V283.44H286.05ZM286.91 285.23V282.58H284.45V285.57H285.29V285.23H286.91ZM281.42 285.4H280.63V284.25H281.42V285.4ZM288.39 277.89H283.02V281.61C283.02 282.99 282.97 284.8 282.37 286.1V283.32H279.71V286.73H280.63V286.33H282.37C282.63 286.46 283.03 286.74 283.2 286.92C283.98 285.48 284.1 283.2 284.1 281.61V278.9H287.29V285.52C287.29 285.67 287.25 285.71 287.11 285.71C286.96 285.71 286.5 285.72 286.09 285.7C286.24 286.01 286.39 286.54 286.42 286.86C287.13 286.86 287.62 286.84 287.96 286.64C288.3 286.45 288.39 286.11 288.39 285.53V277.89ZM289.3 283.2L290.5 284.44C290.67 284.17 290.9 283.78 291.13 283.45C291.56 282.88 292.28 281.9 292.68 281.4C292.97 281.03 293.17 280.98 293.51 281.37C293.99 281.9 294.74 282.84 295.36 283.57C295.99 284.32 296.82 285.32 297.54 286L298.59 284.82C297.64 283.96 296.78 283.07 296.14 282.37C295.55 281.73 294.76 280.7 294.07 280.04C293.34 279.32 292.69 279.39 292 280.19C291.37 280.91 290.61 281.94 290.14 282.42C289.84 282.74 289.6 282.96 289.3 283.2ZM296.09 279.11L295.22 279.47C295.59 279.99 295.85 280.47 296.14 281.1L297.04 280.71C296.81 280.25 296.38 279.53 296.09 279.11ZM297.43 278.56L296.57 278.96C296.94 279.46 297.21 279.91 297.54 280.54L298.41 280.12C298.18 279.67 297.73 278.96 297.43 278.56ZM302.37 282.2C302.37 280.06 301.48 278.46 300.4 277.4L299.45 277.82C300.45 278.9 301.24 280.28 301.24 282.2C301.24 284.12 300.45 285.5 299.45 286.58L300.4 287C301.48 285.94 302.37 284.34 302.37 282.2Z" fill="#424242"/>
<rect width="308" height="29" rx="14.5" fill="#BE9C59"/>
<rect width="308" height="29" rx="14.5" fill="#E0C184" fill-opacity="0.5"/>
<path d="M16.544 13.504L15.072 13.92V11.344H16.4V9.536H15.072V6.464H13.328V9.536H12.576C12.672 8.896 12.752 8.272 12.816 7.632L11.232 7.36C11.088 9.248 10.816 11.248 10.32 12.512C10.672 12.72 11.376 13.152 11.664 13.392C11.888 12.816 12.08 12.128 12.256 11.344H13.328V14.4C12.24 14.704 11.264 14.96 10.464 15.136L10.928 16.944C11.664 16.752 12.464 16.496 13.328 16.24V21.408H15.072V15.712C15.664 15.536 16.224 15.344 16.8 15.184L16.544 13.504ZM19.392 8.928C19.616 8.224 19.824 7.504 19.984 6.768L18.256 6.448C17.776 8.8 16.896 11.088 15.632 12.48C16.016 12.72 16.768 13.248 17.072 13.552C17.696 12.784 18.256 11.792 18.72 10.688H19.536C18.832 13.008 17.584 15.376 16 16.624C16.496 16.896 17.104 17.328 17.456 17.696C19.072 16.16 20.416 13.296 21.12 10.688H21.872C21.072 14.432 19.472 18.064 16.912 19.904C17.44 20.176 18.096 20.64 18.464 21.008C21.04 18.88 22.688 14.72 23.472 10.688H23.552C23.296 16.432 23.008 18.608 22.608 19.12C22.416 19.36 22.256 19.424 22.016 19.424C21.712 19.424 21.184 19.424 20.592 19.36C20.88 19.888 21.072 20.672 21.12 21.216C21.808 21.248 22.48 21.248 22.928 21.168C23.456 21.056 23.808 20.88 24.176 20.336C24.784 19.536 25.072 16.928 25.376 9.792C25.392 9.568 25.408 8.928 25.408 8.928H19.392ZM29.904 6.512C29.12 8.784 27.76 11.056 26.352 12.496C26.672 12.976 27.2 14 27.376 14.48C27.696 14.128 28.016 13.728 28.336 13.328V21.376H30.144V10.496C30.752 9.392 31.28 8.224 31.712 7.088L29.904 6.512ZM41.408 14.16H37.312V11.408H40.656V9.552H37.312V6.656H35.392V9.552H34.064C34.24 8.944 34.4 8.336 34.528 7.712L32.688 7.328C32.32 9.28 31.664 11.312 30.8 12.56C31.264 12.768 32.096 13.216 32.448 13.472C32.8 12.912 33.152 12.192 33.44 11.408H35.392V14.16H31.072V16.016H35.392V21.392H37.312V16.016H41.408V14.16ZM50.576 16.288V14.752C50.672 14.848 50.736 14.928 50.8 14.992C51.056 14.64 51.312 14.256 51.536 13.84C51.824 14.992 52.176 16.048 52.624 16.992C51.92 17.984 50.992 18.784 49.808 19.408C49.44 19.136 48.976 18.848 48.48 18.56C48.88 17.936 49.152 17.184 49.328 16.288H50.576ZM45.984 16.288H47.536C47.392 16.864 47.184 17.344 46.928 17.744C46.464 17.52 46 17.328 45.52 17.136L45.984 16.288ZM54.592 11.088C54.416 12.496 54.128 13.76 53.728 14.848C53.296 13.696 52.976 12.432 52.752 11.088H54.592ZM57.456 11.088V9.328H53.2C53.408 8.48 53.584 7.6 53.712 6.704L51.792 6.448C51.408 9.296 50.64 12.016 49.28 13.648C49.632 13.888 50.208 14.384 50.576 14.752H46.768L47.152 13.984L46.464 13.84H47.488V11.904C48.112 12.4 48.784 12.96 49.136 13.296L50.144 11.984C49.792 11.744 48.656 11.072 47.888 10.64H50.512V9.136H48.992C49.376 8.64 49.872 7.968 50.368 7.28L48.768 6.64C48.512 7.248 48.064 8.096 47.696 8.672L48.752 9.136H47.488V6.448H45.744V9.136H44.4L45.424 8.688C45.296 8.128 44.88 7.312 44.464 6.704L43.088 7.28C43.424 7.856 43.776 8.592 43.92 9.136H42.704V10.64H45.2C44.432 11.472 43.36 12.24 42.384 12.64C42.736 12.976 43.136 13.6 43.344 14.016C44.144 13.568 45.008 12.896 45.744 12.16V13.696L45.392 13.616C45.232 13.968 45.04 14.352 44.848 14.752H42.528V16.288H44.048C43.648 17.056 43.248 17.776 42.896 18.336L44.56 18.848L44.736 18.544C45.04 18.672 45.344 18.816 45.632 18.976C44.88 19.408 43.888 19.664 42.592 19.84C42.896 20.224 43.232 20.864 43.344 21.408C45.056 21.056 46.336 20.592 47.28 19.888C47.936 20.304 48.512 20.72 48.944 21.088L49.664 20.352C49.92 20.736 50.16 21.168 50.272 21.44C51.664 20.736 52.768 19.872 53.648 18.816C54.368 19.856 55.248 20.704 56.336 21.36C56.624 20.832 57.216 20.096 57.648 19.712C56.48 19.104 55.552 18.192 54.816 17.056C55.68 15.44 56.224 13.456 56.56 11.088H57.456ZM65.28 7.472L62.896 7.232C62.928 8.24 62.784 9.408 62.56 10.608C61.744 10.688 60.992 10.736 60.496 10.752C59.904 10.768 59.376 10.8 58.784 10.752L58.976 12.928C59.472 12.848 60.304 12.736 60.768 12.656C61.056 12.624 61.568 12.56 62.144 12.496C61.552 14.688 60.448 17.92 58.896 20.016L60.976 20.848C62.448 18.496 63.632 14.704 64.24 12.272C64.704 12.24 65.104 12.208 65.36 12.208C66.352 12.208 66.912 12.384 66.912 13.664C66.912 15.248 66.688 17.184 66.256 18.096C66 18.624 65.6 18.784 65.056 18.784C64.64 18.784 63.712 18.624 63.104 18.448L63.44 20.56C63.984 20.672 64.752 20.784 65.36 20.784C66.576 20.784 67.456 20.432 67.984 19.312C68.672 17.92 68.896 15.328 68.896 13.44C68.896 11.136 67.696 10.384 66 10.384C65.664 10.384 65.2 10.416 64.656 10.448C64.768 9.872 64.896 9.28 64.992 8.8C65.072 8.4 65.184 7.888 65.28 7.472ZM72.4 6.144L71.12 6.656C71.568 7.264 72.08 8.208 72.416 8.864L73.68 8.32C73.408 7.76 72.816 6.752 72.4 6.144ZM70.496 6.864L69.232 7.392C69.6 7.904 70 8.672 70.32 9.28L68.88 9.904C70.016 11.312 71.152 14.128 71.568 15.904L73.6 14.976C73.152 13.552 71.952 10.88 70.992 9.392L71.776 9.056C71.472 8.464 70.896 7.456 70.496 6.864ZM86.384 15.024C85.808 15.888 85.072 16.608 84.176 17.2C83.6 16.672 82.64 16.048 81.776 15.568C82.08 15.392 82.352 15.216 82.624 15.024H86.384ZM84.144 9.216C83.536 9.888 82.8 10.496 81.936 11.024C81.408 10.576 80.528 10.048 79.728 9.632C79.936 9.488 80.128 9.36 80.32 9.216H84.144ZM87.76 13.36L87.44 13.44H84.576C84.928 13.104 85.264 12.752 85.568 12.384L83.648 11.936C85.008 10.944 86.16 9.744 86.944 8.272L85.728 7.568L85.408 7.648H82.208C82.48 7.376 82.736 7.104 82.976 6.832L80.912 6.4C79.808 7.712 77.84 9.056 75.008 9.952C75.424 10.272 76.016 10.928 76.288 11.36C76.944 11.104 77.552 10.832 78.128 10.528C78.864 10.928 79.68 11.456 80.272 11.904C78.624 12.656 76.752 13.184 74.88 13.488C75.216 13.904 75.584 14.64 75.76 15.12C78.416 14.592 81.04 13.664 83.184 12.256C81.904 13.648 79.728 15.024 76.656 15.952C77.056 16.272 77.6 16.976 77.824 17.424C78.64 17.136 79.408 16.816 80.112 16.464C80.912 16.944 81.856 17.6 82.464 18.144C80.672 18.944 78.528 19.424 76.224 19.664C76.512 20.112 76.88 20.88 77.024 21.408C82.512 20.656 87.104 18.768 89.04 14.016L87.76 13.36ZM94.16 8.56L91.696 8.528C91.792 9.024 91.824 9.712 91.824 10.16C91.824 11.136 91.84 13.008 92 14.48C92.448 18.768 93.968 20.352 95.728 20.352C97.008 20.352 98.016 19.376 99.072 16.592L97.472 14.64C97.168 15.92 96.528 17.792 95.776 17.792C94.768 17.792 94.288 16.208 94.064 13.904C93.968 12.752 93.952 11.552 93.968 10.512C93.968 10.064 94.048 9.136 94.16 8.56ZM102.16 8.928L100.128 9.584C101.872 11.568 102.72 15.456 102.976 18.032L105.072 17.216C104.896 14.768 103.68 10.768 102.16 8.928ZM119.68 11.056H108.32V12.672H119.68V11.056ZM108.32 14.816V16.432H119.68V14.816H108.32ZM127.744 16.4C127.232 16.576 126.704 16.736 126.176 16.896V13.696H127.616V11.952H126.176V9.136H127.888V7.36H122.608V9.136H124.368V11.952H122.752V13.696H124.368V17.456C123.632 17.664 122.976 17.84 122.416 17.984L122.848 19.92C124.384 19.424 126.304 18.816 128.064 18.192L127.744 16.4ZM130.208 11.568H131.856V12.944H130.208V11.568ZM130.208 8.736H131.856V10.08H130.208V8.736ZM135.04 10.08H133.456V8.736H135.04V10.08ZM135.04 12.944H133.456V11.568H135.04V12.944ZM133.632 19.168V17.648H137.024V15.936H133.632V14.56H136.848V7.12H128.496V14.56H131.696V15.936H128.384V17.648H131.696V19.168H127.28V20.896H137.568V19.168H133.632ZM147.856 13.408H150.8V14.368H147.856V13.408ZM147.856 11.088H150.8V12.016H147.856V11.088ZM147.856 8.752H150.8V9.68H147.856V8.752ZM144.496 16.48C145.216 17.152 146.16 18.128 146.608 18.704L147.984 17.552C147.6 17.104 146.912 16.432 146.288 15.856H152.624V7.248H146.128V15.712L145.808 15.424L144.496 16.48ZM141.44 16.048H143.248V12.704C143.824 13.232 144.416 13.808 144.784 14.208L145.776 12.688C145.408 12.384 143.888 11.296 143.248 10.928V10.336H145.504V8.72H143.248V6.464H141.44V8.72H138.816V10.336H141.136C140.512 11.728 139.472 13.12 138.416 13.904C138.8 14.208 139.36 14.8 139.632 15.216C140.288 14.64 140.896 13.84 141.44 12.896V16.048ZM140.272 20.512C140.832 19.584 141.296 18.16 141.616 17.024L139.92 16.352C139.648 17.488 139.104 18.8 138.528 19.648L140.272 20.512ZM145.104 19.392C144.24 19.392 144.08 19.328 144.08 18.848V16.688H142.192V18.88C142.192 20.544 142.752 21.072 144.928 21.072H147.808C149.568 21.072 150.096 20.512 150.336 18.224C149.808 18.128 149.008 17.856 148.624 17.552C148.528 19.168 148.416 19.392 147.664 19.392H145.104ZM149.888 16.912C150.512 17.984 151.392 19.392 151.776 20.24L153.552 19.328C153.12 18.496 152.192 17.136 151.552 16.144L149.888 16.912ZM168.832 14.368C168.832 10.88 166.336 8.128 162.368 8.128C158.224 8.128 155.024 11.28 155.024 14.976C155.024 17.68 156.496 19.632 158.272 19.632C160.016 19.632 161.392 17.648 162.352 14.416C162.816 12.912 163.088 11.44 163.312 10.08C165.472 10.448 166.672 12.096 166.672 14.304C166.672 16.64 165.072 18.112 163.024 18.592C162.592 18.688 162.144 18.784 161.536 18.848L162.736 20.752C166.768 20.128 168.832 17.744 168.832 14.368ZM157.072 14.768C157.072 13.008 158.496 10.672 161.136 10.128C160.96 11.456 160.656 12.816 160.288 14C159.632 16.16 159.008 17.168 158.336 17.168C157.712 17.168 157.072 16.384 157.072 14.768ZM174.096 6.48C173.232 8.752 171.76 11.024 170.24 12.464C170.56 12.912 171.056 13.952 171.232 14.4C171.68 13.952 172.128 13.456 172.56 12.896V21.344H174.368V10.144C174.944 9.136 175.44 8.08 175.856 7.056L174.096 6.48ZM181.392 19.088V15.904H184.848V14.112H181.392V11.328H185.28V9.536H181.616L182.32 8.736C181.52 8.032 179.888 7.04 178.704 6.416L177.44 7.776C178.288 8.256 179.328 8.928 180.112 9.536H175.568V11.328H179.456V14.112H176.08V15.904H179.456V19.088H175.2V20.88H185.52V19.088H181.392ZM190.544 18.192C190.544 17.648 191.168 17.2 192.304 17.2C192.752 17.2 193.184 17.248 193.616 17.312C193.632 17.6 193.632 17.824 193.632 18C193.632 18.928 193.072 19.168 192.224 19.168C191.12 19.168 190.544 18.8 190.544 18.192ZM195.552 7.056H193.392C193.456 7.36 193.488 7.856 193.488 8.16C193.488 8.352 193.488 8.608 193.488 8.912C193.28 8.912 193.072 8.912 192.864 8.912C191.888 8.912 190.064 8.752 188.912 8.56L188.96 10.384C190.016 10.528 191.872 10.672 192.88 10.672C193.072 10.672 193.264 10.672 193.472 10.672C193.456 11.216 193.456 11.792 193.456 12.32C193.2 12.32 192.944 12.32 192.688 12.32C191.84 12.32 189.872 12.208 188.832 12.016L188.848 13.904C189.904 14.032 191.728 14.112 192.656 14.112C192.944 14.112 193.216 14.112 193.488 14.112C193.504 14.592 193.52 15.104 193.552 15.6C193.232 15.568 192.896 15.552 192.56 15.552C190.096 15.552 188.608 16.688 188.608 18.304C188.608 20 189.952 20.976 192.512 20.976C194.624 20.976 195.664 19.92 195.664 18.56C195.664 18.384 195.664 18.192 195.648 17.968C196.928 18.544 198.016 19.392 198.88 20.192L200.032 18.4C199.104 17.632 197.568 16.56 195.552 15.984C195.504 15.344 195.472 14.688 195.44 14.08C196.976 14.032 198.224 13.92 199.664 13.76L199.68 11.872C198.384 12.048 197.024 12.176 195.408 12.256C195.408 11.76 195.408 11.168 195.408 10.608C196.96 10.528 198.416 10.384 199.472 10.256L199.488 8.416C198.08 8.656 196.752 8.784 195.44 8.848C195.44 8.592 195.44 8.352 195.456 8.192C195.472 7.776 195.504 7.376 195.552 7.056ZM206.16 8.56L203.696 8.528C203.792 9.024 203.824 9.712 203.824 10.16C203.824 11.136 203.84 13.008 204 14.48C204.448 18.768 205.968 20.352 207.728 20.352C209.008 20.352 210.016 19.376 211.072 16.592L209.472 14.64C209.168 15.92 208.528 17.792 207.776 17.792C206.768 17.792 206.288 16.208 206.064 13.904C205.968 12.752 205.952 11.552 205.968 10.512C205.968 10.064 206.048 9.136 206.16 8.56ZM214.16 8.928L212.128 9.584C213.872 11.568 214.72 15.456 214.976 18.032L217.072 17.216C216.896 14.768 215.68 10.768 214.16 8.928ZM225.28 7.472L222.896 7.232C222.928 8.24 222.784 9.408 222.56 10.608C221.744 10.688 220.992 10.736 220.496 10.752C219.904 10.768 219.376 10.8 218.784 10.752L218.976 12.928C219.472 12.848 220.304 12.736 220.768 12.656C221.056 12.624 221.568 12.56 222.144 12.496C221.552 14.688 220.448 17.92 218.896 20.016L220.976 20.848C222.448 18.496 223.632 14.704 224.24 12.272C224.704 12.24 225.104 12.208 225.36 12.208C226.352 12.208 226.912 12.384 226.912 13.664C226.912 15.248 226.688 17.184 226.256 18.096C226 18.624 225.6 18.784 225.056 18.784C224.64 18.784 223.712 18.624 223.104 18.448L223.44 20.56C223.984 20.672 224.752 20.784 225.36 20.784C226.576 20.784 227.456 20.432 227.984 19.312C228.672 17.92 228.896 15.328 228.896 13.44C228.896 11.136 227.696 10.384 226 10.384C225.664 10.384 225.2 10.416 224.656 10.448C224.768 9.872 224.896 9.28 224.992 8.8C225.072 8.4 225.184 7.888 225.28 7.472ZM232.4 6.144L231.12 6.656C231.568 7.264 232.08 8.208 232.416 8.864L233.68 8.32C233.408 7.76 232.816 6.752 232.4 6.144ZM230.496 6.864L229.232 7.392C229.6 7.904 230 8.672 230.32 9.28L228.88 9.904C230.016 11.312 231.152 14.128 231.568 15.904L233.6 14.976C233.152 13.552 231.952 10.88 230.992 9.392L231.776 9.056C231.472 8.464 230.896 7.456 230.496 6.864ZM238.656 13.68H245.344V14.672H238.656V13.68ZM238.656 11.136H245.344V12.128H238.656V11.136ZM238.656 8.608H245.344V9.6H238.656V8.608ZM245.376 19.456C244.768 19.456 244.672 19.392 244.672 18.88V16.336H247.28V6.944H236.816V16.336H238.768C238.496 18.08 237.808 19.152 234.528 19.76C234.896 20.16 235.408 20.944 235.584 21.456C239.536 20.56 240.48 18.88 240.816 16.336H242.752V18.896C242.752 20.688 243.2 21.264 245.104 21.264H247.216C248.8 21.264 249.296 20.608 249.504 18.08C249.008 17.952 248.16 17.632 247.76 17.328C247.68 19.184 247.584 19.456 247.04 19.456H245.376ZM250.864 11.232L251.776 13.472C253.44 12.752 257.232 11.152 259.584 11.152C261.504 11.152 262.544 12.304 262.544 13.808C262.544 16.592 259.152 17.84 254.816 17.952L255.744 20.08C261.376 19.792 264.832 17.472 264.832 13.84C264.832 10.88 262.56 9.216 259.664 9.216C257.328 9.216 254.064 10.368 252.832 10.752C252.256 10.912 251.456 11.136 250.864 11.232ZM273.392 7.36L271.008 7.12C271.024 8.128 270.896 9.296 270.672 10.512C269.856 10.576 269.104 10.624 268.608 10.64C268.016 10.656 267.472 10.688 266.896 10.64L267.088 12.816C267.568 12.736 268.416 12.624 268.864 12.544C269.168 12.512 269.664 12.448 270.24 12.384C269.664 14.576 268.56 17.808 267.008 19.904L269.088 20.736C270.56 18.384 271.744 14.592 272.352 12.16C272.8 12.128 273.2 12.096 273.456 12.096C274.464 12.096 275.008 12.272 275.008 13.552C275.008 15.136 274.8 17.072 274.368 17.984C274.112 18.512 273.696 18.672 273.168 18.672C272.736 18.672 271.824 18.512 271.2 18.336L271.552 20.448C272.096 20.56 272.848 20.672 273.472 20.672C274.672 20.672 275.568 20.32 276.096 19.2C276.784 17.808 277.008 15.216 277.008 13.328C277.008 11.024 275.808 10.272 274.112 10.272C273.776 10.272 273.296 10.304 272.768 10.336C272.88 9.76 272.992 9.168 273.104 8.688C273.184 8.288 273.296 7.776 273.392 7.36ZM278.896 8.864L276.992 9.68C278.128 11.088 279.264 13.984 279.68 15.76L281.712 14.816C281.232 13.296 279.888 10.24 278.896 8.864ZM288.24 18.112C288.24 17.712 288.624 17.344 289.232 17.344C290.096 17.344 290.688 18.016 290.784 19.056C290.496 19.088 290.192 19.104 289.856 19.104C288.896 19.104 288.24 18.704 288.24 18.112ZM285.52 7.808L285.584 9.888C285.952 9.84 286.464 9.792 286.896 9.76C287.744 9.712 289.952 9.616 290.768 9.6C289.984 10.288 288.32 11.632 287.424 12.368C286.48 13.152 284.544 14.784 283.408 15.696L284.864 17.2C286.576 15.248 288.176 13.952 290.624 13.952C292.512 13.952 293.952 14.928 293.952 16.368C293.952 17.344 293.504 18.08 292.624 18.544C292.4 17.024 291.2 15.808 289.216 15.808C287.52 15.808 286.352 17.008 286.352 18.304C286.352 19.904 288.032 20.928 290.256 20.928C294.128 20.928 296.048 18.928 296.048 16.4C296.048 14.064 293.984 12.368 291.264 12.368C290.752 12.368 290.272 12.416 289.744 12.544C290.752 11.744 292.432 10.336 293.296 9.728C293.664 9.456 294.048 9.232 294.416 8.992L293.376 7.568C293.184 7.632 292.816 7.68 292.16 7.744C291.248 7.824 287.824 7.888 286.976 7.888C286.528 7.888 285.968 7.872 285.52 7.808Z" fill="white"/>
</svg>
