<?xml version="1.0" encoding="utf-8"?>
<!-- Generator: Adobe Illustrator 25.4.1, SVG Export Plug-In . SVG Version: 6.00 Build 0)  -->
<svg version="1.1" id="Layer_1" xmlns="http://www.w3.org/2000/svg" xmlns:xlink="http://www.w3.org/1999/xlink" x="0px" y="0px"
	 viewBox="0 0 11 9" style="enable-background:new 0 0 11 9;" xml:space="preserve">
<style type="text/css">
	.st0{fill:#F39A7B;}
	.st1{fill-rule:evenodd;clip-rule:evenodd;fill:#F39A7B;}
</style>
<g>
	<g>
		<rect x="0.5" y="8" class="st0" width="10" height="1"/>
	</g>
	<g>
		<path class="st1" d="M1.6,0.6C1.5,0.7,1.5,0.8,1.5,1c0,0.1,0,0.2,0.1,0.3l3.6,4.1c0.1,0.1,0.2,0.1,0.3,0.1c0.1,0,0.2,0,0.3-0.1
			l3.6-4.1c0.2-0.2,0.2-0.5,0-0.7C9.2,0.5,9,0.5,8.8,0.6L5.5,4.4L2.2,0.6C2,0.5,1.8,0.5,1.6,0.6z"/>
		<path class="st0" d="M2.3,0.6l3.2,3.7l3.2-3.7c0.2-0.2,0.5-0.2,0.7,0s0.2,0.6,0,0.8l-3.5,4c-0.2,0.2-0.5,0.2-0.7,0l-3.7-4
			c0-0.1-0.1-0.3-0.1-0.4s0.1-0.3,0.1-0.4c0.1-0.1,0.2-0.2,0.4-0.2l0,0C2,0.4,2.2,0.5,2.3,0.6z M5.7,5.3l3.6-4.1
			c0.1-0.1,0.1-0.4,0-0.5C9.2,0.6,9,0.6,8.9,0.7L5.5,4.5L2.1,0.7c0-0.1-0.1-0.1-0.2-0.1l0,0c-0.1,0-0.2,0-0.2,0.1
			C1.6,0.8,1.6,0.9,1.6,1s0,0.2,0.1,0.3l3.6,4.1c0.1,0.1,0.1,0.1,0.2,0.1S5.7,5.4,5.7,5.3z"/>
	</g>
</g>
</svg>
