<svg width="336" height="50" viewBox="0 0 336 50" fill="none" xmlns="http://www.w3.org/2000/svg">
<path d="M7.9 49.8001L1 35.4001L7 32.5001L6.8 30.7001L8.5 29.9001L8.7 31.7001L16.1 28.1001L23 42.4001L7.9 49.8001ZM15.2 30.3001L3.2 36.1001L4.6 39.1001L16.6 33.3001L15.2 30.3001ZM17.3 34.6001L5.3 40.4001L6.7 43.4001L18.7 37.6001L17.3 34.6001ZM19.3 38.9001L7.3 44.7001L8.7 47.7001L20.8 41.9001L19.3 38.9001Z" fill="white" stroke="white" stroke-width="0.25" stroke-miterlimit="10"/>
<path d="M37.3004 37.4999L34.2004 38.5999L33.6004 36.9999L36.6004 35.8999C37.4004 35.5999 37.8004 34.6999 37.5004 33.8999L35.6004 28.5999L29.0004 30.9999C29.9004 35.0999 28.9004 39.5999 25.5004 41.7999L24.9004 40.1999C27.4004 38.1999 28.0004 34.9999 27.3004 31.5999L23.1004 33.0999L22.5004 31.5999C22.2004 31.8999 21.8004 32.1999 21.5004 32.4999L20.9004 30.7999C22.8004 29.0999 24.1004 26.3999 23.8004 23.4999L25.6004 22.8999C26.0004 26.0999 24.7004 29.4999 22.6004 31.6999L36.7004 26.5999L39.2004 33.4999C39.8004 35.0999 39.0004 36.8999 37.3004 37.4999ZM29.0004 21.4999L30.8004 20.8999C32.5004 23.2999 35.2004 24.5999 37.7004 24.6999L38.3004 26.3999C34.9004 26.4999 31.1004 24.5999 29.0004 21.4999Z" fill="white" stroke="white" stroke-width="0.25" stroke-miterlimit="10"/>
<path d="M45.6996 19.1C43.1996 19.8 41.6996 20.1 40.5996 20.1L40.0996 18.4C41.1996 18.4 42.7996 18.1 45.1996 17.5C46.5996 17.1 52.8996 15.4 54.2996 15L54.7996 16.6C53.2996 17 46.8996 18.8 45.6996 19.1ZM50.0996 33L45.7996 34.2L45.2996 32.5L49.5996 31.3C56.1996 29.4 57.3996 27.1 56.6996 24.7C56.2996 23.2 54.5996 21.7 51.1996 22.6C47.8996 23.5 45.7996 25.2 44.2996 28.6L42.5996 29.1L41.2996 21.2L42.9996 20.7L43.8996 26.4C45.1996 23.7 47.5996 21.9 50.7996 21C55.1996 19.8 57.7996 21.5 58.4996 24.2C59.4996 27.6 57.9996 30.8 50.0996 33Z" fill="white" stroke="white" stroke-width="0.25" stroke-miterlimit="10"/>
<path d="M70.3004 27.9C65.5004 28.9 63.1004 27.5 62.1004 23L59.9004 13.1L61.7004 12.7L63.8004 22.3C64.6004 26 66.5004 26.8 70.0004 26.1C74.2004 25.2 76.0004 21.6 74.8004 15.9L76.7004 15.5C78.1004 22.3 75.8004 26.7 70.3004 27.9Z" fill="white" stroke="white" stroke-width="0.25" stroke-miterlimit="10"/>
<path d="M86.2004 24.8001C82.2004 25.5001 81.2004 20.0001 80.7004 17.0001C80.7004 16.9001 80.7004 16.8001 80.7004 16.7001C80.3004 14.0001 80.0004 11.3001 79.9004 9.1001L81.7004 8.9001C81.8004 11.2001 82.0004 13.8001 82.5004 16.4001C82.6004 17.2001 82.8004 17.9001 82.9004 18.7001C83.6004 22.0001 84.6004 23.1001 86.1004 22.9001C87.9004 22.6001 89.9004 20.0001 90.6004 18.5001L91.0004 21.1001C90.0004 22.6001 88.1004 24.5001 86.2004 24.8001ZM96.4004 20.4001C95.2004 14.7001 93.3004 10.6001 91.2004 8.9001L93.2004 8.6001C95.2004 10.3001 97.0004 14.3001 98.3004 20.1001L96.4004 20.4001Z" fill="white" stroke="white" stroke-width="0.25" stroke-miterlimit="10"/>
<path d="M99.7004 13.8001L99.5004 12.2001L101.4 12.0001C101.2 10.8001 100.8 8.9001 100.3 7.7001L99.6004 7.8001L99.4004 6.2001L103 5.8001L102.8 4.7001L104.5 4.5001L104.6 5.6001L108.2 5.2001L108.4 6.8001L107.6 6.9001V11.3001L109.5 11.1001L109.7 12.7001L99.7004 13.8001ZM101.3 22.6001L100.4 15.4001L109.3 14.3001L110.2 21.5001L101.3 22.6001ZM101.9 7.5001C102.3 8.7001 102.8 10.5001 103 11.8001L106.1 11.4001V7.0001L101.9 7.5001ZM107.8 16.0001L102.2 16.7001L102.7 20.9001L108.3 20.2001L107.8 16.0001ZM115.2 19.8001L113.9 20.0001L113.7 18.2001L114.9 18.1001C115.9 18.0001 116.5 17.2001 116.3 15.5001C116 13.3001 115.5 12.4001 113.7 11.3001C114.8 9.7001 115 8.6001 114.6 5.4001L111.3 5.8001L113.2 21.6001L111.5 21.8001L109.4 4.4001L115.9 3.6001L116.1 5.2001C116.5 8.4001 116.2 9.7001 115.5 10.8001C116.8 11.7001 117.5 12.9001 117.8 15.5001C118.3 18.4001 117.3 19.5001 115.2 19.8001Z" fill="white" stroke="white" stroke-width="0.25" stroke-miterlimit="10"/>
<path d="M122 7.3999L122.3 11.0999C122.6 14.4999 122.1 18.5999 120.3 20.5999L120.1 17.6999C120.8 16.4999 120.9 13.6999 120.7 11.0999L120.1 2.9999L136.5 1.8999L136.8 6.2999L122 7.3999ZM134.9 3.2999L121.7 4.2999L121.8 6.0999L135 5.0999L134.9 3.2999ZM122.9 20.1999L122.8 18.8999L129.8 18.3999L129.7 16.5999L123.2 17.0999L123.1 15.7999L129.6 15.2999L129.5 13.4999C128.8 13.5999 128 13.5999 127 13.6999L123.7 13.9999L123.6 12.5999C124.2 12.5999 124.7 12.4999 125.1 12.4999L126 10.0999L123.4 10.2999L123.3 8.9999L136.7 7.9999L136.8 9.2999L135.1 9.3999L137.2 12.8999L135.5 12.9999L135 12.0999C133.8 12.5999 132.8 12.9999 131.2 13.1999L131.3 15.0999L137.3 14.5999L137.4 15.8999L131.4 16.3999L131.5 18.1999L138 17.6999L138.1 18.9999L122.9 20.1999ZM133.4 9.4999L127.7 9.8999L126.8 12.2999C131.1 11.9999 132.6 11.7999 134.2 10.9999L133.4 9.4999Z" fill="white" stroke="white" stroke-width="0.25" stroke-miterlimit="10"/>
<path d="M143.2 8H143.6L144 19L142.3 19.1L142 10.1C141.4 10.9 140.6 11.6 139.6 12.1L139.5 9.9C141.5 8.7 142.8 5.4 142.6 1.2L144.4 1.1C144.5 3.6 144.1 6 143.2 8ZM152.1 4.4L152.2 7.8L156.7 7.6L156.8 9.2L152.3 9.4L152.4 12.8L156.9 12.6L157 14.2L152.5 14.4L152.7 18.6L150.9 18.7L150.4 4.4L148.6 4.5C148.3 6.6 147.8 8.7 147.3 9.7L145.5 9.8C146.4 8 147.2 3.7 147.1 1.1L148.8 1C148.8 1.6 148.8 2.2 148.7 2.9L157.1 2.6L157.2 4.2L152.1 4.4Z" fill="white" stroke="white" stroke-width="0.25" stroke-miterlimit="10"/>
<path d="M165.8 18H164V16.2H165.9C171.5 16.2 174.2 14 174.1 9.59995C174.1 5.19995 172.1 3.09995 168.9 3.19995C165.2 3.19995 163.3 5.89995 162.7 8.29995V12.2H161L160.9 1.19995H162.6V5.19995C163.4 3.59995 165.4 1.39995 168.8 1.39995C172.7 1.39995 175.9 3.69995 175.9 9.59995C176.1 15.1 172.5 17.9 165.8 18Z" fill="white" stroke="white" stroke-width="0.25" stroke-miterlimit="10"/>
<path d="M187.2 18.1999C182.7 17.9999 179.8 16.5999 179.9 12.5999C180 10.5999 181.2 8.5999 184.1 7.2999L183.4 1.3999L185.3 1.4999L185.9 6.6999C186.3 6.5999 186.7 6.4999 187.1 6.3999C190.3 5.6999 193.6 5.3999 196.7 5.2999L196.6 7.1999C193.7 7.1999 190.1 7.5999 187.4 8.1999C183.5 9.0999 181.9 10.6999 181.8 12.7999C181.7 15.6999 184 16.4999 187.4 16.6999L196.3 16.9999L196.2 18.6999L187.2 18.1999Z" fill="white" stroke="white" stroke-width="0.25" stroke-miterlimit="10"/>
<path d="M216 16.2L215.7 20.3L199.8 19.1L200.1 15C199.8 15 199.5 15 199.1 15L199.2 13.5C201 13.6 202.5 13.3 203.7 12.6L199.3 12.3L199.4 11.1L205.2 11.5C205.5 11.2 205.8 10.8 206 10.4L200.1 10L200.5 4.80005L203.9 5.10005L204 4.10005L200 3.80005L200.1 2.50005L204.1 2.80005L204.2 1.80005L205.9 1.90005L205.8 2.90005L212.3 3.40005L212.4 2.40005L214.1 2.50005L214 3.50005L218 3.80005L217.8 5.10005L213.8 4.80005L213.7 5.80005L217.1 6.10005L216.7 11.3L207.7 10.6C207.5 11 207.3 11.4 207 11.7L217.2 12.5L217.1 13.7L212.7 13.4C213.7 14.4 215.2 14.8 217 15L216.9 16.4C216.7 16.3 216.3 16.3 216 16.2ZM214.2 18L201.6 17.1L201.5 18.3L214.1 19.3L214.2 18ZM214.4 15.8L201.8 14.9L201.7 16.1L214.3 17L214.4 15.8ZM215.3 9.00005L202 8.00005L201.8 9.20005L215.1 10.2L215.3 9.00005ZM215.4 6.90005L202.1 5.90005L202 7.00005L215.3 8.00005L215.4 6.90005ZM210.9 13.2L206 12.8C205.5 13.3 204.8 13.7 204.2 14L212.4 14.6C211.8 14.3 211.3 13.8 210.9 13.2ZM212.2 4.60005L205.7 4.10005L205.6 5.10005L212.1 5.60005L212.2 4.60005Z" fill="white" stroke="white" stroke-width="0.25" stroke-miterlimit="10"/>
<path d="M225.7 21.1L221.2 20.6L221.4 18.9L225.9 19.4C232.8 20.2 234.7 18.5 235 16C235.2 14.4 234.2 12.4 230.7 12C227.3 11.6 224.7 12.3 222 14.9L220.3 14.7L222.1 6.90005L223.9 7.10005L222.5 12.7C224.7 10.7 227.7 9.90005 231 10.3C235.6 10.8 237.2 13.5 236.9 16.2C236.3 19.8 233.8 22.1 225.7 21.1ZM226.8 6.60005C224.2 6.30005 222.7 6.00005 221.7 5.50005L221.9 3.80005C222.9 4.30005 224.5 4.60005 226.9 4.90005C228.3 5.10005 234.9 5.90005 236.3 6.00005L236.1 7.70005C234.7 7.50005 228.1 6.80005 226.8 6.60005Z" fill="white" stroke="white" stroke-width="0.25" stroke-miterlimit="10"/>
<path d="M246.3 24C241.5 23.2 239.7 21 240.5 16.5L242.1 6.5L243.9 6.8L242.3 16.5C241.7 20.2 243.1 21.7 246.7 22.3C250.9 23 253.9 20.4 254.9 14.6L256.8 14.9C255.6 21.7 251.8 24.9 246.3 24Z" fill="white" stroke="white" stroke-width="0.25" stroke-miterlimit="10"/>
<path d="M273.2 20.6C273.2 20.9001 273.2 21.1 273.1 21.4L272.4 24.7L270.7 24.3L271.3 21.3C271.4 21 271.4 20.8 271.4 20.5C266.6 20.6 263.9 21.6 263.6 23.3C263.3 24.6 264 25.4 266.4 25.9L274.4 27.6L274 29.2L265.9 27.5C262.2 26.7001 261.2 25.1 261.7 23C262.2 20.5 265.3 19 271.1 18.8C270.7 17.9 269.8 17.2 268.6 16.9C265.8 16.3 263.8 17 262.7 18C262.1 18.5 260.3 20 259.1 20.9L259.6 18.5C261.2 17.3 263.1 15.3 264.5 12.9L261.4 12.2L261.7 10.6L265.2 11.4C265.4 11 265.5 10.7 265.6 10.3L267.4 10.7C267.2 11.1 267.1 11.5 267 11.8L277.2 14L276.9 15.6L266.3 13.3C265.7 14.4 265 15.2 264.5 16C265.8 15.5 267.5 15.4 269.3 15.8C271.2 16.2 272.6 17.3 273.1 18.8C274.2 18.8 275.4 18.9 276.6 18.9L276.2 20.6C275.1 20.7001 274.1 20.6 273.2 20.6Z" fill="white" stroke="white" stroke-width="0.25" stroke-miterlimit="10"/>
<path d="M287.1 28.4999L285.8 33.0999L284.2 32.6999L285.5 28.0999C283.4 29.8999 280.1 30.9999 276.4 30.3999L276.8 28.7999C279.9 29.2999 282.3 28.4999 284.1 27.1999L277.8 25.3999L278.2 23.8999L286 26.0999L286.3 24.9999L283.2 24.0999L285.5 15.7999L287.9 16.4999L288.9 15.4999L290.6 15.9999L289.6 16.9999L293.3 17.9999L291 26.2999L287.9 25.3999L287.6 26.4999L295.4 28.6999L295 30.1999L288.7 28.3999C289.6 30.3999 291.2 32.3999 294.1 33.5999L293.7 35.1999C290.3 33.7999 288 31.1999 287.1 28.4999ZM278.5 22.7999L279 21.0999C280.4 21.1999 282.4 20.3999 283.7 19.4999L283.2 21.3999C282.1 22.1999 280.3 22.7999 278.5 22.7999ZM280.5 15.5999L281 13.8999L284.3 17.3999L283.8 19.0999L280.5 15.5999ZM290.5 22.3999L285.8 21.0999L285.2 23.2999L289.9 24.5999L290.5 22.3999ZM291.4 18.9999L286.7 17.6999L286.1 19.8999L290.8 21.1999L291.4 18.9999ZM292.5 23.9999L293 22.2999L296.2 25.8999L295.7 27.5999L292.5 23.9999ZM293.2 21.5999L293.7 19.8999L298.3 18.5999L297.8 20.2999L293.2 21.5999Z" fill="white" stroke="white" stroke-width="0.25" stroke-miterlimit="10"/>
<path d="M303.3 38.1C298.7 36.4 297.4 33.9 299 29.6L302.4 20L304.2 20.6L300.9 29.9C299.6 33.4 300.8 35.1 304.1 36.4C308.1 37.9 311.5 35.8 313.6 30.3L315.4 30.9C312.8 37.5 308.5 40 303.3 38.1Z" fill="white" stroke="white" stroke-width="0.25" stroke-miterlimit="10"/>
<path d="M324.2 46.9L321.1 45.4C318.7 44.2 318.1 43 318.6 42C318.2 42.1 317.7 42 317.3 41.8C316 41.2 315.1 39.7 316.4 36.9C317.7 34.2 319.9 33 321.9 33.9C322.5 34.2 322.7 34.6 322.9 35L324.5 31.7L320.5 29.8L321.2 28.2L325.2 30.1L325.8 28.9L327.4 29.7L326.8 30.9L331.5 33.1L330.8 34.7L326.1 32.5L323.5 37.9C322.8 39.4 322 40.2 321.1 41.1C320.9 41.3 320.8 41.5 320.7 41.6C320.4 42.3 320.7 43.2 322.7 44.1L324.9 45.2C327.6 46.5 328.5 46.3 329.7 43.7L331.6 39.8L333.2 40.6L331.2 44.8C329.6 48.3 327.8 48.6 324.2 46.9ZM321.7 37.4C322.1 36.6 322 35.7 321.2 35.3C320.1 34.8 318.7 35.7 317.8 37.6C317.1 39 317.5 39.8 318.3 40.2C319.1 40.6 320.6 39.7 321.5 37.9L321.7 37.4ZM332.4 38.3C333.5 36 334 34.2 334.1 33.2L335.7 33.9C335.6 34.9 335.2 36.6 334 39L332.4 38.3Z" fill="white" stroke="white" stroke-width="0.25" stroke-miterlimit="10"/>
</svg>
