<svg width="53" height="50" viewBox="0 0 53 50" fill="none" xmlns="http://www.w3.org/2000/svg">
<g clip-path="url(#clip0)">
<path d="M21.2952 22.3166C22.4713 22.3166 23.4247 21.3632 23.4247 20.1871C23.4247 19.011 22.4713 18.0576 21.2952 18.0576C20.1192 18.0576 19.1658 19.011 19.1658 20.1871C19.1658 21.3632 20.1192 22.3166 21.2952 22.3166Z" fill="#8C7D60"/>
<path d="M34.0721 22.3166C35.2482 22.3166 36.2016 21.3632 36.2016 20.1871C36.2016 19.011 35.2482 18.0576 34.0721 18.0576C32.896 18.0576 31.9426 19.011 31.9426 20.1871C31.9426 21.3632 32.896 22.3166 34.0721 22.3166Z" fill="#8C7D60"/>
<path d="M19.6768 26.5762C19.4213 26.5762 19.1658 26.7465 19.1658 27.0021C19.1658 27.0872 19.1658 27.0872 19.1658 27.1724C19.5065 31.8573 23.5951 35.4348 28.2799 35.0941C32.5389 34.7533 35.8608 31.4314 36.2015 27.1724C36.2015 26.8317 36.0312 26.5762 35.6905 26.5762H19.6768Z" fill="#8C7D60"/>
<path d="M52.13 24.7874C52.2151 11.4143 41.3974 0.341038 27.9392 0.255859C27.854 0.255859 27.7688 0.255859 27.7688 0.255859C21.2952 0.255859 15.2475 2.72605 10.6478 7.24053C8.26284 9.54036 6.47408 12.3513 5.1964 15.3325C2.04478 17.2065 0.000488281 20.6136 0.000488281 24.4467C0.000488281 29.2167 3.23729 33.4756 7.83694 34.6681C8.09248 34.7533 8.4332 34.5829 8.51838 34.2422V34.1571V18.8249C9.45534 15.6732 11.2441 12.692 13.6291 10.307C17.4622 6.5591 22.5729 4.5148 27.854 4.5148C38.9272 4.59998 47.871 13.7141 47.7858 24.7874C47.7007 33.7312 41.7381 41.3973 33.561 43.8674C32.8795 42.4194 31.4315 41.4824 29.7279 41.4824H25.469H25.3838C23.084 41.4824 21.21 43.4416 21.21 45.7414V45.8266C21.21 48.1264 23.1691 50.0003 25.469 50.0003H29.7279C31.0908 50.0003 32.2833 49.3189 33.0499 48.3819C43.9528 45.9117 52.0448 36.2865 52.13 24.7874Z" fill="#8C7D60"/>
</g>
<defs>
<clipPath id="clip0">
<rect width="52.1295" height="50" fill="white" transform="translate(0.000488281)"/>
</clipPath>
</defs>
</svg>
