<?xml version="1.0" encoding="utf-8"?>
<!-- Generator: Adobe Illustrator 25.0.0, SVG Export Plug-In . SVG Version: 6.00 Build 0)  -->
<svg version="1.1" id="Layer_1" xmlns="http://www.w3.org/2000/svg" xmlns:xlink="http://www.w3.org/1999/xlink" x="0px" y="0px"
	 viewBox="0 0 20 20" style="enable-background:new 0 0 20 20;" xml:space="preserve">
<style type="text/css">
	.st0{fill:#333333;}
</style>
<path class="st0" d="M15,17.5H5c-0.7,0-1.2,0.6-1.2,1.2S4.3,20,5,20h10c0.7,0,1.2-0.6,1.2-1.2S15.7,17.5,15,17.5z"/>
<path class="st0" d="M10,16.2c0.4,0,0.8-0.2,1-0.5c0.5-0.7,4.6-6.6,4.6-10.3c0-3-2.5-5.4-5.6-5.4C6.9,0,4.4,2.4,4.4,5.4
	c0,3.7,4.1,9.7,4.6,10.3C9.2,16.1,9.6,16.2,10,16.2z M8.1,5.6c0-1,0.8-1.9,1.9-1.9c1,0,1.9,0.8,1.9,1.9c0,1-0.8,1.9-1.9,1.9
	C9,7.5,8.1,6.7,8.1,5.6z"/>
</svg>
