<svg width="169" height="40" viewBox="0 0 169 40" fill="none" xmlns="http://www.w3.org/2000/svg">
<path d="M14.0272 23.6205C13.0317 24.6159 11.7648 25.1589 10.3168 25.1589C8.95934 25.1589 7.60187 24.6159 6.6064 23.6205C5.61092 22.625 5.06794 21.358 5.06794 19.91C5.06794 18.5526 5.61092 17.1951 6.6064 16.1996C7.60187 15.2042 8.86884 14.6612 10.3168 14.6612C11.6743 14.6612 13.0317 15.2042 14.0272 16.1996L15.9277 18.1001L28.5068 5.52091C25.9729 4.07295 23.077 3.16797 19.9096 3.16797C10.6788 3.16797 3.16748 10.6793 3.16748 19.91C3.16748 29.1408 10.6788 36.6521 19.9096 36.6521C23.077 36.6521 25.9729 35.8376 28.5068 34.2992L15.9277 21.72L14.0272 23.6205Z" fill="#8C7D60"/>
<path d="M25.1586 23.6195C24.7061 24.072 24.1631 24.434 23.6201 24.7055L22.8057 25.0675L30.6789 32.9408C32.0364 31.7643 33.2129 30.4068 34.2084 28.9589L27.059 21.8096L25.1586 23.6195Z" fill="#8C7D60"/>
<path d="M35.3842 26.5154C36.1986 24.5244 36.7416 22.262 36.7416 19.9091C36.7416 17.5561 36.2891 15.3842 35.3842 13.3027L28.7778 19.9091L35.3842 26.5154Z" fill="#8C7D60"/>
<path d="M23.6201 15.2034C24.2536 15.4749 24.7061 15.8369 25.1586 16.2894L27.059 18.1898L34.2084 11.0405C33.2129 9.50205 32.0364 8.14457 30.6789 7.05859L22.8057 14.9319L23.6201 15.2034Z" fill="#8C7D60"/>
<path d="M21.4478 17.2852C20.7239 17.2852 20.0904 17.5566 19.5474 18.0996C18.5519 19.0951 18.5519 20.8146 19.5474 21.9005C20.0904 22.4435 20.7239 22.715 21.4478 22.715C22.1718 22.715 22.8053 22.4435 23.3483 21.9005L25.2487 20.0001L23.3483 18.0996C22.8958 17.5566 22.1718 17.2852 21.4478 17.2852Z" fill="#8C7D60"/>
<path d="M10.317 17.2852C9.593 17.2852 8.95951 17.5566 8.41653 18.0996C7.42105 19.0951 7.42105 20.8146 8.41653 21.9005C8.95951 22.4435 9.593 22.715 10.317 22.715C11.041 22.715 11.6744 22.4435 12.2174 21.9005L14.1179 20.0001L12.2174 18.0996C11.7649 17.5566 11.041 17.2852 10.317 17.2852Z" fill="#8C7D60"/>
<path d="M20 40C8.95928 40 0 31.0407 0 20C0 8.95928 8.95928 0 20 0C31.0407 0 40 8.95928 40 20C40 30.9502 31.0407 40 20 40ZM20 1.17646C9.68326 1.17646 1.26698 9.59276 1.26698 19.9095C1.26698 30.2262 9.68326 38.6425 20 38.6425C30.3167 38.6425 38.733 30.2262 38.733 19.9095C38.733 9.59276 30.3167 1.17646 20 1.17646Z" fill="#8C7D60"/>
<path d="M50.9504 8.50781H54.9323V26.9693H63.982V30.5892H50.8599V8.50781H50.9504Z" fill="#8C7D60"/>
<path d="M69.6832 29.6838C68.5067 28.9598 67.5113 27.9643 66.8778 26.6973C66.2443 25.4304 65.8823 24.0729 65.8823 22.6249C65.8823 21.177 66.2443 19.729 66.8778 18.462C67.5113 17.1951 68.4162 16.1996 69.6832 15.4756C70.8597 14.7517 72.3077 14.3896 74.0271 14.3896C75.6561 14.3896 77.104 14.7517 78.371 15.4756C79.5475 16.1996 80.5429 17.1951 81.1764 18.462C81.8099 19.729 82.1719 21.0865 82.1719 22.6249C82.1719 24.0729 81.8099 25.5209 81.1764 26.6973C80.5429 27.9643 79.638 28.9598 78.371 29.6838C77.1945 30.4077 75.7466 30.7697 74.0271 30.7697C72.3077 30.7697 70.8597 30.4077 69.6832 29.6838ZM77.0135 26.2449C77.7375 25.3399 78.0995 24.1634 78.0995 22.6249C78.0995 21.0865 77.7375 19.91 77.0135 19.005C76.2895 18.1001 75.2941 17.6476 74.0271 17.6476C72.7601 17.6476 71.7647 18.1001 71.0407 19.005C70.3167 19.91 69.9547 21.0865 69.9547 22.6249C69.9547 24.0729 70.3167 25.3399 71.0407 26.2449C71.7647 27.1498 72.7601 27.6023 74.0271 27.6023C75.2941 27.6023 76.2895 27.1498 77.0135 26.2449Z" fill="#8C7D60"/>
<path d="M86.3347 37.1954C84.9772 36.3809 84.3438 35.2949 84.3438 33.9375C84.3438 32.399 85.1582 31.2225 86.8777 30.2271C85.9727 29.6841 85.5202 28.9601 85.5202 27.9646C85.5202 27.5121 85.7012 27.0596 85.9727 26.6977C86.2442 26.3357 86.6062 25.9737 87.1492 25.7927C86.3347 25.2497 85.7917 24.5257 85.3392 23.6207C84.8867 22.7158 84.7057 21.8108 84.7057 20.7248C84.7057 19.5483 84.9772 18.5529 85.4297 17.5574C85.9727 16.5619 86.6967 15.8379 87.6017 15.2949C88.5971 14.752 89.6831 14.4805 91.0406 14.4805C92.398 14.4805 93.5745 14.8425 94.6605 15.4759C95.0225 15.295 95.475 15.114 96.1085 15.0235C96.7419 14.8425 97.3754 14.8425 98.0089 14.8425H99.0044L98.7329 17.2859H97.2849C96.9229 17.2859 96.6514 17.2859 96.3799 17.2859C97.0134 18.2814 97.2849 19.3673 97.2849 20.7248C97.2849 21.9013 97.0134 22.8967 96.5609 23.8922C96.1085 24.8877 95.294 25.6117 94.389 26.1547C93.3935 26.6977 92.3075 26.9691 90.9501 26.9691C90.4976 26.9691 89.9546 26.8787 89.3211 26.7882C89.0496 26.8787 88.9591 27.0597 88.9591 27.3312C88.9591 27.6026 89.1401 27.7836 89.4116 27.9646C89.7736 28.1456 90.3166 28.2361 91.0406 28.3266L93.7555 28.6886C97.3754 29.1411 99.1854 30.6796 99.1854 33.2135C99.1854 34.8425 98.5519 36.1094 97.1944 37.0144C95.8369 37.9194 93.9365 38.4624 91.5836 38.4624C89.5021 38.4624 87.6921 38.0099 86.3347 37.1954ZM95.8369 33.485C95.8369 32.942 95.5655 32.4895 95.113 32.218C94.6605 31.9465 93.846 31.675 92.8505 31.5845L89.4116 31.0415C88.2352 31.494 87.6017 32.218 87.6017 33.2135C87.6017 33.9375 87.9636 34.571 88.6876 34.933C89.4116 35.2949 90.4976 35.4759 91.7645 35.4759C94.4795 35.4759 95.8369 34.8425 95.8369 33.485ZM93.2125 23.1683C93.665 22.5348 93.9365 21.7203 93.9365 20.7248C93.9365 19.6388 93.665 18.8244 93.2125 18.2814C92.76 17.6479 92.0361 17.3764 91.1311 17.3764C90.2261 17.3764 89.5021 17.6479 89.0496 18.2814C88.5971 18.9149 88.3256 19.7293 88.3256 20.7248C88.3256 21.8108 88.5971 22.6253 89.0496 23.1683C89.5021 23.8017 90.2261 24.0732 91.1311 24.0732C91.9456 24.0732 92.6695 23.8017 93.2125 23.1683Z" fill="#8C7D60"/>
<path d="M102.896 8.5075H106.878V30.4985H102.896V8.5075ZM107.24 18.8242L115.385 8.41699H120.091L111.855 18.8242L120.091 30.4985H115.385L107.24 18.8242Z" fill="#8C7D60"/>
<path d="M123.439 14.752H127.059L127.149 15.8379C128.507 14.933 129.864 14.4805 131.403 14.4805C133.394 14.4805 134.842 15.114 135.837 16.4714C136.833 17.7384 137.376 19.5483 137.376 21.7203V30.4986H133.484V22.0823C133.484 20.6343 133.213 19.5483 132.76 18.8243C132.308 18.1004 131.493 17.7384 130.407 17.7384C129.231 17.7384 128.235 18.1909 127.421 19.0959V30.4986H123.529V14.752H123.439Z" fill="#8C7D60"/>
<path d="M144.525 29.6838C143.348 28.9598 142.353 27.9643 141.719 26.6973C141.086 25.4304 140.724 24.0729 140.724 22.6249C140.724 21.177 141.086 19.729 141.719 18.462C142.353 17.1951 143.258 16.1996 144.525 15.4756C145.701 14.7517 147.149 14.3896 148.868 14.3896C150.497 14.3896 151.945 14.7517 153.212 15.4756C154.389 16.1996 155.384 17.1951 156.018 18.462C156.651 19.729 157.013 21.0865 157.013 22.6249C157.013 24.0729 156.651 25.5209 156.018 26.6973C155.384 27.9643 154.479 28.9598 153.212 29.6838C152.036 30.4077 150.588 30.7697 148.868 30.7697C147.149 30.7697 145.701 30.4077 144.525 29.6838ZM151.855 26.2449C152.579 25.3399 152.941 24.1634 152.941 22.6249C152.941 21.0865 152.579 19.91 151.855 19.005C151.131 18.1001 150.135 17.6476 148.868 17.6476C147.601 17.6476 146.606 18.1001 145.882 19.005C145.158 19.91 144.796 21.0865 144.796 22.6249C144.796 24.0729 145.158 25.3399 145.882 26.2449C146.606 27.1498 147.601 27.6023 148.868 27.6023C150.135 27.6023 151.131 27.1498 151.855 26.2449Z" fill="#8C7D60"/>
<path d="M162.172 29.5937C161.448 28.7792 161.086 27.7837 161.086 26.6978V18.01H158.823L159.185 14.8426H161.086V11.4037L164.977 10.9512V14.8426H168.416V18.01H164.977V25.1593C164.977 25.9738 165.068 26.6073 165.158 26.8788C165.249 27.2408 165.43 27.4217 165.792 27.5122C166.154 27.6027 166.606 27.6932 167.421 27.6932H168.507L168.145 30.8607H165.339C163.982 30.7702 162.896 30.4082 162.172 29.5937Z" fill="#8C7D60"/>
</svg>
