<svg width="16" height="18" viewBox="0 0 16 18" fill="none" xmlns="http://www.w3.org/2000/svg">
<g clip-path="url(#clip0)">
<path d="M14.6671 16.5V14.8333C14.6671 13.9493 14.3159 13.1014 13.6908 12.4763C13.0656 11.8512 12.2178 11.5 11.3337 11.5H4.66707C3.78302 11.5 2.93517 11.8512 2.31005 12.4763C1.68493 13.1014 1.33374 13.9493 1.33374 14.8333V16.5" stroke="#333333" stroke-width="2" stroke-linecap="round" stroke-linejoin="round"/>
<path d="M8.00057 8.16667C9.84152 8.16667 11.3339 6.67428 11.3339 4.83333C11.3339 2.99238 9.84152 1.5 8.00057 1.5C6.15962 1.5 4.66724 2.99238 4.66724 4.83333C4.66724 6.67428 6.15962 8.16667 8.00057 8.16667Z" stroke="#333333" stroke-width="2" stroke-linecap="round" stroke-linejoin="round"/>
</g>
<defs>
<clipPath id="clip0">
<rect width="16" height="18" fill="white" transform="translate(0.000488281)"/>
</clipPath>
</defs>
</svg>
